<?xml version="1.0" encoding="UTF-8" standalone="no"?>
<!-- Created with Inkscape (http://www.inkscape.org/) -->

<svg
   width="56.392433mm"
   height="77.928627mm"
   viewBox="0 0 56.392433 77.928627"
   version="1.1"
   id="svg1"
   xmlns="http://www.w3.org/2000/svg"
   xmlns:svg="http://www.w3.org/2000/svg">
  <defs
     id="defs1" />
  <g
     id="layer1"
     transform="translate(-37.570834,-61.647902)">
    <path
       d="m 37.570839,77.522903 c 0,15.628057 0,15.910279 0.881944,20.108335 4.127501,19.438052 12.770557,33.796112 24.341669,40.393062 l 2.716389,1.55222 1.305277,-0.59972 c 2.892778,-1.30528 7.090834,-4.40973 10.01889,-7.44362 6.773334,-7.02027 12.065001,-17.39194 15.204723,-29.88028 1.940278,-7.761107 1.975556,-8.325551 1.905,-24.659164 L 93.838898,61.824291 65.722507,61.718458 37.570839,61.647902 Z m 54.962781,2.363611 -0.105833,16.157224 -1.481667,5.468052 c -1.728611,6.45584 -3.033889,10.12473 -5.432778,15.16945 -4.445,9.31333 -10.689168,16.26306 -17.921112,19.89667 -2.257778,1.16416 -2.540001,1.09361 -7.126112,-1.97556 -8.890001,-5.92667 -15.769168,-17.28611 -20.002501,-33.05528 l -1.27,-4.797777 -0.141111,-16.510001 -0.105834,-16.474723 h 26.846391 26.84639 z"
       id="path33"
       style="stroke-width:0.0352778" />
    <path
       d="m 41.380839,66.234014 c 1.023056,0.9525 1.975556,1.763889 2.116667,1.763889 0.141111,0 1.058333,-0.811389 2.010833,-1.763889 l 1.728612,-1.763889 h -3.845278 -3.845279 z"
       id="path34"
       style="stroke-width:0.0352778" />
    <path
       d="m 45.755284,66.339847 c -1.023056,1.023056 -1.834445,1.975556 -1.834445,2.081389 0,0.352778 3.951112,3.316111 6.738056,5.044722 l 2.504723,1.516945 2.328333,-1.164167 c 3.210278,-1.622778 6.385278,-2.398889 9.948334,-2.434167 3.986389,-0.03528 6.879167,0.635001 10.512778,2.469445 l 3.03389,1.516945 2.822222,-1.905001 c 1.5875,-1.058333 3.563056,-2.54 4.445,-3.316111 l 1.5875,-1.375833 -2.116666,-2.151945 -2.08139,-2.151944 H 65.616674 47.589728 Z m 10.724445,-0.458611 c 0.246944,-0.246945 0.670278,-0.141111 1.305278,0.352778 0.9525,0.740833 0.9525,0.740833 0.9525,0.07055 0,-1.023055 0.740833,-1.164167 1.693333,-0.3175 l 0.776111,0.705556 0.881945,-0.811389 c 0.493889,-0.458611 0.881944,-0.670278 0.881944,-0.458611 0,0.176389 -0.3175,0.635 -0.705555,0.987777 l -0.705556,0.635001 0.776111,0.846666 0.776112,0.846667 -0.952501,0.917222 -0.917222,0.9525 -0.917222,-0.846666 -0.881945,-0.811389 v 0.811389 0.811389 L 58.561118,69.761792 C 57.785007,69.020958 57.749729,68.879847 58.20834,68.35068 58.666951,67.821514 58.631673,67.680403 57.855562,66.939569 L 56.973618,66.12818 v 2.046111 c 0,1.622778 -0.105834,1.975556 -0.423334,1.658056 -0.3175,-0.3175 -0.564444,-0.282222 -1.058333,0.176389 -0.352778,0.3175 -0.635,0.388056 -0.635,0.211667 0,-0.564445 0.987778,-1.27 1.411111,-0.987778 0.211667,0.141111 0.352778,-0.282222 0.352778,-1.128889 0,-1.058333 -0.176389,-1.411111 -0.776111,-1.693334 -0.423334,-0.211666 -0.846667,-0.599722 -0.917222,-0.881944 -0.141112,-0.423333 -0.03528,-0.388056 0.529166,0.07056 0.458611,0.423333 0.811389,0.493888 1.023056,0.282222 z m 9.701389,2.998611 c 0.9525,-0.917222 0.846667,-0.105833 -0.141111,0.811389 l -0.811389,0.776111 -1.058333,-1.128889 c -0.564445,-0.635 -0.705556,-0.881944 -0.282222,-0.529166 0.388055,0.3175 0.846666,0.599722 0.9525,0.599722 0.141111,0 0.282222,-0.917222 0.3175,-2.046111 l 0.07055,-2.010834 0.105834,2.081389 c 0.141111,2.010834 0.141111,2.046111 0.846666,1.446389 z m 2.046112,0.03528 c 0.493889,-0.599722 0.564444,-0.599722 0.987777,0 0.388056,0.529167 0.458612,0.352778 0.458612,-1.375834 0,-1.093611 0.176389,-2.010833 0.352777,-2.010833 0.211667,0 0.352778,0.917222 0.352778,2.010833 v 2.010834 l 0.776111,-0.740833 c 0.740834,-0.776112 0.740834,-0.811389 0.105834,-1.516945 -0.917223,-0.987778 -0.458611,-1.234722 0.458611,-0.246944 l 0.776111,0.811388 -1.234722,1.199445 c -1.164167,1.128889 -1.27,1.164167 -1.834445,0.599722 -0.564444,-0.564444 -0.635,-0.529166 -1.411111,0.176389 l -0.811389,0.740834 0.07056,-2.610556 0.03528,-2.610556 0.211667,2.081389 c 0.176389,1.905 0.246944,2.046111 0.705556,1.481667 z m 6.632222,0.493889 c 0.141111,0 0.564445,-0.282222 0.9525,-0.599722 0.423334,-0.352778 0.282223,-0.105834 -0.282222,0.529166 l -1.058333,1.128889 -0.811389,-0.776111 c -0.987778,-0.917222 -1.093611,-1.693333 -0.105834,-0.811389 0.705556,0.635 0.705556,0.599722 0.776112,-1.446389 l 0.07055,-2.081389 0.105833,2.010834 c 0.07056,1.128889 0.246945,2.046111 0.352778,2.046111 z"
       id="path35"
       style="stroke-width:0.0352778" />
    <path
       d="m 59.372507,66.727903 c -0.246945,1.305277 0.176389,1.763889 0.881944,0.987777 0.564445,-0.635 0.564445,-0.705555 -0.07056,-1.27 -0.635,-0.564444 -0.670278,-0.564444 -0.811389,0.282223 z"
       id="path36"
       style="stroke-width:0.0352778" />
    <path
       d="m 60.501396,68.209569 c -0.388056,0.423334 -0.352778,0.635 0.105833,1.128889 0.564445,0.529167 0.635,0.529167 1.199445,0 0.458611,-0.493889 0.493889,-0.705555 0.105833,-1.128889 -0.246944,-0.3175 -0.564444,-0.564444 -0.705556,-0.564444 -0.141111,0 -0.458611,0.246944 -0.705555,0.564444 z"
       id="path37"
       style="stroke-width:0.0352778" />
    <path
       d="m 58.420007,68.915125 c 0,0.388055 0.105833,0.493889 0.211666,0.211667 0.105834,-0.246945 0.07056,-0.564445 -0.03528,-0.670278 -0.105834,-0.141111 -0.211667,0.07055 -0.176389,0.458611 z"
       id="path38"
       style="stroke-width:0.0352778" />
    <path
       d="m 86.254175,66.410402 1.905,1.940278 1.023056,-0.987777 c 0.564444,-0.529167 1.340556,-1.375834 1.728611,-1.940278 l 0.670278,-0.9525 h -3.598334 -3.633611 z"
       id="path39"
       style="stroke-width:0.0352778" />
    <path
       d="m 39.334728,68.879847 v 3.527778 l 1.305278,-1.305278 1.305278,-1.305278 -0.846667,-1.516944 c -1.763889,-3.245556 -1.763889,-3.245556 -1.763889,0.599722 z"
       id="path40"
       style="stroke-width:0.0352778" />
    <path
       d="m 90.805009,67.468736 -1.27,2.116667 1.27,1.340555 1.27,1.340556 0.105833,-1.799167 c 0.07056,-0.987778 0.07056,-2.54 0,-3.457222 l -0.105833,-1.658056 z"
       id="path41"
       style="stroke-width:0.0352778" />
    <path
       d="m 41.592506,67.892069 c 0.3175,0.635 0.740833,1.164167 0.917222,1.164167 0.599722,0 0.388056,-0.564444 -0.564444,-1.446389 L 40.992783,66.76318 Z"
       id="path42"
       style="stroke-width:0.0352778" />
    <path
       d="m 89.252787,67.997903 c -0.352778,0.388055 -0.529167,0.811389 -0.423334,0.9525 0.246945,0.211666 1.27,-0.881945 1.305278,-1.411112 0,-0.388055 -0.211667,-0.282222 -0.881944,0.458612 z"
       id="path43"
       style="stroke-width:0.0352778" />
    <path
       d="m 42.721395,69.338458 c -0.105834,0.176389 0.846666,2.187223 2.081389,4.480278 1.234722,2.293056 2.434167,4.621389 2.681111,5.150556 l 0.388056,0.987778 2.398889,-2.363611 2.398889,-2.328334 -2.293056,-1.340555 c -1.27,-0.740834 -3.316111,-2.151945 -4.550834,-3.104445 -2.257778,-1.763889 -2.751667,-2.010833 -3.104444,-1.481667 z"
       id="path44"
       style="stroke-width:0.0352778" />
    <path
       d="m 86.254175,70.890681 c -1.058333,0.9525 -3.069167,2.469444 -4.445,3.316111 l -2.504722,1.622778 2.081389,1.940278 c 1.128889,1.093611 2.116666,1.905 2.151944,1.834444 0.352778,-0.423333 5.185834,-9.666112 5.185834,-9.877778 0,-0.776111 -0.705556,-0.423334 -2.469445,1.164167 z"
       id="path45"
       style="stroke-width:0.0352778" />
    <path
       d="m 40.640006,71.455125 -1.340556,1.375833 0.105833,11.60639 0.141111,11.60639 1.446389,5.503332 c 3.175001,11.99445 7.866945,21.2725 13.934724,27.69306 l 2.504722,2.61055 h 3.845278 3.880556 l -0.246945,-1.86972 c -0.352777,-2.71639 -1.516944,-8.50194 -2.328333,-11.57111 -0.670278,-2.54 -0.776111,-2.71639 -1.834445,-2.92806 -5.468056,-1.05833 -11.923889,-5.92666 -14.605001,-11.04194 -3.774722,-7.090834 -3.633611,-15.416391 0.352778,-22.154447 l 1.058334,-1.763889 -2.328334,-4.586111 c -3.245556,-6.385278 -2.963333,-6.138334 -4.586111,-4.480278 z m 10.16,41.028055 c 0.529167,0.24695 0.352778,0.28223 -0.599722,0.14111 -1.199444,-0.17638 -1.340556,-0.10583 -1.340556,0.52917 0,0.9525 -0.776111,1.23472 -2.010833,0.74083 l -0.987778,-0.38805 1.128889,0.17639 c 0.987778,0.14111 1.199445,0.0353 1.375833,-0.70556 0.246945,-0.9525 1.128889,-1.12889 2.434167,-0.49389 z m 0.07056,1.27 c -0.282222,0.35278 -0.670278,1.09361 -0.811389,1.65806 l -0.246945,1.05833 1.199445,-0.77611 c 1.199444,-0.74083 1.234722,-0.74083 1.658056,-0.0705 0.352777,0.59972 0.246944,0.77611 -1.164167,1.62277 -1.446389,0.81139 -1.552222,0.98778 -1.023056,1.37584 0.388056,0.24694 0.529167,0.67027 0.388056,1.02305 -0.176389,0.45861 0.141111,0.38806 1.516944,-0.38805 0.9525,-0.52917 1.834445,-0.84667 1.975556,-0.70556 0.141111,0.14111 0.105833,0.9525 -0.105833,1.79917 l -0.352778,1.55222 1.5875,0.42333 c 0.846667,0.21167 1.516945,0.42334 1.446389,0.49389 -0.564444,0.52917 -3.986389,2.32834 -4.1275,2.15195 -0.105834,-0.10584 -0.03528,-0.74084 0.176389,-1.41111 0.423333,-1.37584 0.458611,-1.30528 -1.411112,-1.94028 -1.234722,-0.38806 -1.375833,-0.52917 -1.234722,-1.48167 0.141111,-0.74083 0,-1.09361 -0.388055,-1.23472 -0.3175,-0.14111 -0.846667,-0.45861 -1.199445,-0.74083 -0.529167,-0.45862 -0.529167,-0.59973 -0.105833,-1.09362 0.564444,-0.635 1.375833,-2.50472 1.058333,-2.50472 -0.105833,0 -0.670278,0.24695 -1.234722,0.56445 -1.905,0.9525 -1.481667,0.24694 0.458611,-0.84667 2.187222,-1.23472 2.716389,-1.37583 1.940278,-0.52917 z m 3.739445,11.7475 c -0.246945,0.88195 0.105833,0.88195 1.5875,0 0.635,-0.38805 1.340555,-0.70555 1.5875,-0.70555 0.211666,0 -0.529167,0.56444 -1.693334,1.23472 -1.128889,0.67028 -2.151944,1.16417 -2.187222,1.09361 -0.211667,-0.21166 0.352778,-2.32833 0.599722,-2.32833 0.176389,0 0.211667,0.3175 0.105834,0.70555 z"
       id="path46"
       style="stroke-width:0.0352778" />
    <path
       d="m 52.563895,120.27957 c -1.375833,0.70556 -1.375833,0.74084 -0.529166,1.05834 1.128889,0.42333 1.622777,0.17638 1.834444,-0.91723 0.105834,-0.49389 0.176389,-0.91722 0.141111,-0.91722 0,0.0353 -0.670278,0.35278 -1.446389,0.77611 z"
       id="path47"
       style="stroke-width:0.0352778" />
    <path
       d="m 53.481118,123.38402 c -0.423334,1.27 -0.3175,1.27 1.27,0.3175 1.340555,-0.84667 1.340555,-0.84667 0.03528,-1.16417 -0.776111,-0.17639 -0.9525,-0.0706 -1.305277,0.84667 z"
       id="path48"
       style="stroke-width:0.0352778" />
    <path
       d="m 86.571675,75.335681 -2.716389,5.185833 1.164167,1.869723 c 2.681111,4.409722 3.668889,10.759723 2.469445,16.121945 -1.728612,7.831668 -7.549445,14.075838 -15.451668,16.580558 l -2.504723,0.81139 -0.811388,3.10444 c -0.952501,3.77472 -2.222501,10.4775 -2.222501,11.85334 v 0.98777 h 3.845278 3.845278 l 2.363612,-2.57527 c 3.104444,-3.35139 6.420556,-8.36084 8.643056,-13.0175 2.257778,-4.7625 4.974167,-12.94695 6.138334,-18.66195 0.846666,-4.162778 0.917222,-5.08 0.917222,-14.499168 V 73.077903 l -1.516945,-1.481667 -1.481666,-1.481667 z m -1.940278,37.464999 1.411112,0.84667 -0.952501,0.3175 c -0.776111,0.24694 -0.917222,0.49389 -0.846666,1.37583 0.07055,0.9525 -0.07056,1.12889 -0.9525,1.37584 -0.811389,0.21166 -1.023056,0.14111 -1.164167,-0.42334 -0.105833,-0.42333 -0.493889,-0.67027 -1.023056,-0.67027 -1.375833,0 -1.234722,0.52916 0.423334,1.41111 1.552222,0.88194 1.975555,1.41111 1.058333,1.41111 -0.282222,0 -0.811389,0.10583 -1.164167,0.21166 -0.564444,0.17639 -0.564444,0.14112 0.07056,-0.38805 0.670278,-0.59972 0.670278,-0.59972 -0.635,-0.42333 -0.776111,0.14111 -1.234722,0.0705 -1.128889,-0.14112 0.141111,-0.17638 0.493889,-0.3175 0.811389,-0.3175 0.388055,0 0.211667,-0.28222 -0.529167,-0.74083 -1.199444,-0.77611 -1.552222,-1.23472 -0.635,-0.88194 0.282222,0.10583 0.529167,0.0353 0.529167,-0.14111 0,-0.21167 0.352778,-0.35278 0.811389,-0.35278 h 0.776111 l -0.846667,-0.67028 c -1.023055,-0.77611 -0.458611,-1.27 0.811389,-0.70556 0.458611,0.21167 1.128889,0.3175 1.411111,0.21167 0.881945,-0.35278 0.670278,-1.62278 -0.3175,-2.08139 -0.493889,-0.21166 -0.881944,-0.56444 -0.881944,-0.74083 0,-0.17639 0.352778,-0.10583 0.811389,0.17639 0.423333,0.28222 1.411111,0.88194 2.151944,1.34055 z m -6.067778,5.82084 c 0.105834,0.56444 0.352778,0.67027 1.199445,0.59972 0.987778,-0.10583 1.128889,0 1.340555,1.02305 0.3175,1.62278 -0.176389,1.905 -1.693333,0.98778 -0.705556,-0.42333 -1.234722,-0.84666 -1.128889,-0.91722 0.105833,-0.10583 0.776111,0.17639 1.481667,0.635 1.128889,0.70556 1.305278,0.70556 1.093611,0.17639 -0.141111,-0.35278 -0.246945,-0.84667 -0.246945,-1.16417 0,-0.38805 -0.246944,-0.45861 -1.023055,-0.28222 -1.128889,0.24694 -1.234723,0.14111 -1.5875,-1.41111 -0.176389,-0.70556 -0.141111,-0.9525 0.07056,-0.70556 0.211667,0.17639 0.423334,0.67028 0.493889,1.05834 z m -0.423333,1.44639 c 0,0.10583 -0.352778,0.10583 -0.776111,0 -0.458612,-0.10584 -0.635,-0.10584 -0.423334,-0.0353 0.211667,0.10583 0.3175,0.56444 0.246945,0.98778 -0.211667,1.23472 0.352778,1.79916 1.516944,1.51694 l 0.987778,-0.24694 -1.128889,-0.74084 c -0.635,-0.38805 -1.093611,-0.81139 -0.987778,-0.88194 0.07056,-0.0706 0.846667,0.28222 1.693334,0.81139 l 1.516944,0.98777 -1.516944,0.35278 -1.516945,0.3175 0.211667,1.72861 0.246944,1.69334 -2.151944,-1.30528 -2.116667,-1.34056 1.481667,-0.49389 c 0.811389,-0.24694 1.516944,-0.52916 1.552222,-0.56444 0.07056,-0.0353 -0.07056,-0.59972 -0.246944,-1.23472 -0.493889,-1.69334 -0.176389,-2.57528 0.740833,-2.11667 0.352778,0.21167 0.670278,0.45861 0.670278,0.56445 z"
       id="path49"
       style="stroke-width:0.0352778" />
    <path
       d="m 83.855286,113.22402 c 0.176389,0.52916 0.987778,0.81139 0.987778,0.35277 0,-0.17638 -0.246944,-0.45861 -0.564444,-0.56444 -0.352778,-0.14111 -0.493889,-0.0353 -0.423334,0.21167 z"
       id="path50"
       style="stroke-width:0.0352778" />
    <path
       d="m 82.726397,114.70568 c 0,0.0706 0.246945,0.21167 0.529167,0.35278 0.282222,0.10583 0.529167,0.0353 0.529167,-0.14111 0,-0.21167 -0.246945,-0.35278 -0.529167,-0.35278 -0.282222,0 -0.529167,0.0706 -0.529167,0.14111 z"
       id="path51"
       style="stroke-width:0.0352778" />
    <path
       d="m 82.373619,115.97568 c 0,0.17639 0.176389,0.35278 0.388056,0.35278 0.176389,0 0.246944,-0.17639 0.141111,-0.35278 -0.105833,-0.21166 -0.282222,-0.35277 -0.388055,-0.35277 -0.07056,0 -0.141112,0.14111 -0.141112,0.35277 z"
       id="path52"
       style="stroke-width:0.0352778" />
    <path
       d="m 75.84723,123.70152 -1.058333,0.21166 1.27,0.81139 c 1.622778,0.98778 1.658055,0.98778 1.446389,-0.10583 -0.176389,-1.09361 -0.3175,-1.16417 -1.658056,-0.91722 z"
       id="path53"
       style="stroke-width:0.0352778" />
    <path
       d="m 63.323618,72.584014 c 0,0.529167 0.811389,2.116667 1.093611,2.116667 0.141112,0 0.352778,-0.493889 0.493889,-1.093611 0.141111,-0.599723 0.3175,-0.987778 0.423334,-0.917223 0.07055,0.105834 -0.03528,0.811389 -0.246945,1.622778 -0.3175,1.234723 -0.282222,1.622778 0.3175,2.751667 l 0.670278,1.340556 0.423333,-0.9525 c 0.352778,-0.776112 0.352778,-1.305278 0,-2.645834 -0.246944,-0.917222 -0.599722,-1.905 -0.811389,-2.151944 -0.388055,-0.493889 -2.363611,-0.599723 -2.363611,-0.07056 z"
       id="path54"
       style="stroke-width:0.0352778" />
    <path
       d="m 66.145841,72.33707 c 0,0.07055 0.246944,0.881944 0.564444,1.834444 l 0.599722,1.693334 0.811389,-1.552223 c 0.458611,-0.846667 0.811389,-1.658055 0.846667,-1.834444 0,-0.141111 -0.635,-0.246945 -1.411111,-0.246945 -0.776111,0 -1.411111,0.03528 -1.411111,0.105834 z"
       id="path55"
       style="stroke-width:0.0352778" />
    <path
       d="m 60.219174,72.901514 -0.811389,0.211667 1.093611,1.516944 c 0.599722,0.846667 1.164167,1.481667 1.199444,1.411111 0.07056,-0.03528 0.246945,-0.846666 0.352778,-1.799166 0.282222,-1.799167 0.105833,-1.905 -1.834444,-1.340556 z"
       id="path56"
       style="stroke-width:0.0352778" />
    <path
       d="m 69.955841,74.065681 0.141111,1.481667 0.846667,-0.987778 c 0.458611,-0.529167 0.846666,-1.093612 0.846666,-1.234723 0,-0.246944 -1.128889,-0.705555 -1.763889,-0.740833 -0.105833,0 -0.141111,0.670278 -0.07055,1.481667 z"
       id="path57"
       style="stroke-width:0.0352778" />
    <path
       d="m 62.441674,74.418459 c -0.352778,2.504722 -0.458611,3.4925 -0.246945,3.280833 0.105834,-0.07055 0.388056,0 0.635,0.211667 0.388056,0.3175 0.564445,0.176389 0.846667,-0.564445 0.176389,-0.493889 0.352778,-1.128889 0.352778,-1.375833 0,-0.564445 -0.987778,-3.033889 -1.234722,-3.033889 -0.07056,0 -0.246945,0.670278 -0.352778,1.481667 z"
       id="path58"
       style="stroke-width:0.0352778" />
    <path
       d="m 57.57334,73.748181 -0.987778,0.423333 1.058334,1.023056 1.093611,1.058333 v -1.481667 c 0,-0.811389 -0.03528,-1.481666 -0.07056,-1.481666 -0.07055,0.03528 -0.564444,0.211666 -1.093611,0.458611 z"
       id="path59"
       style="stroke-width:0.0352778" />
    <path
       d="m 68.297785,74.806514 c -0.599722,1.093611 -0.776111,1.834445 -0.599722,2.469445 0.282222,1.199444 0.564444,1.199444 1.446389,-0.07056 0.529167,-0.776111 0.705556,-1.446389 0.599722,-2.469444 -0.07055,-0.811389 -0.246944,-1.446389 -0.388055,-1.446389 -0.105834,0 -0.599723,0.705555 -1.058334,1.516944 z"
       id="path60"
       style="stroke-width:0.0352778" />
    <path
       d="m 72.778063,75.229847 -0.105833,1.905001 1.058333,-1.023056 c 1.552223,-1.516945 1.975556,-1.305278 0.493889,0.211667 -1.128889,1.199444 -1.164167,1.27 -0.3175,1.023055 0.493889,-0.141111 1.093611,-0.493889 1.340556,-0.811389 0.811389,-1.058333 0.458611,-1.799166 -1.234722,-2.645833 L 72.919174,73.28957 Z"
       id="path61"
       style="stroke-width:0.0352778" />
    <path
       d="m 59.090285,75.370959 c 0,1.869722 0.03528,1.940278 1.516944,2.293055 0.740834,0.176389 0.9525,0.105834 0.9525,-0.352777 0,-0.493889 -2.046111,-3.66889 -2.363611,-3.66889 -0.07056,0 -0.105833,0.776112 -0.105833,1.728612 z"
       id="path62"
       style="stroke-width:0.0352778" />
    <path
       d="m 71.296396,74.806514 c -0.529166,0.670278 -0.917222,1.622778 -0.917222,2.116667 0,0.776111 0.176389,0.9525 0.881945,0.9525 0.776111,0 0.881944,-0.141111 0.917222,-1.340556 0,-0.705555 0.07056,-1.658055 0.105833,-2.116666 0.105834,-1.023056 0.07056,-0.987778 -0.987778,0.388055 z"
       id="path63"
       style="stroke-width:0.0352778" />
    <path
       d="m 54.856951,75.053459 c -0.599722,0.352777 -0.493889,0.529166 0.635,0.846666 0.846667,0.282223 0.881945,0.211667 0.564445,-0.635 -0.246945,-0.635 -0.458612,-0.670278 -1.199445,-0.211666 z"
       id="path64"
       style="stroke-width:0.0352778" />
    <path
       d="m 56.515007,75.547348 c 0.141111,0.599722 0.564444,0.987777 1.27,1.27 l 1.093611,0.352777 -1.199445,-1.234722 c -0.670277,-0.670278 -1.234722,-1.234722 -1.27,-1.234722 0,0 0.03528,0.388055 0.105834,0.846667 z"
       id="path65"
       style="stroke-width:0.0352778" />
    <path
       d="m 75.917786,75.759014 c -0.211667,0.776111 0.3175,0.917222 1.164166,0.352778 0.458612,-0.3175 0.458612,-0.388056 0,-0.705556 -0.776111,-0.493889 -0.9525,-0.423333 -1.164166,0.352778 z"
       id="path66"
       style="stroke-width:0.0352778" />
    <path
       d="m 54.680562,76.993736 c 1.622778,1.411112 1.940278,1.516945 1.693334,0.564445 -0.141112,-0.564445 -2.151945,-1.834445 -2.857501,-1.799167 -0.141111,0.03528 0.388056,0.564445 1.164167,1.234722 z"
       id="path67"
       style="stroke-width:0.0352778" />
    <path
       d="m 64.205563,77.134848 c -0.282223,0.917222 -0.105834,1.199444 0.670278,1.023055 0.423333,-0.07055 0.458611,-0.246944 0.07055,-0.9525 l -0.493889,-0.846667 z"
       id="path68"
       style="stroke-width:0.0352778" />
    <path
       d="m 76.658619,77.628737 c -0.917222,0.776111 -1.375833,1.516944 -1.552222,2.469444 l -0.246945,1.375834 1.058334,-0.529167 c 0.740833,-0.388056 1.164166,-1.023056 1.622778,-2.398889 0.3175,-1.023056 0.529166,-1.905 0.493888,-1.940278 -0.03528,-0.07056 -0.670277,0.423333 -1.375833,1.023056 z"
       id="path69"
       style="stroke-width:0.0352778" />
    <path
       d="m 51.752506,77.240681 c -0.635,0.635 -0.529166,0.917222 0.635,1.516944 1.375834,0.705556 1.411112,0.705556 0.9525,-0.705555 -0.388055,-1.27 -0.881944,-1.516945 -1.5875,-0.811389 z"
       id="path70"
       style="stroke-width:0.0352778" />
    <path
       d="m 53.44584,77.170125 c 0,1.058334 1.128889,2.822223 2.116667,3.351389 0.635,0.317501 1.199444,0.493889 1.27,0.423334 0.458611,-0.458611 -0.458611,-2.116667 -1.622778,-3.069167 -1.446389,-1.128889 -1.763889,-1.27 -1.763889,-0.705556 z"
       id="path71"
       style="stroke-width:0.0352778" />
    <path
       d="m 69.320841,77.522903 c -0.3175,0.564445 -0.282222,0.705556 0.176389,0.705556 0.282222,0 0.529166,-0.3175 0.529166,-0.705556 0,-0.388055 -0.07055,-0.705555 -0.176388,-0.705555 -0.07056,0 -0.317501,0.3175 -0.529167,0.705555 z"
       id="path72"
       style="stroke-width:0.0352778" />
    <path
       d="m 76.023619,77.170125 c -0.282222,0.176389 -0.423333,0.423334 -0.3175,0.529167 0.141111,0.105833 0.423333,-0.03528 0.670278,-0.352778 0.493889,-0.599722 0.388055,-0.670278 -0.352778,-0.176389 z"
       id="path73"
       style="stroke-width:0.0352778" />
    <path
       d="m 78.034452,78.404848 c -0.3175,0.881944 -0.458611,1.5875 -0.3175,1.5875 0.141112,-0.03528 0.952501,-0.388056 1.799167,-0.846667 l 1.552223,-0.811389 -1.093612,-0.740833 c -0.564444,-0.423334 -1.128889,-0.776111 -1.234722,-0.776111 -0.105833,0 -0.423333,0.705555 -0.705556,1.5875 z"
       id="path74"
       style="stroke-width:0.0352778" />
    <path
       d="m 56.832507,77.628737 c 0.105833,0.282222 0.211666,0.9525 0.282222,1.516944 0.07056,0.564445 0.141111,1.164167 0.176389,1.305278 0,0.176389 0.211667,0.176389 0.388055,0.07055 0.282223,-0.176388 0.246945,-0.388055 -0.03528,-0.740833 -0.493889,-0.599722 0.07055,-0.670278 0.670277,-0.07055 0.3175,0.3175 0.423334,0.141111 0.423334,-0.846667 0,-1.023056 -0.141111,-1.305278 -0.776111,-1.481667 -1.164167,-0.3175 -1.340556,-0.246944 -1.128889,0.246945 z"
       id="path75"
       style="stroke-width:0.0352778" />
    <path
       d="m 66.710285,77.699292 c -0.105833,0.3175 0,0.529167 0.3175,0.529167 0.564445,0 0.705556,-0.564445 0.211667,-0.846667 -0.176389,-0.105833 -0.388056,0.03528 -0.529167,0.3175 z"
       id="path76"
       style="stroke-width:0.0352778" />
    <path
       d="m 73.660008,77.910959 c -1.446389,0.423333 -1.552223,1.446389 -0.246945,2.293055 0.776111,0.529167 0.9525,0.529167 1.234723,0.105834 0.670277,-1.058334 0.352777,-1.411111 -0.635,-0.811389 -0.917223,0.564444 -0.917223,0.529167 0.176388,-0.529167 1.587501,-1.5875 1.552223,-1.658055 -0.529166,-1.058333 z"
       id="path77"
       style="stroke-width:0.0352778" />
    <path
       d="m 59.090285,78.722348 c 0,0.670278 0.141111,0.811389 0.705555,0.670278 0.388056,-0.105834 0.705556,-0.352778 0.705556,-0.529167 0,-0.176389 0.176389,-0.211667 0.352778,-0.105834 0.211666,0.105834 0.352777,0.03528 0.352777,-0.176388 0,-0.246945 -0.246944,-0.352778 -0.529166,-0.246945 -0.282223,0.141111 -0.599723,0.07056 -0.705556,-0.105833 -0.388055,-0.635 -0.881944,-0.352778 -0.881944,0.493889 z"
       id="path78"
       style="stroke-width:0.0352778" />
    <path
       d="m 49.63584,79.392626 c -0.423334,0.458611 -0.776112,0.987777 -0.776112,1.199444 0,0.352778 2.786945,1.340556 3.069167,1.058333 0.141111,-0.176388 -1.199444,-3.069166 -1.411111,-3.069166 -0.07055,0 -0.458611,0.352777 -0.881944,0.811389 z"
       id="path79"
       style="stroke-width:0.0352778" />
    <path
       d="m 51.85834,80.345126 c 0.564444,1.128889 1.234722,1.905 1.834444,2.151944 0.493889,0.176389 0.9525,0.282222 1.023056,0.211667 0.07055,-0.07056 -0.07056,-0.670278 -0.282222,-1.375834 -0.246945,-0.881944 -0.776112,-1.481666 -1.693334,-2.010833 -0.740833,-0.423333 -1.446389,-0.740833 -1.552222,-0.740833 -0.105833,0 0.176389,0.811389 0.670278,1.763889 z"
       id="path80"
       style="stroke-width:0.0352778" />
    <path
       d="m 71.613897,78.898737 c -0.105834,0.176389 -0.03528,0.423333 0.176388,0.564444 0.176389,0.105833 0.352778,-0.03528 0.352778,-0.3175 0,-0.635 -0.211666,-0.740833 -0.529166,-0.246944 z"
       id="path81"
       style="stroke-width:0.0352778" />
    <path
       d="m 62.01834,79.463181 c -1.023055,0.282222 -2.54,0.846667 -3.351389,1.27 -1.905,0.9525 -4.938889,4.021667 -5.926667,5.926667 l -0.740833,1.516945 2.434167,5.679722 c 1.340555,3.139723 3.033889,7.302505 3.774722,9.242775 0.740833,1.94028 1.481667,3.70417 1.622778,3.91584 0.917222,1.19944 7.267223,1.65805 10.160001,0.74083 l 1.5875,-0.49389 3.033889,-7.549443 c 1.693333,-4.162778 3.457222,-8.43139 3.951111,-9.525001 l 0.917222,-2.010833 -0.9525,-1.622778 C 75.106397,80.627348 68.403619,77.769848 62.01834,79.463181 Z m 14.46389,6.773334 c 0.9525,0.881944 0.811389,3.457222 -0.282222,4.515556 -0.987778,1.023055 -1.799167,1.093611 -3.633611,0.3175 -1.728612,-0.705556 -3.210278,-0.388056 -5.25639,1.164166 l -1.693333,1.270001 1.199444,-1.305278 c 0.670278,-0.670278 1.905001,-1.516945 2.751667,-1.834445 1.411111,-0.564444 1.622778,-0.564444 3.033889,0 2.010834,0.740833 2.575278,0.705556 3.210278,-0.211667 1.693334,-2.398889 -0.846666,-5.609167 -2.751667,-3.4925 -0.670277,0.740834 -0.493888,2.151945 0.211667,2.151945 0.211667,0 0.282222,0.105833 0.176389,0.211666 -0.388056,0.423334 -1.305278,-0.635 -1.305278,-1.446389 0,-1.164166 1.658056,-2.398889 2.822223,-2.116666 0.493889,0.141111 1.164166,0.493889 1.516944,0.776111 z M 59.548896,86.095404 c 0.352778,0.246944 0.740833,1.234722 0.917222,2.363611 0.246944,1.552222 0.529167,2.116667 1.481667,2.892778 0.635,0.529167 1.693333,1.164167 2.363611,1.375833 0.635,0.211667 1.128889,0.458612 1.023056,0.529167 -0.07056,0.07056 -0.846667,-0.105833 -1.763889,-0.423333 -2.046112,-0.670278 -3.774723,-2.575278 -3.774723,-4.056945 0,-1.799167 -0.564444,-2.434167 -2.116667,-2.434167 -2.363611,0 -3.4925,1.728611 -2.257778,3.457223 0.670278,0.987777 1.658056,0.987777 2.645834,-0.03528 l 0.811389,-0.776111 -0.564445,0.881944 c -1.199444,1.940278 -3.915833,0.917222 -3.915833,-1.481667 0,-2.151944 3.351389,-3.633611 5.150556,-2.293055 z m 7.055556,11.959167 c -0.141111,0.9525 -0.599723,1.693334 -1.728611,2.716389 -1.763889,1.5875 -1.905001,2.36361 -0.670278,3.70417 1.128889,1.23472 2.751667,1.23472 3.563055,0.0353 0.493889,-0.74083 0.529167,-1.05833 0.176389,-1.83444 -0.3175,-0.70556 -0.599722,-0.84667 -1.446389,-0.74083 -0.564444,0.0705 -0.9525,0.0353 -0.846666,-0.14111 0.3175,-0.49389 1.834444,-0.3175 2.398889,0.28222 1.305278,1.30528 0.105833,4.02166 -1.799167,4.02166 -1.905,0 -3.633611,-1.69333 -3.633611,-3.52777 0,-0.35278 0.740833,-1.30528 1.658055,-2.08139 1.622778,-1.375835 1.658056,-1.446391 1.834445,-3.810002 0.141111,-2.151945 0.176389,-2.257778 0.423333,-1.164167 0.141111,0.670278 0.176389,1.834445 0.07056,2.54 z"
       id="path82"
       style="stroke-width:0.0352778" />
    <path
       d="m 79.02223,79.886514 c -0.9525,0.493889 -1.799166,0.917223 -1.834444,0.952501 -0.03528,0 -0.141111,0.458611 -0.282223,0.987777 l -0.246944,0.987778 1.340556,-0.493889 c 1.023055,-0.3175 1.5875,-0.846666 2.187222,-1.905 0.458611,-0.811389 0.776111,-1.481667 0.705556,-1.481667 -0.07056,0.03528 -0.881945,0.458612 -1.869723,0.9525 z"
       id="path83"
       style="stroke-width:0.0352778" />
    <path
       d="m 80.60973,80.415681 c -0.352777,0.635 -0.635,1.164167 -0.564444,1.234722 0.07055,0.07056 0.705556,-0.141111 1.446389,-0.423333 1.27,-0.564444 1.305278,-0.599722 0.670278,-1.27 -0.3175,-0.352778 -0.670278,-0.670278 -0.740834,-0.670278 -0.07055,0 -0.423333,0.493889 -0.811389,1.128889 z"
       id="path84"
       style="stroke-width:0.0352778" />
    <path
       d="m 54.71584,81.121237 c 0.3175,1.128889 0.423333,1.199444 1.058333,0.599722 0.458611,-0.493889 0.423334,-0.599722 -0.388055,-0.9525 -0.881945,-0.423333 -0.917223,-0.388056 -0.670278,0.352778 z"
       id="path85"
       style="stroke-width:0.0352778" />
    <path
       d="m 76.129452,81.297626 c -0.529166,0.176389 -0.599722,0.811389 -0.141111,0.811389 0.176389,0 0.388056,-0.246945 0.529167,-0.529167 0.105833,-0.282222 0.141111,-0.529167 0.105833,-0.493889 -0.03528,0 -0.282222,0.105833 -0.493889,0.211667 z"
       id="path86"
       style="stroke-width:0.0352778" />
    <path
       d="m 48.859728,81.650403 c 0.03528,0.846667 2.046112,2.504723 3.280834,2.681112 1.481667,0.211666 1.446389,0.246944 0.917222,-0.9525 -0.493889,-1.023056 -4.233333,-2.575278 -4.198056,-1.728612 z"
       id="path87"
       style="stroke-width:0.0352778" />
    <path
       d="m 80.750842,81.826792 c -0.740834,0.246945 -1.305278,0.776112 -1.693334,1.552223 -0.740833,1.5875 -0.740833,1.622778 0.388056,1.340555 0.529166,-0.141111 1.164166,-0.246944 1.411111,-0.246944 0.246944,0 0.352778,-0.141111 0.246944,-0.3175 -0.105833,-0.141111 0.246945,-0.846667 0.776111,-1.516945 0.987778,-1.305278 0.811389,-1.446389 -1.128888,-0.811389 z"
       id="path88"
       style="stroke-width:0.0352778" />
    <path
       d="m 47.448617,82.426515 c -0.493889,0.987777 -0.352778,1.164166 0.846667,1.023055 0.881944,-0.105833 0.881944,-0.105833 0.246944,-0.9525 l -0.670277,-0.846667 z"
       id="path89"
       style="stroke-width:0.0352778" />
    <path
       d="m 82.620564,82.990959 c -0.599722,1.234722 -0.599722,1.234722 0.246944,1.234722 0.493889,0 1.093611,-0.105833 1.411112,-0.211666 0.493888,-0.176389 0.493888,-0.3175 -0.03528,-1.234723 -0.352778,-0.564444 -0.705556,-1.023055 -0.811389,-1.023055 -0.141111,0 -0.493889,0.564444 -0.811389,1.234722 z"
       id="path90"
       style="stroke-width:0.0352778" />
    <path
       d="m 77.822786,82.849848 c -0.705556,0.282222 -0.740834,0.423333 -0.352778,0.881944 0.423333,0.493889 0.493889,0.493889 0.917222,-0.07055 0.246945,-0.352778 0.458611,-0.740833 0.458611,-0.917222 0,-0.3175 0.07056,-0.3175 -1.023055,0.105833 z"
       id="path91"
       style="stroke-width:0.0352778" />
    <path
       d="m 53.304729,83.343737 c 0.141111,0.282222 0.352777,0.423333 0.529166,0.3175 0.493889,-0.282222 0.352778,-0.846667 -0.211666,-0.846667 -0.3175,0 -0.423334,0.211667 -0.3175,0.529167 z"
       id="path92"
       style="stroke-width:0.0352778" />
    <path
       d="m 45.931673,85.284015 -0.529167,1.411111 h 1.975556 1.975555 l -1.375833,-1.411111 c -0.740833,-0.776111 -1.411111,-1.411111 -1.446389,-1.411111 0,0 -0.282222,0.635 -0.599722,1.411111 z"
       id="path93"
       style="stroke-width:0.0352778" />
    <path
       d="m 48.330562,85.284015 c 1.728611,1.763889 2.575278,1.905 1.728611,0.246944 -0.705556,-1.340555 -1.093611,-1.658055 -2.257778,-1.658055 -0.811389,0 -0.811389,0.07055 0.529167,1.411111 z"
       id="path94"
       style="stroke-width:0.0352778" />
    <path
       d="m 83.185008,84.507904 c -1.023055,0.105833 -2.2225,1.128889 -2.2225,1.905 0,0.705555 1.728611,0.176389 2.645834,-0.776111 1.164166,-1.199445 1.128889,-1.27 -0.423334,-1.128889 z"
       id="path95"
       style="stroke-width:0.0352778" />
    <path
       d="m 50.835284,85.707348 c 0.282222,0.529167 0.670278,0.987778 0.846667,0.987778 0.211666,0 0.105833,-0.423333 -0.246945,-0.987778 -0.599722,-0.9525 -0.599722,-0.9525 0.105834,-0.3175 0.740833,0.635 1.199444,0.493889 1.199444,-0.352778 0,-0.3175 -0.388055,-0.458611 -1.199444,-0.388055 -1.199445,0.07055 -1.199445,0.07055 -0.705556,1.058333 z"
       id="path96"
       style="stroke-width:0.0352778" />
    <path
       d="m 83.961119,85.636793 -1.023055,1.058333 h 1.516944 c 1.375834,0 1.481667,-0.07056 1.270001,-0.811389 -0.423334,-1.305278 -0.705556,-1.340556 -1.76389,-0.246944 z"
       id="path97"
       style="stroke-width:0.0352778" />
    <path
       d="m 79.233897,85.248737 c -0.282222,0.211667 -0.3175,0.388056 -0.105833,0.529167 0.211666,0.105833 0.493889,0.03528 0.599722,-0.176389 0.3175,-0.493889 0.07055,-0.705556 -0.493889,-0.352778 z"
       id="path98"
       style="stroke-width:0.0352778" />
    <path
       d="m 80.151119,85.566237 c -0.670278,0.740833 -0.776111,1.128889 -0.246944,1.128889 0.352778,0 1.199444,-1.375833 0.9525,-1.622778 -0.07056,-0.07055 -0.388056,0.141111 -0.705556,0.493889 z"
       id="path99"
       style="stroke-width:0.0352778" />
    <path
       d="m 45.473062,87.330126 c -0.211667,0.141111 -0.493889,0.670278 -0.635001,1.199445 -0.211666,0.881944 -0.141111,0.987777 0.635001,0.987777 0.458611,0 1.128888,-0.105833 1.446389,-0.211666 0.493888,-0.211667 0.458611,-0.352778 -0.423334,-1.093611 -1.058333,-0.917223 -0.529167,-0.740834 1.023056,0.3175 0.740833,0.493888 1.305278,0.599722 2.2225,0.423333 1.411111,-0.246945 1.516944,-0.493889 0.599722,-1.305278 -0.670278,-0.635 -4.092222,-0.846667 -4.868333,-0.3175 z"
       id="path100"
       style="stroke-width:0.0352778" />
    <path
       d="m 50.447229,87.400682 c 0.105833,0.176388 0.282222,0.352777 0.388055,0.352777 0.07056,0 0.141111,-0.176389 0.141111,-0.352777 0,-0.211667 -0.176389,-0.352778 -0.388055,-0.352778 -0.176389,0 -0.246945,0.141111 -0.141111,0.352778 z"
       id="path101"
       style="stroke-width:0.0352778" />
    <path
       d="m 80.362786,87.57707 c -0.3175,0.881945 0.07056,0.952501 0.776111,0.176389 0.599722,-0.635 0.599722,-0.705555 0.03528,-0.705555 -0.3175,0 -0.670278,0.246944 -0.811389,0.529166 z"
       id="path102"
       style="stroke-width:0.0352778" />
    <path
       d="m 81.56223,88.035682 c -1.728611,1.799166 0.211667,2.116666 2.540001,0.388055 0.846666,-0.599722 1.5875,-1.023055 1.658055,-0.917222 0.07056,0.07056 -0.493889,0.599722 -1.305278,1.164167 l -1.481666,1.023055 1.834444,0.282223 c 1.023056,0.176388 1.940278,0.246944 2.010834,0.141111 0.07055,-0.07056 -0.03528,-0.776112 -0.282223,-1.516945 -0.458611,-1.340556 -0.529166,-1.375833 -2.2225,-1.481667 -1.552222,-0.105833 -1.905,0.03528 -2.751667,0.917223 z"
       id="path103"
       style="stroke-width:0.0352778" />
    <path
       d="m 49.63584,89.411515 c -0.352778,0.141111 -0.352778,0.282222 -0.03528,0.670278 0.564444,0.670278 0.917222,0.635 1.128889,-0.211667 0.176389,-0.705555 -0.141111,-0.846667 -1.093611,-0.458611 z"
       id="path104"
       style="stroke-width:0.0352778" />
    <path
       d="m 46.037506,89.834848 -1.234722,0.246945 1.763889,0.917222 c 1.164166,0.599722 2.116667,0.846667 2.751667,0.740834 1.234722,-0.246945 1.199444,-0.599723 -0.07056,-1.481667 -1.058333,-0.776111 -1.199445,-0.776111 -3.210278,-0.423334 z"
       id="path105"
       style="stroke-width:0.0352778" />
    <path
       d="m 51.435006,90.046515 c -0.141111,0.388056 -0.282222,2.116667 -0.282222,3.880556 0.03528,3.668889 0.811389,5.891389 3.069167,8.784169 1.340556,1.72861 4.056945,3.98639 4.374445,3.66889 0.282222,-0.3175 -4.480278,-12.453059 -6.20889,-15.804448 -0.599722,-1.128889 -0.670277,-1.164167 -0.9525,-0.529167 z"
       id="path106"
       style="stroke-width:0.0352778" />
    <path
       d="m 79.445564,89.764293 c -1.023056,1.658056 -7.055556,16.686387 -6.808612,16.933337 0.3175,0.3175 4.021667,-3.10445 5.221112,-4.79778 1.728611,-2.469445 2.54,-5.185834 2.504722,-8.572501 -0.03528,-2.540001 -0.458611,-4.30389 -0.917222,-3.563056 z"
       id="path107"
       style="stroke-width:0.0352778" />
    <path
       d="m 80.786119,90.222904 c 0.141111,0.211667 0.388056,0.282222 0.564445,0.176389 0.493889,-0.3175 0.388055,-0.529167 -0.246945,-0.529167 -0.282222,0 -0.423333,0.176389 -0.3175,0.352778 z"
       id="path108"
       style="stroke-width:0.0352778" />
    <path
       d="m 81.738619,90.575682 -0.846666,0.705555 1.023055,0.352778 c 0.529167,0.211667 1.164167,0.423334 1.340556,0.493889 0.211667,0.07056 1.093611,-0.246944 1.940278,-0.670278 l 1.552222,-0.811389 -1.552222,-0.211666 c -0.881945,-0.141111 -1.834445,-0.3175 -2.116667,-0.388056 -0.282222,-0.07055 -0.917222,0.176389 -1.340556,0.529167 z"
       id="path109"
       style="stroke-width:0.0352778" />
    <path
       d="m 44.344173,92.057349 c 0.105833,1.446389 0.176388,1.516944 1.799166,2.116666 1.622778,0.599723 1.728612,0.599723 2.928056,0 l 1.27,-0.635 -0.917222,-0.635 c -0.846667,-0.529166 -1.058334,-0.529166 -2.54,-0.03528 -0.846667,0.282223 -1.763889,0.529167 -2.010834,0.493889 -0.246944,0 0.388056,-0.282222 1.340556,-0.635 l 1.763889,-0.635 -1.481667,-0.740833 c -2.081389,-1.093611 -2.293056,-1.023056 -2.151944,0.705556 z"
       id="path110"
       style="stroke-width:0.0352778" />
    <path
       d="m 85.478064,91.739849 c -1.305278,0.529166 -1.234722,0.811388 0.282222,1.128888 1.481667,0.246945 1.693334,0.141112 1.375834,-0.846666 -0.246945,-0.811389 -0.282223,-0.811389 -1.658056,-0.282222 z"
       id="path111"
       style="stroke-width:0.0352778" />
    <path
       d="m 49.388895,92.339571 c 0.105833,0.176389 0.352778,0.352778 0.564445,0.352778 0.176388,0 0.3175,-0.176389 0.3175,-0.352778 0,-0.211667 -0.246945,-0.352778 -0.564445,-0.352778 -0.282222,0 -0.423333,0.141111 -0.3175,0.352778 z"
       id="path112"
       style="stroke-width:0.0352778" />
    <path
       d="m 81.209453,92.657071 c 0.141111,0.599722 0.282222,0.635 1.023055,0.3175 0.635,-0.282222 0.740834,-0.493889 0.423334,-0.705556 -0.881945,-0.529166 -1.622778,-0.3175 -1.446389,0.388056 z"
       id="path113"
       style="stroke-width:0.0352778" />
    <path
       d="m 82.232508,93.292071 c -1.023055,0.529167 -1.023055,0.564444 -0.352778,1.058333 0.705556,0.529167 2.187223,0.388056 3.98639,-0.3175 l 0.917222,-0.352778 -1.234722,-0.458611 c -1.622778,-0.635 -2.081389,-0.599722 -3.316112,0.07056 z"
       id="path114"
       style="stroke-width:0.0352778" />
    <path
       d="m 44.273617,95.126515 c 0,1.27 0.105833,1.305278 1.728611,0.423334 l 1.199445,-0.635 -0.917223,-0.211667 c -0.493888,-0.141111 -1.128888,-0.352778 -1.446389,-0.458611 -0.458611,-0.176389 -0.564444,0.03528 -0.564444,0.881944 z"
       id="path115"
       style="stroke-width:0.0352778" />
    <path
       d="m 49.00084,94.632626 c -0.352778,0.282223 -0.493889,0.529167 -0.246945,0.529167 0.211667,0 0.635,0.105834 0.9525,0.211667 0.423333,0.141111 0.564445,0 0.564445,-0.529167 0,-0.881944 -0.3175,-0.917222 -1.27,-0.211667 z"
       id="path116"
       style="stroke-width:0.0352778" />
    <path
       d="m 85.301675,94.562071 c -1.658056,0.635 -1.658056,0.740833 -0.07055,1.622778 0.776111,0.458611 1.481666,0.740833 1.552222,0.705555 0.07055,-0.07055 0.211667,-0.740833 0.352778,-1.481666 0.282222,-1.446389 0.105833,-1.552223 -1.834445,-0.846667 z"
       id="path117"
       style="stroke-width:0.0352778" />
    <path
       d="m 81.138897,94.844293 c -0.352778,0.529167 0.105833,0.881945 0.564445,0.423334 0.246944,-0.246945 0.246944,-0.458612 0.03528,-0.599723 -0.211666,-0.105833 -0.493889,-0.03528 -0.599722,0.176389 z"
       id="path118"
       style="stroke-width:0.0352778" />
    <path
       d="m 46.390284,95.796793 c -0.670278,0.3175 -1.375834,0.740834 -1.516945,0.9525 -0.282222,0.352778 -0.07055,2.575278 0.246945,2.928056 0.105833,0.105833 0.846666,-0.282222 1.622778,-0.811389 0.776111,-0.529167 1.375833,-1.058333 1.305277,-1.128889 -0.105833,-0.07055 -0.846666,-0.282222 -1.693333,-0.458611 -1.411111,-0.282222 -1.340556,-0.3175 0.599722,-0.141111 1.375834,0.141111 2.257778,0.07055 2.398889,-0.176389 0.141111,-0.211667 0.423334,-0.388056 0.635,-0.388056 0.246945,0 0.211667,0.211667 -0.07055,0.529167 -0.352778,0.423333 -0.352778,0.529167 0.141111,0.529167 1.199444,0 0.493889,-1.516945 -0.9525,-2.081389 -1.234722,-0.458611 -1.199445,-0.493889 -2.716389,0.246944 z"
       id="path119"
       style="stroke-width:0.0352778" />
    <path
       d="m 81.526953,95.832071 c -0.599723,0.246944 -0.564445,0.352778 0.493889,1.093611 0.846666,0.599722 1.622777,0.811389 2.786944,0.811389 1.128889,0 1.27,0.03528 0.493889,0.141111 -1.375833,0.176389 -1.446389,0.423334 -0.282222,1.27 1.023056,0.740834 1.5875,0.529167 1.5875,-0.564444 0,-1.093611 -0.3175,-1.446389 -2.010833,-2.328334 -1.587501,-0.776111 -2.010834,-0.846666 -3.069167,-0.423333 z"
       id="path120"
       style="stroke-width:0.0352778" />
    <path
       d="m 80.856675,97.172627 c -0.564445,0.564444 -0.211667,1.058333 0.635,0.881944 0.705556,-0.105833 0.811389,-0.246944 0.493889,-0.635 -0.458611,-0.529167 -0.776111,-0.599722 -1.128889,-0.246944 z"
       id="path121"
       style="stroke-width:0.0352778" />
    <path
       d="m 47.236951,98.936516 -1.728612,1.164164 h 1.763889 c 1.340556,-0.0353 1.975556,-0.211664 2.751667,-0.881942 0.529167,-0.458611 0.9525,-0.917222 0.9525,-0.987778 0,-0.105833 -0.458611,-0.246944 -0.987778,-0.3175 -0.740833,-0.105833 -1.516944,0.176389 -2.751666,1.023056 z"
       id="path122"
       style="stroke-width:0.0352778" />
    <path
       d="m 80.680286,98.583738 c -0.352778,0.141111 -0.3175,0.3175 0.141111,0.846667 0.458611,0.529166 1.093611,0.670275 2.751667,0.670275 h 2.151945 l -1.058334,-0.881942 c -1.023056,-0.811389 -2.822222,-1.128889 -3.986389,-0.635 z"
       id="path123"
       style="stroke-width:0.0352778" />
    <path
       d="m 50.27084,99.571516 c -0.388056,0.458614 -0.282223,0.529164 0.458611,0.529164 0.670278,0 0.881944,-0.141109 0.740833,-0.529164 -0.141111,-0.282223 -0.352778,-0.529167 -0.493889,-0.529167 -0.141111,0 -0.458611,0.246944 -0.705555,0.529167 z"
       id="path124"
       style="stroke-width:0.0352778" />
    <path
       d="m 79.904175,99.747905 c 0,0.176388 0.246944,0.352775 0.564444,0.352775 0.282223,0 0.423334,-0.176387 0.3175,-0.352775 -0.105833,-0.211667 -0.352777,-0.352778 -0.564444,-0.352778 -0.176389,0 -0.3175,0.141111 -0.3175,0.352778 z"
       id="path125"
       style="stroke-width:0.0352778" />
    <path
       d="m 45.684728,101.05318 c 0,0.35278 0.176389,0.88195 0.352778,1.16417 0.246944,0.42333 0.458611,0.38805 1.199445,-0.35278 1.234722,-1.12889 1.164166,-1.41111 -0.3175,-1.41111 -0.952501,0 -1.234723,0.14111 -1.234723,0.59972 z"
       id="path126"
       style="stroke-width:0.0352778" />
    <path
       d="m 47.977784,101.72346 -1.411111,1.23472 1.940278,-0.21166 c 1.234722,-0.17639 2.2225,-0.52917 2.751666,-0.98778 0.670278,-0.59972 0.776112,-0.635 0.564445,-0.14111 -0.141111,0.42333 -0.03528,0.59972 0.388055,0.59972 0.564445,0 0.564445,-0.0706 0.105834,-0.81139 -0.881945,-1.30528 -2.645834,-1.19944 -4.339167,0.3175 z"
       id="path127"
       style="stroke-width:0.0352778" />
    <path
       d="m 79.551397,100.73568 c 0,0.14111 0.423333,0.77611 0.987778,1.37584 0.670278,0.77611 1.375833,1.16416 2.363611,1.30527 1.622778,0.21167 1.975556,0.0353 2.575278,-1.30527 0.670278,-1.51695 0.564445,-1.65806 -1.340556,-1.65806 -0.9525,0 -1.763889,0.10583 -1.763889,0.24694 0,0.14112 0.529167,0.81139 1.128889,1.51695 0.881945,0.91722 0.776112,0.88194 -0.423333,-0.28222 -1.093611,-0.98778 -1.940278,-1.48167 -2.575278,-1.48167 -0.529167,0 -0.9525,0.14111 -0.9525,0.28222 z"
       id="path128"
       style="stroke-width:0.0352778" />
    <path
       d="m 78.740008,102.00568 c -0.141111,0.3175 0.105833,0.56445 0.564445,0.70556 0.9525,0.24694 1.164166,0 0.599722,-0.67028 -0.564445,-0.67028 -0.917222,-0.67028 -1.164167,-0.0353 z"
       id="path129"
       style="stroke-width:0.0352778" />
    <path
       d="m 49.988617,104.12235 c -0.635,0.84667 -1.128889,1.65805 -1.128889,1.76389 0,0.0705 0.670278,-0.0706 1.516945,-0.35278 1.164167,-0.38806 1.693333,-0.81139 2.116667,-1.72861 l 0.599722,-1.23472 h -0.987778 c -0.776111,0 -1.27,0.35277 -2.116667,1.55222 z"
       id="path130"
       style="stroke-width:0.0352778" />
    <path
       d="m 47.907228,103.16985 c -1.340555,0.17639 -1.340555,0.17639 -0.635,1.51694 0.670278,1.30528 0.917223,1.30528 1.799167,0.0706 1.481667,-2.01083 1.552222,-1.905 -1.164167,-1.5875 z"
       id="path131"
       style="stroke-width:0.0352778" />
    <path
       d="m 78.140286,103.06402 c 0,0.91722 0.987778,1.94027 2.187222,2.29305 0.776111,0.24695 1.658056,0.52917 1.940278,0.635 0.458611,0.17639 0.458611,0.10583 0.141111,-0.45861 -0.846667,-1.48167 -1.693333,-2.18722 -2.928056,-2.39889 -0.740833,-0.14111 -1.340555,-0.17639 -1.340555,-0.0705 z"
       id="path132"
       style="stroke-width:0.0352778" />
    <path
       d="m 52.951951,103.84013 c -0.141111,0.3175 -0.176389,0.67027 -0.105833,0.74083 0.282222,0.24694 1.340555,-0.35278 1.199444,-0.70556 -0.211667,-0.635 -0.846667,-0.67027 -1.093611,-0.0353 z"
       id="path133"
       style="stroke-width:0.0352778" />
    <path
       d="m 77.293619,103.94596 c -0.105833,0.17639 0.03528,0.38806 0.3175,0.52917 0.282222,0.10583 0.529167,0.0353 0.529167,-0.14111 0,-0.45862 -0.635,-0.77612 -0.846667,-0.38806 z"
       id="path134"
       style="stroke-width:0.0352778" />
    <path
       d="m 82.408897,104.72207 0.776111,1.12889 0.705556,-0.84667 c 0.670278,-0.84666 0.670278,-0.84666 -0.141111,-1.05833 -0.458611,-0.14111 -1.128889,-0.24694 -1.481667,-0.28222 -0.599722,-0.0353 -0.564444,0.0705 0.141111,1.05833 z"
       id="path135"
       style="stroke-width:0.0352778" />
    <path
       d="m 52.987229,105.11013 c -0.564445,0.21166 -1.234723,0.88194 -1.658056,1.72861 -0.388056,0.74083 -0.635,1.37583 -0.529167,1.37583 0.493889,0 3.704167,-1.79916 3.704167,-2.08139 0,-0.17639 0.105834,-0.56444 0.211667,-0.88194 0.246944,-0.635 -0.246945,-0.67028 -1.728611,-0.14111 z"
       id="path136"
       style="stroke-width:0.0352778" />
    <path
       d="m 76.729175,105.00429 c 0,1.12889 0.881944,2.43417 2.116666,3.10445 0.776112,0.42333 1.411112,0.67028 1.411112,0.59972 0,-0.59972 -1.834445,-3.63361 -2.293056,-3.81 -0.811389,-0.28222 -1.234722,-0.28222 -1.234722,0.10583 z"
       id="path137"
       style="stroke-width:0.0352778" />
    <path
       d="m 55.03334,105.42763 c -0.352778,0.52916 0.105833,0.88194 0.564444,0.42333 0.246945,-0.24694 0.246945,-0.45861 0.03528,-0.59972 -0.211667,-0.10584 -0.493889,-0.0353 -0.599722,0.17639 z"
       id="path138"
       style="stroke-width:0.0352778" />
    <path
       d="m 75.741397,105.49818 c -0.352778,0.38806 -0.3175,0.59972 0.105833,0.9525 0.705556,0.59973 1.093611,0.21167 0.670278,-0.74083 -0.282222,-0.635 -0.388056,-0.67028 -0.776111,-0.21167 z"
       id="path139"
       style="stroke-width:0.0352778" />
    <path
       d="m 79.939453,106.87402 c 0.423333,0.84666 0.811389,1.5875 0.881944,1.65805 0.176389,0.21167 1.905,-1.41111 1.905,-1.76389 0,-0.21166 -2.928056,-1.37583 -3.421944,-1.37583 -0.07056,0 0.211666,0.67028 0.635,1.48167 z"
       id="path140"
       style="stroke-width:0.0352778" />
    <path
       d="m 49.63584,106.20374 -1.164167,0.42333 0.846667,0.81139 0.846666,0.77611 0.458611,-0.9525 c 0.282223,-0.56444 0.564445,-1.09361 0.635,-1.27 0.176389,-0.3175 -0.211666,-0.28222 -1.622777,0.21167 z"
       id="path141"
       style="stroke-width:0.0352778" />
    <path
       d="m 55.315562,106.52124 c -0.705555,0.35278 -2.187222,3.59833 -1.799167,3.98639 0.07056,0.10583 0.705556,-0.3175 1.411112,-0.88195 0.917222,-0.74083 1.305277,-1.37583 1.411111,-2.29305 0.141111,-1.34056 0.141111,-1.37584 -1.023056,-0.81139 z"
       id="path142"
       style="stroke-width:0.0352778" />
    <path
       d="m 56.761951,106.94457 c -0.352778,0.91722 -0.03528,1.34056 0.705556,0.81139 0.564444,-0.42333 0.564444,-0.49389 0.07055,-0.91722 -0.458611,-0.38806 -0.599722,-0.38806 -0.776111,0.10583 z"
       id="path143"
       style="stroke-width:0.0352778" />
    <path
       d="m 74.612508,107.33263 c 0,0.59972 0.458611,1.19944 1.658055,2.11666 0.881945,0.67028 1.693334,1.19945 1.728612,1.12889 0.07056,-0.0705 -0.07056,-0.70555 -0.282223,-1.44639 -0.282222,-0.88194 -0.811389,-1.62277 -1.516944,-2.01083 -1.375834,-0.88194 -1.5875,-0.84667 -1.5875,0.21167 z"
       id="path144"
       style="stroke-width:0.0352778" />
    <path
       d="m 73.554174,107.12096 c 0,0.21167 0.176389,0.45861 0.352778,0.56445 0.211667,0.10583 0.352778,-0.0353 0.352778,-0.3175 0,-0.3175 -0.141111,-0.56445 -0.352778,-0.56445 -0.176389,0 -0.352778,0.14111 -0.352778,0.3175 z"
       id="path145"
       style="stroke-width:0.0352778" />
    <path
       d="m 52.140562,108.10874 -1.516945,0.84667 1.058334,0.91722 c 0.599722,0.49389 1.128889,0.84666 1.199444,0.77611 0.176389,-0.28222 0.9525,-3.21028 0.846667,-3.28083 -0.07056,-0.0706 -0.776111,0.28222 -1.5875,0.74083 z"
       id="path146"
       style="stroke-width:0.0352778" />
    <path
       d="m 57.291118,108.32041 c -0.670278,0.52916 -1.023056,1.27 -1.199445,2.36361 l -0.246944,1.5875 1.446389,-1.41111 c 1.023055,-0.9525 1.446389,-1.65806 1.446389,-2.36362 0,-1.16416 -0.246945,-1.19944 -1.446389,-0.17638 z"
       id="path147"
       style="stroke-width:0.0352778" />
    <path
       d="m 72.566397,108.92013 c 0.07055,1.09361 0.388055,1.72861 1.27,2.57528 l 1.164166,1.12888 -0.246944,-1.94027 c -0.141111,-1.34056 -0.458611,-2.11667 -0.987778,-2.54 -1.093611,-0.91723 -1.305278,-0.77611 -1.199444,0.77611 z"
       id="path148"
       style="stroke-width:0.0352778" />
    <path
       d="m 59.125562,108.42624 c 0,0.38805 0.105834,0.49389 0.211667,0.21167 0.105833,-0.24695 0.07056,-0.56445 -0.03528,-0.67028 -0.105833,-0.14111 -0.211666,0.0705 -0.176389,0.45861 z"
       id="path149"
       style="stroke-width:0.0352778" />
    <path
       d="m 60.395562,108.46152 c -0.07055,0.14111 0.07056,0.84666 0.3175,1.51694 l 0.458612,1.23472 -0.211667,-1.41111 c -0.211667,-1.55222 -0.3175,-1.76389 -0.564445,-1.34055 z"
       id="path150"
       style="stroke-width:0.0352778" />
    <path
       d="m 70.485008,108.49679 c -0.246945,0.14112 -0.493889,0.81139 -0.564445,1.48167 -0.105833,0.67028 -0.246944,1.94028 -0.388056,2.82222 l -0.176388,1.5875 0.423333,-1.5875 c 0.246944,-0.88194 0.670278,-2.04611 0.881944,-2.57527 0.246945,-0.56445 0.352778,-1.12889 0.246945,-1.30528 -0.105833,-0.17639 0.03528,-0.38806 0.246944,-0.45861 0.246945,-0.10584 0.3175,-0.21167 0.105834,-0.21167 -0.176389,0 -0.529167,0.10583 -0.776111,0.24694 z"
       id="path151"
       style="stroke-width:0.0352778" />
    <path
       d="m 71.366952,110.04902 c -0.529167,1.62277 -0.564444,1.905 -0.105833,2.39889 0.282222,0.3175 0.529166,0.74083 0.529166,0.91722 0,0.17639 -0.246944,0 -0.529166,-0.35278 -0.599723,-0.81139 -0.705556,-0.74083 -1.023056,0.56444 -0.176389,0.81139 -0.105833,0.98778 0.423333,0.98778 1.058334,0 1.658056,-1.09361 1.552223,-2.82222 -0.03528,-0.88194 -0.07056,-2.01083 -0.07056,-2.57528 0,-0.52916 -0.03528,-0.9525 -0.07055,-0.9525 -0.07056,0 -0.388056,0.84667 -0.705557,1.83445 z"
       id="path152"
       style="stroke-width:0.0352778" />
    <path
       d="m 77.787508,108.35568 c 0,0.45861 0.811389,2.32834 1.023056,2.32834 0.176389,0 0.564444,-0.3175 0.881944,-0.67028 0.599722,-0.67028 0.599722,-0.70556 -0.458611,-1.23472 -1.058333,-0.56445 -1.446389,-0.67028 -1.446389,-0.42334 z"
       id="path153"
       style="stroke-width:0.0352778" />
    <path
       d="m 61.206951,108.99068 c 0,0.24695 0.141112,0.67028 0.3175,0.9525 0.246945,0.38806 0.388056,0.35278 0.705556,-0.21166 0.176389,-0.38806 0.246944,-0.81139 0.141111,-0.9525 -0.388055,-0.38806 -1.164167,-0.24695 -1.164167,0.21166 z"
       id="path154"
       style="stroke-width:0.0352778" />
    <path
       d="m 69.17973,108.88485 c -0.141111,0.24694 -0.176389,0.52917 -0.07056,0.635 0.3175,0.3175 0.670278,-0.14111 0.493889,-0.635 -0.141111,-0.38806 -0.211667,-0.38806 -0.423333,0 z"
       id="path155"
       style="stroke-width:0.0352778" />
    <path
       d="m 62.300563,110.19013 c -0.740834,1.05833 -0.811389,1.41111 -0.529167,2.71639 l 0.3175,1.48166 0.987778,-1.72861 c 0.635,-1.12889 0.881944,-1.97555 0.740833,-2.54 -0.3175,-1.27 -0.599722,-1.27 -1.516944,0.0706 z"
       id="path156"
       style="stroke-width:0.0352778" />
    <path
       d="m 64.029174,109.66096 c 0,0.38806 0.176389,0.59972 0.352778,0.49389 0.211666,-0.10583 0.352777,-0.45861 0.352777,-0.74083 0,-0.28223 -0.141111,-0.49389 -0.352777,-0.49389 -0.176389,0 -0.352778,0.3175 -0.352778,0.74083 z"
       id="path157"
       style="stroke-width:0.0352778" />
    <path
       d="m 66.569174,109.20235 c -0.246944,0.17639 -0.352778,0.56444 -0.211667,0.88194 0.246945,0.635 0.846667,0.81139 0.846667,0.28223 0,-0.17639 0.105833,-0.56445 0.211667,-0.88195 0.246944,-0.59972 -0.105834,-0.70555 -0.846667,-0.28222 z"
       id="path158"
       style="stroke-width:0.0352778" />
    <path
       d="m 67.627507,110.29596 c -0.388055,1.16417 -0.352777,1.5875 0.176389,2.64583 0.3175,0.70556 0.705556,1.27 0.846667,1.27 0.141111,0 0.352778,-0.88194 0.493889,-1.97555 0.211667,-1.69333 0.141111,-2.11667 -0.423333,-2.68111 -0.670278,-0.67028 -0.705556,-0.635 -1.093612,0.74083 z"
       id="path159"
       style="stroke-width:0.0352778" />
    <path
       d="m 75.071119,109.94318 c 0.141111,0.635 0.246944,1.55223 0.246944,2.04611 0,0.81139 0.03528,0.81139 1.023056,0.28223 1.5875,-0.81139 1.5875,-1.05834 -0.03528,-2.32834 l -1.446389,-1.16416 z"
       id="path160"
       style="stroke-width:0.0352778" />
    <path
       d="m 59.301951,109.51985 c -0.105833,0.10583 -0.211666,1.12889 -0.211666,2.25778 0,1.65805 0.141111,2.11666 0.670277,2.43416 0.9525,0.49389 1.799167,0.45862 1.658056,-0.10583 -0.599722,-1.94028 -0.564444,-1.905 -1.27,-0.9525 -0.388056,0.49389 -0.705556,0.74083 -0.705556,0.56445 0,-0.17639 0.246945,-0.59973 0.564445,-0.9525 0.846667,-0.9525 0.176389,-4.09223 -0.705556,-3.24556 z"
       id="path161"
       style="stroke-width:0.0352778" />
    <path
       d="m 64.805285,110.15485 c -0.3175,0.67028 -0.246944,1.23472 0.246944,2.71639 l 0.670278,1.86972 0.388056,-1.05833 c 0.211667,-0.59972 0.493889,-1.27 0.564444,-1.51695 0.176389,-0.45861 -0.881944,-2.89277 -1.234722,-2.89277 -0.141111,0 -0.423333,0.38805 -0.635,0.88194 z"
       id="path162"
       style="stroke-width:0.0352778" />
    <path
       d="m 54.39834,110.47235 -0.987778,0.81139 0.917222,0.59972 c 0.9525,0.635 0.9525,0.635 1.375834,-1.30528 0.282222,-1.16416 0,-1.19944 -1.305278,-0.10583 z"
       id="path163"
       style="stroke-width:0.0352778" />
    <path
       d="m 57.432229,111.46013 c -0.635,0.67028 -1.164167,1.30528 -1.164167,1.41111 0,0.24694 2.187223,1.05833 2.363611,0.84667 0.07056,-0.0706 0.105834,-0.88195 0.03528,-1.79917 l -0.105833,-1.62278 z"
       id="path164"
       style="stroke-width:0.0352778" />
    <path
       d="m 72.848619,112.55374 c 0,1.41111 0.211666,1.55222 1.199444,0.84667 0.564445,-0.42334 0.529167,-0.49389 -0.282222,-1.27 l -0.917222,-0.84667 z"
       id="path165"
       style="stroke-width:0.0352778" />
    <path
       d="m 63.323618,113.11818 c -0.423333,0.84667 -0.705555,1.55223 -0.635,1.62278 0.07056,0.0353 0.635,0.21167 1.305278,0.35278 l 1.199445,0.24694 -0.282223,-1.34055 c -0.423333,-2.39889 -0.705555,-2.54 -1.5875,-0.88195 z"
       id="path166"
       style="stroke-width:0.0352778" />
    <path
       d="m 66.498618,113.71791 c -0.493889,1.48166 -0.388055,1.65805 0.811389,1.37583 0.811389,-0.21167 0.846667,-0.3175 0.529167,-1.27 -0.529167,-1.51695 -0.881944,-1.55222 -1.340556,-0.10583 z"
       id="path167"
       style="stroke-width:0.0352778" />
    <path
       d="m 62.618063,116.11679 c 0,0.10584 0.458611,2.08139 1.023055,4.40973 0.564445,2.32833 1.234723,5.75028 1.481667,7.58472 0.246944,1.83444 0.529167,3.31611 0.564444,3.24556 0.07056,-0.0706 0.352778,-1.69334 0.670278,-3.59834 0.282223,-1.94028 0.9525,-5.36222 1.516945,-7.65528 l 0.987778,-4.1275 h -3.104445 c -1.728611,0 -3.139722,0.0706 -3.139722,0.14111 z"
       id="path168"
       style="stroke-width:0.0352778" />
    <path
       d="m 59.443062,133.29707 c 1.164167,1.02306 5.25639,3.4925 5.750279,3.4925 0.3175,0 0.3175,-2.04611 0.03528,-3.4925 l -0.211666,-1.09361 H 61.59501 l -3.386667,0.0353 z"
       id="path169"
       style="stroke-width:0.0352778" />
    <path
       d="m 66.145841,134.49652 c 0,2.01083 0.07055,2.25778 0.635,2.04611 1.023055,-0.38806 4.409722,-2.50472 5.538611,-3.42195 l 1.058334,-0.88194 -3.598334,-0.0353 h -3.633611 z"
       id="path170"
       style="stroke-width:0.0352778" />
    <path
       d="m 40.287228,119.82096 c -3.457223,3.84528 -2.151945,7.97278 2.504722,7.97278 1.975556,0 4.303889,-0.67028 4.303889,-1.27 0,-0.45861 -4.974167,-8.07861 -5.291667,-8.07861 -0.141111,0 -0.846666,0.635 -1.516944,1.37583 z m 2.681111,2.61056 0.599722,1.12889 -0.811389,-0.98778 -0.811388,-0.9525 -1.023056,2.11666 c -0.564445,1.16417 -1.058334,2.04612 -1.128889,1.97556 -0.211667,-0.21167 1.975556,-4.445 2.293056,-4.445 0.141111,0 0.529166,0.52917 0.881944,1.16417 z m 2.010834,3.13972 c 0,0.17639 -0.846667,0.24694 -1.834445,0.21167 l -1.869722,-0.0706 1.658055,-0.10583 1.693334,-0.14111 -0.564445,-0.9525 -0.564444,-0.9525 0.740833,0.88194 c 0.388056,0.49389 0.740834,0.98778 0.740834,1.12889 z"
       id="path395"
       style="stroke-width:0.0352778" />
    <path
       d="m 86.995009,122.32568 c -1.375834,2.15195 -2.504723,4.05695 -2.504723,4.19806 0,0.59972 2.328334,1.27 4.303889,1.27 3.421945,0 5.115278,-2.08139 4.198056,-5.15056 -0.388055,-1.30527 -2.610556,-4.19805 -3.210278,-4.19805 -0.141111,0 -1.411111,1.76389 -2.786944,3.88055 z m 3.880555,1.09361 c 0.564445,1.19945 1.023056,2.22251 0.917223,2.29306 -0.07056,0.0706 -0.564445,-0.81139 -1.128889,-1.97556 -0.846667,-1.79916 -1.093611,-2.04611 -1.552223,-1.65805 -0.493889,0.38805 -0.493889,0.35278 -0.07055,-0.21167 0.246944,-0.3175 0.529167,-0.59972 0.599722,-0.59972 0.07056,0 0.635,0.9525 1.234722,2.15194 z m -2.363611,-0.3175 c -0.141111,0.24695 -0.564444,0.88195 -0.917222,1.41112 l -0.670278,0.9525 1.869722,0.14111 1.869723,0.10583 -2.010834,0.0706 c -1.128889,0.0353 -2.046111,0 -2.046111,-0.10584 0,-0.3175 1.763889,-2.99861 1.975556,-2.99861 0.105833,0 0.07055,0.21167 -0.07056,0.42333 z"
       id="path396"
       style="stroke-width:0.0352778" />
  </g>
</svg>
