<?xml version="1.0" encoding="UTF-8" standalone="no"?>
<svg
   version="1.0"
   width="231.22758pt"
   height="221.56531pt"
   viewBox="0 0 231.22758 221.56531"
   preserveAspectRatio="xMidYMid"
   id="svg697"
   xmlns="http://www.w3.org/2000/svg"
   xmlns:svg="http://www.w3.org/2000/svg">
  <defs
     id="defs697" />
  <g
     transform="matrix(0.1,0,0,-0.1,-275.63651,239.61435)"
     fill="#000000"
     stroke="none"
     id="g697">
    <path
       d="m 3840,2378 c -60,-31 -90,-77 -90,-140 0,-97 54,-158 146,-166 66,-5 117,18 152,70 91,138 -62,311 -208,236 z m 130,-43 c 37,-19 60,-62 60,-111 0,-28 -8,-44 -34,-70 -19,-19 -40,-34 -47,-34 -8,0 0,9 18,20 38,23 53,48 53,90 0,65 -38,103 -115,113 l -30,4 33,2 c 18,0 46,-6 62,-14 z m -132,-22 c -8,-10 -20,-27 -26,-38 -6,-11 -12,-15 -12,-9 0,12 38,64 47,64 3,0 -1,-8 -9,-17 z m 77,-23 -29,-30 24,-25 24,-26 -27,-27 c -15,-14 -27,-22 -27,-16 0,6 9,19 20,29 l 20,18 -22,24 -22,23 29,30 c 16,17 31,30 34,30 2,0 -8,-13 -24,-30 z m -35,-160 c 7,0 10,-3 7,-7 -10,-10 -57,18 -69,42 -8,15 -4,14 19,-7 16,-16 35,-28 43,-28 z"
       id="path523" />
    <path
       d="m 4056,2125 -16,-24 350,-250 350,-249 20,25 20,26 -349,248 c -192,137 -351,249 -354,249 -2,0 -12,-11 -21,-25 z"
       id="path524" />
    <path
       d="m 3400,1890 c -184,-137 -336,-255 -337,-262 -2,-7 4,-21 11,-31 14,-18 36,-3 343,223 180,134 336,251 346,260 16,15 17,20 6,39 -8,11 -18,21 -24,21 -5,-1 -161,-113 -345,-250 z"
       id="path525" />
    <path
       d="m 3770,2070 -23,-17 44,-58 c 39,-52 44,-55 56,-39 19,27 16,41 -20,89 -33,42 -33,43 -57,25 z"
       id="path526" />
    <path
       d="m 3991,2039 c -32,-48 -33,-51 -20,-80 l 14,-30 47,65 47,65 -22,16 c -12,8 -24,15 -27,15 -3,0 -20,-23 -39,-51 z"
       id="path527" />
    <path
       d="m 3851,2039 c 16,-24 24,-28 30,-17 14,21 11,25 -21,37 l -31,10 z"
       id="path528" />
    <path
       d="m 3960,2059 c -31,-13 -32,-13 -24,-33 9,-23 17,-20 37,14 10,17 17,30 15,29 -2,0 -14,-5 -28,-10 z"
       id="path529" />
    <path
       d="m 4045,1986 c -49,-69 -51,-78 -31,-115 13,-24 14,-23 69,55 31,43 57,82 57,85 0,4 -11,14 -25,23 -24,16 -24,15 -70,-48 z"
       id="path530" />
    <path
       d="m 3706,2021 c -20,-22 -21,-19 44,-109 l 44,-62 17,32 17,33 -42,59 c -24,33 -47,61 -53,63 -5,2 -17,-5 -27,-16 z"
       id="path531" />
    <path
       d="m 3792,1785 c -61,-124 -112,-227 -112,-230 0,-3 104,-5 230,-5 127,0 230,2 230,5 0,10 -225,455 -230,455 -3,0 -56,-101 -118,-225 z m 188,-37 c 35,-73 66,-136 68,-140 2,-5 -60,-8 -137,-8 h -140 l 67,139 c 37,77 69,140 72,140 3,1 35,-59 70,-131 z"
       id="path532" />
    <path
       d="m 3848,1728 c -26,-54 -42,-96 -35,-92 6,4 26,16 42,27 22,14 19,10 -10,-17 l -40,-35 109,-1 h 109 l -39,31 c -62,49 -57,52 10,6 16,-11 27,-16 25,-11 -2,5 -24,52 -49,104 -42,88 -45,92 -51,65 -5,-23 -7,-24 -8,-8 -2,44 -17,28 -63,-69 z"
       id="path533" />
    <path
       d="m 4095,1915 c -55,-81 -57,-86 -45,-115 7,-17 16,-33 20,-35 5,-3 40,40 78,95 l 71,100 -29,20 c -15,11 -30,20 -32,20 -3,0 -31,-38 -63,-85 z"
       id="path534" />
    <path
       d="m 3640,1973 c -14,-9 -26,-17 -28,-19 -5,-3 132,-193 139,-193 3,-1 13,16 21,37 l 15,38 -54,75 c -30,41 -58,75 -62,77 -3,1 -18,-5 -31,-15 z"
       id="path535" />
    <path
       d="m 4156,1843 -75,-106 20,-40 c 12,-22 24,-35 29,-31 8,9 151,211 162,229 4,6 -9,20 -27,32 l -34,23 z"
       id="path536" />
    <path
       d="m 3562,1917 -31,-24 46,-64 c 26,-35 64,-89 87,-118 l 40,-55 18,43 18,43 -71,99 c -39,55 -72,99 -73,99 -1,0 -16,-11 -34,-23 z"
       id="path537" />
    <path
       d="m 4287,1858 c -14,-18 -54,-75 -90,-126 -64,-91 -65,-94 -52,-125 7,-18 18,-32 24,-32 9,0 187,244 197,270 3,6 -9,18 -25,28 l -30,17 z"
       id="path538" />
    <path
       d="m 3485,1858 -26,-23 87,-120 c 116,-161 109,-154 129,-115 9,17 14,38 11,45 -6,17 -156,224 -167,230 -4,3 -19,-5 -34,-17 z"
       id="path539" />
    <path
       d="m 4286,1699 c -54,-77 -96,-143 -93,-146 3,-2 23,-7 44,-10 l 38,-5 89,128 c 85,121 88,128 70,141 -49,37 -45,39 -148,-108 z"
       id="path540" />
    <path
       d="m 3412,1802 -31,-27 86,-118 87,-119 40,6 c 22,4 42,9 44,11 2,2 -40,63 -94,137 -53,73 -98,134 -99,135 -1,2 -15,-10 -33,-25 z"
       id="path541" />
    <path
       d="m 4386,1671 c -97,-139 -96,-138 -51,-143 36,-4 38,-3 106,93 38,54 72,104 75,112 4,11 -33,47 -49,47 -2,0 -38,-49 -81,-109 z"
       id="path542" />
    <path
       d="m 3335,1748 -28,-24 72,-97 c 70,-94 73,-97 111,-97 22,0 40,3 40,6 0,5 -87,129 -153,218 -13,18 -14,17 -42,-6 z"
       id="path543" />
    <path
       d="m 4464,1627 c -66,-95 -70,-102 -50,-109 46,-14 55,-8 116,77 33,47 60,89 60,94 0,7 -44,42 -52,41 -2,-1 -35,-47 -74,-103 z"
       id="path544" />
    <path
       d="m 3260,1692 -23,-18 59,-82 c 58,-81 60,-82 94,-76 19,3 37,7 38,9 6,5 -129,185 -138,185 -4,0 -18,-8 -30,-18 z"
       id="path545" />
    <path
       d="m 4548,1596 c -31,-46 -54,-86 -51,-90 4,-3 21,-6 38,-6 27,0 38,9 78,65 26,36 47,69 47,74 0,7 -44,42 -52,41 -2,-1 -29,-38 -60,-84 z"
       id="path546" />
    <path
       d="m 4820,1658 c -50,-34 -72,-71 -78,-126 -17,-179 230,-248 309,-86 54,112 -22,234 -146,234 -38,0 -61,-6 -85,-22 z m 107,-24 c -3,-3 -12,-4 -19,-1 -8,3 -5,6 6,6 11,1 17,-2 13,-5 z m -69,-20 c -15,-8 -34,-27 -42,-42 -9,-15 -15,-21 -16,-14 0,17 55,72 72,72 7,-1 1,-7 -14,-16 z m 133,-13 c 16,-16 29,-35 29,-43 -1,-7 -7,-1 -16,14 -8,15 -27,34 -42,42 -15,9 -21,15 -14,16 8,0 27,-13 43,-29 z m -69,-23 c 23,23 28,11 28,-63 0,-74 -5,-86 -28,-63 -8,8 -15,8 -29,-3 -16,-12 -15,-11 1,9 15,17 22,19 33,11 11,-9 13,-1 13,46 0,47 -2,55 -13,46 -11,-8 -18,-6 -33,11 -16,20 -17,21 -1,9 14,-11 21,-11 29,-3 z m -125,-70 c -3,-7 -5,-2 -5,12 0,14 2,19 5,13 2,-7 2,-19 0,-25 z m 230,-5 c -3,-10 -5,-4 -5,12 0,17 2,24 5,18 2,-7 2,-21 0,-30 z m -32,-63 c -16,-17 -32,-30 -36,-30 -4,0 7,15 24,33 18,18 34,31 36,30 3,-2 -8,-17 -24,-33 z m -132,-29 c -2,-3 -16,8 -31,24 l -27,28 31,-24 c 17,-13 30,-26 27,-28 z m 65,-8 c -10,-2 -26,-2 -35,0 -10,3 -2,5 17,5 19,0 27,-2 18,-5 z"
       id="path547" />
    <path
       d="m 2855,1656 c -72,-32 -113,-115 -94,-190 33,-130 189,-169 281,-70 116,126 -30,330 -187,260 z m 52,-42 c -3,-3 -12,-4 -19,-1 -8,3 -5,6 6,6 11,1 17,-2 13,-5 z m -47,-17 c -9,-7 -24,-23 -33,-37 -9,-13 -17,-19 -17,-12 0,14 44,62 57,62 4,0 1,-6 -7,-13 z m 159,-29 c 20,-33 8,-27 -24,10 -22,26 -24,32 -9,22 12,-7 27,-22 33,-32 z m -83,-68 c 8,-7 14,-17 14,-22 0,-6 -6,-5 -14,1 -12,10 -15,7 -19,-21 -4,-32 -4,-32 -5,6 -1,22 -10,48 -19,59 -17,19 -17,20 0,14 13,-5 17,-1 19,21 1,20 2,17 5,-10 2,-20 11,-42 19,-48 z m -129,-7 c -3,-10 -5,-4 -5,12 0,17 2,24 5,18 2,-7 2,-21 0,-30 z m 230,0 c -3,-10 -5,-4 -5,12 0,17 2,24 5,18 2,-7 2,-21 0,-30 z m -183,-76 21,-18 -22,11 c -22,10 -43,39 -43,57 0,4 6,-1 12,-12 6,-11 20,-28 32,-38 z m 161,20 c -9,-14 -23,-28 -32,-31 -8,-4 -2,9 13,27 33,39 43,41 19,4 z"
       id="path548" />
    <path
       d="m 3191,1641 -23,-18 43,-61 c 40,-56 47,-61 82,-61 20,-1 37,3 37,9 0,12 -100,150 -109,150 -3,0 -17,-9 -30,-19 z"
       id="path549" />
    <path
       d="m 4627,1560 c -39,-57 -45,-70 -30,-70 10,0 27,-3 38,-5 16,-4 29,7 59,51 l 39,57 -24,18 c -13,10 -26,19 -29,18 -3,0 -27,-31 -53,-69 z"
       id="path550" />
    <path
       d="m 3124,1591 -22,-17 34,-47 c 31,-43 36,-46 66,-40 18,3 35,7 36,9 5,4 -79,114 -87,114 -3,-1 -16,-9 -27,-19 z"
       id="path551" />
    <path
       d="m 3100,1508 c 0,-39 3,-41 32,-30 16,6 15,10 -7,37 l -24,30 z"
       id="path552" />
    <path
       d="m 4696,1513 c -15,-21 -16,-27 -5,-34 28,-18 39,-10 32,24 -3,17 -6,33 -7,34 -1,0 -9,-10 -20,-24 z"
       id="path553" />
    <path
       d="m 3630,1527 c -3,-3 -106,-19 -230,-36 -124,-18 -236,-35 -248,-39 -22,-7 -9,-22 157,-185 100,-97 185,-177 189,-177 9,0 144,418 140,431 -2,6 -6,8 -8,6 z m -64,-102 c -3,-9 -22,-67 -42,-131 l -36,-114 -109,101 c -60,56 -112,105 -115,110 -5,9 9,12 151,33 128,20 159,20 151,1 z"
       id="path554" />
    <path
       d="m 3415,1410 c -94,-14 -106,-18 -85,-27 51,-21 54,-23 28,-18 -14,3 -34,8 -45,11 -10,4 18,-30 62,-75 44,-44 83,-81 87,-81 4,0 2,14 -4,31 -6,16 -8,33 -4,36 3,4 6,1 6,-5 0,-6 5,-23 11,-39 11,-27 12,-25 40,55 15,46 31,93 35,104 5,18 0,16 -42,-12 l -49,-32 40,36 c 22,19 38,35 35,34 -3,0 -54,-8 -115,-18 z"
       id="path555" />
    <path
       d="m 3625,1409 -40,-121 60,-55 c 98,-93 196,-125 246,-83 l 24,19 -31,1 c -66,0 -113,72 -100,153 8,50 59,147 93,179 20,17 17,11 -11,-28 -47,-67 -66,-114 -66,-166 0,-42 21,-88 41,-88 5,0 9,15 9,34 0,73 84,124 188,113 52,-6 177,-45 169,-53 -1,-2 -31,6 -66,16 -74,24 -148,26 -196,6 -33,-14 -52,-52 -20,-40 28,11 85,-7 119,-37 60,-52 80,-109 81,-226 0,-69 3,-99 11,-95 66,42 174,129 170,138 -2,6 -37,111 -76,233 l -72,221 h -247 -247 z"
       id="path556" />
    <path
       d="m 4182,1508 c 3,-7 33,-101 67,-208 35,-107 67,-199 72,-204 5,-6 82,64 189,170 164,162 179,179 158,186 -26,8 -442,68 -472,68 -10,0 -16,-5 -14,-12 z m 253,-74 c 72,-9 132,-18 133,-20 2,-1 -47,-52 -110,-113 l -113,-110 -36,112 c -20,62 -39,123 -44,136 -6,21 -5,23 16,18 13,-3 83,-13 154,-23 z"
       id="path557" />
    <path
       d="m 4330,1409 c 31,-27 32,-29 5,-12 -16,11 -35,23 -42,27 -10,5 12,-71 49,-174 4,-10 11,-4 21,20 18,39 23,26 6,-17 l -10,-28 33,32 c 18,17 58,54 88,83 39,37 49,50 33,46 -59,-15 -65,-15 -28,3 l 40,18 -50,7 c -27,4 -74,12 -104,17 -78,13 -80,12 -41,-22 z"
       id="path558" />
    <path
       d="m 4716,1431 c -16,-18 -16,-19 15,-30 18,-6 33,-10 34,-9 1,2 -5,15 -15,31 -16,26 -17,27 -34,8 z"
       id="path559" />
    <path
       d="m 3076,1414 c -22,-33 -16,-38 24,-22 31,13 32,13 12,31 -19,17 -20,17 -36,-9 z"
       id="path560" />
    <path
       d="m 4660,1375 -22,-24 72,-22 c 60,-18 74,-19 81,-8 11,17 11,36 2,42 -5,3 -31,12 -60,20 -50,15 -51,15 -73,-8 z"
       id="path561" />
    <path
       d="m 3078,1368 c -57,-19 -66,-30 -49,-57 7,-11 20,-10 77,9 38,13 71,24 73,26 5,5 -30,44 -38,43 -3,0 -32,-10 -63,-21 z"
       id="path562" />
    <path
       d="m 4816,1352 c -5,-9 -256,-807 -256,-815 0,-3 14,-10 30,-16 17,-5 30,-8 30,-6 0,4 225,721 249,796 8,22 5,27 -20,36 -16,6 -31,8 -33,5 z"
       id="path563" />
    <path
       d="m 2973,1333 c -13,-2 -23,-10 -23,-16 0,-9 241,-742 264,-804 4,-9 12,-9 36,0 17,6 29,16 27,22 -2,5 -64,189 -138,407 -74,219 -136,397 -139,397 -3,-1 -15,-4 -27,-6 z"
       id="path564" />
    <path
       d="m 4600,1315 c -13,-14 -22,-27 -19,-29 8,-8 181,-58 185,-53 3,2 6,17 7,31 2,26 -3,29 -73,52 -41,13 -75,24 -76,24 0,0 -11,-11 -24,-25 z"
       id="path565" />
    <path
       d="m 3110,1306 c -57,-21 -65,-26 -62,-47 1,-13 6,-27 10,-31 4,-4 50,6 101,23 l 92,31 -22,24 c -27,29 -36,29 -119,0 z"
       id="path566" />
    <path
       d="m 3551,1183 c -17,-54 -31,-105 -31,-113 1,-13 163,-138 194,-149 6,-2 13,-8 16,-12 8,-12 174,-129 183,-129 4,0 50,32 102,70 l 95,70 v 69 c 0,90 -30,188 -70,226 -34,32 -45,30 -31,-7 11,-29 0,-87 -22,-121 -27,-42 -91,-96 -146,-125 -75,-40 -120,-51 -55,-14 130,73 194,140 194,200 0,38 -6,40 -31,8 -11,-14 -35,-30 -55,-36 -72,-24 -157,11 -250,102 l -62,60 z"
       id="path567" />
    <path
       d="m 3163,1237 c -51,-17 -93,-37 -93,-43 0,-7 4,-24 10,-38 l 9,-25 123,41 122,41 -34,29 c -19,15 -37,28 -40,27 -3,0 -47,-15 -97,-32 z"
       id="path568" />
    <path
       d="m 4526,1244 c -15,-14 -26,-27 -24,-29 5,-6 231,-75 233,-72 1,1 7,17 13,35 9,25 8,34 -1,37 -49,17 -174,55 -182,55 -5,-1 -23,-12 -39,-26 z"
       id="path569" />
    <path
       d="m 3214,1157 -121,-42 11,-32 c 6,-17 14,-34 17,-37 5,-6 267,78 277,89 6,6 -48,66 -57,64 -3,0 -60,-19 -127,-42 z"
       id="path570" />
    <path
       d="m 4445,1170 c -16,-16 -27,-32 -24,-34 4,-4 274,-86 283,-86 6,0 29,70 24,75 -3,3 -242,75 -250,75 -2,0 -17,-13 -33,-30 z"
       id="path571" />
    <path
       d="m 3268,1072 c -76,-26 -138,-52 -138,-59 0,-6 4,-23 10,-37 l 9,-25 166,56 167,55 -28,29 c -15,16 -33,29 -38,28 -6,0 -73,-22 -148,-47 z"
       id="path572" />
    <path
       d="m 4367,1092 -27,-29 157,-48 c 87,-26 163,-50 169,-52 14,-5 38,58 27,68 -9,7 -275,89 -290,89 -5,0 -21,-13 -36,-28 z"
       id="path573" />
    <path
       d="m 4340,1015 c 0,-17 6,-38 13,-47 15,-20 286,-103 298,-91 5,5 11,22 15,38 l 6,30 -166,51 -166,51 z"
       id="path574" />
    <path
       d="m 3304,987 -151,-52 11,-32 c 6,-17 14,-34 17,-37 4,-5 276,80 288,90 2,2 7,21 11,44 6,33 5,40 -9,39 -9,0 -84,-24 -167,-52 z"
       id="path575" />
    <path
       d="m 3500,973 c -6,-37 -26,-153 -44,-256 -21,-124 -28,-187 -21,-185 24,6 445,231 445,238 0,6 -342,260 -361,268 -4,2 -12,-28 -19,-65 z m 198,-122 102,-75 -137,-72 c -76,-40 -139,-69 -141,-64 -3,7 26,184 44,273 7,32 -2,36 132,-62 z"
       id="path576" />
    <path
       d="m 3593,896 c 4,-10 10,-30 13,-44 4,-22 2,-21 -12,8 l -17,35 -18,-95 c -25,-136 -24,-141 12,-92 38,52 49,56 15,5 -14,-20 -24,-39 -22,-41 3,-2 46,19 98,47 l 93,51 -45,1 -45,2 49,6 50,6 -55,40 c -110,82 -123,91 -116,71 z"
       id="path577" />
    <path
       d="m 4124,910 c -98,-72 -180,-134 -182,-139 -2,-7 414,-231 444,-239 10,-3 -68,493 -79,504 -2,2 -84,-55 -183,-126 z m 180,-115 c 14,-82 24,-150 22,-152 -3,-3 -263,132 -274,142 -1,1 48,39 110,83 62,45 113,80 115,79 1,-1 13,-70 27,-152 z"
       id="path578" />
    <path
       d="m 4170,857 -85,-62 50,-6 50,-5 -45,-5 -45,-4 95,-50 c 52,-27 99,-52 104,-54 5,-2 -6,18 -24,45 l -32,49 36,-40 c 26,-28 35,-34 32,-20 -3,11 -10,56 -17,100 -6,44 -15,84 -19,88 -4,4 -12,-11 -19,-34 -7,-22 -14,-39 -16,-37 -2,2 2,25 10,51 8,26 13,47 12,47 -1,0 -40,-28 -87,-63 z"
       id="path579" />
    <path
       d="m 3327,891 -139,-45 6,-30 c 4,-16 9,-32 12,-35 2,-3 60,13 127,35 l 121,40 8,39 c 5,21 7,39 6,40 -2,1 -65,-19 -141,-44 z"
       id="path580" />
    <path
       d="m 4357,908 c 3,-18 10,-37 15,-43 14,-15 242,-84 251,-76 4,4 9,21 10,36 2,28 1,29 -138,72 -77,23 -141,43 -142,43 -1,0 0,-15 4,-32 z"
       id="path581" />
    <path
       d="m 3329,798 -117,-39 11,-35 c 6,-19 15,-33 21,-30 6,2 52,18 102,36 89,30 92,32 99,67 3,19 5,36 3,38 -2,1 -55,-15 -119,-37 z"
       id="path582" />
    <path
       d="m 4376,803 c 4,-21 7,-39 8,-39 2,-2 204,-64 209,-64 10,0 26,60 18,65 -9,5 -229,75 -237,75 -3,0 -2,-17 2,-37 z"
       id="path583" />
    <path
       d="m 3330,708 c -47,-17 -86,-32 -88,-33 -1,-1 3,-16 9,-34 9,-24 16,-31 28,-26 9,4 43,16 76,28 33,11 63,25 67,31 10,14 10,66 1,65 -5,0 -46,-14 -93,-31 z"
       id="path584" />
    <path
       d="m 3853,720 c -32,-19 -33,-22 -33,-83 0,-35 3,-105 6,-155 l 7,-92 h 38 39 v 53 c 0,96 -13,297 -19,297 -3,0 -21,-9 -38,-20 z"
       id="path585" />
    <path
       d="M 3920,565 V 390 h 40 40 v 155 155 l -32,20 c -18,11 -36,20 -40,20 -5,0 -8,-79 -8,-175 z"
       id="path586" />
    <path
       d="m 4390,721 c 0,-39 14,-51 92,-77 83,-27 95,-26 100,16 3,22 -4,26 -82,51 -104,33 -110,34 -110,10 z"
       id="path587" />
    <path
       d="m 3763,673 c -33,-16 -33,-17 -33,-88 0,-40 3,-100 6,-134 l 7,-61 h 33 34 v 150 c 0,83 -3,150 -7,149 -5,0 -23,-8 -40,-16 z"
       id="path588" />
    <path
       d="m 4010,586 c 0,-57 3,-124 6,-150 7,-46 7,-46 45,-46 h 39 v 89 c 0,148 -7,176 -47,195 -18,9 -36,16 -38,16 -3,0 -5,-47 -5,-104 z"
       id="path589" />
    <path
       d="m 3343,622 c -40,-14 -73,-29 -73,-33 0,-4 4,-19 10,-33 l 9,-25 58,23 c 51,20 58,26 64,56 4,19 7,35 6,36 -1,1 -35,-10 -74,-24 z"
       id="path590" />
    <path
       d="m 4404,634 c 3,-9 6,-24 6,-34 0,-13 16,-24 62,-39 34,-12 65,-21 69,-21 4,0 12,13 17,29 l 11,30 -77,25 c -90,30 -96,31 -88,10 z"
       id="path591" />
    <path
       d="m 3673,628 c -22,-11 -23,-17 -23,-125 V 390 h 35 35 v 125 c 0,132 -1,135 -47,113 z"
       id="path592" />
    <path
       d="M 4110,515 V 390 h 40 40 v 105 105 l -32,20 c -18,11 -36,20 -40,20 -5,0 -8,-56 -8,-125 z"
       id="path593" />
    <path
       d="m 3593,583 -33,-17 v -88 -88 h 35 35 v 105 c 0,58 -1,105 -2,104 -2,0 -18,-8 -35,-16 z"
       id="path594" />
    <path
       d="m 4202,493 3,-98 33,-3 32,-3 v 85 c 0,85 0,86 -30,101 -16,8 -32,15 -35,15 -3,0 -4,-44 -3,-97 z"
       id="path595" />
    <path
       d="m 4420,543 c 0,-35 13,-41 50,-25 l 35,15 -35,13 c -47,17 -50,17 -50,-3 z"
       id="path596" />
    <path
       d="m 3346,538 -30,-11 35,-12 c 40,-13 49,-11 49,16 0,21 -11,23 -54,7 z"
       id="path597" />
    <path
       d="m 3503,538 c -21,-10 -23,-18 -23,-78 0,-37 2,-69 5,-72 3,-2 18,-3 35,0 l 30,4 v 79 c 0,84 -3,88 -47,67 z"
       id="path598" />
    <path
       d="m 4280,523 c 0,-16 3,-52 7,-81 6,-50 7,-53 32,-50 21,2 26,8 25,28 -1,14 -2,43 -3,66 -1,33 -6,43 -26,52 -35,16 -35,16 -35,-15 z"
       id="path599" />
    <path
       d="m 4487,505 c -72,-25 -117,-84 -117,-155 0,-111 105,-190 210,-159 50,15 106,75 116,123 23,125 -93,231 -209,191 z m 66,-52 c -7,-2 -21,-2 -30,0 -10,3 -4,5 12,5 17,0 24,-2 18,-5 z m -76,-19 c -16,-9 -35,-30 -42,-47 -9,-20 -14,-25 -15,-14 0,21 52,77 72,77 7,-1 0,-8 -15,-16 z m 129,-2 c 30,-24 44,-55 44,-96 0,-52 -51,-105 -105,-111 l -40,-5 42,11 c 57,14 93,57 93,111 0,32 -7,47 -34,74 -36,36 -36,45 0,16 z m -61,-160 c -3,-3 -16,5 -30,18 -14,13 -23,26 -20,28 3,3 12,-3 19,-14 8,-10 18,-16 22,-11 4,4 -3,22 -16,40 -12,17 -17,26 -9,20 22,-21 29,-15 31,25 1,20 4,6 5,-32 2,-37 1,-71 -2,-74 z m -65,-28 c 14,-7 19,-13 12,-14 -19,0 -72,58 -72,78 0,9 8,2 18,-17 10,-18 29,-39 42,-47 z"
       id="path600" />
    <path
       d="m 3250,495 c -19,-9 -47,-28 -62,-42 -76,-73 -53,-209 43,-258 37,-20 113,-19 155,1 72,34 105,142 67,221 -33,70 -134,108 -203,78 z m 73,-42 c -7,-2 -21,-2 -30,0 -10,3 -4,5 12,5 17,0 24,-2 18,-5 z m -89,-37 c -26,-26 -34,-43 -35,-72 -1,-26 -3,-31 -6,-15 -7,36 5,70 34,97 40,37 46,29 7,-10 z m 157,5 c 16,-16 29,-38 29,-48 -1,-11 -6,-6 -15,14 -7,17 -26,38 -42,47 -15,8 -22,15 -15,16 8,0 27,-13 43,-29 z m -73,-122 -3,-41 -23,24 -22,25 20,25 c 11,15 21,41 22,60 1,28 2,27 5,-9 2,-24 3,-61 1,-84 z m 102,5 c 0,-19 -53,-74 -72,-74 -7,1 -1,7 14,15 14,8 32,28 40,45 15,34 18,37 18,14 z m -157,-73 c -4,-6 -63,51 -63,60 0,4 15,-7 33,-24 18,-18 31,-34 30,-36 z m 60,-8 c -7,-2 -19,-2 -25,0 -7,3 -2,5 12,5 14,0 19,-2 13,-5 z"
       id="path601" />
    <path
       d="m 3294,319 c -3,-6 -1,-16 5,-22 8,-8 11,-5 11,11 0,24 -5,28 -16,11 z"
       id="path602" />
    <path
       d="m 3438,498 c -16,-12 -16,-15 3,-37 24,-30 33,-23 22,18 -7,28 -10,30 -25,19 z"
       id="path603" />
    <path
       d="m 4360,463 v -47 l 24,34 c 22,32 23,36 8,48 -26,20 -32,14 -32,-35 z"
       id="path604" />
    <path
       d="m 3503,373 c -7,-2 -13,-18 -13,-34 v -29 h 123 c 67,0 260,3 430,7 l 307,6 v 29 28 l -417,-1 c -230,0 -424,-3 -430,-6 z"
       id="path605" />
  </g>
</svg>
