<?xml version="1.0" encoding="UTF-8" standalone="no"?>
<!-- Created with Inkscape (http://www.inkscape.org/) -->

<svg
   width="79.82679mm"
   height="80.528069mm"
   viewBox="0 0 79.82679 80.528069"
   version="1.1"
   id="svg1"
   xmlns="http://www.w3.org/2000/svg"
   xmlns:svg="http://www.w3.org/2000/svg">
  <defs
     id="defs1" />
  <g
     id="layer1"
     transform="translate(-38.099998,-51.593736)">
    <path
       d="m 77.50528,51.88804 c -0.705555,1.093611 -10.618611,18.344445 -10.759722,18.697223 -0.07056,0.141111 4.974167,0.282222 11.218334,0.282222 8.960556,0 11.324167,-0.105833 11.183056,-0.458611 C 89.041115,70.197208 86.501114,65.71693 83.502503,60.531096 78.210836,51.358873 77.999169,51.076651 77.50528,51.88804 Z m 2.786945,10.089445 c 0.740833,1.481667 2.116667,3.4925 3.316111,4.7625 l 2.081389,2.2225 -2.363611,-0.599722 c -3.739445,-0.987778 -9.454445,-0.705556 -12.594167,0.564444 -0.388056,0.176389 0.3175,-0.811388 1.5875,-2.151944 2.328333,-2.469445 4.162778,-5.679723 4.938889,-8.607778 0.246944,-0.881945 0.493889,-1.834445 0.599722,-2.116667 0.105834,-0.282222 0.388056,0.352778 0.670278,1.411111 0.282222,1.058333 1.058333,3.104445 1.763889,4.515556 z"
       id="path2"
       style="stroke-width:0.0352778" />
    <path
       d="m 77.752225,58.343873 c -1.305278,3.457223 -1.728611,4.339167 -2.681111,5.785556 -0.599723,0.881945 -1.5875,2.151945 -2.187223,2.822223 -1.058333,1.164167 -1.058333,1.164167 -0.211666,0.917222 2.469444,-0.776111 8.184445,-0.776111 10.512778,-0.03528 0.705556,0.246945 0.599722,-0.03528 -0.776111,-1.728611 -1.763889,-2.116667 -3.245556,-4.797778 -3.951111,-7.055556 -0.352778,-1.199444 -0.458612,-1.305278 -0.705556,-0.705556 z"
       id="path3"
       style="stroke-width:0.0352778" />
    <path
       d="m 43.109445,72.208041 c 0.740833,1.799167 10.689167,18.379723 10.865556,18.168057 0.388056,-0.388056 10.583334,-18.026946 10.583334,-18.27389 0,-0.105834 -4.868333,-0.176389 -10.795,-0.176389 -5.926668,0 -10.724446,0.141111 -10.65389,0.282222 z m 10.865556,2.328334 c 3.598334,0 5.115278,-0.141112 6.279445,-0.599723 l 1.516945,-0.599722 -2.151945,2.398889 c -2.363611,2.575278 -4.727223,6.949723 -5.150556,9.489723 -0.141111,0.846667 -0.352778,1.516944 -0.493889,1.516944 -0.141111,0 -0.352778,-0.670277 -0.493889,-1.516944 -0.388055,-2.504723 -2.786944,-6.914445 -5.115278,-9.454445 l -2.116667,-2.328334 1.481667,0.529167 c 1.093611,0.423333 2.751667,0.564445 6.244167,0.564445 z"
       id="path4"
       style="stroke-width:0.0352778" />
    <path
       d="m 58.737501,74.783319 c -1.375833,0.458611 -6.208889,0.564444 -8.537222,0.211667 l -1.869723,-0.282223 1.693334,2.222501 c 1.446389,1.905 2.786944,4.445 3.774722,7.161389 0.211667,0.599722 0.3175,0.493889 0.670278,-0.705556 0.705556,-2.2225 2.187222,-4.903611 3.915834,-7.055556 0.881944,-1.058333 1.552222,-1.940278 1.516944,-1.905 -0.07055,0 -0.564444,0.176389 -1.164167,0.352778 z"
       id="path5"
       style="stroke-width:0.0352778" />
    <path
       d="m 65.722502,72.349152 c -0.211667,0.246945 -1.975556,3.316111 -3.986389,6.808612 -1.975556,3.4925 -3.915834,6.879167 -4.303889,7.514167 -0.705556,1.164167 -0.670278,1.128889 2.081389,-0.740834 5.609167,-3.81 12.170834,-5.468055 20.355279,-5.08 2.786944,0.141111 5.750278,0.493889 7.443611,0.9525 3.316112,0.811389 7.761112,2.928056 10.230556,4.797778 l 1.728612,1.340556 -1.199445,-2.151945 c -0.670278,-1.164166 -2.751667,-4.7625 -4.586111,-7.972778 L 90.134726,71.925819 H 78.105003 c -9.242779,0 -12.135557,0.105833 -12.382501,0.423333 z m 15.41639,6.455834 c 0,0.105833 -1.411111,0.176389 -3.175,0.176389 -1.728612,0 -3.175001,-0.07056 -3.175001,-0.176389 0,-0.141111 1.199445,-2.2225 2.716389,-4.691945 0.493889,-0.811389 0.529167,-0.811389 2.081389,1.834445 0.846667,1.446389 1.552223,2.751667 1.552223,2.8575 z"
       id="path6"
       style="stroke-width:0.0352778" />
    <path
       d="m 76.764447,76.123875 c -0.705556,1.199444 -1.27,2.257778 -1.27,2.363611 0,0.07055 1.128889,0.141111 2.469445,0.141111 1.375833,0 2.469444,-0.105833 2.469444,-0.282222 0,-0.141111 -0.564444,-1.164167 -1.199444,-2.328334 L 78.034447,73.97193 Z"
       id="path7"
       style="stroke-width:0.0352778" />
    <path
       d="m 91.440004,72.208041 c 0.635,1.658056 10.689166,18.379723 10.900836,18.168057 0.35278,-0.388056 10.54805,-18.026946 10.54805,-18.27389 0,-0.105834 -4.86833,-0.176389 -10.795,-0.176389 -5.926664,0 -10.724442,0.141111 -10.653886,0.282222 z m 9.454446,2.434167 c 3.45722,0.176389 6.42055,-0.211667 8.5725,-1.128889 0.35278,-0.141111 -0.28222,0.670278 -1.44639,1.799167 -2.96333,2.998611 -5.715,8.290278 -5.715,11.006667 0,1.305278 -0.28222,0.811389 -0.88194,-1.446389 -0.84667,-3.280833 -2.645838,-6.491111 -5.044727,-9.101667 l -2.257778,-2.434167 1.552222,0.564444 c 0.846667,0.3175 3.104445,0.635001 5.221113,0.740834 z"
       id="path8"
       style="stroke-width:0.0352778" />
    <path
       d="m 97.049171,75.700541 c 1.375833,1.446389 3.280829,4.621389 4.021669,6.632223 0.67028,1.834444 1.23472,2.751667 1.23472,2.010833 0,-1.128889 1.65806,-4.586111 3.35139,-6.949722 l 1.94028,-2.681112 -1.86973,0.282223 c -2.36361,0.352777 -5.22111,0.352777 -7.655274,0 l -1.940278,-0.282223 z"
       id="path9"
       style="stroke-width:0.0352778" />
    <path
       d="m 75.953058,81.344986 c -0.987778,0.176389 -0.987778,0.246945 -0.07055,1.834445 l 0.740833,1.27 -0.846667,-1.058334 -0.811389,-1.058333 -0.246944,1.234722 -0.211667,1.234722 0.03528,-1.411111 c 0.03528,-1.199444 -0.03528,-1.411111 -0.635,-1.305278 -0.388056,0.07056 -0.987778,0.352778 -1.340556,0.599723 -0.599722,0.423333 -0.564444,0.529166 0.599723,1.411111 0.987777,0.740833 1.481666,0.881944 2.328333,0.705555 0.564444,-0.141111 1.199445,-0.493888 1.411111,-0.811388 0.176389,-0.352778 0.352778,-0.423334 0.352778,-0.176389 0,0.246944 0.458611,0.458611 0.987778,0.458611 0.776111,0 1.234722,-0.3175 1.975556,-1.340556 l 0.917222,-1.305278 -1.27,-0.282222 c -1.023056,-0.211667 -1.375834,-0.141111 -1.763889,0.352778 -0.458611,0.599722 -0.458611,0.599722 -0.493889,0 0,-0.599722 -0.176389,-0.635 -1.658056,-0.352778 z m 2.610556,1.5875 c -0.105833,0.282222 -0.211667,0.176389 -0.211667,-0.211667 -0.03528,-0.388055 0.07056,-0.599722 0.176389,-0.458611 0.105833,0.105834 0.141111,0.423334 0.03528,0.670278 z"
       id="path10"
       style="stroke-width:0.0352778" />
    <path
       d="m 84.208059,82.685542 c 6.561667,4.409722 6.526389,14.040556 -0.105834,18.485558 -2.116666,1.44639 -1.023055,1.19944 2.575278,-0.52917 3.069167,-1.481665 5.856112,-3.95111 7.47889,-6.667499 L 95.391115,91.963598 94.50917,90.34082 c -1.128889,-2.187222 -4.303889,-5.362223 -6.6675,-6.702778 -1.058333,-0.635 -1.763889,-1.128889 -1.552222,-1.128889 0.211666,0 1.305278,0.599722 2.469444,1.340555 2.398889,1.552223 4.938889,4.233334 6.138334,6.52639 l 0.846667,1.5875 -1.199445,1.975556 c -1.516944,2.504722 -3.845278,4.7625 -6.491111,6.349996 -2.187223,1.30528 -2.363612,1.55223 -0.670278,0.88195 0.529167,-0.21167 1.481667,-0.42333 2.081389,-0.49389 2.822222,-0.28222 9.771945,-4.974167 11.465282,-7.725834 0.56444,-0.917223 0.56444,-1.128889 0.14111,-2.010834 -0.9525,-1.799167 -4.833058,-4.903611 -8.184447,-6.561667 -1.799167,-0.881944 -3.457223,-1.516944 -3.704167,-1.446389 -0.246945,0.105833 -0.987778,-0.03528 -1.622778,-0.3175 -0.635,-0.246944 -1.305278,-0.388055 -1.446389,-0.282222 -0.176389,0.105833 -0.987778,-0.07056 -1.799167,-0.352778 -2.151945,-0.740833 -2.151945,-0.670278 -0.105833,0.705556 z m 8.431389,2.398889 c 2.293056,1.693333 4.7625,4.268611 5.3975,5.573889 0.388056,0.846667 0.388056,0.846667 -0.211666,-0.03528 -1.375834,-1.905 -3.845278,-4.303889 -5.856112,-5.644445 -1.128889,-0.776111 -1.940278,-1.411111 -1.728611,-1.411111 0.176389,0 1.27,0.705556 2.398889,1.516945 z m 5.3975,8.078611 c -1.164166,2.151945 -7.196667,7.337778 -8.537222,7.337778 -0.211667,0 0.564444,-0.564444 1.728611,-1.269999 2.328333,-1.375834 5.08,-3.951112 6.173611,-5.715001 0.811389,-1.27 1.27,-1.552222 0.635,-0.352778 z"
       id="path11"
       style="stroke-width:0.0352778" />
    <path
       d="m 70.626113,82.332764 c -0.635,0.282222 -1.058333,0.352778 -0.9525,0.176389 0.282223,-0.458611 0.141111,-0.458611 -1.27,0.141111 -0.670278,0.246944 -1.375833,0.423333 -1.622778,0.3175 -0.564444,-0.211667 -4.621389,1.693333 -7.055556,3.351389 -2.046111,1.375833 -4.303889,3.598334 -5.009444,4.938889 -0.776112,1.481667 2.998611,5.291667 7.796389,7.831667 1.552222,0.811389 3.316111,1.552221 3.915834,1.587501 0.635,0.0706 1.5875,0.28222 2.116666,0.49389 1.693334,0.67028 1.552223,0.42333 -0.458611,-0.74083 -2.081389,-1.199449 -5.609167,-4.515561 -6.314722,-5.926672 -0.352778,-0.705556 -0.282223,-0.670278 0.352777,0.176389 1.728612,2.293056 4.691945,4.797778 7.126112,5.961943 3.668889,1.76389 4.691945,1.94028 2.54,0.45861 -3.210278,-2.18722 -4.868334,-5.36222 -4.868334,-9.313331 0.03528,-3.81 1.869723,-7.231945 5.044723,-9.348612 1.093611,-0.740833 0.282222,-0.811389 -1.340556,-0.105833 z m -1.481666,0.670278 c 0,0.07056 -0.246945,0.246944 -0.564445,0.352778 -0.282222,0.105833 -0.423333,0.07055 -0.3175,-0.141112 0.211667,-0.352777 0.881945,-0.493889 0.881945,-0.211666 z m -2.293056,1.340555 c -1.305278,0.9525 -3.210278,2.857501 -4.550834,4.515556 -0.529166,0.670278 -0.881944,0.987778 -0.705555,0.705556 0.881944,-1.763889 5.221111,-6.032501 6.067778,-5.997223 0.141111,0 -0.211667,0.352778 -0.811389,0.776111 z m -1.5875,-0.3175 c 0,0.07056 -0.776111,0.635 -1.728611,1.27 -1.869723,1.199445 -4.691945,4.127501 -5.503334,5.715001 -0.458611,0.881944 -0.423333,1.058333 0.564444,2.575278 1.305278,1.975555 3.951112,4.374444 6.420556,5.856111 1.023056,0.635003 1.552223,1.023053 1.199445,0.917223 -2.151945,-0.670278 -6.314723,-4.30389 -8.149167,-7.055557 -0.846667,-1.234722 -0.846667,-1.411111 -0.388056,-2.328333 0.776111,-1.516945 3.915834,-4.7625 5.715,-5.961945 1.622778,-1.058333 1.869723,-1.199444 1.869723,-0.987778 z m -4.1275,6.773334 c -0.105834,0.3175 -0.282223,0.493889 -0.352778,0.388056 -0.105834,-0.105834 -0.07056,-0.3175 0.07055,-0.529167 0.3175,-0.564445 0.529167,-0.458611 0.282223,0.141111 z m -0.141112,1.940278 c 0.388056,0.846667 0.388056,0.846667 -0.105833,0.211667 -0.3175,-0.388056 -0.564444,-0.846667 -0.564444,-1.058334 0,-0.423333 0.176388,-0.246944 0.670277,0.846667 z"
       id="path12"
       style="stroke-width:0.0352778" />
    <path
       d="m 81.49167,83.391097 v 1.5875 l 1.234722,-0.776111 c 0.670278,-0.458611 1.234722,-0.917222 1.234722,-1.058333 0,-0.246945 -1.869722,-1.340556 -2.293056,-1.340556 -0.105833,0 -0.176388,0.705556 -0.176388,1.5875 z"
       id="path13"
       style="stroke-width:0.0352778" />
    <path
       d="m 80.22167,83.426375 c -0.529167,0.776111 -0.529167,0.9525 -0.105834,1.234722 0.846667,0.529167 1.023056,0.352778 1.023056,-0.917222 0,-1.481667 -0.141111,-1.516944 -0.917222,-0.3175 z"
       id="path14"
       style="stroke-width:0.0352778" />
    <path
       d="m 70.20278,84.449431 -0.811389,0.881944 0.987778,1.411111 c 0.881944,1.27 1.023056,1.340556 1.411111,0.811389 0.246945,-0.352777 0.388056,-0.740833 0.3175,-0.881944 -0.105833,-0.176389 -0.03528,-0.282222 0.176389,-0.282222 0.211667,0 0.282222,-0.282223 0.176389,-0.635 -0.141111,-0.423334 -0.105833,-0.458612 0.105833,-0.141112 0.352778,0.458612 1.516945,0.246945 1.516945,-0.282222 0,-0.352778 -1.340556,-1.234722 -2.328334,-1.552222 -0.493889,-0.141111 -0.9525,0.03528 -1.552222,0.670278 z"
       id="path15"
       style="stroke-width:0.0352778" />
    <path
       d="m 83.961114,84.837486 c -0.246944,0.670278 -0.493889,1.164167 -0.564444,1.093611 -0.105834,-0.07055 0,-0.564444 0.176389,-1.093611 0.423333,-1.093611 0.176389,-1.128889 -1.023056,-0.211666 -0.881945,0.670277 -0.881945,0.670277 -0.176389,1.199444 0.388056,0.3175 0.917222,0.564445 1.164167,0.564445 0.246944,0 0.388055,0.105833 0.282222,0.282222 -0.07055,0.141111 0.07056,0.529167 0.3175,0.881944 0.423333,0.599723 0.493889,0.564445 1.199445,-0.423333 0.529166,-0.740833 0.635,-1.093611 0.3175,-1.199445 -0.282223,-0.105833 -0.211667,-0.211666 0.176389,-0.211666 0.811388,-0.03528 0.740833,-0.458611 -0.211667,-1.375834 -1.093611,-1.023055 -1.164167,-0.987777 -1.658056,0.493889 z"
       id="path16"
       style="stroke-width:0.0352778" />
    <path
       d="m 74.859447,85.57832 c -2.328334,1.128889 -3.951111,3.845278 -3.951111,6.632222 0,1.552223 1.375833,4.021667 2.892778,5.221112 1.411111,1.128889 3.774722,1.5875 6.103055,1.164166 2.575278,-0.493888 5.115279,-3.81 5.115279,-6.738056 0,-2.610555 -2.010834,-5.609167 -4.339167,-6.491111 -1.446389,-0.564445 -4.480278,-0.458611 -5.820834,0.211667 z m 5.538611,3.4925 c 0.599723,0.493889 1.093612,1.058333 1.093612,1.199444 0,0.176389 -0.458612,-0.176389 -1.023056,-0.740833 -1.693333,-1.658056 -4.374445,-1.340556 -5.468056,0.670278 -0.3175,0.529167 -0.529167,0.740833 -0.564444,0.493889 0,-0.282222 0.458611,-0.9525 1.023055,-1.516945 1.375834,-1.375833 3.386667,-1.411111 4.938889,-0.105833 z m -1.975555,0.846667 c 0.105833,0.458611 0.352778,0.635 0.740833,0.493889 0.388056,-0.141112 0.529167,-0.07056 0.388056,0.282222 -0.141111,0.3175 0.105833,0.670278 0.599722,0.881944 l 0.811389,0.352778 -0.811389,0.246945 c -0.564445,0.176388 -0.740833,0.458611 -0.635,0.811388 0.176389,0.388056 0.07055,0.458612 -0.352778,0.3175 -0.388055,-0.141111 -0.635,0.03528 -0.740833,0.493889 -0.105834,0.388056 -0.3175,0.705556 -0.458611,0.705556 -0.141112,0 -0.352778,-0.3175 -0.458612,-0.705556 -0.105833,-0.458611 -0.352777,-0.635 -0.740833,-0.493889 -0.423333,0.141112 -0.529167,0.07056 -0.352778,-0.3175 0.105834,-0.352777 -0.07055,-0.635 -0.635,-0.811388 L 74.96528,91.92832 75.776669,91.575542 c 0.493889,-0.211666 0.740834,-0.564444 0.599722,-0.881944 -0.141111,-0.352778 0,-0.423334 0.388056,-0.282222 0.388056,0.141111 0.635,-0.03528 0.740833,-0.493889 0.105834,-0.388056 0.3175,-0.705556 0.458612,-0.705556 0.141111,0 0.352777,0.3175 0.458611,0.705556 z m 3.316111,2.363611 c -0.105833,0.352778 -0.176389,0.141111 -0.176389,-0.423334 0,-0.599722 0.07056,-0.846666 0.176389,-0.635 0.07056,0.246945 0.07056,0.740834 0,1.058334 z M 74.33028,92.104709 c -0.105833,0.282222 -0.211666,0.176389 -0.211666,-0.211667 -0.03528,-0.388055 0.07056,-0.599722 0.176388,-0.458611 0.105834,0.105833 0.141112,0.423333 0.03528,0.670278 z m 2.645834,3.069167 c 0.917222,0.246944 0.987778,0.3175 0.352778,0.352778 -0.881945,0.03528 -2.892778,-1.693334 -2.892778,-2.504723 0,-0.246944 0.3175,0.03528 0.705555,0.670278 0.423334,0.705556 1.128889,1.27 1.834445,1.481667 z m 3.527778,-0.635 c -0.635,0.564444 -1.411111,1.023055 -1.763889,1.023055 -0.352778,-0.03528 -0.105834,-0.246944 0.529166,-0.529166 0.635,-0.246945 1.340556,-0.811389 1.587501,-1.199445 0.246944,-0.388055 0.529166,-0.635 0.635,-0.529167 0.105833,0.105834 -0.352778,0.670278 -0.987778,1.234723 z"
       id="path17"
       style="stroke-width:0.0352778" />
    <path
       d="m 68.544724,86.918875 -0.635,1.305278 1.164167,1.023056 c 1.27,1.128889 1.658056,1.093611 1.905,-0.176389 0.105833,-0.529167 -0.176389,-1.27 -0.811389,-2.151945 l -0.987778,-1.305278 z"
       id="path18"
       style="stroke-width:0.0352778" />
    <path
       d="m 85.760281,87.059986 c -0.776111,1.058334 -0.881945,1.693334 -0.529167,2.681112 0.211667,0.493889 0.3175,0.493889 1.164167,-0.03528 l 0.917222,-0.564445 -0.9525,0.917223 c -0.564444,0.529166 -0.987778,1.340555 -0.987778,1.799166 0,0.458612 0.423334,1.270001 0.987778,1.799167 l 0.9525,0.917223 -0.917222,-0.564445 c -0.846667,-0.529167 -0.9525,-0.529167 -1.164167,-0.03528 -0.105833,0.3175 -0.211666,0.811389 -0.211666,1.128889 0,0.599723 1.305277,2.575278 1.728611,2.575278 0.458611,0 1.128889,-1.799167 0.917222,-2.504722 -0.176389,-0.458611 -0.07055,-0.670278 0.246945,-0.599722 0.3175,0.07056 0.493888,-0.352778 0.564444,-1.270001 0.105833,-1.199444 0.03528,-1.340555 -0.529167,-1.093611 -0.352777,0.141111 -0.9525,0.3175 -1.340555,0.388056 -0.388056,0.07055 -0.246945,-0.03528 0.3175,-0.246945 0.776111,-0.3175 0.881944,-0.493889 0.529166,-0.740833 -0.352777,-0.211667 -0.246944,-0.246944 0.3175,-0.105833 0.776112,0.211666 0.811389,0.141111 0.705556,-1.128889 -0.07056,-0.846667 -0.282222,-1.305278 -0.529167,-1.27 -0.246944,0.07055 -0.458611,-0.07056 -0.458611,-0.246945 0,-0.211666 0.141111,-0.352778 0.352778,-0.352778 0.176389,0 0.07056,-0.564444 -0.246944,-1.234722 -0.3175,-0.670278 -0.705556,-1.234722 -0.846667,-1.234722 -0.141111,0 -0.599722,0.458611 -0.987778,1.023055 z"
       id="path19"
       style="stroke-width:0.0352778" />
    <path
       d="m 67.592224,89.423598 c -0.105833,0.3175 -0.211666,0.9525 -0.211666,1.411111 0,0.740833 0.141111,0.846667 0.811389,0.670278 0.529166,-0.141111 0.635,-0.105834 0.282222,0.105833 -0.388056,0.282222 -0.388056,0.388056 0,0.564445 0.282222,0.105833 0.141111,0.105833 -0.282222,0 -0.705556,-0.176389 -0.811389,-0.03528 -0.811389,0.811388 0,0.529167 0.141111,1.234723 0.352777,1.516945 0.246945,0.423333 0.423334,0.388056 1.128889,-0.176389 1.940278,-1.658056 2.2225,-2.822222 0.917223,-4.056945 -1.305278,-1.234722 -1.940278,-1.481666 -2.187223,-0.846666 z"
       id="path20"
       style="stroke-width:0.0352778" />
    <path
       d="m 48.365834,102.33527 -5.326945,9.27805 10.618612,0.10583 c 5.856112,0.0353 10.724445,0.0353 10.795001,-0.0705 0.141111,-0.10583 -9.948334,-17.780002 -10.442223,-18.309169 -0.176389,-0.141111 -2.681111,3.880556 -5.644445,8.995839 z m 6.103056,-3.880561 c 0.388056,2.540001 2.786945,6.949721 5.115278,9.489721 l 2.116667,2.32834 -1.481667,-0.52917 c -2.081389,-0.81139 -10.406945,-0.81139 -12.488334,0 l -1.481667,0.52917 2.116667,-2.32834 c 2.328334,-2.54 4.727223,-6.94972 5.115278,-9.489721 0.141111,-0.811389 0.352778,-1.481666 0.493889,-1.481666 0.141111,0 0.352778,0.670277 0.493889,1.481666 z"
       id="path21"
       style="stroke-width:0.0352778" />
    <path
       d="m 53.622223,99.689432 c 0,1.093608 -2.116666,5.150558 -3.774722,7.267218 l -1.622778,2.08139 1.728611,-0.3175 c 2.187223,-0.35277 5.397501,-0.35277 7.866945,0 l 1.869723,0.28223 -1.587501,-2.04612 c -1.658055,-2.11666 -3.774722,-6.17361 -3.774722,-7.267218 0,-0.3175 -0.141111,-0.599723 -0.352778,-0.599723 -0.176389,0 -0.352778,0.282223 -0.352778,0.599723 z"
       id="path22"
       style="stroke-width:0.0352778" />
    <path
       d="m 96.802226,102.15888 c -2.892778,4.97416 -5.291667,9.17222 -5.362222,9.34861 -0.07056,0.14111 4.727222,0.28222 10.653886,0.28222 5.92667,0 10.795,-0.0706 10.795,-0.14111 0,-0.3175 -10.58333,-18.556113 -10.75972,-18.556113 -0.0353,0 -2.434166,4.092222 -5.326944,9.066393 z m 7.514164,1.09361 c 0.81139,1.62278 2.15195,3.4925 3.4925,4.90361 1.23473,1.27 1.97556,2.18722 1.62278,2.04611 -3.175,-1.34056 -10.548055,-1.5875 -13.758333,-0.45861 l -1.481667,0.56444 2.046112,-2.18722 c 2.151944,-2.29305 4.303888,-6.0325 5.009448,-8.678333 0.24694,-0.881944 0.49389,-1.834444 0.59972,-2.116667 0.10583,-0.282222 0.38805,0.352778 0.67028,1.411112 0.28222,1.058333 1.09361,3.104448 1.79916,4.515558 z"
       id="path23"
       style="stroke-width:0.0352778" />
    <path
       d="m 101.77639,99.618876 c -1.05833,2.786944 -2.363608,5.256394 -3.774719,7.161394 l -1.693334,2.2225 1.869723,-0.28223 c 2.36361,-0.35277 5.60917,-0.35277 7.76111,0 l 1.65806,0.28223 -1.905,-2.64584 c -1.65806,-2.29305 -2.36361,-3.73944 -3.45723,-6.914443 -0.17638,-0.423333 -0.24694,-0.388055 -0.45861,0.176389 z"
       id="path24"
       style="stroke-width:0.0352778" />
    <path
       d="m 69.109169,94.503598 -1.199445,0.987778 0.811389,1.5875 c 0.458611,0.881944 1.199445,1.940278 1.658056,2.363611 l 0.846667,0.811393 1.305277,-0.705559 c 0.740834,-0.388056 1.375834,-0.846667 1.446389,-1.058334 0.211667,-0.564444 -1.023055,-0.917222 -1.411111,-0.388055 -0.211666,0.3175 -0.246944,0.246944 -0.105833,-0.211667 0.176389,-0.493889 0.105833,-0.599722 -0.388056,-0.388056 -1.199444,0.458611 -2.575278,0.599723 -2.575278,0.3175 0.03528,-0.176389 0.423334,-0.811389 0.917223,-1.375833 0.529166,-0.599722 0.811389,-0.811389 0.670277,-0.529167 -0.176388,0.282222 -0.529166,0.811389 -0.811388,1.128889 -0.599723,0.705556 -0.211667,0.811389 1.164166,0.282222 l 0.917223,-0.352777 -0.705556,-1.023056 c -0.423333,-0.564445 -0.740833,-1.27 -0.740833,-1.552222 0,-0.987778 -0.564445,-0.9525 -1.799167,0.105833 z"
       id="path25"
       style="stroke-width:0.0352778" />
    <path
       d="m 84.102225,96.161654 c -0.141111,0.352777 -0.211666,0.740833 -0.211666,0.881944 0.03528,0.176389 -0.07056,0.282222 -0.246945,0.282222 -0.176389,0 -0.07055,0.635 0.211667,1.411112 0.3175,0.776111 0.670278,1.411108 0.811389,1.411108 0.105833,0 0.599722,-0.388053 1.058333,-0.881942 l 0.811389,-0.846666 -0.9525,-1.446389 c -0.493889,-0.776112 -0.987778,-1.411112 -1.058333,-1.411112 -0.07056,0 -0.246945,0.282223 -0.423334,0.599723 z"
       id="path26"
       style="stroke-width:0.0352778" />
    <path
       d="m 57.291113,96.831931 c 0.282222,0.564445 2.328333,4.127499 4.515555,7.902219 l 4.021667,6.87917 12.135557,0.10583 12.170834,0.0706 3.175,-5.53861 c 1.763889,-3.06917 3.81,-6.632224 4.550834,-8.008057 l 1.375833,-2.434167 -1.905,1.446389 c -2.469445,1.869722 -6.455834,3.739445 -10.01889,4.727225 -2.434167,0.635 -3.739444,0.74083 -9.348611,0.74083 -5.609167,0 -6.914445,-0.10583 -9.348612,-0.77611 -3.598334,-0.9525 -6.738056,-2.434167 -9.595556,-4.480278 -2.151945,-1.552223 -2.257778,-1.587501 -1.728611,-0.635001 z m 23.847779,8.501949 c 0,0.38805 -2.928056,5.3975 -3.139723,5.3975 -0.211666,0 -3.210278,-5.11528 -3.210278,-5.46806 0,-0.10583 1.446389,-0.17639 3.175001,-0.17639 1.763889,0 3.175,0.10584 3.175,0.24695 z"
       id="path27"
       style="stroke-width:0.0352778" />
    <path
       d="m 75.494447,105.65138 c 0,0.35277 2.293056,4.37444 2.504722,4.37444 0.211667,0 2.434167,-3.98639 2.434167,-4.37444 0,-0.10584 -1.093611,-0.21167 -2.469444,-0.21167 -1.340556,0 -2.469445,0.10583 -2.469445,0.21167 z"
       id="path28"
       style="stroke-width:0.0352778" />
    <path
       d="m 82.197225,98.031376 c -0.458611,0.282222 -0.352778,0.493889 0.529167,1.27 l 1.058333,0.917224 -1.128889,-0.740835 c -0.776111,-0.529167 -1.411111,-0.705556 -2.010833,-0.529167 -1.093611,0.246945 -1.128889,0.423334 -0.282222,1.552222 l 0.599722,0.88195 0.211667,-1.23473 0.211666,-1.23472 0.07056,1.48167 c 0,0.84666 0.105833,1.51694 0.211666,1.51694 0.599723,0 2.293056,-1.12889 2.293056,-1.55222 0,-0.705556 -0.740833,-2.681112 -0.987778,-2.681112 -0.141111,0 -0.493889,0.176389 -0.776111,0.352778 z"
       id="path29"
       style="stroke-width:0.0352778" />
    <path
       d="m 73.06028,99.759987 -1.234722,1.023053 1.164167,0.59973 c 1.375833,0.70555 1.622778,0.52916 1.552222,-1.16417 l -0.03528,-1.30528 0.211667,1.23472 0.246944,1.23473 0.670278,-0.98778 c 0.352778,-0.529169 0.740833,-0.917225 0.811389,-0.811392 0.105833,0.07056 -0.176389,0.635002 -0.635,1.234722 -0.917222,1.23472 -0.881944,1.27 0.670278,1.62278 0.9525,0.17639 1.128889,0.14111 1.128889,-0.42333 0.03528,-0.59973 0.03528,-0.59973 0.493889,0 0.388055,0.49388 0.740833,0.56444 1.763889,0.35277 l 1.27,-0.28222 -0.917222,-1.34055 c -0.740834,-0.987783 -1.199445,-1.305283 -1.975556,-1.305283 -0.529167,0 -0.987778,0.176389 -0.987778,0.423334 0,0.246949 -0.211667,0.141109 -0.423333,-0.176389 -0.846667,-1.093612 -2.434167,-1.093612 -3.774723,0.07055 z"
       id="path30"
       style="stroke-width:0.0352778" />
    <path
       d="m 66.675002,112.98915 c 0,0.14112 9.877778,17.35667 10.830278,18.83834 0.493889,0.81139 0.705556,0.52917 5.997223,-8.64306 2.998611,-5.18583 5.538612,-9.66611 5.644445,-9.91305 0.141111,-0.3175 -2.2225,-0.42334 -11.147779,-0.42334 -6.244167,0 -11.324167,0.0706 -11.324167,0.14111 z m 5.326945,2.18723 c 3.245556,1.16416 9.948334,0.9525 13.193889,-0.38806 0.388056,-0.17639 -0.246944,0.70556 -1.411111,1.97556 -2.434167,2.61055 -4.550833,6.38528 -5.256389,9.34861 -0.493889,2.15194 -0.529167,2.11667 -1.27,-0.56445 -0.776111,-2.92805 -2.610556,-6.13833 -4.903611,-8.53722 -1.234723,-1.34055 -2.151945,-2.39889 -2.046112,-2.39889 0.07056,0 0.846667,0.24695 1.693334,0.56445 z"
       id="path31"
       style="stroke-width:0.0352778" />
    <path
       d="m 73.342502,117.29304 c 1.693334,1.94028 3.280834,4.65667 3.915834,6.6675 0.529167,1.69334 1.058333,2.39889 1.058333,1.37584 0,-1.16417 2.293056,-5.53861 4.021667,-7.65528 1.5875,-1.94028 1.622778,-2.01083 0.670278,-1.76389 -1.305278,0.35278 -8.819445,0.35278 -10.124723,0 -1.023055,-0.28222 -0.987778,-0.28222 0.458611,1.37583 z"
       id="path32"
       style="stroke-width:0.0352778" />
    <path
       d="m 58.314168,57.814707 c -1.975556,0.881944 -2.928056,2.469444 -2.928056,4.833056 0,4.797778 5.750279,6.773333 9.136945,3.139722 1.234723,-1.305278 1.446389,-4.480278 0.388056,-6.138334 -0.740833,-1.164166 -3.069167,-2.54 -4.409723,-2.54 -0.388055,0 -1.375833,0.3175 -2.187222,0.705556 z m 2.681111,2.151944 c 0.811389,1.023056 0.811389,1.058334 0.176389,1.763889 -0.352777,0.388056 -0.740833,1.446389 -0.881944,2.363612 -0.176389,1.340555 -0.246945,1.023055 -0.282222,-1.622778 -0.03528,-3.457223 -0.211667,-3.739445 -1.728612,-2.716389 -0.423333,0.3175 -0.917222,1.058333 -1.093611,1.693333 -0.246944,0.917222 -0.3175,0.987778 -0.352778,0.3175 -0.03528,-0.987778 1.763889,-2.892778 2.681112,-2.8575 0.352777,0 1.023055,0.493889 1.481666,1.058333 z m 2.187223,-0.07055 c 1.375833,1.375833 1.411111,3.386667 0.105833,4.938889 -0.493889,0.599722 -1.058333,1.093611 -1.199444,1.093611 -0.176389,0 0.176388,-0.458611 0.740833,-1.023055 1.658056,-1.693334 1.340556,-4.374445 -0.670278,-5.468056 -0.529167,-0.3175 -0.740833,-0.529167 -0.493889,-0.564445 0.282222,0 0.9525,0.458611 1.516945,1.023056 z m -4.586112,5.468056 c 0.458612,0.3175 0.635,0.564444 0.423334,0.564444 -0.564445,0 -2.2225,-2.046111 -2.2225,-2.751667 0.03528,-0.3175 0.246944,-0.105833 0.493889,0.493889 0.282222,0.599723 0.846666,1.375834 1.305277,1.693334 z m 2.540001,0.811389 c -0.246945,0.07055 -0.740834,0.07055 -1.058334,0 -0.352778,-0.105834 -0.141111,-0.176389 0.423333,-0.176389 0.599723,0 0.846667,0.07055 0.635001,0.176389 z"
       id="path171"
       style="stroke-width:0.0352778" />
    <path
       d="m 60.325002,60.954429 c 0,0.388056 0.141111,0.740834 0.3175,0.740834 0.635,0 0.740833,-0.635 0.211666,-1.058334 -0.458611,-0.352778 -0.529166,-0.3175 -0.529166,0.3175 z"
       id="path172"
       style="stroke-width:0.0352778" />
    <path
       d="m 93.274448,57.779429 c -3.774722,1.693333 -3.986389,6.985 -0.423333,9.242778 1.834444,1.128889 4.515556,0.776112 6.138333,-0.740833 1.340552,-1.340556 2.046112,-3.316111 1.693332,-4.833056 -0.52916,-2.257778 -2.998609,-4.339167 -5.150554,-4.339167 -0.458611,0 -1.446389,0.3175 -2.257778,0.670278 z m 0.740833,1.516945 c -0.388055,0.211666 -0.987777,0.705555 -1.340555,1.128889 l -0.635,0.740833 0.352778,-0.776111 c 0.388055,-0.776111 1.340555,-1.481667 1.975555,-1.481667 0.211667,0 0.03528,0.176389 -0.352778,0.388056 z m 1.481667,4.7625 c -0.07055,0.9525 -0.105833,0.176389 -0.105833,-1.658056 0,-1.834444 0.03528,-2.610556 0.105833,-1.693333 0.07056,0.9525 0.07056,2.434167 0,3.351389 z m 3.633612,-2.610556 c 0,0.246945 -0.211667,0.105833 -0.423334,-0.282222 -0.211666,-0.388056 -0.564444,-0.9525 -0.776111,-1.234722 -0.211667,-0.3175 -0.03528,-0.176389 0.423333,0.282222 0.423334,0.458611 0.776112,0.987778 0.776112,1.234722 z m -7.16139,1.552222 c -0.105833,0.352778 -0.176389,0.07056 -0.176389,-0.599722 0,-0.670278 0.07056,-0.9525 0.176389,-0.635 0.07056,0.352778 0.07056,0.917222 0,1.234722 z m 6.808612,1.305278 c -0.564445,1.093611 -2.434167,2.081389 -3.527778,1.869723 -0.776111,-0.141111 -0.740834,-0.141111 0.246944,-0.211667 1.234723,-0.03528 3.280834,-1.552222 3.280834,-2.434167 0,-0.282222 0.105833,-0.423333 0.246944,-0.3175 0.105834,0.141111 0.03528,0.635 -0.246944,1.093611 z m -4.833056,1.5875 c -0.141111,0.211667 -1.869722,-1.446389 -1.869722,-1.763889 0,-0.141111 0.458611,0.141112 0.987777,0.670278 0.529167,0.529167 0.917223,1.023056 0.881945,1.093611 z"
       id="path173"
       style="stroke-width:0.0352778" />
    <path
       d="M 42.121667,86.742486 C 39.652223,87.271653 38.1,89.211931 38.1,91.787209 c 0,3.104445 2.081389,5.256389 5.115278,5.256389 2.998612,0 5.221112,-2.2225 5.221112,-5.185834 0,-3.316111 -3.069167,-5.785555 -6.314723,-5.115278 z m 0.811389,1.622778 c -0.105833,0.105834 -0.423333,0.141111 -0.670278,0.03528 -0.282222,-0.105833 -0.176389,-0.211667 0.211667,-0.211667 0.388055,-0.03528 0.599722,0.07056 0.458611,0.176389 z m 1.411111,0 c -0.105833,0.105834 -0.423333,0.141111 -0.670278,0.03528 -0.282222,-0.105833 -0.176388,-0.211667 0.211667,-0.211667 0.388056,-0.03528 0.599722,0.07056 0.458611,0.176389 z m -2.716389,0.246945 c 0,0.07056 -0.423333,0.493889 -0.917222,0.987778 -0.881945,0.776111 -0.917222,0.811389 -0.529167,0.07055 0.3175,-0.635 0.670278,-0.917222 1.375834,-1.128889 0.03528,-0.03528 0.07055,0 0.07055,0.07056 z m 4.938889,1.446389 c 0.246945,0.493889 0.352778,1.023055 0.246945,1.164166 -0.141111,0.105834 -0.246945,-0.03528 -0.246945,-0.3175 0,-0.282222 -0.423333,-0.987777 -0.9525,-1.516944 -0.740833,-0.740833 -0.811389,-0.881945 -0.282222,-0.599722 0.423333,0.211666 0.9525,0.776111 1.234722,1.27 z m -2.681111,1.975555 c 0.246945,0.282223 0.599722,0.776112 0.740834,1.058334 0.211666,0.423333 0.176388,0.458611 -0.211667,0.07055 -0.705556,-0.670277 -0.9525,-0.529166 -1.128889,0.705556 -0.105833,0.9525 -0.141111,0.881944 -0.176389,-0.388056 -0.03528,-1.093611 -0.3175,-1.834444 -0.846667,-2.398889 -0.776111,-0.811389 -0.423333,-1.164166 0.352778,-0.388055 0.3175,0.3175 0.423333,0.141111 0.493889,-0.811389 0.03528,-1.164167 0.03528,-1.164167 0.176389,0.211666 0.105833,0.776112 0.352778,1.658056 0.599722,1.940278 z m -4.1275,0.423334 c -0.07056,0.458611 -0.141111,0.176389 -0.141111,-0.599723 -0.03528,-0.776111 0.03528,-1.128888 0.141111,-0.811388 0.07055,0.352777 0.07055,0.987777 0,1.411111 z m 6.879167,1.058333 c -0.282222,0.282222 -0.3175,0.141111 -0.176389,-0.458611 0.141111,-0.458611 0.282222,-0.635 0.388056,-0.352778 0.07056,0.246945 -0.03528,0.635 -0.211667,0.811389 z M 40.9575,94.362487 c 0.776112,0.881944 0.776112,0.917222 0.105834,0.564444 -0.423334,-0.211666 -0.846667,-0.635 -0.987778,-0.9525 -0.282222,-0.740833 -0.105833,-0.670278 0.881944,0.388056 z m 4.550834,0.493889 c -0.493889,0.388055 -1.128889,0.705555 -1.411111,0.705555 -0.282222,0 0.03528,-0.3175 0.705555,-0.670277 1.5875,-0.881945 1.799167,-0.917223 0.705556,-0.03528 z m -2.575278,0.564444 c -0.105833,0.105834 -0.423333,0.141111 -0.670278,0.03528 -0.282222,-0.105833 -0.176389,-0.211667 0.211667,-0.211667 0.388055,-0.03528 0.599722,0.07056 0.458611,0.176389 z"
       id="path391"
       style="stroke-width:0.0352778" />
    <path
       d="m 111.65417,86.742486 c -4.55083,0.987778 -5.60917,6.985001 -1.72861,9.560279 1.37583,0.917222 4.19806,0.881944 5.67972,-0.03528 2.99861,-1.799167 3.10445,-6.738056 0.24695,-8.643056 -1.27,-0.811389 -2.89278,-1.164167 -4.19806,-0.881945 z m 0.77611,1.622778 c -0.10583,0.105834 -0.42333,0.141111 -0.67028,0.03528 -0.28222,-0.105833 -0.17638,-0.211667 0.21167,-0.211667 0.38806,-0.03528 0.59972,0.07056 0.45861,0.176389 z m 2.18723,0.3175 c 0.56444,0.282223 1.12888,0.776111 1.23472,1.128889 0.17639,0.458611 0.0353,0.388056 -0.67028,-0.246944 l -0.91722,-0.846667 -1.09361,1.128889 -1.12889,1.128889 0.9525,0.987778 0.9525,0.987778 -1.05834,1.023055 c -0.9525,0.917223 -1.02305,1.058334 -0.45861,1.305278 0.59972,0.211667 0.59972,0.246945 0,0.246945 -0.91722,0.03528 -2.61055,-0.881945 -2.8575,-1.622778 -0.17639,-0.458611 -0.0353,-0.423334 0.67028,0.246944 l 0.88194,0.846667 1.05834,-1.023056 1.05833,-1.023055 -0.9525,-0.987778 -0.9525,-0.987778 1.16417,-1.199445 c 0.81139,-0.846666 1.02305,-1.234722 0.67028,-1.375833 -0.35278,-0.141111 -0.35278,-0.211667 0,-0.211667 0.24694,-0.03528 0.91722,0.211667 1.44639,0.493889 z m -4.33917,0.917223 c -0.59972,0.670277 -0.91722,1.552222 -0.9525,2.363611 -0.0353,0.881944 -0.10584,1.058333 -0.21167,0.458611 -0.24694,-1.199445 0.14111,-2.398889 1.02306,-3.210278 1.12889,-1.023056 1.19944,-0.881945 0.14111,0.388056 z m 6.13833,3.210278 c 0,0.246944 -0.3175,0.846666 -0.74083,1.340555 l -0.70556,0.881945 0.635,-1.305278 c 0.67028,-1.446389 0.81139,-1.5875 0.81139,-0.917222 z m -1.94028,2.398889 c -0.10583,0.176388 -0.49389,0.352777 -0.81139,0.3175 -0.49388,0 -0.45861,-0.07056 0.10584,-0.3175 0.9525,-0.388056 0.9525,-0.388056 0.70555,0 z"
       id="path392"
       style="stroke-width:0.0352778" />
    <path
       d="m 93.274448,115.98777 c -1.834444,0.84666 -2.963333,2.61055 -2.963333,4.65666 0,4.02167 4.198055,6.49111 7.761111,4.58611 1.622778,-0.84666 2.998614,-3.42194 2.681114,-5.04472 -0.35278,-1.905 -1.516947,-3.45722 -3.139725,-4.16278 -1.834445,-0.84666 -2.504722,-0.84666 -4.339167,-0.0353 z m 0.564445,1.69333 c -0.493889,0.3175 -1.093612,0.84667 -1.340556,1.16417 -0.388056,0.45861 -0.388056,0.42333 -0.07056,-0.24695 0.352778,-0.77611 1.27,-1.48167 1.940278,-1.51694 0.176389,0 -0.07055,0.28222 -0.529166,0.59972 z m 4.268611,0.42333 c 0.564444,0.56445 1.023056,1.23473 1.023056,1.51695 -0.03528,0.24694 -0.246945,0.0353 -0.564445,-0.49389 -0.282222,-0.52917 -0.9525,-1.19945 -1.481667,-1.48167 -0.529166,-0.3175 -0.740833,-0.52917 -0.493889,-0.56444 0.282223,0 0.9525,0.45861 1.516945,1.02305 z m -2.610556,4.16278 c -0.07055,0.9525 -0.105833,0.17639 -0.105833,-1.65805 0,-1.83445 0.03528,-2.61056 0.105833,-1.69334 0.07056,0.9525 0.07056,2.43417 0,3.35139 z m -2.2225,1.05833 c 0.529167,0.42334 0.811389,0.81139 0.599722,0.81139 -0.176389,0 -0.740833,-0.49389 -1.234722,-1.09361 -0.670278,-0.77611 -0.917222,-1.44639 -0.881944,-2.36361 l 0.07055,-1.30528 0.246945,1.55223 c 0.141111,1.05833 0.564444,1.83444 1.199444,2.39888 z m 5.291667,-0.45861 c -0.282222,0.74084 -2.363611,1.69334 -3.316111,1.51695 -0.740834,-0.14111 -0.705556,-0.14111 0.246944,-0.21167 0.635,0 1.552223,-0.42333 2.116667,-0.91722 1.164167,-1.02306 1.199445,-1.02306 0.9525,-0.38806 z"
       id="path397"
       style="stroke-width:0.0352778" />
    <path
       d="m 58.031946,116.69332 c -1.869722,1.12889 -2.398889,2.04611 -2.575278,4.19806 -0.105833,1.65805 0,2.2225 0.705556,3.21028 0.9525,1.41111 2.8575,2.50472 4.339166,2.50472 1.481667,0 3.386667,-1.09361 4.339167,-2.50472 1.128889,-1.65806 0.987778,-4.79778 -0.3175,-6.17362 -1.834444,-1.97555 -4.480278,-2.46944 -6.491111,-1.23472 z m 4.974167,1.94028 c 0.987778,0.98778 1.199444,1.44639 1.164167,2.54 l -0.07056,1.37583 -0.246944,-1.55222 c -0.246945,-1.62278 -1.587501,-3.21028 -2.716389,-3.21028 -0.458612,0 -0.352778,0.24695 0.423333,1.05834 l 1.023056,1.05833 -0.776112,0.81139 c -0.987777,1.05833 -0.987777,1.34055 0.141111,2.39889 0.881945,0.84666 0.917223,0.84666 1.411112,0.17639 0.282222,-0.38806 0.493889,-0.52917 0.493889,-0.3175 0,0.49389 -1.693334,1.86972 -2.257778,1.86972 -0.211667,0 -0.141111,-0.17639 0.141111,-0.35278 0.458611,-0.28222 0.388055,-0.49389 -0.423334,-1.30528 l -0.9525,-0.9525 -0.917222,0.84667 c -0.846667,0.81139 -0.881944,0.88194 -0.3175,1.30528 0.388056,0.28222 0.458611,0.45861 0.176389,0.45861 -0.246944,0 -0.917222,-0.45861 -1.481667,-1.02306 -1.516944,-1.51694 -1.446389,-3.56305 0.176389,-5.18583 0.917222,-0.91722 1.481667,-1.19945 2.504722,-1.19945 1.023056,0 1.587501,0.28223 2.504723,1.19945 z"
       id="path398"
       style="stroke-width:0.0352778" />
    <path
       d="m 58.173057,118.80999 c -1.093611,1.12889 -1.375833,2.96333 -0.635,4.33917 0.388056,0.70555 0.388056,0.67027 1.411111,-0.28223 l 1.023056,-0.98777 -0.9525,-0.98778 -0.9525,-0.98778 1.023055,-1.05833 c 1.305278,-1.37584 0.458611,-1.37584 -0.917222,-0.0353 z"
       id="path399"
       style="stroke-width:0.0352778" />
    <path
       d="m 59.443057,119.19804 c -0.635,0.70556 -0.635,0.74084 0.105833,1.51695 l 0.776112,0.74083 0.776111,-0.74083 c 0.740833,-0.77611 0.740833,-0.81139 0.105833,-1.51695 -0.352778,-0.38805 -0.740833,-0.70555 -0.881944,-0.70555 -0.141112,0 -0.529167,0.3175 -0.881945,0.70555 z"
       id="path400"
       style="stroke-width:0.0352778" />
    <path
       d="m 77.50528,51.88804 c -0.705555,1.093611 -10.618611,18.344445 -10.759722,18.697223 -0.07056,0.141111 4.974167,0.282222 11.218334,0.282222 8.960556,0 11.324167,-0.105833 11.183056,-0.458611 C 89.041115,70.197208 86.501114,65.71693 83.502503,60.531096 78.210836,51.358873 77.999169,51.076651 77.50528,51.88804 Z m 2.786945,10.089445 c 0.740833,1.481667 2.116667,3.4925 3.316111,4.7625 l 2.081389,2.2225 -2.363611,-0.599722 c -3.739445,-0.987778 -9.454445,-0.705556 -12.594167,0.564444 -0.388056,0.176389 0.3175,-0.811388 1.5875,-2.151944 2.328333,-2.469445 4.162778,-5.679723 4.938889,-8.607778 0.246944,-0.881945 0.493889,-1.834445 0.599722,-2.116667 0.105834,-0.282222 0.388056,0.352778 0.670278,1.411111 0.282222,1.058333 1.058333,3.104445 1.763889,4.515556 z"
       id="path40"
       style="stroke-width:0.0352778" />
    <path
       d="m 77.752225,58.343873 c -1.305278,3.457223 -1.728611,4.339167 -2.681111,5.785556 -0.599723,0.881945 -1.5875,2.151945 -2.187223,2.822223 -1.058333,1.164167 -1.058333,1.164167 -0.211666,0.917222 2.469444,-0.776111 8.184445,-0.776111 10.512778,-0.03528 0.705556,0.246945 0.599722,-0.03528 -0.776111,-1.728611 -1.763889,-2.116667 -3.245556,-4.797778 -3.951111,-7.055556 -0.352778,-1.199444 -0.458612,-1.305278 -0.705556,-0.705556 z"
       id="path41"
       style="stroke-width:0.0352778" />
    <path
       d="m 43.109445,72.208041 c 0.740833,1.799167 10.689167,18.379723 10.865556,18.168057 0.388056,-0.388056 10.583334,-18.026946 10.583334,-18.27389 0,-0.105834 -4.868333,-0.176389 -10.795,-0.176389 -5.926668,0 -10.724446,0.141111 -10.65389,0.282222 z m 10.865556,2.328334 c 3.598334,0 5.115278,-0.141112 6.279445,-0.599723 l 1.516945,-0.599722 -2.151945,2.398889 c -2.363611,2.575278 -4.727223,6.949723 -5.150556,9.489723 -0.141111,0.846667 -0.352778,1.516944 -0.493889,1.516944 -0.141111,0 -0.352778,-0.670277 -0.493889,-1.516944 -0.388055,-2.504723 -2.786944,-6.914445 -5.115278,-9.454445 l -2.116667,-2.328334 1.481667,0.529167 c 1.093611,0.423333 2.751667,0.564445 6.244167,0.564445 z"
       id="path42"
       style="stroke-width:0.0352778" />
    <path
       d="m 58.737501,74.783319 c -1.375833,0.458611 -6.208889,0.564444 -8.537222,0.211667 l -1.869723,-0.282223 1.693334,2.222501 c 1.446389,1.905 2.786944,4.445 3.774722,7.161389 0.211667,0.599722 0.3175,0.493889 0.670278,-0.705556 0.705556,-2.2225 2.187222,-4.903611 3.915834,-7.055556 0.881944,-1.058333 1.552222,-1.940278 1.516944,-1.905 -0.07055,0 -0.564444,0.176389 -1.164167,0.352778 z"
       id="path43"
       style="stroke-width:0.0352778" />
    <path
       d="m 65.722502,72.349152 c -0.211667,0.246945 -1.975556,3.316111 -3.986389,6.808612 -1.975556,3.4925 -3.915834,6.879167 -4.303889,7.514167 -0.705556,1.164167 -0.670278,1.128889 2.081389,-0.740834 5.609167,-3.81 12.170834,-5.468055 20.355279,-5.08 2.786944,0.141111 5.750278,0.493889 7.443611,0.9525 3.316112,0.811389 7.761112,2.928056 10.230556,4.797778 l 1.728612,1.340556 -1.199445,-2.151945 c -0.670278,-1.164166 -2.751667,-4.7625 -4.586111,-7.972778 L 90.134726,71.925819 H 78.105003 c -9.242779,0 -12.135557,0.105833 -12.382501,0.423333 z m 15.41639,6.455834 c 0,0.105833 -1.411111,0.176389 -3.175,0.176389 -1.728612,0 -3.175001,-0.07056 -3.175001,-0.176389 0,-0.141111 1.199445,-2.2225 2.716389,-4.691945 0.493889,-0.811389 0.529167,-0.811389 2.081389,1.834445 0.846667,1.446389 1.552223,2.751667 1.552223,2.8575 z"
       id="path44"
       style="stroke-width:0.0352778" />
    <path
       d="m 76.764447,76.123875 c -0.705556,1.199444 -1.27,2.257778 -1.27,2.363611 0,0.07055 1.128889,0.141111 2.469445,0.141111 1.375833,0 2.469444,-0.105833 2.469444,-0.282222 0,-0.141111 -0.564444,-1.164167 -1.199444,-2.328334 L 78.034447,73.97193 Z"
       id="path45"
       style="stroke-width:0.0352778" />
    <path
       d="m 91.440004,72.208041 c 0.635,1.658056 10.689166,18.379723 10.900836,18.168057 0.35278,-0.388056 10.54805,-18.026946 10.54805,-18.27389 0,-0.105834 -4.86833,-0.176389 -10.795,-0.176389 -5.926664,0 -10.724442,0.141111 -10.653886,0.282222 z m 9.454446,2.434167 c 3.45722,0.176389 6.42055,-0.211667 8.5725,-1.128889 0.35278,-0.141111 -0.28222,0.670278 -1.44639,1.799167 -2.96333,2.998611 -5.715,8.290278 -5.715,11.006667 0,1.305278 -0.28222,0.811389 -0.88194,-1.446389 -0.84667,-3.280833 -2.645838,-6.491111 -5.044727,-9.101667 l -2.257778,-2.434167 1.552222,0.564444 c 0.846667,0.3175 3.104445,0.635001 5.221113,0.740834 z"
       id="path46"
       style="stroke-width:0.0352778" />
    <path
       d="m 97.049171,75.700541 c 1.375833,1.446389 3.280829,4.621389 4.021669,6.632223 0.67028,1.834444 1.23472,2.751667 1.23472,2.010833 0,-1.128889 1.65806,-4.586111 3.35139,-6.949722 l 1.94028,-2.681112 -1.86973,0.282223 c -2.36361,0.352777 -5.22111,0.352777 -7.655274,0 l -1.940278,-0.282223 z"
       id="path47"
       style="stroke-width:0.0352778" />
    <path
       d="m 75.953058,81.344986 c -0.987778,0.176389 -0.987778,0.246945 -0.07055,1.834445 l 0.740833,1.27 -0.846667,-1.058334 -0.811389,-1.058333 -0.246944,1.234722 -0.211667,1.234722 0.03528,-1.411111 c 0.03528,-1.199444 -0.03528,-1.411111 -0.635,-1.305278 -0.388056,0.07056 -0.987778,0.352778 -1.340556,0.599723 -0.599722,0.423333 -0.564444,0.529166 0.599723,1.411111 0.987777,0.740833 1.481666,0.881944 2.328333,0.705555 0.564444,-0.141111 1.199445,-0.493888 1.411111,-0.811388 0.176389,-0.352778 0.352778,-0.423334 0.352778,-0.176389 0,0.246944 0.458611,0.458611 0.987778,0.458611 0.776111,0 1.234722,-0.3175 1.975556,-1.340556 l 0.917222,-1.305278 -1.27,-0.282222 c -1.023056,-0.211667 -1.375834,-0.141111 -1.763889,0.352778 -0.458611,0.599722 -0.458611,0.599722 -0.493889,0 0,-0.599722 -0.176389,-0.635 -1.658056,-0.352778 z m 2.610556,1.5875 c -0.105833,0.282222 -0.211667,0.176389 -0.211667,-0.211667 -0.03528,-0.388055 0.07056,-0.599722 0.176389,-0.458611 0.105833,0.105834 0.141111,0.423334 0.03528,0.670278 z"
       id="path48"
       style="stroke-width:0.0352778" />
    <path
       d="m 84.208059,82.685542 c 6.561667,4.409722 6.526389,14.040556 -0.105834,18.485558 -2.116666,1.44639 -1.023055,1.19944 2.575278,-0.52917 3.069167,-1.481665 5.856112,-3.95111 7.47889,-6.667499 L 95.391115,91.963598 94.50917,90.34082 c -1.128889,-2.187222 -4.303889,-5.362223 -6.6675,-6.702778 -1.058333,-0.635 -1.763889,-1.128889 -1.552222,-1.128889 0.211666,0 1.305278,0.599722 2.469444,1.340555 2.398889,1.552223 4.938889,4.233334 6.138334,6.52639 l 0.846667,1.5875 -1.199445,1.975556 c -1.516944,2.504722 -3.845278,4.7625 -6.491111,6.349996 -2.187223,1.30528 -2.363612,1.55223 -0.670278,0.88195 0.529167,-0.21167 1.481667,-0.42333 2.081389,-0.49389 2.822222,-0.28222 9.771945,-4.974167 11.465282,-7.725834 0.56444,-0.917223 0.56444,-1.128889 0.14111,-2.010834 -0.9525,-1.799167 -4.833058,-4.903611 -8.184447,-6.561667 -1.799167,-0.881944 -3.457223,-1.516944 -3.704167,-1.446389 -0.246945,0.105833 -0.987778,-0.03528 -1.622778,-0.3175 -0.635,-0.246944 -1.305278,-0.388055 -1.446389,-0.282222 -0.176389,0.105833 -0.987778,-0.07056 -1.799167,-0.352778 -2.151945,-0.740833 -2.151945,-0.670278 -0.105833,0.705556 z m 8.431389,2.398889 c 2.293056,1.693333 4.7625,4.268611 5.3975,5.573889 0.388056,0.846667 0.388056,0.846667 -0.211666,-0.03528 -1.375834,-1.905 -3.845278,-4.303889 -5.856112,-5.644445 -1.128889,-0.776111 -1.940278,-1.411111 -1.728611,-1.411111 0.176389,0 1.27,0.705556 2.398889,1.516945 z m 5.3975,8.078611 c -1.164166,2.151945 -7.196667,7.337778 -8.537222,7.337778 -0.211667,0 0.564444,-0.564444 1.728611,-1.269999 2.328333,-1.375834 5.08,-3.951112 6.173611,-5.715001 0.811389,-1.27 1.27,-1.552222 0.635,-0.352778 z"
       id="path49"
       style="stroke-width:0.0352778" />
    <path
       d="m 70.626113,82.332764 c -0.635,0.282222 -1.058333,0.352778 -0.9525,0.176389 0.282223,-0.458611 0.141111,-0.458611 -1.27,0.141111 -0.670278,0.246944 -1.375833,0.423333 -1.622778,0.3175 -0.564444,-0.211667 -4.621389,1.693333 -7.055556,3.351389 -2.046111,1.375833 -4.303889,3.598334 -5.009444,4.938889 -0.776112,1.481667 2.998611,5.291667 7.796389,7.831667 1.552222,0.811389 3.316111,1.552221 3.915834,1.587501 0.635,0.0706 1.5875,0.28222 2.116666,0.49389 1.693334,0.67028 1.552223,0.42333 -0.458611,-0.74083 -2.081389,-1.199449 -5.609167,-4.515561 -6.314722,-5.926672 -0.352778,-0.705556 -0.282223,-0.670278 0.352777,0.176389 1.728612,2.293056 4.691945,4.797778 7.126112,5.961943 3.668889,1.76389 4.691945,1.94028 2.54,0.45861 -3.210278,-2.18722 -4.868334,-5.36222 -4.868334,-9.313331 0.03528,-3.81 1.869723,-7.231945 5.044723,-9.348612 1.093611,-0.740833 0.282222,-0.811389 -1.340556,-0.105833 z m -1.481666,0.670278 c 0,0.07056 -0.246945,0.246944 -0.564445,0.352778 -0.282222,0.105833 -0.423333,0.07055 -0.3175,-0.141112 0.211667,-0.352777 0.881945,-0.493889 0.881945,-0.211666 z m -2.293056,1.340555 c -1.305278,0.9525 -3.210278,2.857501 -4.550834,4.515556 -0.529166,0.670278 -0.881944,0.987778 -0.705555,0.705556 0.881944,-1.763889 5.221111,-6.032501 6.067778,-5.997223 0.141111,0 -0.211667,0.352778 -0.811389,0.776111 z m -1.5875,-0.3175 c 0,0.07056 -0.776111,0.635 -1.728611,1.27 -1.869723,1.199445 -4.691945,4.127501 -5.503334,5.715001 -0.458611,0.881944 -0.423333,1.058333 0.564444,2.575278 1.305278,1.975555 3.951112,4.374444 6.420556,5.856111 1.023056,0.635003 1.552223,1.023053 1.199445,0.917223 -2.151945,-0.670278 -6.314723,-4.30389 -8.149167,-7.055557 -0.846667,-1.234722 -0.846667,-1.411111 -0.388056,-2.328333 0.776111,-1.516945 3.915834,-4.7625 5.715,-5.961945 1.622778,-1.058333 1.869723,-1.199444 1.869723,-0.987778 z m -4.1275,6.773334 c -0.105834,0.3175 -0.282223,0.493889 -0.352778,0.388056 -0.105834,-0.105834 -0.07056,-0.3175 0.07055,-0.529167 0.3175,-0.564445 0.529167,-0.458611 0.282223,0.141111 z m -0.141112,1.940278 c 0.388056,0.846667 0.388056,0.846667 -0.105833,0.211667 -0.3175,-0.388056 -0.564444,-0.846667 -0.564444,-1.058334 0,-0.423333 0.176388,-0.246944 0.670277,0.846667 z"
       id="path50"
       style="stroke-width:0.0352778" />
    <path
       d="m 81.49167,83.391097 v 1.5875 l 1.234722,-0.776111 c 0.670278,-0.458611 1.234722,-0.917222 1.234722,-1.058333 0,-0.246945 -1.869722,-1.340556 -2.293056,-1.340556 -0.105833,0 -0.176388,0.705556 -0.176388,1.5875 z"
       id="path51"
       style="stroke-width:0.0352778" />
    <path
       d="m 80.22167,83.426375 c -0.529167,0.776111 -0.529167,0.9525 -0.105834,1.234722 0.846667,0.529167 1.023056,0.352778 1.023056,-0.917222 0,-1.481667 -0.141111,-1.516944 -0.917222,-0.3175 z"
       id="path52"
       style="stroke-width:0.0352778" />
    <path
       d="m 70.20278,84.449431 -0.811389,0.881944 0.987778,1.411111 c 0.881944,1.27 1.023056,1.340556 1.411111,0.811389 0.246945,-0.352777 0.388056,-0.740833 0.3175,-0.881944 -0.105833,-0.176389 -0.03528,-0.282222 0.176389,-0.282222 0.211667,0 0.282222,-0.282223 0.176389,-0.635 -0.141111,-0.423334 -0.105833,-0.458612 0.105833,-0.141112 0.352778,0.458612 1.516945,0.246945 1.516945,-0.282222 0,-0.352778 -1.340556,-1.234722 -2.328334,-1.552222 -0.493889,-0.141111 -0.9525,0.03528 -1.552222,0.670278 z"
       id="path53"
       style="stroke-width:0.0352778" />
    <path
       d="m 83.961114,84.837486 c -0.246944,0.670278 -0.493889,1.164167 -0.564444,1.093611 -0.105834,-0.07055 0,-0.564444 0.176389,-1.093611 0.423333,-1.093611 0.176389,-1.128889 -1.023056,-0.211666 -0.881945,0.670277 -0.881945,0.670277 -0.176389,1.199444 0.388056,0.3175 0.917222,0.564445 1.164167,0.564445 0.246944,0 0.388055,0.105833 0.282222,0.282222 -0.07055,0.141111 0.07056,0.529167 0.3175,0.881944 0.423333,0.599723 0.493889,0.564445 1.199445,-0.423333 0.529166,-0.740833 0.635,-1.093611 0.3175,-1.199445 -0.282223,-0.105833 -0.211667,-0.211666 0.176389,-0.211666 0.811388,-0.03528 0.740833,-0.458611 -0.211667,-1.375834 -1.093611,-1.023055 -1.164167,-0.987777 -1.658056,0.493889 z"
       id="path54"
       style="stroke-width:0.0352778" />
    <path
       d="m 74.859447,85.57832 c -2.328334,1.128889 -3.951111,3.845278 -3.951111,6.632222 0,1.552223 1.375833,4.021667 2.892778,5.221112 1.411111,1.128889 3.774722,1.5875 6.103055,1.164166 2.575278,-0.493888 5.115279,-3.81 5.115279,-6.738056 0,-2.610555 -2.010834,-5.609167 -4.339167,-6.491111 -1.446389,-0.564445 -4.480278,-0.458611 -5.820834,0.211667 z m 5.538611,3.4925 c 0.599723,0.493889 1.093612,1.058333 1.093612,1.199444 0,0.176389 -0.458612,-0.176389 -1.023056,-0.740833 -1.693333,-1.658056 -4.374445,-1.340556 -5.468056,0.670278 -0.3175,0.529167 -0.529167,0.740833 -0.564444,0.493889 0,-0.282222 0.458611,-0.9525 1.023055,-1.516945 1.375834,-1.375833 3.386667,-1.411111 4.938889,-0.105833 z m -1.975555,0.846667 c 0.105833,0.458611 0.352778,0.635 0.740833,0.493889 0.388056,-0.141112 0.529167,-0.07056 0.388056,0.282222 -0.141111,0.3175 0.105833,0.670278 0.599722,0.881944 l 0.811389,0.352778 -0.811389,0.246945 c -0.564445,0.176388 -0.740833,0.458611 -0.635,0.811388 0.176389,0.388056 0.07055,0.458612 -0.352778,0.3175 -0.388055,-0.141111 -0.635,0.03528 -0.740833,0.493889 -0.105834,0.388056 -0.3175,0.705556 -0.458611,0.705556 -0.141112,0 -0.352778,-0.3175 -0.458612,-0.705556 -0.105833,-0.458611 -0.352777,-0.635 -0.740833,-0.493889 -0.423333,0.141112 -0.529167,0.07056 -0.352778,-0.3175 0.105834,-0.352777 -0.07055,-0.635 -0.635,-0.811388 L 74.96528,91.92832 75.776669,91.575542 c 0.493889,-0.211666 0.740834,-0.564444 0.599722,-0.881944 -0.141111,-0.352778 0,-0.423334 0.388056,-0.282222 0.388056,0.141111 0.635,-0.03528 0.740833,-0.493889 0.105834,-0.388056 0.3175,-0.705556 0.458612,-0.705556 0.141111,0 0.352777,0.3175 0.458611,0.705556 z m 3.316111,2.363611 c -0.105833,0.352778 -0.176389,0.141111 -0.176389,-0.423334 0,-0.599722 0.07056,-0.846666 0.176389,-0.635 0.07056,0.246945 0.07056,0.740834 0,1.058334 z M 74.33028,92.104709 c -0.105833,0.282222 -0.211666,0.176389 -0.211666,-0.211667 -0.03528,-0.388055 0.07056,-0.599722 0.176388,-0.458611 0.105834,0.105833 0.141112,0.423333 0.03528,0.670278 z m 2.645834,3.069167 c 0.917222,0.246944 0.987778,0.3175 0.352778,0.352778 -0.881945,0.03528 -2.892778,-1.693334 -2.892778,-2.504723 0,-0.246944 0.3175,0.03528 0.705555,0.670278 0.423334,0.705556 1.128889,1.27 1.834445,1.481667 z m 3.527778,-0.635 c -0.635,0.564444 -1.411111,1.023055 -1.763889,1.023055 -0.352778,-0.03528 -0.105834,-0.246944 0.529166,-0.529166 0.635,-0.246945 1.340556,-0.811389 1.587501,-1.199445 0.246944,-0.388055 0.529166,-0.635 0.635,-0.529167 0.105833,0.105834 -0.352778,0.670278 -0.987778,1.234723 z"
       id="path55"
       style="stroke-width:0.0352778" />
    <path
       d="m 68.544724,86.918875 -0.635,1.305278 1.164167,1.023056 c 1.27,1.128889 1.658056,1.093611 1.905,-0.176389 0.105833,-0.529167 -0.176389,-1.27 -0.811389,-2.151945 l -0.987778,-1.305278 z"
       id="path56"
       style="stroke-width:0.0352778" />
    <path
       d="m 85.760281,87.059986 c -0.776111,1.058334 -0.881945,1.693334 -0.529167,2.681112 0.211667,0.493889 0.3175,0.493889 1.164167,-0.03528 l 0.917222,-0.564445 -0.9525,0.917223 c -0.564444,0.529166 -0.987778,1.340555 -0.987778,1.799166 0,0.458612 0.423334,1.270001 0.987778,1.799167 l 0.9525,0.917223 -0.917222,-0.564445 c -0.846667,-0.529167 -0.9525,-0.529167 -1.164167,-0.03528 -0.105833,0.3175 -0.211666,0.811389 -0.211666,1.128889 0,0.599723 1.305277,2.575278 1.728611,2.575278 0.458611,0 1.128889,-1.799167 0.917222,-2.504722 -0.176389,-0.458611 -0.07055,-0.670278 0.246945,-0.599722 0.3175,0.07056 0.493888,-0.352778 0.564444,-1.270001 0.105833,-1.199444 0.03528,-1.340555 -0.529167,-1.093611 -0.352777,0.141111 -0.9525,0.3175 -1.340555,0.388056 -0.388056,0.07055 -0.246945,-0.03528 0.3175,-0.246945 0.776111,-0.3175 0.881944,-0.493889 0.529166,-0.740833 -0.352777,-0.211667 -0.246944,-0.246944 0.3175,-0.105833 0.776112,0.211666 0.811389,0.141111 0.705556,-1.128889 -0.07056,-0.846667 -0.282222,-1.305278 -0.529167,-1.27 -0.246944,0.07055 -0.458611,-0.07056 -0.458611,-0.246945 0,-0.211666 0.141111,-0.352778 0.352778,-0.352778 0.176389,0 0.07056,-0.564444 -0.246944,-1.234722 -0.3175,-0.670278 -0.705556,-1.234722 -0.846667,-1.234722 -0.141111,0 -0.599722,0.458611 -0.987778,1.023055 z"
       id="path57"
       style="stroke-width:0.0352778" />
    <path
       d="m 67.592224,89.423598 c -0.105833,0.3175 -0.211666,0.9525 -0.211666,1.411111 0,0.740833 0.141111,0.846667 0.811389,0.670278 0.529166,-0.141111 0.635,-0.105834 0.282222,0.105833 -0.388056,0.282222 -0.388056,0.388056 0,0.564445 0.282222,0.105833 0.141111,0.105833 -0.282222,0 -0.705556,-0.176389 -0.811389,-0.03528 -0.811389,0.811388 0,0.529167 0.141111,1.234723 0.352777,1.516945 0.246945,0.423333 0.423334,0.388056 1.128889,-0.176389 1.940278,-1.658056 2.2225,-2.822222 0.917223,-4.056945 -1.305278,-1.234722 -1.940278,-1.481666 -2.187223,-0.846666 z"
       id="path58"
       style="stroke-width:0.0352778" />
    <path
       d="m 48.365834,102.33527 -5.326945,9.27805 10.618612,0.10583 c 5.856112,0.0353 10.724445,0.0353 10.795001,-0.0705 0.141111,-0.10583 -9.948334,-17.780002 -10.442223,-18.309169 -0.176389,-0.141111 -2.681111,3.880556 -5.644445,8.995839 z m 6.103056,-3.880561 c 0.388056,2.540001 2.786945,6.949721 5.115278,9.489721 l 2.116667,2.32834 -1.481667,-0.52917 c -2.081389,-0.81139 -10.406945,-0.81139 -12.488334,0 l -1.481667,0.52917 2.116667,-2.32834 c 2.328334,-2.54 4.727223,-6.94972 5.115278,-9.489721 0.141111,-0.811389 0.352778,-1.481666 0.493889,-1.481666 0.141111,0 0.352778,0.670277 0.493889,1.481666 z"
       id="path59"
       style="stroke-width:0.0352778" />
    <path
       d="m 53.622223,99.689432 c 0,1.093608 -2.116666,5.150558 -3.774722,7.267218 l -1.622778,2.08139 1.728611,-0.3175 c 2.187223,-0.35277 5.397501,-0.35277 7.866945,0 l 1.869723,0.28223 -1.587501,-2.04612 c -1.658055,-2.11666 -3.774722,-6.17361 -3.774722,-7.267218 0,-0.3175 -0.141111,-0.599723 -0.352778,-0.599723 -0.176389,0 -0.352778,0.282223 -0.352778,0.599723 z"
       id="path60"
       style="stroke-width:0.0352778" />
    <path
       d="m 96.802226,102.15888 c -2.892778,4.97416 -5.291667,9.17222 -5.362222,9.34861 -0.07056,0.14111 4.727222,0.28222 10.653886,0.28222 5.92667,0 10.795,-0.0706 10.795,-0.14111 0,-0.3175 -10.58333,-18.556113 -10.75972,-18.556113 -0.0353,0 -2.434166,4.092222 -5.326944,9.066393 z m 7.514164,1.09361 c 0.81139,1.62278 2.15195,3.4925 3.4925,4.90361 1.23473,1.27 1.97556,2.18722 1.62278,2.04611 -3.175,-1.34056 -10.548055,-1.5875 -13.758333,-0.45861 l -1.481667,0.56444 2.046112,-2.18722 c 2.151944,-2.29305 4.303888,-6.0325 5.009448,-8.678333 0.24694,-0.881944 0.49389,-1.834444 0.59972,-2.116667 0.10583,-0.282222 0.38805,0.352778 0.67028,1.411112 0.28222,1.058333 1.09361,3.104448 1.79916,4.515558 z"
       id="path61"
       style="stroke-width:0.0352778" />
    <path
       d="m 101.77639,99.618876 c -1.05833,2.786944 -2.363608,5.256394 -3.774719,7.161394 l -1.693334,2.2225 1.869723,-0.28223 c 2.36361,-0.35277 5.60917,-0.35277 7.76111,0 l 1.65806,0.28223 -1.905,-2.64584 c -1.65806,-2.29305 -2.36361,-3.73944 -3.45723,-6.914443 -0.17638,-0.423333 -0.24694,-0.388055 -0.45861,0.176389 z"
       id="path62"
       style="stroke-width:0.0352778" />
    <path
       d="m 69.109169,94.503598 -1.199445,0.987778 0.811389,1.5875 c 0.458611,0.881944 1.199445,1.940278 1.658056,2.363611 l 0.846667,0.811393 1.305277,-0.705559 c 0.740834,-0.388056 1.375834,-0.846667 1.446389,-1.058334 0.211667,-0.564444 -1.023055,-0.917222 -1.411111,-0.388055 -0.211666,0.3175 -0.246944,0.246944 -0.105833,-0.211667 0.176389,-0.493889 0.105833,-0.599722 -0.388056,-0.388056 -1.199444,0.458611 -2.575278,0.599723 -2.575278,0.3175 0.03528,-0.176389 0.423334,-0.811389 0.917223,-1.375833 0.529166,-0.599722 0.811389,-0.811389 0.670277,-0.529167 -0.176388,0.282222 -0.529166,0.811389 -0.811388,1.128889 -0.599723,0.705556 -0.211667,0.811389 1.164166,0.282222 l 0.917223,-0.352777 -0.705556,-1.023056 c -0.423333,-0.564445 -0.740833,-1.27 -0.740833,-1.552222 0,-0.987778 -0.564445,-0.9525 -1.799167,0.105833 z"
       id="path63"
       style="stroke-width:0.0352778" />
    <path
       d="m 84.102225,96.161654 c -0.141111,0.352777 -0.211666,0.740833 -0.211666,0.881944 0.03528,0.176389 -0.07056,0.282222 -0.246945,0.282222 -0.176389,0 -0.07055,0.635 0.211667,1.411112 0.3175,0.776111 0.670278,1.411108 0.811389,1.411108 0.105833,0 0.599722,-0.388053 1.058333,-0.881942 l 0.811389,-0.846666 -0.9525,-1.446389 c -0.493889,-0.776112 -0.987778,-1.411112 -1.058333,-1.411112 -0.07056,0 -0.246945,0.282223 -0.423334,0.599723 z"
       id="path64"
       style="stroke-width:0.0352778" />
    <path
       d="m 57.291113,96.831931 c 0.282222,0.564445 2.328333,4.127499 4.515555,7.902219 l 4.021667,6.87917 12.135557,0.10583 12.170834,0.0706 3.175,-5.53861 c 1.763889,-3.06917 3.81,-6.632224 4.550834,-8.008057 l 1.375833,-2.434167 -1.905,1.446389 c -2.469445,1.869722 -6.455834,3.739445 -10.01889,4.727225 -2.434167,0.635 -3.739444,0.74083 -9.348611,0.74083 -5.609167,0 -6.914445,-0.10583 -9.348612,-0.77611 -3.598334,-0.9525 -6.738056,-2.434167 -9.595556,-4.480278 -2.151945,-1.552223 -2.257778,-1.587501 -1.728611,-0.635001 z m 23.847779,8.501949 c 0,0.38805 -2.928056,5.3975 -3.139723,5.3975 -0.211666,0 -3.210278,-5.11528 -3.210278,-5.46806 0,-0.10583 1.446389,-0.17639 3.175001,-0.17639 1.763889,0 3.175,0.10584 3.175,0.24695 z"
       id="path65"
       style="stroke-width:0.0352778" />
    <path
       d="m 75.494447,105.65138 c 0,0.35277 2.293056,4.37444 2.504722,4.37444 0.211667,0 2.434167,-3.98639 2.434167,-4.37444 0,-0.10584 -1.093611,-0.21167 -2.469444,-0.21167 -1.340556,0 -2.469445,0.10583 -2.469445,0.21167 z"
       id="path66"
       style="stroke-width:0.0352778" />
    <path
       d="m 82.197225,98.031376 c -0.458611,0.282222 -0.352778,0.493889 0.529167,1.27 l 1.058333,0.917224 -1.128889,-0.740835 c -0.776111,-0.529167 -1.411111,-0.705556 -2.010833,-0.529167 -1.093611,0.246945 -1.128889,0.423334 -0.282222,1.552222 l 0.599722,0.88195 0.211667,-1.23473 0.211666,-1.23472 0.07056,1.48167 c 0,0.84666 0.105833,1.51694 0.211666,1.51694 0.599723,0 2.293056,-1.12889 2.293056,-1.55222 0,-0.705556 -0.740833,-2.681112 -0.987778,-2.681112 -0.141111,0 -0.493889,0.176389 -0.776111,0.352778 z"
       id="path67"
       style="stroke-width:0.0352778" />
    <path
       d="m 73.06028,99.759987 -1.234722,1.023053 1.164167,0.59973 c 1.375833,0.70555 1.622778,0.52916 1.552222,-1.16417 l -0.03528,-1.30528 0.211667,1.23472 0.246944,1.23473 0.670278,-0.98778 c 0.352778,-0.529169 0.740833,-0.917225 0.811389,-0.811392 0.105833,0.07056 -0.176389,0.635002 -0.635,1.234722 -0.917222,1.23472 -0.881944,1.27 0.670278,1.62278 0.9525,0.17639 1.128889,0.14111 1.128889,-0.42333 0.03528,-0.59973 0.03528,-0.59973 0.493889,0 0.388055,0.49388 0.740833,0.56444 1.763889,0.35277 l 1.27,-0.28222 -0.917222,-1.34055 c -0.740834,-0.987783 -1.199445,-1.305283 -1.975556,-1.305283 -0.529167,0 -0.987778,0.176389 -0.987778,0.423334 0,0.246949 -0.211667,0.141109 -0.423333,-0.176389 -0.846667,-1.093612 -2.434167,-1.093612 -3.774723,0.07055 z"
       id="path68"
       style="stroke-width:0.0352778" />
    <path
       d="m 66.675002,112.98915 c 0,0.14112 9.877778,17.35667 10.830278,18.83834 0.493889,0.81139 0.705556,0.52917 5.997223,-8.64306 2.998611,-5.18583 5.538612,-9.66611 5.644445,-9.91305 0.141111,-0.3175 -2.2225,-0.42334 -11.147779,-0.42334 -6.244167,0 -11.324167,0.0706 -11.324167,0.14111 z m 5.326945,2.18723 c 3.245556,1.16416 9.948334,0.9525 13.193889,-0.38806 0.388056,-0.17639 -0.246944,0.70556 -1.411111,1.97556 -2.434167,2.61055 -4.550833,6.38528 -5.256389,9.34861 -0.493889,2.15194 -0.529167,2.11667 -1.27,-0.56445 -0.776111,-2.92805 -2.610556,-6.13833 -4.903611,-8.53722 -1.234723,-1.34055 -2.151945,-2.39889 -2.046112,-2.39889 0.07056,0 0.846667,0.24695 1.693334,0.56445 z"
       id="path69"
       style="stroke-width:0.0352778" />
    <path
       d="m 73.342502,117.29304 c 1.693334,1.94028 3.280834,4.65667 3.915834,6.6675 0.529167,1.69334 1.058333,2.39889 1.058333,1.37584 0,-1.16417 2.293056,-5.53861 4.021667,-7.65528 1.5875,-1.94028 1.622778,-2.01083 0.670278,-1.76389 -1.305278,0.35278 -8.819445,0.35278 -10.124723,0 -1.023055,-0.28222 -0.987778,-0.28222 0.458611,1.37583 z"
       id="path70"
       style="stroke-width:0.0352778" />
    <path
       d="m 58.314168,57.814707 c -1.975556,0.881944 -2.928056,2.469444 -2.928056,4.833056 0,4.797778 5.750279,6.773333 9.136945,3.139722 1.234723,-1.305278 1.446389,-4.480278 0.388056,-6.138334 -0.740833,-1.164166 -3.069167,-2.54 -4.409723,-2.54 -0.388055,0 -1.375833,0.3175 -2.187222,0.705556 z m 2.681111,2.151944 c 0.811389,1.023056 0.811389,1.058334 0.176389,1.763889 -0.352777,0.388056 -0.740833,1.446389 -0.881944,2.363612 -0.176389,1.340555 -0.246945,1.023055 -0.282222,-1.622778 -0.03528,-3.457223 -0.211667,-3.739445 -1.728612,-2.716389 -0.423333,0.3175 -0.917222,1.058333 -1.093611,1.693333 -0.246944,0.917222 -0.3175,0.987778 -0.352778,0.3175 -0.03528,-0.987778 1.763889,-2.892778 2.681112,-2.8575 0.352777,0 1.023055,0.493889 1.481666,1.058333 z m 2.187223,-0.07055 c 1.375833,1.375833 1.411111,3.386667 0.105833,4.938889 -0.493889,0.599722 -1.058333,1.093611 -1.199444,1.093611 -0.176389,0 0.176388,-0.458611 0.740833,-1.023055 1.658056,-1.693334 1.340556,-4.374445 -0.670278,-5.468056 -0.529167,-0.3175 -0.740833,-0.529167 -0.493889,-0.564445 0.282222,0 0.9525,0.458611 1.516945,1.023056 z m -4.586112,5.468056 c 0.458612,0.3175 0.635,0.564444 0.423334,0.564444 -0.564445,0 -2.2225,-2.046111 -2.2225,-2.751667 0.03528,-0.3175 0.246944,-0.105833 0.493889,0.493889 0.282222,0.599723 0.846666,1.375834 1.305277,1.693334 z m 2.540001,0.811389 c -0.246945,0.07055 -0.740834,0.07055 -1.058334,0 -0.352778,-0.105834 -0.141111,-0.176389 0.423333,-0.176389 0.599723,0 0.846667,0.07055 0.635001,0.176389 z"
       id="path71"
       style="stroke-width:0.0352778" />
    <path
       d="m 60.325002,60.954429 c 0,0.388056 0.141111,0.740834 0.3175,0.740834 0.635,0 0.740833,-0.635 0.211666,-1.058334 -0.458611,-0.352778 -0.529166,-0.3175 -0.529166,0.3175 z"
       id="path72"
       style="stroke-width:0.0352778" />
    <path
       d="m 93.274448,57.779429 c -3.774722,1.693333 -3.986389,6.985 -0.423333,9.242778 1.834444,1.128889 4.515556,0.776112 6.138333,-0.740833 1.340552,-1.340556 2.046112,-3.316111 1.693332,-4.833056 -0.52916,-2.257778 -2.998609,-4.339167 -5.150554,-4.339167 -0.458611,0 -1.446389,0.3175 -2.257778,0.670278 z m 0.740833,1.516945 c -0.388055,0.211666 -0.987777,0.705555 -1.340555,1.128889 l -0.635,0.740833 0.352778,-0.776111 c 0.388055,-0.776111 1.340555,-1.481667 1.975555,-1.481667 0.211667,0 0.03528,0.176389 -0.352778,0.388056 z m 1.481667,4.7625 c -0.07055,0.9525 -0.105833,0.176389 -0.105833,-1.658056 0,-1.834444 0.03528,-2.610556 0.105833,-1.693333 0.07056,0.9525 0.07056,2.434167 0,3.351389 z m 3.633612,-2.610556 c 0,0.246945 -0.211667,0.105833 -0.423334,-0.282222 -0.211666,-0.388056 -0.564444,-0.9525 -0.776111,-1.234722 -0.211667,-0.3175 -0.03528,-0.176389 0.423333,0.282222 0.423334,0.458611 0.776112,0.987778 0.776112,1.234722 z m -7.16139,1.552222 c -0.105833,0.352778 -0.176389,0.07056 -0.176389,-0.599722 0,-0.670278 0.07056,-0.9525 0.176389,-0.635 0.07056,0.352778 0.07056,0.917222 0,1.234722 z m 6.808612,1.305278 c -0.564445,1.093611 -2.434167,2.081389 -3.527778,1.869723 -0.776111,-0.141111 -0.740834,-0.141111 0.246944,-0.211667 1.234723,-0.03528 3.280834,-1.552222 3.280834,-2.434167 0,-0.282222 0.105833,-0.423333 0.246944,-0.3175 0.105834,0.141111 0.03528,0.635 -0.246944,1.093611 z m -4.833056,1.5875 c -0.141111,0.211667 -1.869722,-1.446389 -1.869722,-1.763889 0,-0.141111 0.458611,0.141112 0.987777,0.670278 0.529167,0.529167 0.917223,1.023056 0.881945,1.093611 z"
       id="path73"
       style="stroke-width:0.0352778" />
    <path
       d="M 42.121667,86.742486 C 39.652223,87.271653 38.1,89.211931 38.1,91.787209 c 0,3.104445 2.081389,5.256389 5.115278,5.256389 2.998612,0 5.221112,-2.2225 5.221112,-5.185834 0,-3.316111 -3.069167,-5.785555 -6.314723,-5.115278 z m 0.811389,1.622778 c -0.105833,0.105834 -0.423333,0.141111 -0.670278,0.03528 -0.282222,-0.105833 -0.176389,-0.211667 0.211667,-0.211667 0.388055,-0.03528 0.599722,0.07056 0.458611,0.176389 z m 1.411111,0 c -0.105833,0.105834 -0.423333,0.141111 -0.670278,0.03528 -0.282222,-0.105833 -0.176388,-0.211667 0.211667,-0.211667 0.388056,-0.03528 0.599722,0.07056 0.458611,0.176389 z m -2.716389,0.246945 c 0,0.07056 -0.423333,0.493889 -0.917222,0.987778 -0.881945,0.776111 -0.917222,0.811389 -0.529167,0.07055 0.3175,-0.635 0.670278,-0.917222 1.375834,-1.128889 0.03528,-0.03528 0.07055,0 0.07055,0.07056 z m 4.938889,1.446389 c 0.246945,0.493889 0.352778,1.023055 0.246945,1.164166 -0.141111,0.105834 -0.246945,-0.03528 -0.246945,-0.3175 0,-0.282222 -0.423333,-0.987777 -0.9525,-1.516944 -0.740833,-0.740833 -0.811389,-0.881945 -0.282222,-0.599722 0.423333,0.211666 0.9525,0.776111 1.234722,1.27 z m -2.681111,1.975555 c 0.246945,0.282223 0.599722,0.776112 0.740834,1.058334 0.211666,0.423333 0.176388,0.458611 -0.211667,0.07055 -0.705556,-0.670277 -0.9525,-0.529166 -1.128889,0.705556 -0.105833,0.9525 -0.141111,0.881944 -0.176389,-0.388056 -0.03528,-1.093611 -0.3175,-1.834444 -0.846667,-2.398889 -0.776111,-0.811389 -0.423333,-1.164166 0.352778,-0.388055 0.3175,0.3175 0.423333,0.141111 0.493889,-0.811389 0.03528,-1.164167 0.03528,-1.164167 0.176389,0.211666 0.105833,0.776112 0.352778,1.658056 0.599722,1.940278 z m -4.1275,0.423334 c -0.07056,0.458611 -0.141111,0.176389 -0.141111,-0.599723 -0.03528,-0.776111 0.03528,-1.128888 0.141111,-0.811388 0.07055,0.352777 0.07055,0.987777 0,1.411111 z m 6.879167,1.058333 c -0.282222,0.282222 -0.3175,0.141111 -0.176389,-0.458611 0.141111,-0.458611 0.282222,-0.635 0.388056,-0.352778 0.07056,0.246945 -0.03528,0.635 -0.211667,0.811389 z M 40.9575,94.362487 c 0.776112,0.881944 0.776112,0.917222 0.105834,0.564444 -0.423334,-0.211666 -0.846667,-0.635 -0.987778,-0.9525 -0.282222,-0.740833 -0.105833,-0.670278 0.881944,0.388056 z m 4.550834,0.493889 c -0.493889,0.388055 -1.128889,0.705555 -1.411111,0.705555 -0.282222,0 0.03528,-0.3175 0.705555,-0.670277 1.5875,-0.881945 1.799167,-0.917223 0.705556,-0.03528 z m -2.575278,0.564444 c -0.105833,0.105834 -0.423333,0.141111 -0.670278,0.03528 -0.282222,-0.105833 -0.176389,-0.211667 0.211667,-0.211667 0.388055,-0.03528 0.599722,0.07056 0.458611,0.176389 z"
       id="path74"
       style="stroke-width:0.0352778" />
    <path
       d="m 111.65417,86.742486 c -4.55083,0.987778 -5.60917,6.985001 -1.72861,9.560279 1.37583,0.917222 4.19806,0.881944 5.67972,-0.03528 2.99861,-1.799167 3.10445,-6.738056 0.24695,-8.643056 -1.27,-0.811389 -2.89278,-1.164167 -4.19806,-0.881945 z m 0.77611,1.622778 c -0.10583,0.105834 -0.42333,0.141111 -0.67028,0.03528 -0.28222,-0.105833 -0.17638,-0.211667 0.21167,-0.211667 0.38806,-0.03528 0.59972,0.07056 0.45861,0.176389 z m 2.18723,0.3175 c 0.56444,0.282223 1.12888,0.776111 1.23472,1.128889 0.17639,0.458611 0.0353,0.388056 -0.67028,-0.246944 l -0.91722,-0.846667 -1.09361,1.128889 -1.12889,1.128889 0.9525,0.987778 0.9525,0.987778 -1.05834,1.023055 c -0.9525,0.917223 -1.02305,1.058334 -0.45861,1.305278 0.59972,0.211667 0.59972,0.246945 0,0.246945 -0.91722,0.03528 -2.61055,-0.881945 -2.8575,-1.622778 -0.17639,-0.458611 -0.0353,-0.423334 0.67028,0.246944 l 0.88194,0.846667 1.05834,-1.023056 1.05833,-1.023055 -0.9525,-0.987778 -0.9525,-0.987778 1.16417,-1.199445 c 0.81139,-0.846666 1.02305,-1.234722 0.67028,-1.375833 -0.35278,-0.141111 -0.35278,-0.211667 0,-0.211667 0.24694,-0.03528 0.91722,0.211667 1.44639,0.493889 z m -4.33917,0.917223 c -0.59972,0.670277 -0.91722,1.552222 -0.9525,2.363611 -0.0353,0.881944 -0.10584,1.058333 -0.21167,0.458611 -0.24694,-1.199445 0.14111,-2.398889 1.02306,-3.210278 1.12889,-1.023056 1.19944,-0.881945 0.14111,0.388056 z m 6.13833,3.210278 c 0,0.246944 -0.3175,0.846666 -0.74083,1.340555 l -0.70556,0.881945 0.635,-1.305278 c 0.67028,-1.446389 0.81139,-1.5875 0.81139,-0.917222 z m -1.94028,2.398889 c -0.10583,0.176388 -0.49389,0.352777 -0.81139,0.3175 -0.49388,0 -0.45861,-0.07056 0.10584,-0.3175 0.9525,-0.388056 0.9525,-0.388056 0.70555,0 z"
       id="path75"
       style="stroke-width:0.0352778" />
    <path
       d="m 93.274448,115.98777 c -1.834444,0.84666 -2.963333,2.61055 -2.963333,4.65666 0,4.02167 4.198055,6.49111 7.761111,4.58611 1.622778,-0.84666 2.998614,-3.42194 2.681114,-5.04472 -0.35278,-1.905 -1.516947,-3.45722 -3.139725,-4.16278 -1.834445,-0.84666 -2.504722,-0.84666 -4.339167,-0.0353 z m 0.564445,1.69333 c -0.493889,0.3175 -1.093612,0.84667 -1.340556,1.16417 -0.388056,0.45861 -0.388056,0.42333 -0.07056,-0.24695 0.352778,-0.77611 1.27,-1.48167 1.940278,-1.51694 0.176389,0 -0.07055,0.28222 -0.529166,0.59972 z m 4.268611,0.42333 c 0.564444,0.56445 1.023056,1.23473 1.023056,1.51695 -0.03528,0.24694 -0.246945,0.0353 -0.564445,-0.49389 -0.282222,-0.52917 -0.9525,-1.19945 -1.481667,-1.48167 -0.529166,-0.3175 -0.740833,-0.52917 -0.493889,-0.56444 0.282223,0 0.9525,0.45861 1.516945,1.02305 z m -2.610556,4.16278 c -0.07055,0.9525 -0.105833,0.17639 -0.105833,-1.65805 0,-1.83445 0.03528,-2.61056 0.105833,-1.69334 0.07056,0.9525 0.07056,2.43417 0,3.35139 z m -2.2225,1.05833 c 0.529167,0.42334 0.811389,0.81139 0.599722,0.81139 -0.176389,0 -0.740833,-0.49389 -1.234722,-1.09361 -0.670278,-0.77611 -0.917222,-1.44639 -0.881944,-2.36361 l 0.07055,-1.30528 0.246945,1.55223 c 0.141111,1.05833 0.564444,1.83444 1.199444,2.39888 z m 5.291667,-0.45861 c -0.282222,0.74084 -2.363611,1.69334 -3.316111,1.51695 -0.740834,-0.14111 -0.705556,-0.14111 0.246944,-0.21167 0.635,0 1.552223,-0.42333 2.116667,-0.91722 1.164167,-1.02306 1.199445,-1.02306 0.9525,-0.38806 z"
       id="path76"
       style="stroke-width:0.0352778" />
    <path
       d="m 58.031946,116.69332 c -1.869722,1.12889 -2.398889,2.04611 -2.575278,4.19806 -0.105833,1.65805 0,2.2225 0.705556,3.21028 0.9525,1.41111 2.8575,2.50472 4.339166,2.50472 1.481667,0 3.386667,-1.09361 4.339167,-2.50472 1.128889,-1.65806 0.987778,-4.79778 -0.3175,-6.17362 -1.834444,-1.97555 -4.480278,-2.46944 -6.491111,-1.23472 z m 4.974167,1.94028 c 0.987778,0.98778 1.199444,1.44639 1.164167,2.54 l -0.07056,1.37583 -0.246944,-1.55222 c -0.246945,-1.62278 -1.587501,-3.21028 -2.716389,-3.21028 -0.458612,0 -0.352778,0.24695 0.423333,1.05834 l 1.023056,1.05833 -0.776112,0.81139 c -0.987777,1.05833 -0.987777,1.34055 0.141111,2.39889 0.881945,0.84666 0.917223,0.84666 1.411112,0.17639 0.282222,-0.38806 0.493889,-0.52917 0.493889,-0.3175 0,0.49389 -1.693334,1.86972 -2.257778,1.86972 -0.211667,0 -0.141111,-0.17639 0.141111,-0.35278 0.458611,-0.28222 0.388055,-0.49389 -0.423334,-1.30528 l -0.9525,-0.9525 -0.917222,0.84667 c -0.846667,0.81139 -0.881944,0.88194 -0.3175,1.30528 0.388056,0.28222 0.458611,0.45861 0.176389,0.45861 -0.246944,0 -0.917222,-0.45861 -1.481667,-1.02306 -1.516944,-1.51694 -1.446389,-3.56305 0.176389,-5.18583 0.917222,-0.91722 1.481667,-1.19945 2.504722,-1.19945 1.023056,0 1.587501,0.28223 2.504723,1.19945 z"
       id="path77"
       style="stroke-width:0.0352778" />
    <path
       d="m 58.173057,118.80999 c -1.093611,1.12889 -1.375833,2.96333 -0.635,4.33917 0.388056,0.70555 0.388056,0.67027 1.411111,-0.28223 l 1.023056,-0.98777 -0.9525,-0.98778 -0.9525,-0.98778 1.023055,-1.05833 c 1.305278,-1.37584 0.458611,-1.37584 -0.917222,-0.0353 z"
       id="path78"
       style="stroke-width:0.0352778" />
    <path
       d="m 59.443057,119.19804 c -0.635,0.70556 -0.635,0.74084 0.105833,1.51695 l 0.776112,0.74083 0.776111,-0.74083 c 0.740833,-0.77611 0.740833,-0.81139 0.105833,-1.51695 -0.352778,-0.38805 -0.740833,-0.70555 -0.881944,-0.70555 -0.141112,0 -0.529167,0.3175 -0.881945,0.70555 z"
       id="path79"
       style="stroke-width:0.0352778" />
  </g>
</svg>
