<?xml version="1.0" encoding="UTF-8" standalone="no"?>
<svg
   version="1.0"
   width="226.75974pt"
   height="191.78775pt"
   viewBox="0 0 226.75974 191.78775"
   preserveAspectRatio="xMidYMid"
   id="svg697"
   xmlns="http://www.w3.org/2000/svg"
   xmlns:svg="http://www.w3.org/2000/svg">
  <defs
     id="defs697" />
  <g
     transform="matrix(0.1,0,0,-0.1,-568.1207,572.01214)"
     fill="#000000"
     stroke="none"
     id="g697">
    <path
       d="m 6604,5696 c -200,-52 -400,-193 -491,-346 -11,-19 -18,-42 -16,-50 4,-13 3,-13 -6,0 -8,12 -17,-1 -45,-61 -46,-98 -74,-205 -81,-301 -5,-68 -4,-77 12,-81 16,-4 16,-5 -1,-6 -17,-1 -18,-7 -12,-63 23,-213 124,-413 279,-553 71,-64 142,-109 159,-99 7,4 8,3 4,-5 -5,-8 15,-22 60,-42 184,-84 404,-97 599,-37 82,25 195,80 177,86 -7,2 -9,8 -6,14 4,6 9,5 15,-3 11,-19 103,46 182,130 194,206 271,465 222,747 -17,94 -72,239 -92,239 -6,0 -15,4 -20,9 -5,5 -3,6 5,2 23,-13 12,19 -25,74 -118,177 -329,314 -551,359 -94,19 -266,13 -368,-13 z m 380,-13 c -5,-5 -12,-12 -16,-18 -4,-6 -8,-2 -8,8 0,9 7,17 17,17 9,0 12,-3 7,-7 z m 31,-58 c 237,-63 450,-258 534,-489 123,-341 2,-712 -298,-916 -306,-207 -729,-165 -987,98 -154,157 -224,330 -225,552 0,145 23,238 88,362 113,214 320,365 558,408 70,13 258,4 330,-15 z m 340,-114 c 3,-6 -3,-9 -14,-8 -11,0 -17,5 -15,9 7,11 22,10 29,-1 z m -1085,-21 c 0,-5 -5,-10 -11,-10 -5,0 -7,5 -4,10 3,6 8,10 11,10 2,0 4,-4 4,-10 z m -83,-77 c -4,-3 -1,-13 6,-22 11,-14 10,-14 -5,-2 -16,12 -16,31 -1,31 4,0 3,-3 0,-7 z m -132,-281 c -6,-7 -34,11 -29,19 3,5 11,3 19,-4 7,-6 12,-13 10,-15 z m 1585,-102 c 0,-5 -5,-10 -11,-10 -5,0 -7,5 -4,10 3,6 8,10 11,10 2,0 4,-4 4,-10 z m -1625,-42 c 6,-4 2,-8 -7,-8 -10,0 -18,7 -18,17 0,9 3,12 8,7 4,-5 12,-12 17,-16 z m 1625,-253 c 0,-8 -2,-15 -4,-15 -2,0 -6,7 -10,15 -3,8 -1,15 4,15 6,0 10,-7 10,-15 z M 6045,4590 c 3,-5 2,-10 -4,-10 -5,0 -13,5 -16,10 -3,6 -2,10 4,10 5,0 13,-4 16,-10 z m 1565,-5 c 0,-12 -19,-12 -23,0 -4,9 -1,12 9,8 7,-3 14,-7 14,-8 z M 6210,4346 c 0,-2 -6,-9 -14,-15 -11,-9 -16,-9 -22,0 -4,7 -3,9 4,5 6,-3 13,-2 17,4 6,10 15,14 15,6 z m 1170,-100 c 0,-3 -4,-8 -10,-11 -5,-3 -10,-1 -10,4 0,6 5,11 10,11 6,0 10,-2 10,-4 z m -256,-158 c -10,-16 -22,-7 -17,13 4,15 8,17 14,8 4,-7 5,-17 3,-21 z m -564,-8 c 0,-5 -5,-10 -11,-10 -5,0 -7,5 -4,10 3,6 8,10 11,10 2,0 4,-4 4,-10 z m 410,-25 c 0,-8 -4,-15 -10,-15 -5,0 -7,7 -4,15 4,8 8,15 10,15 2,0 4,-7 4,-15 z m -305,-5 c 3,-5 1,-10 -4,-10 -6,0 -11,5 -11,10 0,6 2,10 4,10 3,0 8,-4 11,-10 z"
       id="path236" />
    <path
       d="m 6720,5633 c -65,-10 -67,-12 -104,-94 -36,-79 -74,-205 -64,-214 2,-3 27,5 55,16 44,19 53,29 80,83 17,34 58,97 92,139 l 61,77 -47,-1 c -27,-1 -59,-3 -73,-6 z"
       id="path237" />
    <path
       d="m 6808,5581 c -53,-59 -128,-174 -128,-198 0,-9 14,-10 53,-6 48,6 56,11 106,65 29,32 83,79 120,105 36,26 70,50 75,54 7,6 -36,17 -135,34 -35,5 -40,2 -91,-54 z"
       id="path238" />
    <path
       d="m 6565,5596 c -33,-13 -68,-27 -77,-31 -10,-4 -23,-26 -29,-49 -13,-48 -26,-205 -21,-252 l 4,-33 48,37 c 36,27 49,44 49,63 1,39 39,156 72,221 41,80 43,78 -46,44 z"
       id="path239" />
    <path
       d="m 6987,5555 c -37,-25 -92,-71 -123,-102 -62,-63 -60,-68 22,-74 31,-2 51,5 99,36 33,22 97,53 143,70 45,18 84,34 87,37 5,5 -103,61 -140,72 -14,4 -41,-8 -88,-39 z"
       id="path240" />
    <path
       d="m 6395,5514 c -22,-15 -53,-39 -68,-53 -27,-25 -28,-29 -22,-91 8,-87 24,-167 42,-212 l 15,-37 35,50 c 33,48 34,54 28,108 -5,50 2,137 21,229 8,39 0,40 -51,6 z"
       id="path241" />
    <path
       d="m 7160,5486 c -110,-39 -220,-101 -203,-116 4,-3 29,-14 55,-24 43,-16 49,-16 84,-1 45,18 190,45 247,45 h 40 l -24,26 c -29,31 -113,94 -125,94 -5,0 -38,-11 -74,-24 z"
       id="path242" />
    <path
       d="m 6227,5363 -58,-71 21,-63 c 31,-92 112,-243 123,-228 1,2 12,27 23,54 l 20,50 -23,63 c -13,34 -29,108 -36,165 l -12,102 z"
       id="path243" />
    <path
       d="m 7245,5370 c -67,-10 -165,-39 -165,-48 0,-5 20,-22 45,-40 42,-29 48,-31 112,-25 42,3 102,-1 158,-10 49,-9 91,-14 94,-11 2,2 -17,36 -43,74 l -48,70 -52,-1 c -28,-1 -74,-5 -101,-9 z"
       id="path244" />
    <path
       d="m 6703,5359 c -48,-14 -53,-32 -6,-23 45,8 83,21 83,29 0,8 -41,4 -77,-6 z"
       id="path245" />
    <path
       d="m 6790,5360 c 0,-5 23,-10 50,-10 60,0 53,1 119,-21 61,-21 71,-23 71,-10 0,12 -97,44 -110,36 -5,-3 -10,-1 -10,4 0,7 -24,11 -60,11 -33,0 -60,-4 -60,-10 z"
       id="path246" />
    <path
       d="m 6593,5320 c -24,-10 -43,-26 -43,-33 0,-11 12,-8 50,12 27,14 50,29 50,34 0,11 -11,8 -57,-13 z"
       id="path247" />
    <path
       d="m 6773,5319 c -25,-32 -24,-55 7,-84 16,-16 31,-27 33,-24 2,2 8,16 15,32 10,24 9,30 -16,58 -23,25 -30,29 -39,18 z"
       id="path248" />
    <path
       d="m 6810,5322 c 0,-5 9,-17 19,-26 19,-17 20,-17 30,2 8,16 7,21 -5,26 -22,9 -44,7 -44,-2 z"
       id="path249" />
    <path
       d="m 6690,5306 c -28,-10 -36,-19 -38,-42 -2,-23 3,-32 29,-46 41,-24 46,-23 51,12 4,24 -1,35 -21,50 -14,11 -21,20 -15,20 6,0 17,-7 24,-15 11,-13 15,-13 21,-3 24,37 7,45 -51,24 z"
       id="path250" />
    <path
       d="m 6871,5295 -20,-26 22,-34 c 12,-19 25,-34 28,-35 4,0 14,11 23,25 15,22 15,27 -1,60 -20,42 -25,43 -52,10 z"
       id="path251" />
    <path
       d="m 6930,5302 c 0,-5 6,-16 13,-27 10,-12 16,-14 21,-7 4,7 12,12 18,12 6,0 3,-9 -6,-19 -15,-16 -16,-25 -6,-60 l 11,-41 28,21 c 25,19 28,25 21,56 -5,19 -10,36 -12,37 -8,6 -77,36 -82,36 -3,0 -6,-4 -6,-8 z"
       id="path252" />
    <path
       d="m 7040,5303 c 0,-5 19,-19 43,-33 55,-33 57,-33 57,-22 0,11 -74,62 -90,62 -5,0 -10,-3 -10,-7 z"
       id="path253" />
    <path
       d="m 6613,5277 c -29,-13 -29,-23 -1,-30 27,-7 31,-4 26,21 -2,16 -7,18 -25,9 z"
       id="path254" />
    <path
       d="m 6485,5249 c -19,-17 -35,-38 -35,-46 0,-10 15,-2 43,23 23,21 44,41 45,46 8,18 -19,6 -53,-23 z"
       id="path255" />
    <path
       d="m 6121,5202 c -17,-38 -31,-76 -31,-86 0,-28 69,-126 139,-196 l 65,-65 8,62 c 7,62 6,63 -37,127 -24,36 -56,101 -72,145 -15,45 -31,81 -34,81 -3,0 -20,-31 -38,-68 z"
       id="path256" />
    <path
       d="m 7040,5234 c 0,-22 3,-24 23,-18 32,9 33,12 11,29 -27,21 -34,18 -34,-11 z"
       id="path257" />
    <path
       d="m 6555,5240 c -12,-19 4,-58 25,-64 11,-3 29,-9 40,-12 17,-5 20,-1 20,30 0,35 0,35 -62,52 -9,3 -19,0 -23,-6 z"
       id="path258" />
    <path
       d="m 6740,5220 c 0,-29 35,-90 51,-90 4,0 9,14 11,31 4,23 -2,39 -19,60 -32,37 -43,37 -43,-1 z"
       id="path259" />
    <path
       d="m 6831,5223 c -10,-22 -9,-32 6,-60 21,-40 26,-41 41,-8 9,20 8,32 -5,60 -20,42 -26,43 -42,8 z"
       id="path260" />
    <path
       d="m 7203,5243 c -22,-4 -21,-6 15,-53 25,-33 45,-49 60,-49 45,-2 118,-24 201,-62 46,-22 85,-39 87,-39 4,0 -20,78 -41,127 -14,35 -24,45 -54,52 -95,26 -208,36 -268,24 z"
       id="path261" />
    <path
       d="m 7147,5234 c -7,-12 61,-86 76,-81 6,2 -7,23 -29,47 -23,24 -43,39 -47,34 z"
       id="path262" />
    <path
       d="m 6511,5209 c -27,-22 -23,-32 11,-27 19,2 23,7 19,25 -6,21 -6,21 -30,2 z"
       id="path263" />
    <path
       d="m 6923,5207 c -18,-23 -19,-31 -9,-68 l 11,-41 22,29 c 26,32 27,37 10,77 l -13,29 z"
       id="path264" />
    <path
       d="m 6650,5191 c 0,-25 7,-35 38,-55 20,-13 38,-22 40,-21 2,2 -1,18 -6,36 -5,22 -19,40 -40,52 l -32,19 z"
       id="path265" />
    <path
       d="m 7073,5208 c -19,-9 -23,-19 -23,-55 0,-23 2,-43 5,-43 4,0 20,7 36,16 26,13 30,20 27,51 -3,41 -12,47 -45,31 z"
       id="path266" />
    <path
       d="m 6412,5170 c -33,-44 -82,-151 -82,-177 0,-43 17,-23 30,35 8,31 19,63 26,69 22,23 56,83 52,94 -2,5 -14,-4 -26,-21 z"
       id="path267" />
    <path
       d="m 7130,5165 c 0,-20 5,-25 25,-25 26,0 26,0 8,25 -23,31 -33,31 -33,0 z"
       id="path268" />
    <path
       d="m 6470,5166 c -5,-7 -3,-21 5,-36 11,-20 21,-25 54,-25 44,0 46,2 32,38 -7,18 -19,26 -46,29 -20,2 -40,-1 -45,-6 z"
       id="path269" />
    <path
       d="m 7002,5164 c -16,-11 -22,-25 -22,-55 0,-44 1,-45 35,-23 20,13 25,25 25,55 0,43 -5,46 -38,23 z"
       id="path270" />
    <path
       d="m 6570,5154 c 0,-27 19,-52 44,-58 13,-3 31,-9 40,-12 13,-5 14,-2 5,25 -12,35 -17,39 -59,51 -24,7 -30,5 -30,-6 z"
       id="path271" />
    <path
       d="m 6807,5141 c -4,-17 0,-47 7,-68 l 14,-38 12,30 c 9,23 9,39 0,68 -13,45 -25,48 -33,8 z"
       id="path272" />
    <path
       d="m 6737,5133 c 3,-16 7,-35 10,-43 3,-8 7,-31 8,-51 2,-20 10,-49 19,-65 l 15,-29 v 25 c 0,14 -6,36 -14,50 -19,33 -18,50 0,26 14,-19 15,-17 15,21 0,26 -7,50 -21,67 -26,34 -37,33 -32,-1 z"
       id="path273" />
    <path
       d="m 6877,5134 c -15,-30 -12,-108 4,-98 14,8 11,-3 -12,-47 -23,-46 -19,-64 6,-26 20,30 38,90 24,82 -5,-4 -9,-2 -9,4 0,5 5,13 10,16 12,8 13,65 1,84 -7,11 -12,7 -24,-15 z"
       id="path274" />
    <path
       d="m 6432,5120 c -17,-28 -15,-32 11,-24 29,9 29,8 21,28 -8,21 -17,20 -32,-4 z"
       id="path275" />
    <path
       d="m 6660,5135 c 0,-21 32,-75 49,-85 12,-6 21,-16 21,-22 0,-6 -6,-5 -17,3 -24,20 25,-66 51,-89 16,-14 15,-9 -6,31 -15,26 -23,47 -18,47 12,0 -9,61 -29,83 -17,20 -51,41 -51,32 z"
       id="path276" />
    <path
       d="m 7227,5134 c -2,-3 7,-26 21,-52 31,-57 31,-57 38,-49 7,7 -30,92 -43,100 -6,4 -13,4 -16,1 z"
       id="path277" />
    <path
       d="m 6946,5111 c -16,-17 -40,-91 -32,-98 2,-2 15,8 29,21 20,18 27,35 27,61 0,41 -1,41 -24,16 z"
       id="path278" />
    <path
       d="m 7126,5118 c -2,-7 -9,-28 -15,-45 -10,-33 -10,-33 25,-33 27,0 36,5 44,24 19,52 17,61 -18,64 -20,2 -34,-2 -36,-10 z"
       id="path279" />
    <path
       d="m 7273,5118 c 37,-94 36,-92 111,-131 40,-20 100,-62 134,-92 33,-30 63,-55 67,-55 10,0 -5,151 -17,174 -12,22 -135,80 -214,101 -71,18 -88,19 -81,3 z"
       id="path280" />
    <path
       d="m 7078,5108 c -20,-7 -30,-20 -37,-46 -12,-43 -11,-45 22,-37 18,5 30,17 37,41 15,45 11,53 -22,42 z"
       id="path281" />
    <path
       d="m 7196,5078 c -9,-35 -8,-38 19,-38 25,0 25,0 10,30 -19,36 -21,37 -29,8 z"
       id="path282" />
    <path
       d="m 6075,5079 c -22,-63 -34,-284 -19,-346 5,-20 24,-34 81,-60 64,-30 221,-78 229,-70 1,1 -9,27 -23,57 -23,50 -32,58 -92,87 -66,32 -197,130 -187,140 3,3 28,-14 55,-39 53,-46 141,-102 178,-113 21,-6 21,-4 12,27 -5,18 -9,45 -9,59 0,17 -9,32 -23,42 -39,26 -117,110 -158,171 -23,35 -41,53 -44,45 z"
       id="path283" />
    <path
       d="m 6431,5081 c -31,-8 -35,-21 -13,-48 16,-20 20,-21 59,-11 l 42,12 -17,28 c -17,28 -28,31 -71,19 z"
       id="path284" />
    <path
       d="m 6512,5068 c 10,-16 29,-25 57,-29 22,-3 41,-4 41,-3 0,2 -5,15 -12,29 -10,21 -18,25 -56,25 -44,0 -44,0 -30,-22 z"
       id="path285" />
    <path
       d="m 6600,5085 c 0,-19 38,-58 68,-71 19,-8 32,-17 29,-21 -4,-3 -15,0 -24,8 -10,7 -2,-4 17,-25 19,-21 43,-42 53,-48 17,-9 18,-8 2,15 -9,14 -23,28 -31,31 -9,3 -13,10 -10,15 11,17 -34,79 -66,90 -36,13 -38,13 -38,6 z"
       id="path286" />
    <path
       d="m 6998,5062 c -16,-9 -28,-21 -28,-27 0,-6 -7,-20 -16,-31 -15,-19 -16,-19 -10,1 4,13 -9,4 -36,-24 -25,-27 -37,-46 -30,-49 7,-2 10,-8 6,-13 -15,-25 53,10 81,41 l 20,23 -32,-17 c -17,-9 -35,-20 -38,-26 -3,-5 -11,-10 -16,-10 -5,0 1,14 13,31 12,16 24,26 26,20 5,-16 73,30 83,57 14,36 8,43 -23,24 z"
       id="path287" />
    <path
       d="m 6801,5023 c -1,-29 3,-53 9,-53 12,0 12,44 0,80 -6,20 -8,14 -9,-27 z"
       id="path288" />
    <path
       d="m 6841,5023 c -7,-29 -11,-58 -8,-65 6,-19 29,64 25,92 -3,19 -7,13 -17,-27 z"
       id="path289" />
    <path
       d="m 6382,5011 c -10,-29 -10,-30 14,-19 28,13 30,21 10,37 -11,9 -16,6 -24,-18 z"
       id="path290" />
    <path
       d="m 6571,5005 c 16,-17 43,-30 69,-35 l 42,-8 -29,29 c -18,19 -44,32 -68,36 l -40,5 z"
       id="path291" />
    <path
       d="m 7081,4994 c -12,-19 -21,-36 -21,-38 0,-1 16,0 35,2 27,3 39,11 50,33 20,38 19,39 -14,39 -23,0 -34,-8 -50,-36 z"
       id="path292" />
    <path
       d="m 7162,4998 c -24,-38 -21,-48 18,-48 20,0 35,9 50,30 25,35 19,50 -20,50 -21,0 -33,-8 -48,-32 z"
       id="path293" />
    <path
       d="m 6473,5013 c -13,-2 -23,-7 -23,-10 0,-2 10,-13 23,-24 12,-10 17,-18 11,-19 -6,0 -19,9 -28,19 -17,19 -20,19 -52,4 -28,-14 -34,-23 -40,-60 -8,-52 -4,-58 22,-39 19,15 19,15 -1,30 -11,8 -15,16 -9,16 5,0 15,-5 20,-10 7,-7 29,-1 68,20 32,16 71,30 87,30 35,0 36,6 7,31 -23,18 -41,21 -85,12 z"
       id="path294" />
    <path
       d="m 7038,5007 c -15,-7 -37,-25 -49,-41 l -22,-28 34,7 c 19,3 44,19 56,33 36,42 30,51 -19,29 z"
       id="path295" />
    <path
       d="m 7280,5010 c 0,-29 23,-110 32,-110 11,0 1,74 -14,103 -10,19 -18,22 -18,7 z"
       id="path296" />
    <path
       d="m 7326,4948 c 7,-48 13,-58 74,-118 37,-36 86,-94 109,-129 43,-67 44,-67 60,9 23,99 18,114 -56,175 -69,57 -161,115 -182,115 -8,0 -10,-15 -5,-52 z"
       id="path297" />
    <path
       d="m 7237,4969 c -17,-23 -17,-24 3,-33 27,-12 34,-3 23,30 l -9,28 z"
       id="path298" />
    <path
       d="m 6553,4963 c -18,-2 -33,-8 -33,-12 0,-16 57,-32 101,-29 l 44,3 -36,23 c -20,12 -38,21 -40,20 -2,0 -19,-3 -36,-5 z"
       id="path299" />
    <path
       d="m 6315,4916 c -4,-25 -4,-54 0,-63 6,-13 11,-2 17,36 5,33 5,58 -1,64 -6,6 -12,-8 -16,-37 z"
       id="path300" />
    <path
       d="m 6654,4943 c 16,-8 45,-22 64,-30 49,-20 30,4 -22,28 -50,23 -83,25 -42,2 z"
       id="path301" />
    <path
       d="m 6775,4910 -39,-40 39,-40 39,-40 41,40 40,40 -40,40 -41,40 z"
       id="path302" />
    <path
       d="m 7059,4941 c -14,-3 -38,-16 -55,-29 l -29,-22 h 50 c 28,1 65,-2 83,-6 27,-5 38,-2 58,17 31,29 30,36 -6,41 -22,3 -36,-2 -52,-19 -12,-13 -26,-23 -32,-23 -6,1 -1,9 12,19 36,31 28,36 -29,22 z"
       id="path303" />
    <path
       d="m 6456,4923 c -28,-15 -29,-16 -11,-29 24,-18 37,-18 80,3 35,17 35,17 13,30 -30,16 -47,16 -82,-4 z"
       id="path304" />
    <path
       d="m 6943,4919 c -18,-5 -35,-14 -38,-19 -10,-16 28,-10 65,10 37,20 26,24 -27,9 z"
       id="path305" />
    <path
       d="m 7178,4900 -26,-30 30,-16 c 30,-16 31,-15 62,15 32,33 29,45 -14,56 -20,5 -31,-1 -52,-25 z"
       id="path306" />
    <path
       d="m 6541,4891 c -27,-15 -30,-19 -16,-24 26,-11 60,-8 95,7 31,13 31,13 9,18 -13,3 -31,8 -39,11 -8,4 -30,-2 -49,-12 z"
       id="path307" />
    <path
       d="m 6621,4906 c 8,-9 109,-23 109,-16 0,4 -10,10 -22,14 -26,7 -94,8 -87,2 z"
       id="path308" />
    <path
       d="m 6382,4867 c -29,-31 -28,-43 7,-55 25,-9 31,-7 55,21 29,32 26,42 -14,52 -19,4 -31,0 -48,-18 z"
       id="path309" />
    <path
       d="m 7297,4838 c -5,-57 2,-84 14,-52 11,27 11,104 0,104 -5,0 -11,-24 -14,-52 z"
       id="path310" />
    <path
       d="m 6918,4868 c 8,-8 23,-8 54,-1 l 43,11 -54,1 c -42,1 -52,-2 -43,-11 z"
       id="path311" />
    <path
       d="m 7010,4865 -35,-13 41,-12 c 35,-11 45,-10 75,6 l 34,18 -25,7 c -34,10 -49,9 -90,-6 z"
       id="path312" />
    <path
       d="m 6620,4860 c -19,-12 42,-12 80,0 21,7 17,8 -20,9 -25,0 -52,-4 -60,-9 z"
       id="path313" />
    <path
       d="m 7245,4854 c -18,-13 -18,-15 -2,-31 20,-21 30,-13 25,20 -3,24 -5,24 -23,11 z"
       id="path314" />
    <path
       d="m 7328,4813 c -4,-53 -1,-63 33,-116 35,-53 99,-200 99,-229 1,-35 80,114 80,151 0,10 -18,44 -41,77 -40,58 -147,174 -160,174 -4,0 -9,-26 -11,-57 z"
       id="path315" />
    <path
       d="m 6457,4832 -29,-30 32,-7 c 26,-6 37,-2 59,19 35,33 52,34 21,1 l -23,-25 h 29 c 16,0 43,9 59,20 35,23 57,27 29,4 -18,-14 -18,-15 6,-8 45,12 93,34 87,40 -3,4 -20,1 -37,-4 -17,-6 -36,-9 -43,-7 -7,2 -32,6 -57,9 -25,3 -58,8 -75,11 -25,5 -35,1 -58,-23 z"
       id="path316" />
    <path
       d="m 7101,4841 -35,-18 33,-17 c 31,-16 33,-16 68,5 l 35,22 -23,13 c -31,17 -37,17 -78,-5 z"
       id="path317" />
    <path
       d="m 6911,4841 c 24,-15 107,-26 94,-12 -6,6 -33,13 -60,17 -36,4 -46,2 -34,-5 z"
       id="path318" />
    <path
       d="m 6314,4813 c 3,-10 8,-35 12,-55 9,-56 27,-47 18,10 -7,53 -11,62 -25,62 -6,0 -8,-8 -5,-17 z"
       id="path319" />
    <path
       d="m 6705,4811 c -16,-10 -39,-28 -50,-41 -17,-19 -11,-17 32,10 51,31 73,50 56,50 -4,0 -21,-8 -38,-19 z"
       id="path320" />
    <path
       d="m 6907,4809 c 17,-11 46,-24 65,-29 30,-9 31,-8 14,5 -27,20 -11,19 24,-1 21,-13 35,-15 66,-7 l 39,9 -33,18 c -28,14 -42,16 -80,7 -36,-7 -52,-6 -74,5 -41,21 -57,16 -21,-7 z"
       id="path321" />
    <path
       d="m 7177,4806 -37,-23 24,-22 c 24,-22 25,-22 60,-6 49,23 51,30 18,53 l -28,20 z"
       id="path322" />
    <path
       d="m 6364,4794 c 3,-9 6,-23 6,-32 1,-13 5,-12 21,8 20,23 20,25 2,31 -29,12 -36,10 -29,-7 z"
       id="path323" />
    <path
       d="m 6723,4788 c -11,-13 -29,-36 -39,-53 l -18,-30 38,35 c 40,37 62,70 48,70 -5,0 -18,-10 -29,-22 z"
       id="path324" />
    <path
       d="m 6909,4770 c 44,-41 75,-54 50,-23 -8,10 1,5 19,-10 23,-19 45,-27 70,-27 l 37,1 -30,24 c -16,14 -41,26 -55,27 -14,1 -32,2 -40,3 -9,0 -30,11 -47,23 -50,35 -52,25 -4,-18 z"
       id="path325" />
    <path
       d="m 6618,4793 c -27,-4 -76,-58 -64,-70 11,-11 63,18 85,48 12,16 18,28 14,28 -4,-1 -20,-4 -35,-6 z"
       id="path326" />
    <path
       d="m 6761,4787 c -15,-19 -43,-88 -37,-94 5,-5 30,39 46,82 11,28 8,32 -9,12 z"
       id="path327" />
    <path
       d="m 6860,4780 c 21,-40 51,-80 60,-80 13,0 -25,63 -52,86 -21,19 -21,19 -8,-6 z"
       id="path328" />
    <path
       d="m 6400,4759 c -23,-31 -23,-32 -5,-45 31,-23 49,-16 72,26 13,25 17,40 10,40 -7,0 -22,3 -33,6 -16,4 -27,-2 -44,-27 z"
       id="path329" />
    <path
       d="m 6782,4767 c -7,-16 -12,-45 -11,-65 l 1,-37 14,50 c 16,58 13,95 -4,52 z"
       id="path330" />
    <path
       d="m 6836,4763 c 8,-33 43,-103 44,-87 0,6 -7,31 -16,57 -18,53 -39,75 -28,30 z"
       id="path331" />
    <path
       d="m 6481,4744 c -12,-20 -21,-38 -19,-39 2,-1 17,0 35,2 23,4 38,15 52,39 l 20,34 h -33 c -28,0 -38,-6 -55,-36 z"
       id="path332" />
    <path
       d="m 7082,4767 -33,-12 23,-22 c 21,-20 27,-21 67,-11 l 44,11 -29,24 c -33,26 -28,25 -72,10 z"
       id="path333" />
    <path
       d="m 6810,4733 c 0,-21 5,-45 10,-53 7,-11 10,-2 10,32 0,26 -4,50 -10,53 -6,4 -10,-9 -10,-32 z"
       id="path334" />
    <path
       d="m 6642,4740 c -29,-18 -52,-63 -39,-76 11,-11 49,22 63,55 8,19 13,35 11,37 -2,2 -17,-5 -35,-16 z"
       id="path335" />
    <path
       d="m 7227,4743 c -28,-14 -28,-15 -10,-35 18,-20 18,-20 31,12 7,18 12,34 10,35 -2,2 -16,-3 -31,-12 z"
       id="path336" />
    <path
       d="m 7283,4743 c -3,-10 -12,-32 -18,-49 -8,-19 -9,-37 -4,-45 5,-8 9,-12 9,-9 0,3 9,28 20,57 12,32 16,54 10,58 -6,4 -13,-2 -17,-12 z"
       id="path337" />
    <path
       d="m 6937,4706 c 14,-31 52,-56 85,-56 19,0 -28,52 -63,71 l -39,19 z"
       id="path338" />
    <path
       d="m 6689,4707 c -18,-15 -28,-35 -31,-59 -2,-21 -1,-38 2,-38 17,0 43,43 50,80 4,22 7,40 6,40 0,-1 -13,-11 -27,-23 z"
       id="path339" />
    <path
       d="m 7165,4720 c -11,-5 -28,-11 -38,-14 -17,-5 -17,-7 -1,-31 18,-28 59,-33 88,-12 17,13 17,15 -5,39 -18,20 -29,24 -44,18 z"
       id="path340" />
    <path
       d="m 7295,4677 -20,-52 23,-68 c 13,-37 25,-98 28,-135 3,-37 7,-78 10,-91 5,-23 5,-23 26,-5 11,11 38,41 59,67 l 38,48 -30,87 c -29,83 -93,202 -107,202 -4,0 -16,-24 -27,-53 z"
       id="path341" />
    <path
       d="m 6560,4711 c -18,-5 -28,-17 -34,-44 -5,-20 -7,-39 -4,-42 11,-11 57,18 62,40 3,13 9,30 12,39 7,17 3,18 -36,7 z"
       id="path342" />
    <path
       d="m 6886,4690 c 5,-31 55,-90 76,-90 16,0 -15,59 -48,91 l -34,33 z"
       id="path343" />
    <path
       d="m 6346,4687 c 16,-51 47,-97 59,-85 7,7 -40,97 -53,102 -10,4 -11,0 -6,-17 z"
       id="path344" />
    <path
       d="m 6738,4688 c -19,-29 -24,-93 -9,-102 14,-9 33,48 29,90 l -3,38 z"
       id="path345" />
    <path
       d="m 6400,4686 c 0,-16 29,-55 30,-39 0,6 3,18 6,26 3,9 -3,16 -15,20 -13,3 -21,0 -21,-7 z"
       id="path346" />
    <path
       d="m 6478,4693 c -19,-3 -30,-13 -37,-34 -12,-35 -4,-62 16,-55 8,3 21,6 28,6 8,0 19,17 24,38 13,44 13,52 4,51 -5,-1 -20,-4 -35,-6 z"
       id="path347" />
    <path
       d="m 6786,4663 c -7,-40 6,-93 23,-93 22,0 14,97 -9,123 -5,5 -11,-9 -14,-30 z"
       id="path348" />
    <path
       d="m 6840,4663 c 0,-25 8,-48 25,-68 l 24,-30 1,34 c 0,28 -33,101 -46,101 -2,0 -4,-17 -4,-37 z"
       id="path349" />
    <path
       d="m 7030,4670 c 18,-25 28,-30 61,-30 44,0 47,5 20,38 -14,16 -30,22 -61,22 h -41 z"
       id="path350" />
    <path
       d="m 6075,4659 c 4,-19 18,-57 30,-85 22,-50 25,-52 76,-64 65,-14 231,-25 254,-16 13,5 10,13 -21,50 -33,39 -44,46 -99,56 -35,7 -98,28 -142,47 -43,19 -84,37 -92,40 -10,5 -12,-1 -6,-28 z"
       id="path351" />
    <path
       d="m 6625,4659 c -4,-6 -13,-8 -19,-6 -9,4 -13,-11 -15,-50 l -2,-55 27,19 c 20,15 27,29 28,61 2,41 -6,53 -19,31 z"
       id="path352" />
    <path
       d="m 6960,4657 c 0,-2 5,-18 11,-35 8,-24 20,-34 47,-42 20,-5 38,-7 40,-5 11,11 -22,65 -40,65 -11,0 -28,5 -39,10 -10,6 -19,9 -19,7 z"
       id="path353" />
    <path
       d="m 7178,4641 c -25,-6 -26,-8 -14,-30 l 13,-24 18,27 c 21,31 19,34 -17,27 z"
       id="path354" />
    <path
       d="m 7213,4599 c -17,-27 -27,-51 -23,-54 9,-6 70,70 70,86 0,23 -19,11 -47,-32 z"
       id="path355" />
    <path
       d="m 6538,4614 c -23,-12 -28,-21 -28,-54 0,-43 4,-45 44,-30 23,8 26,15 26,55 0,49 -2,51 -42,29 z"
       id="path356" />
    <path
       d="m 6677,4610 c -20,-23 -21,-38 -7,-76 11,-28 11,-28 31,-8 16,17 19,28 13,62 -7,47 -12,50 -37,22 z"
       id="path357" />
    <path
       d="m 7063,4600 c 8,-22 20,-31 44,-36 18,-3 40,-4 48,0 14,5 14,9 0,36 -14,26 -21,30 -59,30 h -44 z"
       id="path358" />
    <path
       d="m 6902,4589 c 2,-25 11,-38 36,-52 39,-23 46,-19 37,21 -5,26 -16,36 -68,60 -5,2 -7,-11 -5,-29 z"
       id="path359" />
    <path
       d="m 6750,4581 c -9,-24 -9,-34 4,-60 20,-38 32,-39 43,-4 7,21 5,35 -10,60 -10,18 -20,33 -22,33 -1,0 -8,-13 -15,-29 z"
       id="path360" />
    <path
       d="m 6826,4579 c -5,-27 -1,-38 20,-60 31,-32 44,-29 44,10 0,17 -11,38 -29,55 l -28,27 z"
       id="path361" />
    <path
       d="m 7233,4564 c -32,-42 -33,-46 -33,-146 -1,-57 -7,-131 -14,-166 -16,-75 -16,-75 76,-10 l 61,43 -6,100 c -5,90 -22,172 -44,209 -6,10 -16,3 -40,-30 z"
       id="path362" />
    <path
       d="m 6460,4594 c 0,-13 21,-44 30,-44 6,0 10,11 10,25 0,18 -5,25 -20,25 -11,0 -20,-3 -20,-6 z"
       id="path363" />
    <path
       d="m 6409,4573 c 12,-23 98,-105 133,-127 49,-32 53,-10 4,23 -26,18 -66,53 -88,77 -41,45 -67,59 -49,27 z"
       id="path364" />
    <path
       d="m 6986,4549 c 9,-44 13,-49 59,-56 37,-6 38,-5 32,18 -4,13 -7,29 -7,35 0,6 -12,14 -27,17 -16,3 -36,9 -45,12 -16,6 -17,3 -12,-26 z"
       id="path365" />
    <path
       d="m 6612,4552 c -18,-14 -21,-23 -16,-49 9,-48 26,-57 52,-30 19,20 20,27 10,60 -13,42 -15,43 -46,19 z"
       id="path366" />
    <path
       d="m 7080,4546 c 0,-6 5,-18 10,-26 8,-13 12,-12 31,6 l 21,21 -31,5 c -18,3 -31,0 -31,-6 z"
       id="path367" />
    <path
       d="m 6705,4514 c -16,-25 -16,-29 -1,-60 19,-40 30,-42 52,-9 15,23 15,27 -6,60 -12,19 -23,35 -25,35 -1,0 -10,-12 -20,-26 z"
       id="path368" />
    <path
       d="m 6900,4521 c 0,-11 -2,-25 -5,-33 -3,-7 10,-23 30,-35 34,-22 35,-22 45,-4 17,33 11,48 -26,70 -43,26 -44,26 -44,2 z"
       id="path369" />
    <path
       d="m 7133,4504 c -40,-33 -60,-65 -29,-47 31,18 77,64 74,73 -2,5 -22,-7 -45,-26 z"
       id="path370" />
    <path
       d="m 6556,4517 c -17,-13 -17,-14 8,-30 27,-18 32,-11 18,26 -6,15 -10,16 -26,4 z"
       id="path371" />
    <path
       d="m 6801,4501 c -11,-26 -10,-33 10,-60 29,-39 44,-39 58,1 6,17 10,32 8,32 -1,1 -16,14 -33,29 l -31,28 z"
       id="path372" />
    <path
       d="m 6145,4493 c 3,-8 24,-42 47,-74 l 41,-59 h 59 c 64,0 189,23 238,44 l 30,12 -47,34 c -46,33 -48,34 -142,32 -53,-1 -127,4 -164,12 -59,11 -67,11 -62,-1 z"
       id="path373" />
    <path
       d="m 6990,4474 c 0,-27 5,-29 37,-11 l 23,13 -30,11 c -28,11 -30,10 -30,-13 z"
       id="path374" />
    <path
       d="m 7134,4462 c -36,-32 -44,-46 -58,-110 -8,-40 -31,-107 -51,-149 -19,-42 -33,-78 -31,-81 6,-6 129,36 150,51 9,7 23,43 31,82 15,73 21,245 8,245 -5,-1 -27,-18 -49,-38 z"
       id="path375" />
    <path
       d="m 6656,4464 c -23,-16 -21,-20 18,-30 27,-6 28,-6 16,17 -7,13 -13,25 -14,26 -1,1 -10,-5 -20,-13 z"
       id="path376" />
    <path
       d="m 6772,4448 c -22,-22 -13,-38 20,-38 h 31 l -19,23 c -10,12 -19,23 -20,24 0,2 -6,-3 -12,-9 z"
       id="path377" />
    <path
       d="m 6880,4451 c 0,-5 -2,-16 -5,-24 -5,-10 1,-13 25,-9 34,5 39,17 11,32 -24,12 -31,13 -31,1 z"
       id="path378" />
    <path
       d="m 7030,4436 c -42,-19 -63,-36 -56,-43 6,-6 94,35 101,47 12,19 2,18 -45,-4 z"
       id="path379" />
    <path
       d="m 6597,4423 c -8,-8 67,-42 96,-42 32,-1 17,16 -24,28 -23,7 -46,14 -53,17 -7,3 -15,1 -19,-3 z"
       id="path380" />
    <path
       d="m 7055,4410 c -3,-5 -24,-15 -46,-21 -35,-11 -42,-19 -65,-70 -14,-31 -54,-93 -89,-136 l -63,-78 37,-3 c 20,-2 59,-1 87,3 49,6 53,9 77,53 49,92 100,262 78,262 -5,0 -13,-4 -16,-10 z"
       id="path381" />
    <path
       d="m 6495,4383 c -43,-15 -103,-27 -159,-30 l -90,-6 59,-54 c 32,-29 68,-56 80,-59 30,-7 179,49 244,93 l 55,36 -53,23 c -30,13 -56,23 -60,23 -3,-1 -37,-13 -76,-26 z"
       id="path382" />
    <path
       d="m 6908,4395 c -67,-15 -73,-29 -9,-22 56,7 65,10 60,24 -2,5 -25,4 -51,-2 z"
       id="path383" />
    <path
       d="m 6720,4381 c 0,-9 98,-23 111,-15 24,14 3,24 -51,24 -33,0 -60,-4 -60,-9 z"
       id="path384" />
    <path
       d="m 6885,4356 c -38,-7 -82,-8 -121,-3 -60,9 -61,8 -123,-32 -35,-22 -100,-54 -145,-72 -44,-17 -83,-33 -85,-35 -5,-4 139,-74 154,-74 22,0 142,87 197,143 32,32 58,55 58,49 0,-15 -111,-116 -173,-157 -67,-44 -65,-47 41,-65 l 72,-13 31,29 c 62,58 173,226 158,238 -2,1 -31,-2 -64,-8 z"
       id="path385" />
    <path
       d="m 7590,5469 c -26,-11 -80,-57 -80,-70 0,-13 93,-159 102,-159 19,0 68,31 78,49 17,33 11,78 -14,108 -32,37 -93,39 -130,4 -14,-14 -26,-19 -26,-13 0,17 60,52 88,52 33,0 78,-28 91,-57 27,-58 0,-120 -63,-148 l -31,-13 30,-1 c 43,-1 94,33 112,76 28,69 -2,139 -74,169 -37,16 -49,16 -83,3 z"
       id="path386" />
    <path
       d="m 5941,5453 c -23,-12 -40,-31 -53,-60 -22,-50 -18,-88 14,-129 31,-39 118,-71 118,-44 0,6 -7,10 -15,10 -8,0 -29,13 -47,29 -28,25 -33,36 -32,72 1,35 7,48 34,72 28,25 39,28 72,24 22,-3 51,-16 64,-28 27,-25 32,-15 8,19 -35,50 -103,65 -163,35 z"
       id="path387" />
    <path
       d="m 5979,5405 c -74,-40 -43,-165 40,-165 12,0 21,4 21,8 0,5 15,34 34,65 l 34,57 -30,25 c -33,28 -61,31 -99,10 z"
       id="path388" />
    <path
       d="m 6700,3984 c -28,-71 6,-149 76,-173 52,-18 88,-9 131,34 28,28 33,40 33,82 0,27 -6,58 -14,68 -13,18 -14,15 -9,-27 5,-44 3,-50 -30,-83 -46,-46 -92,-48 -139,-6 -29,26 -33,35 -32,80 0,28 -1,51 -3,51 -2,0 -8,-12 -13,-26 z"
       id="path389" />
    <path
       d="m 6729,3982 c -12,-31 -11,-38 6,-71 39,-76 155,-59 171,25 10,56 -3,66 -91,67 -72,2 -78,1 -86,-21 z"
       id="path390" />
    <path
       d="m 5877,4886 c -17,-114 -1,-302 32,-388 l 10,-26 -52,5 c -172,16 -255,-208 -115,-309 27,-18 46,-23 99,-23 56,0 71,4 102,27 19,16 43,46 53,68 l 18,40 56,-54 c 67,-64 174,-135 265,-176 36,-16 65,-27 65,-25 0,2 -37,29 -82,61 -168,117 -298,265 -356,407 -35,84 -69,236 -80,357 -8,84 -8,84 -15,36 z m 69,-378 c 41,-126 127,-239 274,-362 34,-29 37,-33 10,-15 -19,12 -76,64 -126,113 -74,75 -99,106 -132,176 -43,88 -67,164 -76,247 -5,41 -3,38 9,-17 9,-36 27,-100 41,-142 z m -140,-113 c -16,-9 -35,-23 -42,-33 -7,-9 -14,-13 -14,-9 0,14 52,57 69,57 9,0 3,-7 -13,-15 z m 115,-14 c 16,-16 29,-35 29,-43 -1,-7 -8,0 -16,15 -9,16 -30,35 -47,42 -20,9 -25,14 -14,15 10,0 32,-13 48,-29 z m -174,-63 c -3,-8 -6,-5 -6,6 -1,11 2,17 5,13 3,-3 4,-12 1,-19 z m 0,-40 c -3,-8 -6,-5 -6,6 -1,11 2,17 5,13 3,-3 4,-12 1,-19 z m 203,-9 c 0,-18 -57,-69 -77,-69 -11,1 -6,6 14,15 18,8 38,25 45,40 12,27 18,32 18,14 z m -132,-59 c 8,0 12,-3 9,-7 -10,-10 -57,18 -69,42 -8,15 -4,13 17,-7 15,-16 35,-28 43,-28 z"
       id="path393" />
    <path
       d="m 7732,4825 c -38,-338 -141,-524 -392,-711 -47,-35 -94,-70 -105,-78 -11,-9 11,-2 48,14 92,40 196,109 264,175 31,30 57,54 57,52 1,-1 11,-23 24,-48 73,-146 292,-108 319,55 17,105 -89,209 -197,192 l -38,-6 20,73 c 22,85 33,248 21,332 l -9,60 z m 5,-132 c -3,-10 -5,-4 -5,12 0,17 2,24 5,18 2,-7 2,-21 0,-30 z m -32,-145 c -14,-51 -40,-119 -58,-151 -36,-69 -152,-196 -223,-246 -56,-39 -45,-27 44,49 120,101 206,241 239,393 10,43 19,72 21,63 2,-9 -8,-58 -23,-108 z m 40,-150 c -11,-6 -27,-16 -35,-22 -9,-6 -5,-1 8,12 13,12 28,22 35,22 7,0 3,-6 -8,-12 z m 128,-37 c 26,-45 22,-86 -14,-123 l -31,-33 26,33 c 34,44 34,91 0,131 -14,17 -20,29 -12,26 8,-3 22,-19 31,-34 z m -196,-63 c -3,-8 -6,-5 -6,6 -1,11 2,17 5,13 3,-3 4,-12 1,-19 z m 73,-87 c 17,-6 19,-10 8,-10 -9,-1 -27,9 -40,22 -13,12 -17,17 -8,10 8,-7 27,-16 40,-22 z"
       id="path394" />
  </g>
</svg>
