<?xml version="1.0" encoding="UTF-8" standalone="no"?>
<svg
   version="1.0"
   width="229.52005pt"
   height="234.64984pt"
   viewBox="0 0 229.52005 234.64984"
   preserveAspectRatio="xMidYMid"
   id="svg697"
   xmlns="http://www.w3.org/2000/svg"
   xmlns:svg="http://www.w3.org/2000/svg">
  <defs
     id="defs697" />
  <g
     transform="matrix(0.1,0,0,-0.1,-566.20002,252.46456)"
     fill="#000000"
     stroke="none"
     id="g697">
    <path
       d="m 6797,2509 c -8,-13 -65,-112 -126,-219 -61,-107 -115,-202 -121,-210 -9,-14 -64,-110 -100,-175 -10,-16 -32,-55 -50,-85 -18,-30 -40,-68 -49,-85 -9,-16 -36,-64 -60,-105 -61,-104 -138,-237 -203,-350 C 5877,914 5816,808 5733,665 l -71,-120 1146,-3 c 630,-1 1147,0 1149,2 3,2 -28,60 -69,128 -40,68 -75,127 -77,132 -2,5 -49,86 -104,180 -54,94 -111,191 -125,216 -13,25 -42,74 -62,110 -21,36 -47,81 -58,100 -11,19 -61,107 -112,195 -107,185 -115,198 -165,285 -21,36 -45,79 -55,95 -50,85 -138,239 -177,310 -25,44 -49,85 -53,90 -5,6 -23,37 -40,70 -43,79 -46,81 -63,54 z m 43,-126 c 13,-21 30,-51 40,-68 40,-72 92,-161 100,-175 6,-8 60,-103 122,-210 61,-107 136,-238 166,-290 30,-52 87,-151 127,-220 40,-69 97,-169 128,-223 107,-184 169,-292 195,-337 14,-25 42,-74 64,-109 21,-34 38,-65 38,-67 0,-3 11,-22 25,-44 14,-22 25,-42 25,-45 0,-3 -475,-5 -1055,-5 -1084,0 -1080,0 -1046,36 5,5 35,53 65,107 31,53 81,140 111,192 30,52 80,139 110,193 30,53 59,104 64,112 15,25 558,962 579,1000 17,32 63,109 99,168 7,12 15,22 17,22 2,0 14,-17 26,-37 z"
       id="path401" />
    <path
       d="m 6761,2305 c -28,-48 -51,-91 -51,-95 0,-18 42,-80 51,-74 5,3 19,24 30,47 23,45 24,44 61,-23 20,-36 26,-35 52,13 l 18,35 -52,88 c -29,49 -54,90 -55,92 -2,2 -26,-36 -54,-83 z m 94,-60 19,-30 -30,27 -30,28 -29,-28 c -31,-30 -32,-32 15,45 15,24 14,25 55,-42 z"
       id="path402" />
    <path
       d="m 6638,2093 c -31,-54 -104,-181 -162,-282 -59,-101 -99,-178 -89,-170 10,7 33,26 51,41 72,62 244,128 330,128 18,0 32,2 32,4 0,3 -25,47 -55,100 l -55,95 30,50 31,50 -26,40 c -14,23 -26,41 -28,41 -2,0 -28,-44 -59,-97 z"
       id="path403" />
    <path
       d="m 6767,2113 c -25,-43 -49,-85 -52,-95 -4,-10 13,-50 46,-107 29,-49 54,-89 55,-88 1,1 25,42 54,90 33,56 49,95 45,105 -8,21 -96,172 -100,172 -2,0 -24,-35 -48,-77 z"
       id="path404" />
    <path
       d="m 6903,2148 -23,-41 30,-49 30,-49 -55,-95 c -30,-53 -55,-97 -55,-100 0,-2 13,-4 28,-4 50,0 181,-38 241,-70 32,-17 80,-51 107,-76 l 49,-46 -60,46 c -165,123 -345,163 -529,116 -109,-28 -190,-74 -272,-155 -187,-184 -233,-474 -112,-698 75,-139 190,-238 337,-292 22,-8 28,-14 17,-14 -63,-3 -255,133 -317,223 -13,20 -26,36 -29,36 -3,0 -29,-43 -59,-95 l -55,-95 h -58 c -55,0 -59,-2 -78,-32 -11,-18 -20,-36 -20,-41 0,-12 888,-8 940,5 203,48 380,229 435,443 41,161 -3,367 -106,498 -17,20 -32,45 -34,55 -3,18 -300,539 -319,559 -8,9 -16,2 -33,-29 z m 24,-418 c -6,-24 1,-25 31,-4 13,9 26,14 29,11 3,-3 -14,-17 -36,-31 -63,-40 -49,-50 20,-15 34,16 63,28 66,26 2,-3 -27,-22 -66,-42 -63,-33 -71,-41 -85,-83 -9,-25 -15,-46 -13,-47 1,-1 30,-11 64,-23 l 63,-21 67,81 67,81 9,-33 c 11,-45 3,-60 -33,-60 -29,0 -30,-1 -31,-52 -1,-29 -3,-44 -6,-33 -15,73 -11,69 -39,36 l -25,-30 36,-32 c 20,-18 47,-51 61,-74 l 24,-43 78,52 c 76,49 84,66 34,66 -21,0 -22,3 -16,35 3,19 4,35 0,35 -3,0 -37,-21 -76,-46 -39,-25 -73,-44 -76,-41 -4,4 108,82 154,106 23,12 23,12 17,-32 l -7,-44 42,-7 c 22,-3 39,-10 36,-14 -3,-5 -43,-32 -90,-62 -48,-29 -86,-57 -86,-62 0,-5 5,-29 11,-54 l 11,-44 h 111 111 l -34,-35 -34,-35 -31,30 c -25,25 -39,30 -78,30 -45,0 -47,-1 -47,-29 0,-28 2,-29 93,-51 123,-30 125,-32 77,-59 -23,-13 -44,-20 -47,-17 -3,3 6,11 21,17 14,7 26,16 26,21 0,15 -42,8 -76,-13 -19,-11 -34,-16 -34,-10 0,6 4,11 8,11 5,0 17,6 27,14 18,13 16,15 -25,26 -25,6 -53,13 -62,16 -14,4 -18,-1 -18,-18 0,-13 -9,-42 -19,-65 l -19,-41 51,-34 c 29,-19 65,-43 81,-53 l 28,-19 -5,45 -6,44 14,-40 c 17,-51 18,-75 3,-75 -7,-1 -32,-5 -55,-9 -24,-5 -43,-4 -43,0 0,5 10,9 23,10 64,2 61,14 -19,67 -81,53 -91,54 -115,11 -7,-14 3,-37 46,-105 30,-49 55,-91 55,-95 0,-4 -16,-3 -35,2 -42,12 -55,6 -55,-24 0,-12 -4,-28 -9,-36 -8,-12 -14,-7 -30,20 -11,19 -36,59 -56,89 -40,60 -40,64 -5,-77 9,-40 15,-73 12,-73 -2,0 -20,9 -38,21 -33,20 -33,21 -19,49 20,38 20,35 -21,60 -19,12 -33,25 -30,27 3,3 17,-2 32,-11 32,-22 38,-17 26,25 -6,22 -14,33 -23,30 -8,-2 -47,-6 -87,-10 l -74,-6 -32,-80 c -18,-44 -36,-89 -40,-100 -7,-18 -10,-16 -27,18 -22,42 -28,43 -69,22 -18,-9 -30,-11 -30,-5 0,6 16,49 35,96 26,66 32,91 24,105 -8,16 -39,39 -52,39 -2,0 -40,-27 -83,-61 -72,-56 -79,-59 -82,-39 -2,12 -1,32 2,44 4,18 11,21 39,18 29,-3 35,0 40,20 4,12 7,33 7,46 0,12 4,22 9,22 5,0 7,-19 3,-42 l -5,-42 31,23 c 18,12 32,24 32,26 0,1 -15,26 -34,54 -19,27 -36,55 -38,60 -2,6 -39,-1 -93,-18 l -90,-28 38,-18 c 20,-10 37,-22 37,-27 0,-5 -22,3 -50,17 -27,14 -50,28 -50,31 0,12 53,95 57,90 3,-3 -4,-21 -16,-41 -19,-33 -19,-36 -4,-31 179,51 172,47 157,103 -5,18 -15,22 -86,28 -44,4 -92,11 -106,15 l -27,8 28,1 c 28,1 117,56 117,73 0,4 -19,8 -42,9 -24,1 -54,5 -68,10 -26,9 95,3 157,-7 29,-6 32,-3 52,41 12,26 21,50 20,54 0,3 -36,35 -80,70 -44,35 -78,65 -77,66 11,9 98,13 98,5 0,-6 -17,-10 -37,-10 -36,-1 -37,-2 -19,-15 11,-8 40,-16 65,-16 l 46,-2 -38,-6 -38,-6 46,-38 46,-38 19,23 c 11,13 19,26 20,30 0,4 -30,39 -66,78 -37,39 -65,73 -62,76 3,3 38,-30 79,-73 73,-78 72,-73 -7,46 -24,36 -42,67 -40,69 2,2 23,-2 45,-8 41,-11 42,-12 35,-45 -4,-25 -2,-36 7,-39 8,-2 30,-9 49,-15 l 35,-11 -43,5 c -42,5 -43,5 -31,-17 24,-47 29,-49 59,-28 43,31 109,51 171,53 l 55,2 32,103 c 18,56 35,102 38,102 4,0 4,-9 1,-20 z m 162,-62 c -33,-65 -92,-158 -97,-154 -4,5 24,57 75,139 25,40 41,51 22,15 z M 6560,816 c -35,-42 -64,-76 -66,-76 -2,0 -3,24 -2,53 1,44 2,46 5,14 6,-58 33,-30 35,37 1,36 2,41 5,19 2,-18 7,-33 11,-33 4,0 20,16 35,36 16,19 31,33 34,30 3,-3 -23,-39 -57,-80 z"
       id="path405" />
    <path
       d="m 6510,1611 c 15,-29 27,-33 33,-12 3,12 -1,22 -10,25 -27,11 -34,7 -23,-13 z"
       id="path406" />
    <path
       d="m 7105,1610 c -20,-22 -16,-34 9,-24 9,3 16,15 16,25 0,24 -3,24 -25,-1 z"
       id="path407" />
    <path
       d="m 6746,1519 c -21,-5 -54,-17 -73,-26 l -34,-16 38,-21 c 49,-28 68,-66 54,-107 l -10,-30 42,3 c 41,3 42,4 45,42 3,33 -2,44 -34,77 -21,22 -33,39 -28,39 6,0 21,-12 35,-26 l 24,-26 6,44 6,43 1,-42 c 1,-24 5,-43 9,-43 4,0 25,17 48,37 31,30 29,27 -8,-13 -43,-46 -48,-55 -45,-90 3,-38 4,-39 45,-42 l 42,-3 -9,32 c -13,46 11,93 57,112 l 35,14 -45,21 c -51,24 -145,34 -201,21 z"
       id="path408" />
    <path
       d="m 6648,1431 c 19,-33 11,-57 -23,-73 -21,-9 -28,-8 -45,7 -19,18 -20,17 -20,-4 0,-12 11,-33 25,-46 52,-53 135,-18 135,56 0,44 -16,67 -56,78 l -32,9 z"
       id="path409" />
    <path
       d="m 6936,1439 c -20,-15 -26,-29 -26,-58 0,-71 57,-108 119,-77 34,18 45,44 36,85 -12,57 -66,76 -80,30 -13,-38 34,-65 64,-36 11,10 13,9 9,-3 -3,-9 -17,-15 -39,-15 -27,0 -35,5 -43,27 -8,22 -6,32 9,48 18,19 18,20 -2,20 -11,0 -32,-9 -47,-21 z"
       id="path410" />
    <path
       d="m 6580,1425 c -23,-28 9,-72 45,-59 36,14 24,74 -15,74 -10,0 -23,-7 -30,-15 z"
       id="path411" />
    <path
       d="m 6521,1336 c -43,-90 -36,-226 14,-299 11,-16 13,-15 18,13 11,52 65,84 120,69 26,-7 27,-6 27,32 v 39 h -47 c -42,0 -53,-5 -93,-42 l -45,-43 38,40 c 20,23 37,43 37,46 0,3 -14,6 -32,7 -46,4 -48,12 -3,12 h 39 l -35,37 c -34,37 -16,29 32,-15 20,-18 36,-23 65,-20 37,3 39,5 42,39 l 3,36 -48,-4 c -42,-5 -52,-2 -75,22 -15,14 -28,39 -31,53 -3,25 -5,23 -26,-22 z"
       id="path412" />
    <path
       d="m 7080,1362 c 0,-13 -14,-37 -30,-54 -27,-27 -36,-30 -70,-25 l -40,5 v -39 -39 h 42 c 36,0 49,6 87,43 l 45,42 -34,-40 -34,-40 35,-6 34,-6 -32,-2 c -40,-1 -41,-7 -6,-43 15,-15 22,-28 17,-28 -6,0 -23,14 -39,30 -23,24 -37,30 -72,30 h -43 v -38 -38 l 40,4 c 33,3 44,-1 70,-26 16,-17 30,-41 30,-53 0,-23 0,-23 13,-4 24,34 47,117 47,165 0,53 -22,136 -44,165 -15,20 -15,20 -16,-3 z"
       id="path413" />
    <path
       d="m 6710,1276 c 0,-56 8,-66 51,-66 38,0 39,1 41,35 0,19 1,40 2,47 1,7 -18,13 -46,15 l -48,4 z"
       id="path414" />
    <path
       d="m 6826,1301 c -2,-3 -1,-25 2,-48 l 4,-43 h 44 c 41,0 44,2 44,28 0,15 3,37 6,50 6,22 4,23 -45,21 -29,-2 -53,-5 -55,-8 z"
       id="path415" />
    <path
       d="m 6385,1249 c -22,-16 -41,-34 -43,-38 -2,-7 120,-24 124,-18 1,1 4,21 7,45 5,40 4,42 -21,42 -15,0 -45,-14 -67,-31 z"
       id="path416" />
    <path
       d="m 7290,1206 c 0,-2 6,-9 14,-15 10,-9 16,-8 26,4 11,13 8,15 -14,15 -14,0 -26,-2 -26,-4 z"
       id="path417" />
    <path
       d="m 6716,1168 c -3,-13 -6,-36 -6,-52 0,-28 0,-28 48,-21 26,4 48,8 49,9 1,1 -1,20 -4,44 -5,41 -7,42 -43,42 -31,0 -39,-4 -44,-22 z"
       id="path418" />
    <path
       d="m 6820,1146 v -44 l 48,-4 c 26,-3 51,-2 55,2 4,4 5,25 1,48 l -7,42 h -48 -49 z"
       id="path419" />
    <path
       d="m 6585,1085 c -14,-13 -25,-34 -25,-46 0,-22 0,-22 20,-4 16,15 26,17 48,9 22,-8 27,-16 27,-43 0,-22 -6,-36 -15,-39 -12,-4 -13,-2 -2,9 28,30 1,77 -37,64 -49,-15 -30,-70 28,-80 48,-8 74,5 91,45 15,35 0,84 -31,100 -32,18 -79,11 -104,-15 z"
       id="path420" />
    <path
       d="m 6934,1086 c -54,-45 -30,-125 41,-142 29,-7 30,-7 13,13 -22,24 -23,56 -4,72 19,16 68,10 74,-9 4,-12 2,-13 -9,-2 -7,6 -23,12 -36,12 -31,0 -44,-47 -18,-67 41,-29 93,51 65,101 -25,48 -84,59 -126,22 z"
       id="path421" />
    <path
       d="m 6735,1035 c 0,-39 -5,-51 -28,-71 -15,-13 -37,-24 -48,-24 -36,0 -19,-19 36,-39 74,-28 166,-28 241,0 l 56,21 -39,18 c -49,22 -72,68 -56,111 l 11,29 h -44 -44 v -38 c 0,-27 7,-45 21,-58 12,-10 30,-32 42,-49 17,-26 15,-25 -21,10 l -42,39 -1,-44 -2,-45 -6,40 -6,40 -45,-40 -45,-39 48,51 c 43,45 48,54 45,89 -3,37 -5,39 -38,42 l -35,3 z"
       id="path422" />
    <path
       d="m 7019,927 c -14,-12 -33,-26 -42,-32 -15,-9 -11,-20 32,-88 50,-80 53,-82 65,-35 6,25 8,26 38,17 17,-5 33,-7 34,-6 2,2 -20,40 -49,84 l -52,82 z"
       id="path423" />
    <path
       d="m 6416,884 c -11,-30 -6,-35 19,-17 13,10 25,21 25,26 0,14 -38,7 -44,-9 z"
       id="path424" />
    <path
       d="m 6633,868 c -6,-18 -20,-57 -32,-86 l -21,-53 22,7 c 13,4 28,9 34,11 5,2 17,-11 25,-28 l 15,-32 33,81 c 18,45 33,84 33,88 -1,5 -87,44 -98,44 0,0 -5,-15 -11,-32 z"
       id="path425" />
    <path
       d="m 6946,733 c -5,-11 -1,-22 10,-30 22,-16 23,-14 17,20 -6,31 -18,35 -27,10 z"
       id="path426" />
    <path
       d="m 6217,1363 c -26,-44 -298,-516 -306,-532 -11,-20 -10,-21 38,-21 49,0 50,0 77,50 l 27,50 h 113 112 l -18,38 c -50,104 -70,287 -42,385 10,34 9,47 -1,30 z"
       id="path427" />
    <path
       d="m 7405,1355 c 4,-11 10,-62 12,-112 6,-104 -7,-188 -42,-275 l -23,-57 111,-3 111,-3 26,-45 c 25,-43 28,-45 78,-48 l 51,-3 -161,278 c -157,273 -179,308 -163,268 z"
       id="path428" />
    <path
       d="m 6046,868 c -28,-46 -86,-149 -86,-154 0,-3 48,-3 107,-2 l 107,3 48,80 c 26,44 47,83 48,88 0,4 -47,7 -105,7 -98,0 -105,-1 -119,-22 z"
       id="path429" />
    <path
       d="m 7377,843 c 15,-27 39,-68 54,-91 l 26,-44 107,-1 c 58,-1 106,0 106,2 0,2 -23,43 -51,92 l -51,89 h -110 -109 z"
       id="path430" />
    <path
       d="m 7295,830 c -62,-85 -172,-164 -285,-206 -30,-11 10,-13 283,-13 l 318,-1 -22,40 c -22,39 -24,40 -80,40 h -58 l -56,95 c -30,52 -57,95 -59,95 -3,0 -21,-23 -41,-50 z"
       id="path431" />
    <path
       d="m 5833,700 -51,-90 h 108 108 l 21,36 c 12,19 21,37 21,40 0,2 -25,4 -56,4 h -56 l 26,46 c 14,26 26,48 26,50 0,2 -21,4 -47,4 h -48 z m 68,12 c -19,-36 -14,-52 19,-52 17,0 30,-5 30,-11 0,-7 -14,-8 -42,-4 -24,4 -44,9 -46,10 -2,2 6,22 18,45 12,23 24,40 27,37 2,-3 0,-14 -6,-25 z"
       id="path432" />
    <path
       d="m 7665,748 c 14,-24 25,-46 25,-50 0,-5 -24,-8 -54,-8 h -54 l 21,-40 22,-40 h 108 c 59,0 107,2 107,4 0,2 -23,43 -51,90 l -50,86 h -49 -49 z m 102,-94 c -10,-7 -87,-10 -87,-3 0,5 14,9 31,9 25,0 30,3 26,18 -18,55 -15,62 7,22 13,-25 23,-46 23,-46 z"
       id="path433" />
    <path
       d="m 5915,1657 c -58,-33 -85,-78 -85,-144 0,-30 6,-66 14,-81 19,-37 62,-76 75,-67 11,6 61,98 61,110 0,3 -18,5 -40,5 -22,0 -40,4 -40,8 0,5 14,46 30,91 17,46 29,87 28,92 -2,5 -21,-2 -43,-14 z"
       id="path434" />
    <path
       d="m 7565,1661 c -122,-56 -142,-200 -42,-288 108,-95 277,-15 277,131 0,76 -51,146 -121,166 -48,14 -68,12 -114,-9 z m 108,-138 c 11,-18 27,-16 27,3 0,8 5,12 10,9 15,-9 12,-118 -4,-140 -12,-17 -13,-16 -20,11 -11,41 -24,54 -56,54 -32,0 -45,-13 -56,-54 -7,-27 -8,-28 -20,-11 -19,25 -18,77 2,119 13,27 14,40 6,65 -12,35 -7,39 21,14 16,-15 21,-15 25,-4 2,7 14,23 26,35 l 21,21 5,-55 c 3,-30 9,-61 13,-67 z"
       id="path435" />
    <path
       d="m 6023,1611 c -18,-33 -33,-63 -33,-66 0,-4 20,-4 45,-1 25,4 45,4 45,1 0,-4 -34,-47 -76,-97 -86,-100 -86,-110 -5,-110 121,0 204,124 157,235 -12,30 -77,97 -94,97 -4,0 -22,-27 -39,-59 z"
       id="path436" />
    <path
       d="m 6745,506 c -122,-55 -140,-219 -32,-297 79,-58 200,-31 248,54 38,68 26,162 -27,208 -54,48 -130,61 -189,35 z m 84,-35 c 20,-39 20,-39 0,-57 -18,-16 -21,-16 -36,-1 -15,14 -15,21 -3,57 7,22 15,40 16,40 2,0 13,-17 23,-39 z m -41,-80 c 10,-6 10,-10 -3,-21 -8,-7 -15,-10 -15,-7 0,3 -3,12 -6,21 -7,17 3,20 24,7 z m 68,-28 c -3,-3 -13,0 -22,8 -15,12 -14,14 3,20 17,6 32,-15 19,-28 z m 112,-8 c 2,-2 -14,-13 -36,-24 -39,-20 -40,-20 -57,-1 -17,19 -17,21 -1,39 16,18 20,18 54,4 20,-8 39,-17 40,-18 z m -201,-7 c 38,-36 41,-48 14,-48 -15,0 -18,5 -13,23 5,22 5,22 -16,3 -21,-19 -23,-19 -63,-1 l -40,19 33,17 c 44,24 47,24 85,-13 z m 58,-8 c -5,-8 -11,-8 -17,-2 -6,6 -7,16 -3,22 5,8 11,8 17,2 6,-6 7,-16 3,-22 z m 35,-26 c 0,-8 -7,-14 -15,-14 -17,0 -18,2 -9,24 7,18 24,12 24,-10 z m -25,-90 -17,-39 -19,38 c -20,37 -20,40 -3,58 17,19 18,19 37,1 18,-18 18,-21 2,-58 z"
       id="path437" />
  </g>
</svg>
