<?xml version="1.0" encoding="UTF-8" standalone="no"?>
<svg
   version="1.0"
   width="223.5pt"
   height="223.0004pt"
   viewBox="0 0 223.5 223.0004"
   preserveAspectRatio="xMidYMid"
   id="svg697"
   xmlns="http://www.w3.org/2000/svg"
   xmlns:svg="http://www.w3.org/2000/svg">
  <defs
     id="defs697" />
  <g
     transform="matrix(0.1,0,0,-0.1,-8.5000009,241.00043)"
     fill="#000000"
     stroke="none"
     id="g697">
    <path
       d="m 1107,2314 c -54,-53 -96,-99 -93,-102 3,-3 44,33 91,79 47,46 91,86 97,88 5,2 46,-32 89,-75 43,-43 82,-75 85,-71 6,6 -158,178 -168,177 -2,0 -47,-44 -101,-96 z"
       id="path438" />
    <path
       d="m 1132,2297 c -40,-40 -69,-77 -65,-82 4,-4 3,-5 -4,-1 -6,3 -14,2 -18,-4 -7,-11 73,-49 120,-56 l 30,-5 -35,20 c -42,24 -34,27 13,5 31,-15 36,-15 65,0 44,23 54,19 12,-4 -26,-14 -30,-19 -15,-19 28,0 127,44 123,55 -2,5 -7,8 -11,6 -5,-1 -6,1 -3,6 3,5 -28,41 -67,80 l -72,72 z m -22,-97 c 8,-5 11,-10 5,-10 -5,0 -17,5 -25,10 -8,5 -10,10 -5,10 6,0 17,-5 25,-10 z m 210,0 c -8,-5 -19,-10 -25,-10 -5,0 -3,5 5,10 8,5 20,10 25,10 6,0 3,-5 -5,-10 z"
       id="path439" />
    <path
       d="m 781,2258 c -5,-13 -23,-58 -40,-101 -17,-43 -31,-80 -31,-82 0,-3 30,-5 68,-5 h 68 l 69,70 c 67,68 68,69 44,78 -13,5 -52,21 -86,36 -76,32 -81,32 -92,4 z"
       id="path440" />
    <path
       d="m 1530,2252 c -36,-16 -74,-32 -84,-36 -17,-6 -12,-15 44,-71 36,-36 61,-65 56,-65 -4,0 -33,27 -63,60 -31,33 -63,60 -72,60 -9,0 11,-27 49,-65 l 64,-65 h 88 c 48,0 88,3 88,8 -1,24 -80,197 -91,199 -8,2 -43,-10 -79,-25 z"
       id="path441" />
    <path
       d="m 928,2135 c -37,-36 -62,-65 -55,-65 7,0 42,29 77,65 84,84 65,84 -22,0 z"
       id="path442" />
    <path
       d="m 966,2130 -58,-60 h 45 c 25,0 49,5 52,10 3,6 14,10 23,10 15,0 15,-2 2,-10 -29,-19 25,-11 81,12 84,34 87,51 4,24 -15,-5 -14,-4 3,5 12,7 22,15 22,19 0,3 -23,15 -52,26 -29,10 -55,20 -58,22 -3,1 -32,-25 -64,-58 z m 119,-30 c -3,-5 -14,-10 -23,-10 -15,0 -15,2 -2,10 20,13 33,13 25,0 z"
       id="path443" />
    <path
       d="m 1325,2167 c -62,-26 -63,-26 -45,-38 10,-6 4,-7 -20,-3 -47,9 -30,-7 39,-34 38,-16 75,-22 128,-22 h 75 l -58,60 c -32,33 -60,60 -63,59 -3,0 -28,-10 -56,-22 z m 15,-62 c 14,-8 19,-14 10,-14 -8,0 -24,6 -34,14 -25,19 -9,19 24,0 z m 57,-21 c -3,-3 -12,-4 -19,-1 -8,3 -5,6 6,6 11,1 17,-2 13,-5 z"
       id="path444" />
    <path
       d="m 1190,2140 c 0,-5 7,-10 15,-10 8,0 15,5 15,10 0,6 -7,10 -15,10 -8,0 -15,-4 -15,-10 z"
       id="path445" />
    <path
       d="m 1150,2093 -55,-22 h 110 c 61,0 103,3 95,6 -8,3 -33,13 -55,22 -39,16 -42,16 -95,-6 z"
       id="path446" />
    <path
       d="m 793,1999 c -33,-32 -56,-59 -50,-59 14,0 123,108 116,114 -2,3 -32,-22 -66,-55 z"
       id="path447" />
    <path
       d="m 970,2051 c -14,-5 -39,-6 -55,-3 -21,2 -35,-2 -44,-12 -7,-9 -10,-16 -5,-16 5,0 -6,-9 -25,-21 -55,-33 -30,-31 55,6 43,19 85,35 92,35 6,0 12,5 12,10 0,6 -1,10 -2,9 -2,-1 -14,-4 -28,-8 z m -60,-21 c -8,-5 -19,-10 -25,-10 -5,0 -3,5 5,10 8,5 20,10 25,10 6,0 3,-5 -5,-10 z"
       id="path448" />
    <path
       d="m 1410,2049 c 0,-5 6,-9 13,-9 6,0 48,-16 91,-35 85,-37 110,-39 55,-6 -19,12 -30,21 -25,21 5,0 1,9 -8,19 -13,14 -24,17 -39,12 -12,-4 -36,-5 -54,-1 -18,5 -33,4 -33,-1 z m 110,-19 c 8,-5 11,-10 5,-10 -5,0 -17,5 -25,10 -8,5 -10,10 -5,10 6,0 17,-5 25,-10 z"
       id="path449" />
    <path
       d="m 1550,2053 c 0,-15 107,-113 123,-113 9,0 31,-9 49,-20 38,-23 66,-27 51,-7 -5,6 -20,40 -33,75 l -25,62 h -64 -65 l 39,-41 c 22,-23 49,-45 60,-49 19,-8 19,-9 1,-9 -10,-1 -37,20 -60,45 -41,46 -76,72 -76,57 z m 190,-113 c 8,-5 11,-10 5,-10 -5,0 -17,5 -25,10 -8,5 -10,10 -5,10 6,0 17,-5 25,-10 z"
       id="path450" />
    <path
       d="m 451,1935 c 1,-83 4,-115 13,-112 92,39 116,51 116,59 0,6 -7,7 -15,4 -40,-16 -46,-14 -11,3 22,11 45,31 52,48 l 13,28 -6,-30 c -3,-16 -10,-36 -16,-42 -6,-9 -6,-13 2,-13 10,0 21,22 61,121 l 19,47 -115,1 -115,2 z m 185,58 c -8,-15 -15,-25 -16,-21 0,12 23,58 27,54 3,-2 -2,-17 -11,-33 z M 500,1860 c -8,-5 -19,-10 -25,-10 -5,0 -3,5 5,10 8,5 20,10 25,10 6,0 3,-5 -5,-10 z"
       id="path451" />
    <path
       d="m 678,2007 c -34,-84 -36,-79 20,-56 27,11 67,38 88,60 l 38,39 h -64 -65 z"
       id="path452" />
    <path
       d="m 1045,2033 c -292,-62 -530,-309 -585,-607 -17,-94 -8,-261 20,-351 100,-321 390,-535 725,-535 332,0 616,206 722,525 24,73 27,94 27,230 0,142 -2,155 -31,237 -40,115 -83,186 -167,275 -187,199 -449,282 -711,226 z m 203,-55 33,-43 -43,-3 c -37,-3 -46,1 -66,25 -47,58 -47,63 1,63 39,0 46,-4 75,-42 z m 105,25 c -7,-2 -19,-2 -25,0 -7,3 -2,5 12,5 14,0 19,-2 13,-5 z m -243,-75 c 0,-4 -7,-8 -16,-8 -8,0 -13,4 -10,9 3,5 -11,23 -32,41 l -37,32 48,-33 c 26,-18 47,-36 47,-41 z m -103,56 c -3,-3 -12,-4 -19,-1 -8,3 -5,6 6,6 11,1 17,-2 13,-5 z m 343,-29 c 0,-5 -5,-3 -10,5 -5,8 -10,20 -10,25 0,6 5,3 10,-5 5,-8 10,-19 10,-25 z m -359,-12 c 13,-16 12,-17 -3,-4 -10,7 -18,15 -18,17 0,8 8,3 21,-13 z m 449,-40 c 0,-7 -4,-13 -8,-13 -4,0 -8,8 -8,18 -1,9 -4,26 -8,37 -5,13 -2,11 8,-5 8,-14 15,-31 16,-37 z m 139,-6 c -2,-21 -2,-21 -6,-1 -5,28 -53,51 -64,32 -6,-9 -9,-6 -9,10 v 22 l 40,-20 c 30,-15 40,-26 39,-43 z m -215,27 c 3,-8 2,-12 -4,-9 -6,3 -10,10 -10,16 0,14 7,11 14,-7 z m -489,-12 c -3,-3 -11,0 -18,7 -9,10 -8,11 6,5 10,-3 15,-9 12,-12 z m -50,-8 c -11,-8 -19,-20 -17,-25 3,-12 -15,-12 -23,1 -3,5 7,16 22,24 36,20 43,19 18,0 z m 242,10 c -3,-3 -12,-4 -19,-1 -8,3 -5,6 6,6 11,1 17,-2 13,-5 z m -138,-18 c 15,-8 20,-16 12,-20 -6,-4 -11,-3 -11,2 0,5 -10,14 -22,20 -13,6 -18,11 -13,11 6,0 21,-6 34,-13 z m 405,-10 c 131,-34 206,-75 297,-166 61,-60 84,-92 117,-160 40,-85 72,-203 72,-266 0,-64 -41,-207 -81,-285 -51,-98 -163,-209 -259,-256 -78,-38 -210,-73 -275,-73 -54,0 -184,31 -247,59 -173,78 -302,238 -348,435 -25,108 -25,140 0,241 32,129 82,219 169,305 90,90 165,132 294,165 117,30 143,30 261,1 z m 73,18 c -3,-3 -12,-4 -19,-1 -8,3 -5,6 6,6 11,1 17,-2 13,-5 z m 132,-62 c 14,-11 13,-12 -6,-2 -15,7 -23,19 -22,33 1,20 2,20 6,2 3,-11 13,-25 22,-33 z m -686,17 c 18,-8 31,-8 48,1 23,11 23,10 5,-4 -24,-19 -34,-19 -66,-1 -30,17 -21,20 13,4 z m 848,-36 c 30,-33 30,-35 3,-10 -17,15 -33,24 -37,20 -4,-3 -7,1 -7,10 0,23 1,22 41,-20 z m -115,-11 c -4,-3 -12,0 -19,8 -9,10 -9,11 1,6 7,-5 12,-1 13,11 1,17 2,17 6,0 3,-10 2,-21 -1,-25 z m -908,-31 c -13,-17 -27,-30 -32,-30 -6,-1 3,13 19,29 37,38 43,39 13,1 z m 85,22 c -7,-2 -21,-2 -30,0 -10,3 -4,5 12,5 17,0 24,-2 18,-5 z m 22,-33 c -16,-16 -32,-30 -36,-30 -11,0 44,57 55,59 6,0 -3,-12 -19,-29 z m 901,-49 c 13,-10 24,-22 24,-27 0,-4 -13,5 -30,21 -22,21 -30,37 -28,59 l 1,31 4,-32 c 3,-19 14,-41 29,-52 z m 31,12 c -3,-10 -5,-4 -5,12 0,17 2,24 5,18 2,-7 2,-21 0,-30 z m -994,10 c -7,-2 -21,-2 -30,0 -10,3 -4,5 12,5 17,0 24,-2 18,-5 z m 1096,-59 c 28,-46 27,-59 -1,-15 l -21,33 -18,-33 c -10,-19 -18,-31 -19,-27 0,8 32,78 36,78 1,0 11,-16 23,-36 z M 690,1671 c 0,-6 -5,-13 -12,-17 -6,-4 -8,-3 -4,4 3,5 0,13 -6,15 -8,3 -6,6 5,6 9,1 17,-3 17,-8 z m -87,-8 c -13,-2 -23,-8 -23,-12 0,-4 -7,-16 -15,-27 -14,-17 -14,-15 0,14 11,23 22,32 38,31 l 22,-2 z m 57,-43 c -6,-12 -20,-20 -33,-19 -20,1 -20,2 -2,6 11,3 24,11 28,19 13,22 19,16 7,-6 z m 1151,-20 c 10,19 18,31 18,25 0,-5 -8,-25 -18,-44 l -18,-34 -21,35 c -12,20 -22,39 -22,44 0,5 10,-7 21,-26 l 21,-34 z m -1238,-7 c -7,-2 -19,-2 -25,0 -7,3 -2,5 12,5 14,0 19,-2 13,-5 z m 1289,-80 c -16,-21 -32,-47 -35,-58 -5,-20 -5,-20 -6,0 0,11 13,37 30,58 40,48 50,48 11,0 z m -1252,7 c 0,-5 -2,-10 -4,-10 -3,0 -8,5 -11,10 -3,6 -1,10 4,10 6,0 11,-4 11,-10 z m 1287,-12 c -3,-8 -6,-5 -6,6 -1,11 2,17 5,13 3,-3 4,-12 1,-19 z m -1327,2 c -8,-5 -19,-10 -25,-10 -5,0 -3,5 5,10 8,5 20,10 25,10 6,0 3,-5 -5,-10 z m 30,-25 c 0,-19 -35,-55 -52,-54 -7,0 -3,5 10,11 12,6 25,22 28,35 7,26 14,30 14,8 z m -93,-17 c -3,-8 -6,-5 -6,6 -1,11 2,17 5,13 3,-3 4,-12 1,-19 z m 1377,-29 c -32,-45 -48,-51 -51,-22 -3,16 -2,16 5,-1 7,-17 12,-13 38,26 16,25 31,44 33,42 3,-2 -9,-23 -25,-45 z M 518,1426 c 15,5 15,4 2,-5 -23,-16 -30,-13 -29,12 1,16 3,17 6,5 3,-11 11,-15 21,-12 z m 25,-164 c -58,-47 -63,-47 -63,1 0,39 4,46 43,75 l 42,33 3,-43 c 3,-37 -1,-46 -25,-66 z m 1379,91 c -35,-13 -72,-56 -72,-84 0,-16 3,-29 6,-29 12,0 59,42 66,58 6,15 7,15 7,1 1,-14 -68,-79 -83,-79 -3,0 -6,19 -6,43 1,37 5,45 43,74 23,17 44,29 47,26 3,-3 -1,-8 -8,-10 z M 580,1165 c 0,-5 -4,-4 -9,4 -7,10 -16,4 -40,-29 -17,-24 -31,-40 -31,-36 0,4 14,28 32,52 22,31 34,41 40,32 4,-7 8,-17 8,-23 z m 1337,-17 c -3,-7 -5,-2 -5,12 0,14 2,19 5,13 2,-7 2,-19 0,-25 z m -37,7 c -14,-8 -29,-14 -35,-14 -5,0 1,6 15,14 14,8 30,14 35,14 6,0 -1,-6 -15,-14 z M 563,1080 c -15,-22 -32,-40 -36,-40 -5,0 5,17 22,37 17,21 32,47 32,58 1,17 2,17 6,3 2,-10 -8,-36 -24,-58 z m 1331,13 c -10,-7 -23,-13 -28,-12 -6,0 -1,5 12,11 12,6 22,18 23,27 0,13 2,13 6,2 3,-8 -2,-20 -13,-28 z m -77,-3 c -4,-17 -2,-20 16,-15 21,5 21,5 -1,-7 -12,-6 -24,-9 -27,-7 -5,6 5,49 12,49 3,0 3,-9 0,-20 z M 517,1068 c -3,-8 -6,-5 -6,6 -1,11 2,17 5,13 3,-3 4,-12 1,-19 z m 122,-64 c 27,-46 27,-59 -1,-16 l -21,34 -13,-24 c -7,-12 -13,-20 -14,-16 0,8 22,58 26,58 1,0 11,-16 23,-36 z m 1231,-13 c 0,-6 -5,-13 -12,-17 -6,-4 -8,-3 -4,4 3,5 0,13 -6,15 -8,3 -6,6 5,6 9,1 17,-3 17,-8 z m -72,-8 c -15,-2 -35,-14 -43,-26 -19,-28 -19,-35 3,-40 10,-3 6,-5 -11,-6 -26,-1 -27,1 -16,22 21,40 42,57 68,56 l 26,-2 z M 586,953 c -7,-22 29,-81 37,-61 4,8 6,9 6,1 1,-6 -3,-14 -8,-17 -14,-9 -52,59 -45,78 8,22 17,20 10,-1 z m 1254,-13 c -6,-11 -18,-20 -28,-19 -14,0 -14,2 -2,6 8,3 19,12 23,19 13,22 19,16 7,-6 z M 641,923 c -12,-20 -14,-14 -5,12 4,9 9,14 11,11 3,-2 0,-13 -6,-23 z m 109,-73 c 5,-10 9,-31 9,-47 l -2,-28 -4,30 c -3,17 -17,43 -31,59 -24,26 -25,27 -5,17 13,-6 27,-20 33,-31 z m -53,-22 c -3,-7 -5,-2 -5,12 0,14 2,19 5,13 2,-7 2,-19 0,-25 z m 987,15 c -12,-2 -32,-15 -45,-29 l -22,-24 34,-1 c 19,-1 26,-3 16,-6 -10,-3 -30,-2 -44,2 l -26,6 29,30 c 18,19 37,29 53,28 22,-2 23,-2 5,-6 z m 86,-6 c 0,-2 -17,-19 -37,-38 -35,-32 -36,-32 -10,-3 21,23 25,33 15,37 -7,3 -3,6 10,6 12,1 22,0 22,-2 z M 743,757 c 4,3 7,-2 7,-12 0,-16 -4,-14 -30,10 -16,16 -30,31 -30,34 0,2 10,-5 23,-17 13,-12 27,-19 30,-15 z m 156,-46 c -2,-24 -2,-24 -6,-4 -4,21 -37,53 -54,53 -4,0 -10,-8 -12,-17 -3,-11 -5,-7 -6,10 l -1,28 40,-22 c 31,-18 40,-28 39,-48 z m 656,21 c -3,-3 -11,0 -18,7 -9,10 -8,11 6,5 10,-3 15,-9 12,-12 z m -50,-8 c -11,-8 -19,-19 -18,-24 2,-5 -4,-7 -13,-3 -12,4 -10,10 13,24 34,23 46,24 18,3 z m 104,-8 c 15,-8 20,-16 12,-20 -6,-4 -11,-3 -11,2 0,5 -10,14 -22,20 -13,6 -18,11 -13,11 6,0 21,-6 34,-13 z M 859,662 c 14,-11 13,-12 -6,-2 -15,7 -23,19 -22,33 1,20 2,20 6,2 3,-11 13,-25 22,-33 z m 130,-7 c 0,-5 -4,-3 -9,5 -5,8 -9,22 -9,30 0,16 17,-16 18,-35 z m 28,29 c -3,-3 -12,-4 -19,-1 -8,3 -5,6 6,6 11,1 17,-2 13,-5 z m 513,-4 c 8,-5 11,-10 5,-10 -5,0 -17,5 -25,10 -8,5 -10,10 -5,10 6,0 17,-5 25,-10 z m 56,-5 c -11,-8 -25,-15 -30,-15 -6,1 0,7 14,15 32,19 40,18 16,0 z m -160,-31 39,-35 -40,29 c -22,17 -49,32 -60,35 -19,5 -19,5 1,6 11,0 38,-15 60,-35 z M 906,632 c -4,-3 -12,0 -19,8 -9,10 -9,11 1,6 7,-5 12,-1 13,11 1,17 2,17 6,0 3,-10 2,-21 -1,-25 z m 424,28 c -17,-10 -17,-9 34,-44 21,-14 35,-26 29,-26 -5,0 -28,14 -52,31 -31,24 -39,34 -29,40 7,5 18,9 23,9 6,0 3,-4 -5,-10 z m -81,-45 c 18,-25 27,-45 22,-45 -6,0 -11,4 -11,9 0,5 -12,23 -26,40 -18,22 -35,31 -55,31 -16,0 -29,-3 -29,-6 0,-3 12,-22 26,-42 l 26,-37 -26,30 c -52,58 -52,65 -3,65 40,0 46,-3 76,-45 z m -225,-17 c 8,-5 7,-8 -1,-8 -7,0 -17,9 -23,19 -14,27 -12,41 2,16 6,-11 16,-23 22,-27 z m 56,7 c 0,-5 -5,-3 -10,5 -5,8 -10,20 -10,25 0,6 5,3 10,-5 5,-8 10,-19 10,-25 z m 357,-1 c -3,-3 -12,-4 -19,-1 -8,3 -5,6 6,6 11,1 17,-2 13,-5 z m -347,-23 c 0,-4 -11,-6 -25,-3 -14,2 -25,6 -25,8 0,2 11,4 25,4 14,0 25,-4 25,-9 z"
       id="path453" />
    <path
       d="m 1150,2003 c 0,-5 12,-20 25,-35 16,-19 34,-28 55,-28 36,0 37,6 5,43 -16,18 -34,27 -55,27 -16,0 -30,-3 -30,-7 z"
       id="path454" />
    <path
       d="m 1117,1866 c -113,-42 -197,-151 -197,-257 0,-24 -4,-27 -49,-32 -93,-11 -170,-64 -216,-149 -26,-46 -30,-63 -30,-133 0,-66 4,-89 25,-129 45,-88 148,-156 235,-156 31,0 32,-2 38,-49 28,-237 314,-335 484,-166 52,53 83,122 83,187 0,25 3,28 33,28 101,0 218,88 252,189 57,172 -58,357 -234,378 l -49,5 -5,50 c -11,93 -71,174 -161,220 -52,27 -156,34 -209,14 z m 328,-806 C 1319,934 1211,830 1206,830 c -4,0 -112,104 -239,230 l -231,231 234,234 235,235 235,-235 235,-235 z"
       id="path455" />
    <path
       d="m 977,1522 -227,-227 228,-228 227,-227 228,228 227,227 -228,228 -227,227 z m 173,108 c 0,-5 -4,-10 -10,-10 -5,0 -10,5 -10,10 0,6 5,10 10,10 6,0 10,-4 10,-10 z m 138,-12 c -3,-7 -13,-15 -24,-17 -16,-3 -17,-1 -5,13 16,19 34,21 29,4 z m -163,-9 c 11,-17 -1,-21 -15,-4 -8,9 -8,15 -2,15 6,0 14,-5 17,-11 z m 308,-227 c 45,-46 83,-92 83,-103 1,-11 10,-26 20,-34 18,-14 17,-14 -6,-6 -14,5 -24,14 -22,20 3,15 -15,14 -24,-1 -4,-6 -2,-14 4,-16 7,-2 12,-8 12,-14 0,-6 -6,-5 -15,2 -9,7 -19,10 -22,6 -4,-4 -1,-11 7,-16 12,-8 11,-10 -6,-10 -22,0 -81,-55 -67,-62 4,-3 3,-4 -3,-2 -7,1 -27,-14 -45,-34 -19,-20 -24,-29 -13,-19 21,17 22,17 29,0 16,-37 14,-45 -6,-27 -17,16 -22,16 -29,4 -6,-8 -10,-19 -10,-23 0,-5 -5,-5 -11,-1 -8,4 -7,9 2,15 7,4 10,11 6,16 -11,11 -28,-18 -23,-39 2,-10 0,-18 -5,-18 -5,0 -9,5 -9,11 0,5 -5,7 -10,4 -8,-5 -7,-12 2,-23 11,-15 11,-15 -3,-5 -26,21 -31,1 -7,-25 l 23,-25 -22,12 c -13,6 -23,17 -23,23 0,7 -5,6 -15,-2 -13,-11 -20,-9 -40,10 -20,19 -27,21 -40,10 -10,-8 -15,-9 -15,-1 0,6 5,11 12,11 6,0 8,3 5,6 -4,4 -13,1 -22,-6 -18,-15 -20,1 -2,19 10,10 8,11 -8,6 -15,-5 -17,-5 -6,3 22,15 -5,44 -33,37 -15,-5 -17,-4 -7,3 7,5 10,15 7,21 -5,8 -14,4 -27,-11 l -19,-23 10,29 c 9,25 7,33 -11,52 -20,22 -24,22 -39,9 -25,-23 -36,-18 -14,7 19,21 19,21 -4,15 -19,-4 -21,-3 -11,9 9,11 8,14 -5,14 -10,0 -14,4 -11,10 3,5 -8,25 -24,42 l -31,33 157,157 158,158 73,-73 c 40,-39 110,-109 155,-155 z m -329,210 c 2,-4 -5,-9 -17,-9 -17,-2 -19,0 -7,7 18,12 18,12 24,2 z m 196,-1 c 0,-5 -7,-12 -16,-15 -14,-5 -15,-4 -4,9 14,17 20,19 20,6 z m 50,-20 c 0,-5 -7,-12 -16,-15 -14,-5 -15,-4 -4,9 14,17 20,19 20,6 z m 10,-36 c -7,-8 -17,-15 -22,-15 -6,0 -5,7 2,15 7,8 17,15 22,15 6,0 5,-7 -2,-15 z m -320,-9 c 0,-3 -4,-8 -10,-11 -5,-3 -10,-1 -10,4 0,6 5,11 10,11 6,0 10,-2 10,-4 z m 370,-25 c 0,-13 -29,-35 -37,-28 -7,8 15,37 28,37 5,0 9,-4 9,-9 z m -395,-12 c 11,-17 -1,-21 -15,-4 -8,9 -8,15 -2,15 6,0 14,-5 17,-11 z m 415,-8 c -14,-27 -32,-37 -23,-14 6,15 22,32 31,33 1,0 -2,-9 -8,-19 z m -433,-20 c 7,-10 9,-22 6,-25 -9,-9 -44,25 -37,35 8,14 18,11 31,-10 z m 453,-1 c 0,-5 -5,-10 -11,-10 -5,0 -7,5 -4,10 3,6 8,10 11,10 2,0 4,-4 4,-10 z m -505,-40 c 3,-5 1,-10 -4,-10 -6,0 -11,5 -11,10 0,6 2,10 4,10 3,0 8,-4 11,-10 z m 558,-22 c -2,-5 1,-8 7,-8 6,0 8,-5 4,-12 -6,-9 -9,-9 -12,0 -2,7 -9,9 -15,5 -6,-4 -8,0 -4,10 3,10 2,17 -4,17 -6,0 -7,4 -4,10 4,6 11,5 19,-3 8,-6 12,-15 9,-19 z m -580,8 c 4,-10 1,-13 -9,-9 -15,6 -19,23 -5,23 5,0 11,-7 14,-14 z m -23,-26 c 0,-5 -2,-10 -4,-10 -3,0 -8,5 -11,10 -3,6 -1,10 4,10 6,0 11,-4 11,-10 z m -4,-31 c 19,-22 19,-22 -3,-10 -24,12 -39,31 -25,31 5,0 17,-10 28,-21 z m 634,1 c -6,-11 -12,-20 -14,-20 -2,0 -2,9 1,20 3,11 9,20 15,20 5,0 4,-9 -2,-20 z M 915,1239 c -4,-5 -13,-9 -22,-9 -13,0 -13,3 -3,15 13,15 35,11 25,-6 z m 15,-17 c 0,-4 -10,-13 -22,-21 -23,-14 -23,-14 -4,8 20,22 26,25 26,13 z m 96,-110 c -8,-9 -19,-13 -22,-9 -10,9 16,38 28,31 6,-4 4,-13 -6,-22 z m 364,-2 c 0,-5 -7,-7 -15,-4 -8,4 -12,10 -9,15 6,11 24,2 24,-11 z M 1160,980 c -6,-11 -12,-20 -14,-20 -2,0 -2,9 1,20 3,11 9,20 15,20 5,0 4,-9 -2,-20 z"
       id="path456" />
    <path
       d="m 1167,1554 -38,-36 22,-36 c 11,-21 13,-28 4,-17 -9,11 -20,26 -24,33 -5,9 -28,-8 -75,-55 l -68,-66 24,-20 23,-19 -27,16 c -27,16 -28,16 -63,-21 -19,-21 -35,-40 -35,-44 0,-3 15,-19 33,-37 l 33,-32 70,36 c 38,19 88,38 112,41 37,5 42,9 43,32 0,14 4,35 9,46 6,13 7,4 3,-26 l -5,-46 43,-6 c 24,-3 75,-22 113,-41 l 70,-36 33,32 c 18,18 32,36 31,40 -2,4 -50,55 -107,113 -73,74 -107,102 -112,93 -4,-7 -15,-22 -24,-33 -10,-12 -8,-6 4,16 l 20,35 -37,37 -37,36 z m 23,-149 c 0,-5 -5,-3 -10,5 -5,8 -10,20 -10,25 0,6 5,3 10,-5 5,-8 10,-19 10,-25 z m 41,8 c -12,-20 -14,-14 -5,12 4,9 9,14 11,11 3,-2 0,-13 -6,-23 z m 189,-48 c 0,-2 -10,-9 -22,-15 -22,-11 -22,-10 -4,4 21,17 26,19 26,11 z m -355,-43 c -3,-3 -11,0 -18,7 -9,10 -8,11 6,5 10,-3 15,-9 12,-12 z m 300,8 c -3,-5 -12,-10 -18,-10 -7,0 -6,4 3,10 19,12 23,12 15,0 z"
       id="path457" />
    <path
       d="m 1099,1271 c -51,-20 -109,-52 -109,-61 0,-3 30,-35 67,-70 60,-58 67,-63 77,-46 24,39 37,49 16,12 l -21,-39 32,-33 c 18,-19 38,-34 44,-34 6,0 26,15 44,34 33,34 33,34 16,62 l -17,29 20,-25 21,-25 66,65 c 36,35 65,68 65,72 0,13 -127,69 -168,75 -40,5 -41,5 -45,-28 l -4,-34 -1,33 c -2,28 -5,32 -29,32 -16,-1 -49,-9 -74,-19 z"
       id="path458" />
    <path
       d="m 939,1823 c -122,-60 -258,-214 -294,-331 -5,-18 2,-14 37,20 46,46 110,81 169,92 33,6 38,11 44,44 11,63 41,119 89,166 25,26 42,46 37,46 -5,0 -42,-17 -82,-37 z"
       id="path459" />
    <path
       d="m 1417,1826 c 44,-39 88,-117 99,-178 5,-33 10,-38 43,-44 59,-11 123,-46 169,-92 50,-49 50,-38 -1,63 -54,109 -217,248 -327,280 -21,6 -18,1 17,-29 z"
       id="path460" />
    <path
       d="m 646,1096 c 41,-131 164,-269 300,-335 81,-39 94,-39 49,0 -46,41 -81,101 -96,167 -9,39 -17,52 -30,52 -44,0 -134,45 -180,89 -34,33 -47,41 -43,27 z"
       id="path461" />
    <path
       d="m 1732,1079 c -37,-42 -118,-86 -173,-95 -34,-6 -37,-9 -48,-57 -15,-65 -50,-125 -96,-166 -45,-39 -29,-39 49,0 130,66 217,154 277,282 17,37 30,69 28,71 -2,1 -19,-14 -37,-35 z"
       id="path462" />
    <path
       d="m 523,1328 c -25,-18 -33,-30 -33,-55 0,-39 6,-40 43,-9 22,18 28,30 25,55 l -3,31 z"
       id="path463" />
    <path
       d="m 1750,2001 c 40,-99 51,-121 61,-121 8,0 8,4 2,13 -6,6 -13,26 -16,42 l -6,30 13,-28 c 7,-17 30,-37 52,-48 33,-17 25,-18 -13,-2 -7,3 -13,1 -13,-4 0,-9 115,-63 134,-63 5,0 3,7 -4,15 -9,11 -9,15 -1,15 9,0 11,29 10,100 l -1,101 -119,-2 -118,-1 z m 39,-26 c 0,-5 -6,1 -14,15 -8,14 -14,30 -14,35 0,6 6,-1 14,-15 8,-14 14,-29 14,-35 z m 141,-115 c 8,-5 11,-10 5,-10 -5,0 -17,5 -25,10 -8,5 -10,10 -5,10 6,0 17,-5 25,-10 z"
       id="path464" />
    <path
       d="m 678,1933 c -34,-13 -51,-33 -30,-33 10,0 72,39 72,45 0,6 2,7 -42,-12 z"
       id="path465" />
    <path
       d="m 661,1868 c -47,-43 -91,-98 -78,-98 1,0 36,34 77,75 86,87 87,99 1,23 z"
       id="path466" />
    <path
       d="m 1680,1918 c 0,-2 34,-37 76,-78 41,-41 72,-66 68,-55 -12,32 -144,154 -144,133 z"
       id="path467" />
    <path
       d="m 638,1883 c -15,-4 -33,-32 -25,-39 2,-2 14,7 27,21 13,14 22,24 19,24 -2,-1 -11,-3 -21,-6 z"
       id="path468" />
    <path
       d="m 1771,1864 c 27,-29 29,-29 22,-5 -3,11 -14,22 -25,24 -19,5 -19,4 3,-19 z"
       id="path469" />
    <path
       d="m 518,1832 -68,-27 v -64 -65 l 40,39 c 22,21 43,47 46,57 3,10 10,16 15,13 8,-6 49,51 49,68 0,10 -8,8 -82,-21 z m 43,-19 c -12,-20 -14,-14 -5,12 4,9 9,14 11,11 3,-2 0,-13 -6,-23 z"
       id="path470" />
    <path
       d="m 1810,1853 c 0,-4 9,-23 20,-41 11,-18 20,-39 20,-46 0,-8 9,-24 20,-37 22,-28 27,-14 5,15 -8,11 -15,27 -15,35 1,12 3,11 12,-4 6,-11 29,-39 51,-62 23,-24 36,-43 30,-43 -6,0 -21,12 -32,28 -12,16 -20,21 -21,13 0,-15 48,-71 60,-71 4,0 6,36 6,81 l -1,81 -58,23 c -79,32 -97,38 -97,28 z m 50,-48 c 0,-5 -5,-3 -10,5 -5,8 -10,20 -10,25 0,6 5,3 10,-5 5,-8 10,-19 10,-25 z"
       id="path471" />
    <path
       d="m 330,1754 c -47,-20 -92,-39 -102,-42 -15,-6 -14,-12 7,-62 13,-30 30,-73 39,-94 l 17,-40 58,58 c 43,43 58,64 55,80 -4,18 -3,17 6,-3 10,-22 5,-30 -50,-86 -33,-33 -60,-65 -60,-70 0,-5 29,19 64,54 l 64,63 1,89 c 1,49 -2,89 -6,89 -4,-1 -46,-17 -93,-36 z m 77,-36 c -3,-7 -5,-2 -5,12 0,14 2,19 5,13 2,-7 2,-19 0,-25 z"
       id="path472" />
    <path
       d="m 1980,1702 v -88 l 65,-64 c 40,-40 65,-58 65,-48 0,9 -27,41 -60,71 -33,30 -60,58 -60,63 0,5 29,-20 65,-56 l 64,-64 17,40 c 9,21 26,64 39,94 13,30 23,56 22,56 -5,4 -208,84 -212,84 -3,0 -5,-40 -5,-88 z"
       id="path473" />
    <path
       d="m 536,1745 c -10,-14 -16,-29 -13,-31 7,-8 39,35 35,47 -2,7 -12,0 -22,-16 z"
       id="path474" />
    <path
       d="m 478,1685 c -16,-13 -28,-30 -28,-37 0,-7 14,2 32,19 38,38 35,51 -4,18 z"
       id="path475" />
    <path
       d="m 501,1659 c -12,-19 -21,-30 -21,-25 0,5 -6,3 -14,-4 -9,-7 -15,-30 -14,-60 0,-27 -3,-54 -7,-59 -3,-6 -1,-11 4,-11 6,0 11,6 11,13 0,6 16,48 35,91 37,85 39,110 6,55 z m -30,-66 c -12,-20 -14,-14 -5,12 4,9 9,14 11,11 3,-2 0,-13 -6,-23 z"
       id="path476" />
    <path
       d="m 1880,1685 c 0,-3 11,-27 24,-53 13,-26 29,-65 36,-87 7,-22 16,-44 21,-49 12,-13 12,16 -1,48 -6,17 -6,26 0,26 17,0 11,36 -10,55 -11,10 -20,14 -20,9 0,-5 -9,6 -20,24 -18,29 -30,40 -30,27 z"
       id="path477" />
    <path
       d="m 367,1532 -58,-58 21,-55 c 26,-65 28,-68 41,-49 6,10 7,4 4,-20 l -6,-35 17,35 c 9,19 22,46 29,60 11,20 21,181 12,180 -1,0 -28,-27 -60,-58 z m 40,-34 c -3,-7 -5,-2 -5,12 0,14 2,19 5,13 2,-7 2,-19 0,-25 z m 7,-45 c -4,-16 -13,-37 -20,-48 -16,-23 -18,-16 -5,17 5,13 12,31 15,41 9,28 17,19 10,-10 z"
       id="path478" />
    <path
       d="m 1980,1548 c 0,-24 4,-48 9,-53 7,-9 13,-23 36,-90 l 7,-20 -14,20 c -7,11 -18,36 -24,55 l -12,35 v -30 c 0,-16 13,-57 29,-90 26,-53 29,-56 24,-25 -3,24 -2,30 4,20 13,-19 15,-16 41,49 l 21,55 -60,59 -61,60 z"
       id="path479" />
    <path
       d="m 170,1378 -85,-89 98,-96 c 53,-53 100,-93 104,-90 3,4 -35,49 -85,99 l -91,93 79,80 c 74,75 92,97 73,94 -5,-1 -46,-42 -93,-91 z"
       id="path480" />
    <path
       d="m 2140,1463 c 0,-4 36,-44 80,-88 l 79,-80 -91,-93 c -50,-50 -88,-95 -85,-99 8,-7 197,176 197,192 0,11 -163,175 -174,175 -3,0 -6,-3 -6,-7 z"
       id="path481" />
    <path
       d="m 212,1378 -82,-83 73,-73 c 40,-40 77,-69 81,-65 4,4 6,3 4,-4 -2,-6 1,-12 6,-13 5,-1 20,24 33,56 23,58 29,89 16,81 -5,-3 -9,6 -9,19 -1,13 2,21 7,18 5,-3 9,-12 9,-20 0,-8 5,-14 10,-14 6,0 10,4 10,9 0,6 -4,13 -10,16 -5,3 -10,14 -10,23 -1,9 -13,43 -28,75 l -27,58 z m 88,27 c 0,-5 -5,-3 -10,5 -5,8 -10,20 -10,25 0,6 5,3 10,-5 5,-8 10,-19 10,-25 z m 30,-70 c 0,-5 -5,-3 -10,5 -5,8 -10,20 -10,25 0,6 5,3 10,-5 5,-8 10,-19 10,-25 z m -9,-102 c -12,-20 -14,-14 -5,12 4,9 9,14 11,11 3,-2 0,-13 -6,-23 z m -20,-50 c -12,-20 -14,-14 -5,12 4,9 9,14 11,11 3,-2 0,-13 -6,-23 z"
       id="path482" />
    <path
       d="m 2085,1393 c -15,-37 -31,-76 -36,-85 -12,-23 -11,-28 1,-28 6,0 10,6 10,14 0,8 4,17 9,20 5,3 9,-5 9,-19 0,-14 -4,-22 -9,-19 -5,3 -9,-1 -9,-9 0,-15 39,-117 50,-129 3,-4 43,29 88,75 l 82,82 -84,84 -83,83 z m 36,20 c -12,-20 -14,-14 -5,12 4,9 9,14 11,11 3,-2 0,-13 -6,-23 z m -25,-60 c -8,-15 -15,-25 -16,-21 0,12 23,58 27,54 3,-2 -2,-17 -11,-33 z m 4,-128 c 0,-5 -5,-3 -10,5 -5,8 -10,20 -10,25 0,6 5,3 10,-5 5,-8 10,-19 10,-25 z m 29,-70 c 0,-5 -6,1 -14,15 -8,14 -14,30 -14,35 0,6 6,-1 14,-15 8,-14 14,-29 14,-35 z"
       id="path483" />
    <path
       d="m 414,1368 c -3,-18 -13,-42 -20,-53 -11,-17 -11,-25 0,-47 7,-14 18,-38 24,-54 8,-24 11,-9 11,79 1,59 -1,107 -3,107 -3,0 -8,-15 -12,-32 z m -7,-90 c -3,-7 -5,-2 -5,12 0,14 2,19 5,13 2,-7 2,-19 0,-25 z"
       id="path484" />
    <path
       d="m 1981,1295 c 0,-87 3,-105 11,-85 6,14 16,38 24,55 7,16 11,32 10,35 -8,16 -34,77 -39,90 -3,8 -5,-34 -6,-95 z"
       id="path485" />
    <path
       d="m 375,1240 c 3,-24 2,-30 -4,-20 -12,18 -12,18 -40,-49 l -23,-54 61,-60 61,-59 -1,78 c -1,44 -7,90 -14,104 -7,14 -20,41 -29,60 l -17,35 z m 38,-97 c 3,-16 1,-46 -3,-68 l -9,-40 3,40 c 2,22 -1,52 -5,68 -4,15 -4,27 0,27 5,0 11,-12 14,-27 z"
       id="path486" />
    <path
       d="m 2015,1225 c -10,-28 -22,-54 -27,-59 -4,-6 -7,-24 -7,-40 2,-31 2,-31 12,7 6,20 14,37 18,37 9,0 -9,-60 -22,-74 -5,-6 -9,-30 -9,-54 v -45 l 61,60 60,59 -23,57 c -13,31 -26,57 -29,57 -4,0 -10,-12 -13,-26 -4,-15 -9,-24 -12,-22 -2,3 1,19 7,36 18,53 4,60 -16,7 z"
       id="path487" />
    <path
       d="m 300,1089 c 0,-9 27,-42 60,-74 34,-31 59,-59 57,-62 -3,-2 -31,23 -63,57 -31,33 -61,57 -64,53 -4,-5 -23,-47 -43,-95 l -36,-87 97,-37 c 53,-21 103,-42 110,-47 10,-8 12,9 11,85 l -1,96 -64,63 c -37,37 -64,57 -64,48 z M 407,843 c -2,-16 -4,-3 -4,27 0,30 2,43 4,28 2,-16 2,-40 0,-55 z"
       id="path488" />
    <path
       d="m 2042,1037 c -34,-34 -62,-69 -62,-76 0,-8 30,15 66,51 37,36 65,70 63,77 -2,6 -32,-17 -67,-52 z"
       id="path489" />
    <path
       d="m 445,1080 c 4,-6 7,-32 7,-58 0,-47 13,-76 29,-66 5,3 9,-1 9,-9 0,-8 9,-22 20,-32 26,-24 25,-15 -4,43 -13,26 -29,66 -36,90 -7,23 -17,42 -22,42 -5,0 -6,-5 -3,-10 z"
       id="path490" />
    <path
       d="m 1940,1048 c -7,-24 -23,-64 -36,-90 -13,-26 -24,-50 -24,-54 0,-14 32,21 46,50 8,17 12,22 9,12 -6,-19 -5,-19 12,-3 20,17 28,57 13,57 -6,0 -5,11 0,26 12,31 13,44 2,44 -5,0 -15,-19 -22,-42 z"
       id="path491" />
    <path
       d="m 2047,1002 -67,-68 v -73 c 0,-57 3,-71 13,-64 6,5 56,26 109,47 l 97,37 -36,87 c -20,48 -39,90 -42,94 -4,4 -37,-23 -74,-60 z"
       id="path492" />
    <path
       d="m 450,939 c 0,-8 14,-28 30,-44 39,-37 39,-15 0,27 -20,22 -30,28 -30,17 z"
       id="path493" />
    <path
       d="m 1926,919 c -14,-17 -26,-35 -26,-42 0,-13 48,30 61,56 16,28 -7,20 -35,-14 z"
       id="path494" />
    <path
       d="m 450,849 v -65 l 58,-23 c 31,-12 65,-27 75,-32 16,-9 18,-7 12,13 -11,35 -35,69 -45,63 -5,-3 -11,3 -14,13 -3,10 -24,36 -46,57 l -40,39 z m 120,-94 c 0,-5 -5,-3 -10,5 -5,8 -10,20 -10,25 0,6 5,3 10,-5 5,-8 10,-19 10,-25 z"
       id="path495" />
    <path
       d="m 1911,865 c -22,-24 -41,-49 -41,-55 0,-6 -4,-9 -10,-5 -10,6 -34,-27 -45,-63 -6,-20 -4,-22 12,-14 10,6 45,21 78,35 l 60,24 3,62 c 2,33 -1,61 -6,61 -5,0 -28,-20 -51,-45 z m -60,-102 c -12,-20 -14,-14 -5,12 4,9 9,14 11,11 3,-2 0,-13 -6,-23 z"
       id="path496" />
    <path
       d="m 520,874 c 0,-7 9,-22 20,-35 10,-13 19,-19 20,-13 0,7 -9,22 -20,35 -10,13 -19,19 -20,13 z"
       id="path497" />
    <path
       d="m 1864,856 c -9,-15 -14,-29 -11,-32 3,-3 13,6 23,20 9,15 14,29 11,32 -3,3 -13,-6 -23,-20 z"
       id="path498" />
    <path
       d="m 580,812 c 0,-15 96,-119 123,-134 38,-20 25,0 -48,72 -41,41 -75,69 -75,62 z"
       id="path499" />
    <path
       d="m 1750,745 c -84,-85 -79,-103 6,-23 53,50 80,85 72,94 -2,2 -37,-30 -78,-71 z"
       id="path500" />
    <path
       d="m 450,761 c 0,-6 8,-15 18,-21 16,-11 16,-11 0,-6 -16,5 -18,-4 -18,-99 V 530 h 101 c 99,0 100,0 95,23 l -6,22 11,-22 c 11,-20 29,-32 29,-18 0,16 -55,135 -62,135 -5,0 -6,-10 -3,-22 5,-17 1,-14 -13,8 -11,18 -26,34 -34,37 -9,4 -10,6 0,6 22,2 13,19 -15,29 -16,6 -45,17 -65,26 -21,9 -38,12 -38,7 z m 80,-46 c 14,-8 21,-14 15,-14 -5,0 -21,6 -35,14 -14,8 -20,14 -15,14 6,0 21,-6 35,-14 z M 640,585 c 0,-5 -5,-3 -10,5 -5,8 -10,20 -10,25 0,6 5,3 10,-5 5,-8 10,-19 10,-25 z"
       id="path501" />
    <path
       d="m 1895,743 c -71,-30 -74,-31 -55,-43 10,-7 11,-10 2,-10 -7,0 -22,-15 -33,-32 -14,-23 -19,-26 -14,-10 3,12 2,22 -3,22 -7,0 -62,-119 -62,-135 0,-14 18,-2 29,18 l 11,22 -6,-23 c -6,-23 -6,-23 98,-20 l 103,3 v 100 c 0,94 -1,100 -20,98 -18,-2 -18,-1 3,9 21,10 31,29 15,27 -5,0 -35,-12 -68,-26 z m 5,-28 c -14,-8 -29,-14 -35,-14 -5,0 1,6 15,14 14,8 30,14 35,14 6,0 -1,-6 -15,-14 z M 1781,593 c -12,-20 -14,-14 -5,12 4,9 9,14 11,11 3,-2 0,-13 -6,-23 z"
       id="path502" />
    <path
       d="m 610,741 c 0,-13 29,-41 42,-41 7,0 1,11 -12,25 -26,27 -30,30 -30,16 z"
       id="path503" />
    <path
       d="m 1770,725 c -25,-27 -12,-35 14,-9 14,14 22,34 13,34 -2,0 -14,-11 -27,-25 z"
       id="path504" />
    <path
       d="m 592,699 c 2,-7 10,-15 17,-17 8,-3 12,1 9,9 -2,7 -10,15 -17,17 -8,3 -12,-1 -9,-9 z"
       id="path505" />
    <path
       d="m 1795,699 c -4,-6 -5,-13 -2,-16 7,-7 27,6 27,18 0,12 -17,12 -25,-2 z"
       id="path506" />
    <path
       d="m 636,679 c 5,-8 20,-43 34,-79 l 25,-65 70,-3 70,-2 -52,51 c -58,56 -66,68 -28,43 14,-9 28,-14 31,-11 3,3 -6,13 -20,22 -20,14 -29,15 -40,6 -12,-10 -21,-9 -43,3 -15,8 -24,15 -20,16 5,0 17,-5 29,-11 11,-6 22,-8 25,-6 6,7 -35,33 -66,42 -18,6 -22,4 -15,-6 z"
       id="path507" />
    <path
       d="m 1734,676 c -40,-18 -57,-41 -23,-32 21,6 22,6 6,-5 -14,-8 -22,-8 -30,0 -17,17 -23,14 -89,-49 -36,-34 -56,-60 -47,-60 8,0 39,25 68,56 29,30 55,53 57,51 3,-3 -19,-28 -48,-56 l -53,-51 70,2 70,3 25,65 c 14,36 29,71 33,78 10,15 0,15 -39,-2 z"
       id="path508" />
    <path
       d="m 820,605 c 7,-9 27,-23 44,-31 17,-8 22,-12 12,-9 -19,6 -19,5 -1,-15 10,-11 30,-20 44,-20 l 26,1 -25,14 c -34,19 -17,19 21,-1 17,-8 40,-14 52,-12 16,2 3,11 -43,29 -36,15 -83,34 -105,44 -36,16 -38,16 -25,0 z"
       id="path509" />
    <path
       d="m 1525,589 c -38,-16 -83,-36 -100,-44 -29,-13 -29,-14 -5,-14 14,0 36,6 50,14 14,8 30,14 35,14 6,0 -1,-6 -15,-14 l -25,-14 26,-1 c 14,0 34,9 44,20 18,20 18,21 -1,15 -10,-3 -5,1 12,9 25,12 65,47 53,46 -2,0 -35,-14 -74,-31 z"
       id="path510" />
    <path
       d="m 810,565 c 19,-19 41,-35 49,-35 10,0 3,13 -21,35 -49,46 -72,45 -28,0 z"
       id="path511" />
    <path
       d="m 670,510 c 0,-5 5,-10 10,-10 6,0 10,5 10,10 0,6 -4,10 -10,10 -5,0 -10,-4 -10,-10 z"
       id="path512" />
    <path
       d="m 710,510 c 0,-7 29,-10 83,-9 l 83,2 58,-61 c 32,-34 63,-59 69,-55 5,3 -19,34 -54,68 l -63,63 -88,1 c -57,1 -88,-2 -88,-9 z"
       id="path513" />
    <path
       d="m 916,509 c 3,-6 32,-10 63,-8 76,3 101,1 101,-10 0,-5 -15,-6 -32,-2 -18,3 -50,4 -71,1 l -38,-5 45,-44 44,-44 56,24 c 31,12 56,27 56,32 0,5 7,7 15,4 8,-4 17,-2 19,2 6,9 -37,31 -60,31 -9,0 -22,6 -29,14 -17,17 -180,21 -169,5 z m 204,-39 c 8,-5 11,-10 5,-10 -5,0 -17,5 -25,10 -8,5 -10,10 -5,10 6,0 17,-5 25,-10 z"
       id="path514" />
    <path
       d="m 1120,508 c 14,-5 37,-17 52,-25 24,-12 32,-12 60,0 18,8 44,19 58,25 20,8 2,11 -85,11 -86,0 -104,-3 -85,-11 z m 103,-15 c -7,-2 -21,-2 -30,0 -10,3 -4,5 12,5 17,0 24,-2 18,-5 z"
       id="path515" />
    <path
       d="m 1319,505 c -13,-7 -39,-19 -56,-25 -18,-7 -30,-16 -28,-21 3,-4 12,-6 20,-2 8,3 15,1 15,-4 0,-5 25,-20 56,-32 l 56,-24 44,44 45,44 -38,5 c -21,3 -53,2 -70,-1 -18,-4 -33,-3 -33,2 0,11 25,13 101,10 31,-2 60,2 63,8 10,15 -145,12 -175,-4 z m -9,-35 c -8,-5 -19,-10 -25,-10 -5,0 -3,5 5,10 8,5 20,10 25,10 6,0 3,-5 -5,-10 z"
       id="path516" />
    <path
       d="m 1461,455 c -35,-34 -59,-65 -54,-68 6,-4 37,21 69,55 l 58,61 83,-2 c 54,-1 83,2 83,9 0,7 -31,10 -88,9 l -88,-1 z"
       id="path517" />
    <path
       d="m 1720,510 c 0,-5 5,-10 10,-10 6,0 10,5 10,10 0,6 -4,10 -10,10 -5,0 -10,-4 -10,-10 z"
       id="path518" />
    <path
       d="m 720,485 c 0,-3 16,-46 36,-95 l 37,-89 46,19 c 25,10 68,28 95,39 l 50,22 -54,54 -54,55 h -78 c -43,0 -78,-2 -78,-5 z"
       id="path519" />
    <path
       d="m 1480,435 -54,-54 50,-22 c 27,-11 70,-29 95,-39 l 46,-19 37,89 c 20,49 36,92 36,95 0,3 -35,5 -78,5 h -78 z"
       id="path520" />
    <path
       d="m 1190,450 c -8,-5 -45,-20 -82,-35 -37,-15 -65,-31 -62,-36 3,-5 14,-4 25,2 12,6 23,8 26,6 2,-3 -5,-8 -17,-12 -21,-7 -17,-13 51,-81 l 74,-74 72,72 c 71,71 72,73 50,85 -12,7 -18,12 -14,13 5,0 17,-5 27,-10 11,-6 21,-6 24,-1 3,5 -25,21 -62,36 -37,15 -74,30 -82,35 -8,4 -22,4 -30,0 z m 66,-34 c 58,-29 54,-34 -8,-8 -41,18 -45,18 -83,1 -58,-25 -68,-22 -15,6 57,29 48,29 106,1 z"
       id="path521" />
    <path
       d="m 1010,374 c 0,-12 183,-194 195,-194 16,0 200,189 192,197 -4,3 -48,-34 -97,-83 -50,-49 -93,-89 -95,-89 -2,0 -44,39 -93,88 -84,82 -102,96 -102,81 z"
       id="path522" />
  </g>
</svg>
