<?xml version="1.0" encoding="UTF-8" standalone="no"?>
<svg
   version="1.0"
   width="231.79999pt"
   height="195.50002pt"
   viewBox="0 0 231.79999 195.50002"
   preserveAspectRatio="xMidYMid"
   id="svg697"
   xmlns="http://www.w3.org/2000/svg"
   xmlns:svg="http://www.w3.org/2000/svg">
  <defs
     id="defs697" />
  <g
     transform="matrix(0.1,0,0,-0.1,-839.20001,577)"
     fill="#000000"
     stroke="none"
     id="g697">
    <path
       d="m 9505,5730 -39,-40 41,-42 c 33,-33 45,-39 56,-30 8,7 17,10 20,7 4,-3 5,-2 2,2 -3,4 7,19 22,35 l 27,28 -39,40 c -22,22 -42,40 -45,40 -3,0 -24,-18 -45,-40 z m 77,-7 c 25,-23 23,-50 -7,-69 -23,-15 -27,-15 -50,0 -29,19 -32,47 -9,70 20,21 43,20 66,-1 z"
       id="path174" />
    <path
       d="m 9362,5586 c -96,-99 -99,-106 -63,-151 16,-20 16,-20 -6,-1 -13,11 -23,25 -23,33 0,7 -3,13 -8,13 -17,0 -594,-589 -588,-599 4,-6 12,-8 18,-5 6,4 8,3 5,-3 -10,-16 51,-69 64,-56 8,8 8,13 0,17 -6,4 -11,2 -11,-5 0,-7 -8,-5 -20,6 -28,25 -25,43 3,19 20,-17 20,-16 -2,9 l -24,27 h 22 c 12,0 20,-4 17,-8 -3,-5 2,-19 11,-31 16,-23 19,-20 399,360 l 383,383 -21,23 c -24,26 -53,31 -45,8 4,-8 1,-17 -5,-21 -7,-4 -8,-3 -4,5 4,7 -2,15 -16,20 -22,9 -22,10 -2,10 11,1 23,4 27,7 7,7 -2,34 -13,34 -4,0 -48,-43 -98,-94 z m 58,-1 c -7,-8 -10,-26 -8,-40 3,-13 1,-22 -3,-19 -5,3 -9,12 -9,20 0,9 -5,12 -12,8 -7,-4 -2,5 11,19 26,28 42,38 21,12 z m -59,-72 c 13,-16 12,-17 -3,-4 -10,7 -18,15 -18,17 0,8 8,3 21,-13 z m -30,-59 24,-27 -27,18 c -16,9 -28,21 -28,26 0,14 5,11 31,-17 z m -70,-28 c -9,-11 -6,-15 14,-20 14,-4 25,-12 25,-18 0,-9 -3,-9 -12,0 -13,13 -52,17 -44,4 2,-4 -4,-8 -15,-8 -17,0 -16,3 8,28 28,29 44,39 24,14 z m -134,-133 c -4,-3 2,-12 13,-20 11,-8 20,-17 20,-21 0,-14 -41,-11 -47,4 -3,7 -10,11 -17,7 -6,-3 -2,3 8,15 11,12 21,22 24,22 3,0 2,-3 -1,-7 z m -62,-93 c 0,-22 -3,-40 -7,-40 -9,0 -12,16 -8,39 1,13 -1,13 -17,1 -10,-8 -7,-2 6,13 14,15 25,27 25,27 1,0 1,-18 1,-40 z m -162,-137 c -7,-2 -14,-14 -14,-26 -1,-17 -2,-18 -6,-4 -2,9 -12,17 -21,18 -10,1 -7,4 8,9 28,9 52,11 33,3 z m -59,-57 c -3,-8 3,-16 15,-19 12,-3 21,-11 21,-17 0,-9 -4,-9 -12,-3 -24,18 -51,24 -45,10 3,-8 -3,-13 -14,-13 -16,0 -15,4 8,28 30,32 35,34 27,14 z m -69,-76 c 3,-5 1,-10 -4,-10 -6,0 -11,5 -11,10 0,6 2,10 4,10 3,0 8,-4 11,-10 z"
       id="path175" />
    <path
       d="m 9110,5276 c 0,-2 8,-10 18,-17 15,-13 16,-12 3,4 -13,16 -21,21 -21,13 z"
       id="path176" />
    <path
       d="m 9640,5657 c 0,-18 -11,-37 -30,-55 l -31,-27 386,-385 385,-385 42,42 42,42 -94,96 c -52,52 -101,95 -109,95 -8,0 -24,-8 -35,-17 -15,-13 -14,-10 4,10 l 24,28 -134,134 c -77,78 -141,133 -148,130 -7,-3 -10,0 -7,5 4,6 -61,79 -144,163 -135,136 -151,149 -151,124 z m 50,-72 c -7,-9 -15,-13 -17,-11 -7,7 7,26 19,26 6,0 6,-6 -2,-15 z m 61,-52 c 13,-14 19,-23 13,-20 -6,4 -16,-5 -22,-18 -7,-14 -17,-25 -23,-25 -8,0 -6,7 4,18 17,19 24,57 9,48 -5,-3 -9,1 -9,9 0,19 -1,20 28,-12 z m 64,-81 c -3,-3 -5,0 -5,7 0,7 -7,11 -15,8 -8,-4 -17,-2 -20,3 -4,6 1,10 9,10 9,0 16,6 17,13 0,6 5,1 10,-12 5,-13 7,-26 4,-29 z m 166,-149 c 13,-15 16,-21 6,-14 -10,8 -29,11 -48,7 -18,-3 -28,-2 -24,4 3,6 15,10 26,10 11,0 17,5 14,10 -12,19 1,10 26,-17 z m 60,-59 c 17,-18 19,-23 6,-18 -9,3 -17,1 -17,-5 0,-5 -10,-16 -22,-22 l -23,-12 23,25 c 12,13 22,28 22,34 0,5 -5,1 -11,-8 -5,-10 -15,-18 -21,-18 -6,0 -4,8 5,18 10,10 14,22 10,25 -3,4 -4,7 -1,7 2,0 15,-11 29,-26 z m 130,-130 c 13,-14 19,-24 12,-22 -6,2 -19,-6 -27,-17 -15,-19 -16,-19 -6,8 13,37 13,37 -5,31 -11,-5 -13,-2 -9,10 8,20 6,21 35,-10 z m 35,-92 c -16,-15 -25,-20 -21,-12 13,25 38,50 44,45 3,-3 -8,-18 -23,-33 z m 60,-30 c -18,-16 -18,-16 -8,4 6,12 10,24 8,26 -1,3 2,2 8,-3 7,-6 4,-15 -8,-27 z m 75,-49 c 13,-15 16,-21 7,-14 -10,7 -31,11 -47,9 -17,-2 -28,-1 -25,4 3,4 14,8 25,8 11,0 17,5 14,10 -12,19 1,10 26,-17 z m 59,-55 c 0,-18 -2,-20 -9,-8 -6,8 -7,18 -5,22 9,14 14,9 14,-14 z"
       id="path177" />
    <path
       d="m 9615,5638 c -6,-13 -20,-24 -32,-26 -23,-3 -30,-16 -15,-26 12,-7 65,49 61,63 -2,6 -9,1 -14,-11 z"
       id="path178" />
    <path
       d="m 9147,5192 -397,-397 400,-400 400,-400 395,395 c 217,217 395,399 395,405 0,10 -780,795 -790,795 -3,0 -184,-179 -403,-398 z m 543,161 v -68 l 167,-167 168,-168 h 72 73 v -155 -155 h -72 -73 l -167,-167 -168,-168 v -67 -68 h -142 -143 l 3,66 4,67 -168,168 -169,169 h -72 -73 v 155 155 h 73 72 l 169,169 168,168 -4,67 -3,66 h 143 142 z"
       id="path179" />
    <path
       d="m 9420,5268 c 0,-79 -6,-171 -13,-204 -27,-129 -64,-149 -247,-140 -69,4 -144,9 -167,12 l -43,6 v -147 -148 l 48,6 c 26,4 101,9 167,13 178,10 215,-12 242,-140 7,-33 13,-125 13,-203 v -143 h 129 128 l 2,143 c 1,207 18,279 74,321 24,18 43,21 125,21 53,0 136,-4 185,-8 l 87,-7 v 145 145 l -87,-7 c -49,-4 -132,-8 -185,-8 -82,0 -101,3 -125,21 -56,41 -73,113 -76,321 l -2,143 h -127 -128 z m 196,-327 c 62,-28 89,-73 89,-147 0,-51 -4,-66 -27,-96 -94,-124 -288,-58 -288,98 0,65 29,111 90,142 54,27 82,27 136,3 z"
       id="path180" />
    <path
       d="m 9469,4917 c -39,-26 -69,-79 -69,-122 0,-16 8,-46 18,-65 53,-107 207,-107 263,0 52,96 -19,210 -131,210 -32,0 -58,-7 -81,-23 z m 108,-139 c -3,-8 -6,-5 -6,6 -1,11 2,17 5,13 3,-3 4,-12 1,-19 z m -22,-20 c 24,4 24,3 14,-29 -21,-65 -21,-65 -35,-24 -7,22 -12,49 -12,60 0,14 2,15 5,4 3,-11 12,-15 28,-11 z"
       id="path181" />
    <path
       d="m 9540,4729 c 0,-11 5,-17 10,-14 6,3 10,13 10,21 0,8 -4,14 -10,14 -5,0 -10,-9 -10,-21 z"
       id="path182" />
    <path
       d="m 9252,5107 c -84,-84 -152,-156 -152,-160 0,-5 51,-7 114,-5 128,3 148,12 166,77 12,41 34,230 28,236 -2,2 -72,-64 -156,-148 z"
       id="path183" />
    <path
       d="m 9694,5178 c 11,-118 25,-175 51,-206 22,-26 27,-27 144,-30 67,-2 121,0 121,5 0,10 -304,313 -315,313 -4,0 -4,-37 -1,-82 z"
       id="path184" />
    <path
       d="m 9100,4643 c 0,-4 70,-78 156,-163 l 156,-155 -7,80 c -10,121 -24,183 -50,213 -22,26 -27,27 -139,30 -64,2 -116,0 -116,-5 z"
       id="path185" />
    <path
       d="m 9773,4640 c -46,-18 -66,-79 -78,-230 l -7,-85 156,155 c 86,85 156,158 156,162 0,11 -200,9 -227,-2 z"
       id="path186" />
    <path
       d="m 8707,5503 c -3,-5 -2,-15 4,-23 5,-8 9,-19 8,-25 0,-5 -7,2 -15,18 -8,15 -20,27 -27,27 -22,0 -55,-29 -60,-53 l -4,-22 -2,23 c -1,25 -9,27 -34,8 -17,-13 -17,-15 3,-29 26,-18 66,-11 85,16 8,12 15,16 15,9 0,-25 41,-11 61,21 19,29 20,24 3,-18 -4,-10 0,-15 13,-15 15,0 19,6 18,28 -1,15 0,18 2,7 5,-22 30,-45 50,-45 8,0 13,13 14,33 l 1,32 7,-30 7,-30 18,28 c 10,15 16,30 14,33 -10,9 -176,15 -181,7 z m 113,-22 c -5,-11 -15,-23 -21,-27 -6,-3 -3,5 6,20 20,30 30,35 15,7 z m -169,-28 c 13,-16 12,-17 -3,-4 -10,7 -18,15 -18,17 0,8 8,3 21,-13 z"
       id="path187" />
    <path
       d="m 10272,5492 c 28,-32 31,-47 5,-19 -29,30 -71,36 -81,11 -3,-9 -6,-31 -6,-50 0,-32 1,-33 25,-22 22,10 23,13 12,27 -27,31 -29,45 -3,19 40,-42 76,-35 89,17 4,15 5,13 6,-7 1,-30 27,-38 49,-16 9,9 12,9 12,0 0,-21 54,-14 69,9 11,18 11,23 -1,30 -18,12 -38,11 -38,-2 0,-5 -4,-8 -9,-5 -5,4 -12,0 -15,-6 -3,-7 -3,-3 0,9 5,21 2,22 -62,22 -61,0 -65,-2 -52,-17 z m 88,-36 c 0,-12 -5,-7 -19,24 -11,24 -11,24 3,6 9,-11 16,-24 16,-30 z"
       id="path188" />
    <path
       d="m 8876,5454 c -15,-22 -16,-28 -5,-35 24,-15 45,-10 69,17 21,21 22,27 10,34 -26,17 -54,10 -74,-16 z"
       id="path189" />
    <path
       d="m 10142,5473 c -10,-4 -10,-8 0,-21 10,-12 10,-14 1,-8 -8,4 -13,2 -13,-6 0,-10 -2,-11 -8,0 -8,12 -42,7 -42,-7 0,-3 12,-14 25,-24 18,-13 25,-14 26,-5 0,7 3,5 7,-4 5,-12 11,-15 21,-8 13,7 13,11 0,27 -13,16 -13,17 4,4 15,-12 17,-10 17,23 0,35 -8,41 -38,29 z"
       id="path190" />
    <path
       d="m 10480,5463 c 0,-14 -2,-15 -9,-4 -7,11 -11,10 -20,-7 -9,-18 -8,-23 8,-32 14,-7 21,-6 24,3 4,9 6,8 6,-2 1,-11 4,-11 19,0 15,12 16,12 5,-2 -7,-9 -10,-19 -6,-22 10,-11 21,-8 26,6 2,6 3,4 2,-5 -4,-23 30,-54 40,-38 4,7 1,16 -6,21 -11,7 -10,9 4,9 25,0 21,15 -10,31 -16,8 -32,20 -36,26 -4,7 -17,17 -27,23 -16,9 -20,7 -20,-7 z"
       id="path191" />
    <path
       d="m 8969,5433 c 0,-22 -2,-24 -8,-10 -6,17 -8,17 -26,-3 -16,-18 -17,-23 -5,-30 21,-13 24,-13 54,11 31,25 33,35 6,49 -18,9 -20,8 -21,-17 z"
       id="path192" />
    <path
       d="m 8528,5419 c -10,-6 -18,-14 -18,-19 0,-6 8,-10 18,-11 16,0 16,-1 0,-7 -13,-5 -15,-11 -8,-22 9,-13 13,-12 28,6 9,12 26,24 36,28 19,6 19,7 0,21 -17,12 -20,11 -25,-3 -6,-16 -7,-16 -10,0 -3,13 -8,15 -21,7 z"
       id="path193" />
    <path
       d="m 8659,5416 c -30,-11 -109,-54 -109,-59 0,-1 35,-2 78,-2 122,-1 215,-53 264,-149 l 20,-39 64,64 c 72,71 72,71 -12,125 -103,66 -223,90 -305,60 z"
       id="path194" />
    <path
       d="m 10245,5412 c -54,-19 -125,-58 -165,-91 l -25,-20 60,-60 c 33,-34 62,-61 66,-61 3,0 11,11 17,24 21,46 82,104 135,126 38,17 73,23 130,24 l 78,1 -28,22 c -65,52 -176,67 -268,35 z"
       id="path195" />
    <path
       d="m 9019,5398 c 0,-20 -1,-21 -8,-5 -6,17 -8,17 -26,-3 -16,-18 -17,-23 -5,-30 9,-6 16,-6 18,0 2,6 8,7 13,4 6,-3 19,2 30,12 14,13 16,20 8,31 -17,20 -29,16 -30,-9 z"
       id="path196" />
    <path
       d="m 10046,5407 c -18,-13 -18,-14 5,-31 22,-15 24,-15 31,1 5,15 7,14 7,-4 1,-25 11,-29 28,-12 8,8 6,16 -8,30 -11,11 -24,17 -29,14 -4,-3 -10,0 -12,5 -2,7 -10,6 -22,-3 z"
       id="path197" />
    <path
       d="m 8461,5340 c -35,-49 -34,-59 3,-35 14,10 26,15 26,12 0,-2 -17,-16 -38,-29 -25,-17 -42,-38 -49,-62 l -11,-36 28,23 c 18,15 24,26 18,34 -6,8 -4,10 10,6 18,-4 51,32 56,61 1,6 5,16 8,22 4,6 1,19 -6,29 -12,17 -16,15 -45,-25 z"
       id="path198" />
    <path
       d="m 9031,5359 c -23,-19 -23,-20 -5,-34 17,-12 20,-11 26,8 5,19 6,19 7,3 1,-18 2,-18 21,-1 16,14 17,21 8,32 -8,10 -13,11 -18,2 -5,-7 -9,-8 -11,-1 -2,6 -14,2 -28,-9 z"
       id="path199" />
    <path
       d="m 10003,5367 c -7,-12 32,-47 53,-47 25,0 28,23 4,39 -29,19 -48,22 -57,8 z"
       id="path200" />
    <path
       d="m 10583,5361 c -10,-16 -9,-22 10,-35 19,-13 19,-15 3,-9 -20,7 -15,-4 30,-65 7,-10 44,12 44,26 -1,19 -50,94 -65,99 -6,2 -16,-6 -22,-16 z m 77,-77 c 0,-2 -9,0 -20,6 -11,6 -20,13 -20,16 0,2 9,0 20,-6 11,-6 20,-13 20,-16 z"
       id="path201" />
    <path
       d="m 8590,5340 c 0,-6 -11,-8 -25,-4 -28,7 -32,-3 -11,-31 8,-11 21,-16 33,-13 11,3 38,2 59,-1 33,-6 42,-3 57,15 24,31 22,34 -21,34 -30,0 -41,-5 -50,-22 -11,-22 -11,-21 -6,5 5,23 3,27 -15,27 -12,0 -21,-5 -21,-10 z m -23,-32 c -3,-8 -6,-5 -6,6 -1,11 2,17 5,13 3,-3 4,-12 1,-19 z m 101,-3 c -3,-3 -9,2 -12,12 -6,14 -5,15 5,6 7,-7 10,-15 7,-18 z"
       id="path202" />
    <path
       d="m 10460,5342 c 0,-4 7,-18 16,-31 13,-18 23,-22 45,-17 15,3 29,1 31,-3 2,-5 14,-12 27,-16 l 23,-7 -18,31 c -12,21 -20,27 -26,18 -5,-8 -8,-7 -8,6 0,9 -7,17 -15,17 -9,0 -12,-6 -9,-17 5,-14 4,-15 -4,-4 -8,11 -12,10 -21,-5 -6,-11 -11,-14 -11,-7 0,6 5,15 10,18 6,4 8,11 5,16 -7,11 -45,12 -45,1 z"
       id="path203" />
    <path
       d="m 10380,5330 c 0,-18 41,-52 57,-46 8,3 19,6 24,6 14,0 11,17 -7,34 -17,18 -74,22 -74,6 z m 51,-27 c -12,-20 -14,-14 -5,12 4,9 9,14 11,11 3,-2 0,-13 -6,-23 z"
       id="path204" />
    <path
       d="m 8508,5299 c -18,-30 -18,-30 5,-24 33,10 38,19 25,38 -12,15 -15,14 -30,-14 z"
       id="path205" />
    <path
       d="m 8717,5312 c -24,-27 -21,-39 14,-51 24,-8 35,-7 55,5 13,9 24,18 24,20 0,5 -63,44 -71,44 -3,0 -13,-8 -22,-18 z m 20,-24 c -3,-7 -5,-2 -5,12 0,14 2,19 5,13 2,-7 2,-19 0,-25 z"
       id="path206" />
    <path
       d="m 10323,5315 c -44,-19 -48,-32 -14,-50 36,-18 51,-19 74,-1 16,12 16,17 5,35 -17,28 -29,31 -65,16 z m 34,-42 c -3,-10 -5,-4 -5,12 0,17 2,24 5,18 2,-7 2,-21 0,-30 z"
       id="path207" />
    <path
       d="m 8780,5252 -21,-17 29,-26 c 16,-15 35,-29 43,-32 9,-3 10,-6 2,-6 -10,-1 -10,-7 -1,-28 17,-39 16,-38 38,-18 25,22 26,35 3,36 -13,1 -11,3 5,7 l 23,7 -30,48 c -33,51 -55,58 -91,29 z m 37,-34 c -3,-7 -5,-2 -5,12 0,14 2,19 5,13 2,-7 2,-19 0,-25 z"
       id="path208" />
    <path
       d="m 10225,5227 c -31,-53 -31,-57 -2,-58 l 22,-1 -23,-7 -24,-6 25,-24 25,-23 16,30 c 12,23 13,32 3,35 -9,4 -9,6 1,6 6,1 12,11 13,24 0,19 1,19 8,4 6,-16 9,-16 30,7 l 23,24 -30,16 c -46,24 -59,20 -87,-27 z m 52,11 c -3,-8 -6,-5 -6,6 -1,11 2,17 5,13 3,-3 4,-12 1,-19 z"
       id="path209" />
    <path
       d="m 10660,5250 c -12,-8 -9,-15 17,-42 l 33,-33 -10,35 c -12,42 -21,52 -40,40 z"
       id="path210" />
    <path
       d="m 8612,4837 c -18,-18 -32,-37 -32,-43 0,-13 63,-74 76,-74 13,0 74,63 74,76 0,13 -63,74 -76,74 -6,0 -24,-15 -42,-33 z m 86,-36 c 2,-12 -2,-29 -9,-37 -15,-19 -59,-14 -72,7 -14,22 -1,67 21,72 24,6 56,-16 60,-42 z"
       id="path211" />
    <path
       d="m 10397,4832 -37,-38 38,-37 c 21,-20 42,-37 48,-37 13,0 74,63 74,76 0,13 -63,74 -76,74 -5,0 -27,-17 -47,-38 z m 87,-14 c 13,-19 14,-25 2,-43 -26,-40 -86,-27 -86,19 0,47 57,63 84,24 z"
       id="path212" />
    <path
       d="m 8730,4755 c -5,-14 -21,-30 -35,-37 -24,-11 -34,-28 -17,-28 11,0 58,51 65,70 4,12 6,11 6,-3 1,-9 -14,-31 -31,-47 l -33,-29 385,-385 385,-386 42,42 43,43 -99,99 -100,100 -33,-23 -33,-24 27,29 28,30 -206,204 c -160,159 -205,199 -200,177 5,-19 3,-26 -4,-22 -5,3 -10,18 -10,33 0,21 -19,46 -78,105 -42,42 -81,77 -85,77 -4,0 -12,-11 -17,-25 z m 69,-62 c -7,-7 -15,-11 -18,-7 -3,4 0,9 7,11 10,4 10,8 0,21 -12,15 -11,16 5,3 13,-11 15,-17 6,-28 z m 62,-50 c 13,-14 18,-23 11,-19 -8,5 -16,-2 -22,-18 -5,-14 -14,-26 -20,-26 -7,0 -5,9 4,22 17,24 22,53 8,44 -5,-3 -9,1 -9,9 0,19 -1,20 28,-12 z m 230,-230 c 13,-16 17,-22 9,-15 -8,6 -23,12 -35,12 -12,0 -27,-6 -34,-12 -11,-11 -13,-10 -9,2 3,8 14,16 26,18 12,2 20,8 17,13 -12,18 2,8 26,-18 z m 60,-59 c 23,-25 23,-26 2,-15 -14,7 -24,8 -28,1 -3,-5 -11,-10 -17,-10 -6,0 -4,8 5,18 10,10 14,22 10,25 -3,4 -4,7 -1,7 2,0 15,-12 29,-26 z m -11,-24 c 0,-5 -10,-15 -22,-21 -23,-12 -23,-12 -4,10 21,23 26,26 26,11 z m 141,-106 c 13,-14 19,-24 13,-22 -6,2 -21,-8 -33,-22 l -21,-25 15,30 c 17,34 19,49 7,41 -5,-3 -9,1 -9,9 0,19 -1,19 28,-11 z m 34,-92 -28,-27 23,33 c 12,18 25,31 28,27 3,-3 -7,-18 -23,-33 z m 61,-30 c -18,-16 -18,-16 -8,4 6,12 10,24 8,26 -1,3 2,2 8,-3 7,-6 4,-15 -8,-27 z m 70,-44 c 16,-18 21,-26 12,-19 -10,7 -31,11 -47,9 -17,-2 -28,-1 -25,4 3,4 14,8 26,8 17,0 18,2 8,15 -23,28 -4,15 26,-17 z m 64,-64 c 0,-8 -5,-12 -10,-9 -6,4 -8,11 -5,16 9,14 15,11 15,-7 z"
       id="path213" />
    <path
       d="m 10257,4692 c -48,-48 -87,-96 -87,-106 0,-11 8,-29 18,-40 17,-21 17,-21 -5,-2 -13,11 -23,26 -23,35 0,9 -135,-119 -299,-284 -165,-164 -298,-303 -295,-307 3,-5 10,-5 16,-2 6,4 8,3 5,-3 -3,-5 9,-24 27,-42 23,-22 36,-29 41,-21 4,6 2,17 -4,23 -8,8 -11,7 -11,-3 0,-9 -5,-8 -20,5 -28,25 -25,43 3,19 20,-17 20,-16 -2,9 l -24,27 h 22 c 12,0 20,-4 17,-9 -3,-5 3,-20 13,-32 l 20,-24 382,382 383,383 -24,25 c -24,25 -45,29 -45,8 0,-6 -4,-15 -9,-20 -5,-5 -6,-3 -2,5 4,7 0,15 -10,19 -15,6 -14,7 5,15 20,7 22,28 3,28 -4,0 -47,-39 -95,-88 z m 57,3 c -4,-8 -10,-15 -15,-15 -6,0 -5,-9 1,-21 7,-11 9,-24 5,-27 -3,-3 -8,4 -12,16 -3,12 -10,19 -17,15 -6,-3 0,6 13,20 28,31 33,33 25,12 z m -63,-72 c 12,-16 12,-17 -2,-6 -9,7 -20,9 -24,5 -5,-4 -5,-1 -1,6 9,16 11,15 27,-5 z m -30,-59 24,-27 -27,18 c -16,9 -28,21 -28,26 0,14 5,11 31,-17 z m -70,-28 c -9,-11 -6,-15 14,-20 14,-4 25,-12 25,-18 0,-9 -3,-9 -12,0 -13,13 -52,17 -44,4 2,-4 -4,-8 -15,-8 -17,0 -16,3 8,28 28,29 44,39 24,14 z m -91,-191 c 0,-3 -6,-3 -12,2 -7,4 -17,8 -23,8 -5,1 -18,5 -28,9 -17,8 -17,10 -1,27 16,17 17,17 40,-10 13,-16 24,-32 24,-36 z m -100,0 c -7,-8 -10,-28 -8,-45 3,-16 1,-30 -4,-30 -4,0 -8,12 -8,26 0,24 -2,25 -17,13 -10,-7 -5,1 11,19 30,32 49,45 26,17 z m -170,-179 c -6,-9 -19,-12 -28,-8 -17,6 -14,7 37,21 2,1 -2,-5 -9,-13 z m -56,-50 c -3,-9 3,-17 15,-21 12,-3 21,-11 21,-17 0,-7 -4,-7 -12,-1 -24,18 -51,24 -45,10 3,-8 -3,-13 -14,-13 -16,0 -15,4 8,28 30,32 35,34 27,14 z m -64,-81 c 0,-2 -9,-3 -19,-2 -11,0 -18,5 -15,9 4,6 34,0 34,-7 z"
       id="path214" />
    <path
       d="m 10000,4386 c 0,-2 8,-10 18,-17 15,-13 16,-12 3,4 -13,16 -21,21 -21,13 z"
       id="path215" />
    <path
       d="m 8831,4444 c -7,-19 -26,-47 -42,-61 -16,-15 -29,-29 -29,-32 0,-4 14,-15 31,-25 l 30,-18 34,37 c 47,49 54,79 24,111 -12,13 -25,24 -29,24 -3,0 -12,-16 -19,-36 z m 32,-31 c -7,-2 -19,-2 -25,0 -7,3 -2,5 12,5 14,0 19,-2 13,-5 z m -46,-75 c -3,-7 -5,-2 -5,12 0,14 2,19 5,13 2,-7 2,-19 0,-25 z"
       id="path216" />
    <path
       d="m 10216,4449 c -25,-29 -25,-31 -10,-62 22,-42 100,-116 132,-124 19,-4 30,-1 44,17 24,29 23,34 -9,51 -15,8 -39,27 -52,43 -23,26 -25,27 -32,10 -6,-15 -8,-14 -8,9 -1,25 -26,87 -35,87 -2,0 -16,-14 -30,-31 z m 47,-36 c -7,-2 -19,-2 -25,0 -7,3 -2,5 12,5 14,0 19,-2 13,-5 z m 14,-85 c -3,-8 -6,-5 -6,6 -1,11 2,17 5,13 3,-3 4,-12 1,-19 z m 53,7 c 0,-2 -10,-9 -22,-15 -22,-11 -22,-10 -4,4 21,17 26,19 26,11 z m 27,-47 c -3,-7 -5,-2 -5,12 0,14 2,19 5,13 2,-7 2,-19 0,-25 z"
       id="path217" />
    <path
       d="m 8393,4397 c 4,-11 10,-30 13,-43 3,-13 10,-24 16,-24 5,0 7,-4 4,-8 -2,-4 15,-20 40,-35 24,-14 44,-24 44,-22 0,17 -47,74 -58,70 -7,-3 -10,0 -7,5 4,6 -8,25 -26,43 -21,20 -30,25 -26,14 z"
       id="path218" />
    <path
       d="m 8896,4382 c -26,-51 -67,-92 -115,-116 -61,-30 -81,-35 -176,-37 -44,-1 -87,-7 -95,-13 -13,-10 -13,-9 -1,7 8,9 12,19 10,21 -2,2 -24,16 -48,30 l -43,28 18,-32 c 11,-18 31,-42 46,-55 15,-12 25,-25 22,-27 -2,-3 3,-11 12,-18 13,-11 17,-11 24,-1 6,11 9,11 13,0 3,-11 7,-11 17,-2 17,16 4,33 -28,33 -22,1 -24,2 -11,10 12,7 30,3 64,-17 64,-35 117,-44 190,-32 66,12 162,55 213,97 l 33,27 -65,64 -64,64 z"
       id="path219" />
    <path
       d="m 10115,4350 -59,-60 24,-25 c 56,-60 229,-122 303,-109 45,8 109,33 128,50 12,11 22,12 40,5 16,-7 19,-10 7,-10 -9,-1 -19,-9 -21,-18 -4,-17 -5,-17 -6,0 -1,19 -16,23 -26,6 -4,-6 1,-17 11,-25 18,-14 18,-14 -3,-4 -18,8 -23,8 -23,-2 0,-11 -2,-11 -8,0 -5,7 -16,10 -25,6 -20,-7 -21,-15 -4,-34 6,-8 3,-7 -9,3 -11,9 -31,17 -43,17 -20,0 -22,-4 -17,-27 l 7,-28 -16,23 c -9,12 -25,22 -36,22 -13,0 -19,-7 -20,-22 0,-21 -1,-21 -8,-4 -7,18 -8,18 -24,-5 -9,-13 -17,-18 -17,-12 0,6 7,16 15,23 21,18 19,28 -7,32 -14,3 -35,-6 -53,-21 l -30,-26 23,27 c 24,26 24,26 4,37 -29,16 -41,14 -37,-6 15,-74 11,-70 72,-77 55,-7 59,-5 81,21 18,21 21,22 13,6 -6,-12 -11,-24 -11,-27 0,-10 48,-7 54,3 3,5 15,7 25,4 11,-3 27,3 38,14 10,10 25,17 33,15 8,-1 35,16 59,38 59,55 48,67 -65,69 -137,3 -229,48 -275,136 -13,25 -26,45 -29,45 -3,0 -32,-27 -65,-60 z m 302,-232 c -3,-8 -6,-5 -6,6 -1,11 2,17 5,13 3,-3 4,-12 1,-19 z"
       id="path220" />
    <path
       d="m 10661,4366 c -24,-25 -47,-44 -50,-44 -18,4 -61,-16 -61,-28 0,-8 -4,-14 -10,-14 -5,0 -10,5 -10,10 0,6 -9,10 -21,10 -15,0 -19,-5 -15,-15 7,-19 2,-19 -16,-1 -27,26 -55,28 -77,5 -35,-38 -25,-46 62,-48 33,0 46,3 41,11 -4,6 -3,8 4,4 5,-3 12,-3 15,1 2,5 2,2 0,-5 -2,-8 4,-12 15,-10 9,2 16,10 15,16 -2,7 1,11 6,10 4,-2 17,6 27,17 11,12 15,15 10,8 -17,-25 2,-24 42,2 30,19 45,39 56,71 8,24 14,44 12,44 -1,0 -21,-20 -45,-44 z m 4,-36 c 3,-6 -1,-7 -9,-4 -18,7 -21,14 -7,14 6,0 13,-4 16,-10 z"
       id="path221" />
    <path
       d="m 8715,4328 c -11,-6 -21,-12 -23,-14 -2,-1 4,-15 13,-31 l 17,-28 -20,24 -20,24 -16,-29 c -16,-27 -17,-20 -1,17 5,13 1,15 -19,12 -30,-6 -30,-7 -15,-36 10,-22 10,-22 -6,-2 -14,17 -17,18 -25,5 -16,-26 -11,-30 33,-29 67,2 177,37 177,57 0,4 -13,16 -30,25 -22,14 -30,15 -30,5 0,-10 -2,-10 -8,-1 -5,8 -13,9 -27,1 z m 22,-50 c -3,-8 -6,-5 -6,6 -1,11 2,17 5,13 3,-3 4,-12 1,-19 z"
       id="path222" />
    <path
       d="m 8502,4296 c 12,-19 31,-39 42,-46 17,-11 22,-9 38,10 23,29 23,40 -3,40 -16,0 -19,-5 -15,-22 3,-13 3,-17 0,-10 -3,6 -10,9 -16,6 -5,-3 -8,2 -6,12 2,11 -8,21 -30,31 l -32,13 z"
       id="path223" />
    <path
       d="m 10630,4280 c -14,-11 -30,-18 -35,-16 -14,5 -18,-41 -4,-49 13,-9 33,9 58,51 23,38 17,43 -19,14 z"
       id="path224" />
    <path
       d="m 9021,4256 c -10,-11 -7,-17 11,-30 15,-11 24,-12 29,-5 4,8 8,7 12,-2 3,-11 7,-11 18,-2 10,10 9,16 -6,33 -21,23 -48,26 -64,6 z"
       id="path225" />
    <path
       d="m 10014,4249 c -18,-20 -18,-21 1,-35 17,-12 21,-11 42,8 17,16 20,24 12,35 -16,19 -33,16 -55,-8 z"
       id="path226" />
    <path
       d="m 8975,4219 c -4,-5 1,-19 11,-30 17,-19 19,-19 25,-2 7,17 8,17 8,1 1,-21 14,-23 30,-4 9,10 6,17 -13,29 -18,12 -26,13 -29,4 -4,-9 -6,-9 -6,1 -1,15 -17,16 -26,1 z"
       id="path227" />
    <path
       d="m 10055,4210 c -16,-18 -17,-23 -5,-30 9,-6 17,-5 22,3 6,9 8,8 8,-2 0,-10 8,-7 25,9 19,18 22,26 13,32 -20,12 -28,10 -29,-9 0,-17 -1,-17 -8,0 -6,17 -8,17 -26,-3 z"
       id="path228" />
    <path
       d="m 10140,4194 c 0,-14 -3,-15 -8,-6 -7,9 -13,8 -27,-8 -15,-16 -16,-23 -6,-33 9,-9 14,-9 21,3 7,11 10,11 10,2 0,-17 17,-7 30,18 7,13 6,21 -5,30 -12,10 -15,9 -15,-6 z"
       id="path229" />
    <path
       d="m 8927,4194 c -3,-4 2,-18 11,-32 l 16,-25 7,24 c 7,23 7,23 8,-4 1,-25 3,-27 22,-16 l 21,11 -23,24 c -22,23 -49,31 -62,18 z"
       id="path230" />
    <path
       d="m 8880,4173 c -22,-9 -30,-24 -30,-60 0,-26 3,-30 20,-26 24,6 25,16 5,33 -8,7 -15,17 -15,23 0,5 11,-2 25,-17 21,-23 27,-25 50,-14 24,11 25,12 8,32 -31,36 -37,39 -63,29 z"
       id="path231" />
    <path
       d="m 8583,4159 c -9,-9 -10,-16 -2,-26 17,-19 27,-16 32,10 4,19 4,18 6,-6 1,-20 8,-30 27,-37 39,-15 50,-12 62,15 10,22 9,27 -5,32 -10,4 -19,1 -21,-6 -3,-9 -7,-8 -16,3 -15,21 -68,31 -83,15 z m 63,-37 c -18,-16 -18,-16 -6,6 6,13 14,21 18,18 3,-4 -2,-14 -12,-24 z"
       id="path232" />
    <path
       d="m 10156,4151 c -19,-21 -14,-41 10,-41 9,0 14,11 14,30 0,35 -1,36 -24,11 z"
       id="path233" />
    <path
       d="m 8812,4152 -22,-3 21,-32 c 19,-29 19,-30 1,-9 -24,27 -29,27 -35,5 -2,-10 -3,-8 -2,5 2,17 -3,22 -21,22 -21,0 -44,-25 -44,-49 0,-5 27,-10 61,-10 64,0 73,7 67,51 -2,18 -8,22 -26,20 z m -62,-42 c 6,-11 8,-20 6,-20 -3,0 -10,9 -16,20 -6,11 -8,20 -6,20 3,0 10,-9 16,-20 z"
       id="path234" />
    <path
       d="m 9505,3940 -39,-40 42,-43 42,-42 42,42 42,43 -39,40 c -21,22 -42,40 -45,40 -3,0 -24,-18 -45,-40 z m 77,-7 c 22,-20 23,-41 1,-65 -20,-22 -41,-23 -65,-1 -22,20 -23,41 -1,65 20,22 41,23 65,1 z"
       id="path235" />
  </g>
</svg>
