<?xml version="1.0" encoding="UTF-8" standalone="no"?>
<svg
   version="1.0"
   width="195.04678pt"
   height="196.1261pt"
   viewBox="0 0 195.04678 196.1261"
   preserveAspectRatio="xMidYMid"
   id="svg697"
   xmlns="http://www.w3.org/2000/svg"
   xmlns:svg="http://www.w3.org/2000/svg">
  <defs
     id="defs697" />
  <g
     transform="matrix(0.1,0,0,-0.1,-860.35323,228.92611)"
     fill="#000000"
     stroke="none"
     id="g697">
    <path
       d="m 9465,2279 c -145,-19 -294,-73 -421,-154 -75,-48 -203,-172 -259,-250 -72,-101 -138,-250 -160,-363 l -7,-33 26,26 c 31,31 60,32 90,2 l 23,-23 17,62 c 10,35 29,85 41,113 l 24,50 -24,-11 c -51,-23 -104,47 -72,96 29,43 88,37 113,-12 l 12,-23 23,33 c 13,18 48,59 78,91 50,53 52,57 29,57 -32,0 -55,19 -63,52 -5,21 -1,33 19,52 29,30 52,33 84,10 15,-10 22,-25 22,-49 v -33 l 67,44 c 37,24 82,50 100,56 31,11 45,28 24,28 -38,0 -54,75 -23,103 51,46 128,-2 105,-64 -10,-26 -10,-29 5,-25 52,15 104,25 155,32 54,6 57,8 42,23 -8,10 -15,32 -15,49 0,26 7,36 33,52 30,19 31,20 7,19 -14,-1 -56,-6 -95,-10 z"
       id="path606" />
    <path
       d="m 9605,2279 c 48,-27 59,-75 25,-109 l -20,-20 h 28 c 15,0 66,-8 113,-18 l 87,-18 -5,36 c -6,42 16,66 62,72 58,7 -110,49 -250,62 -47,5 -56,3 -40,-5 z"
       id="path607" />
    <path
       d="m 9943,2202 c 25,-28 21,-67 -10,-91 -14,-12 -24,-23 -22,-25 2,-2 29,-16 59,-31 30,-15 73,-40 96,-56 l 41,-28 -5,24 c -3,16 4,32 21,49 31,31 56,33 85,6 42,-40 18,-110 -38,-110 -23,0 -22,-2 16,-42 23,-24 57,-65 77,-92 l 37,-48 10,26 c 19,52 90,55 115,5 27,-52 -17,-107 -75,-92 l -22,6 20,-39 c 11,-22 30,-71 42,-111 l 21,-71 24,24 c 43,43 105,20 105,-40 0,-53 -50,-83 -98,-57 -15,8 -17,-1 -17,-104 0,-72 4,-111 9,-105 17,17 72,11 89,-8 23,-25 21,-68 -3,-92 -27,-27 -56,-25 -85,4 l -24,24 -21,-71 c -12,-40 -31,-89 -41,-110 l -20,-38 25,7 c 56,14 98,-44 71,-97 -12,-22 -23,-29 -44,-29 -43,0 -61,10 -72,37 -9,24 -10,24 -50,-29 -23,-29 -57,-69 -75,-88 -31,-33 -32,-36 -13,-37 58,-5 79,-76 33,-112 -35,-27 -49,-26 -81,5 -18,18 -24,33 -20,50 4,23 3,24 -17,9 -23,-16 -155,-92 -171,-99 -5,-2 2,-13 18,-25 30,-25 35,-56 11,-89 -20,-29 -16,-28 66,12 107,53 178,104 261,186 120,119 204,259 256,427 25,82 27,101 27,268 0,168 -2,186 -28,270 -71,232 -209,419 -403,548 -62,41 -171,97 -190,97 -3,0 1,-8 10,-18 z"
       id="path608" />
    <path
       d="m 9475,2125 c -5,-1 -35,-8 -67,-14 -33,-7 -59,-18 -62,-28 -3,-8 4,-33 16,-54 21,-37 24,-39 73,-39 49,0 52,1 74,40 22,39 22,41 4,70 -9,16 -20,30 -23,29 -3,0 -9,-2 -15,-4 z"
       id="path609" />
    <path
       d="m 9520,2124 c 0,-3 5,-14 10,-25 9,-15 22,-19 64,-19 47,0 54,3 64,25 l 12,25 h -75 c -41,0 -75,-3 -75,-6 z"
       id="path610" />
    <path
       d="m 9670,2095 c -12,-23 -11,-30 8,-63 19,-35 24,-37 74,-40 53,-2 53,-2 74,37 27,49 18,64 -48,80 -72,17 -93,14 -108,-14 z"
       id="path611" />
    <path
       d="m 9233,2054 c -7,-3 -22,-21 -34,-40 l -21,-34 27,-46 c 26,-44 27,-45 73,-42 43,3 48,6 70,45 l 23,42 -23,41 c -21,36 -26,40 -63,39 -22,0 -45,-3 -52,-5 z"
       id="path612" />
    <path
       d="m 9520,2017 -23,-43 27,-42 c 24,-39 29,-42 70,-42 42,0 46,3 70,45 l 27,45 -26,40 c -24,38 -28,40 -74,40 -47,0 -49,-1 -71,-43 z"
       id="path613" />
    <path
       d="m 9841,2024 c -26,-44 -26,-47 1,-95 20,-37 25,-39 68,-39 44,0 48,2 69,41 15,26 21,48 17,65 -8,31 -61,64 -103,64 -25,0 -35,-7 -52,-36 z"
       id="path614" />
    <path
       d="m 9158,2014 c -33,-17 -35,-24 -8,-24 10,0 24,9 30,20 13,24 13,23 -22,4 z"
       id="path615" />
    <path
       d="m 10017,1999 c 7,-7 15,-10 18,-7 3,3 -2,9 -12,12 -14,6 -15,5 -6,-5 z"
       id="path616" />
    <path
       d="m 9072,1954 c -12,-8 -29,-28 -36,-43 -14,-25 -13,-31 10,-69 24,-40 28,-42 72,-42 46,0 48,2 71,44 l 24,43 -23,42 c -21,36 -28,41 -60,41 -19,0 -46,-7 -58,-16 z"
       id="path617" />
    <path
       d="m 9361,1927 -24,-43 27,-43 c 26,-41 28,-42 74,-39 43,3 48,6 69,44 l 23,41 -23,41 c -21,40 -24,42 -72,42 -49,0 -51,-1 -74,-43 z"
       id="path618" />
    <path
       d="m 9679,1928 -22,-42 23,-44 c 23,-43 24,-43 72,-40 45,3 50,6 73,44 l 24,40 -25,42 c -24,40 -27,42 -74,42 -48,0 -50,-1 -71,-42 z"
       id="path619" />
    <path
       d="m 9996,1928 -25,-42 24,-40 c 23,-38 28,-41 73,-44 l 49,-3 24,46 24,47 -44,39 c -60,54 -92,53 -125,-3 z"
       id="path620" />
    <path
       d="m 8957,1841 c -59,-65 -70,-87 -57,-110 9,-17 20,-21 60,-21 48,0 50,1 71,42 l 22,42 -23,43 c -13,24 -26,43 -30,43 -4,0 -24,-18 -43,-39 z"
       id="path621" />
    <path
       d="m 9205,1837 -25,-44 22,-41 c 21,-37 27,-42 60,-42 25,0 46,8 67,25 43,37 46,57 16,104 -23,38 -29,41 -70,41 -42,0 -46,-3 -70,-43 z"
       id="path622" />
    <path
       d="m 9525,1843 -25,-38 92,-5 c 51,-3 94,-5 95,-5 1,0 -9,20 -23,43 -23,39 -28,42 -69,42 -40,0 -47,-4 -70,-37 z"
       id="path623" />
    <path
       d="m 9838,1835 -22,-45 21,-37 c 21,-36 24,-38 73,-38 49,0 52,2 73,38 l 21,37 -22,45 c -21,44 -22,45 -72,45 -50,0 -51,-1 -72,-45 z"
       id="path624" />
    <path
       d="m 10153,1832 -21,-38 22,-40 c 20,-37 25,-39 73,-42 71,-4 74,13 15,90 -26,34 -51,63 -57,65 -5,1 -20,-14 -32,-35 z"
       id="path625" />
    <path
       d="m 9047,1748 -25,-43 21,-40 c 21,-38 25,-40 73,-43 51,-3 51,-3 74,41 l 23,43 -27,42 c -24,39 -29,42 -70,42 -41,0 -46,-3 -69,-42 z"
       id="path626" />
    <path
       d="m 9379,1774 c -12,-15 -11,-16 11,-9 46,14 58,24 29,25 -15,0 -33,-7 -40,-16 z"
       id="path627" />
    <path
       d="m 9733,1783 c 10,-10 87,-43 87,-37 0,25 -25,44 -57,44 -20,0 -33,-3 -30,-7 z"
       id="path628" />
    <path
       d="m 9997,1746 -25,-44 25,-41 c 23,-39 27,-41 73,-41 44,0 50,3 69,36 27,45 26,51 -4,97 -23,33 -30,37 -70,37 -41,0 -45,-2 -68,-44 z"
       id="path629" />
    <path
       d="m 9466,1769 c -72,-17 -174,-79 -231,-141 -30,-32 -55,-63 -55,-68 0,-11 117,-24 164,-18 19,2 32,0 30,-4 -3,-4 5,-8 18,-8 13,0 32,-3 43,-6 16,-4 24,3 38,32 10,20 16,39 13,41 -2,3 -25,-7 -50,-22 -25,-15 -46,-25 -46,-22 0,3 25,20 55,37 30,17 55,33 55,35 0,2 -31,23 -70,45 -38,22 -70,43 -70,46 0,5 75,-36 115,-63 11,-7 23,-13 27,-13 6,0 68,124 68,136 0,7 -64,2 -104,-7 z"
       id="path630" />
    <path
       d="m 9600,1777 c 0,-16 54,-137 61,-137 4,0 24,9 43,21 20,12 36,19 36,16 0,-3 -18,-16 -40,-28 -31,-18 -37,-25 -26,-31 9,-5 13,-15 10,-22 -3,-8 2,-29 11,-46 13,-25 21,-31 38,-26 12,3 33,6 47,6 21,0 16,5 -27,31 -29,17 -53,33 -53,35 0,6 32,-11 83,-43 l 38,-24 -3,98 -3,98 -58,23 c -57,23 -157,41 -157,29 z m 210,-62 c 0,-2 -13,-11 -30,-20 -38,-19 -40,-11 -2,9 31,17 32,18 32,11 z"
       id="path631" />
    <path
       d="m 9566,1728 c -51,-121 -89,-204 -97,-212 -5,-6 -60,-4 -139,4 -72,7 -132,11 -134,9 -2,-2 29,-49 71,-104 41,-55 77,-105 79,-112 3,-6 -31,-60 -74,-120 -44,-59 -79,-110 -76,-112 3,-4 213,16 250,24 19,4 28,-10 74,-118 30,-67 56,-125 60,-129 3,-4 19,23 35,60 16,37 41,94 56,127 l 27,61 132,-14 c 72,-8 134,-12 136,-9 3,3 -29,53 -71,111 -44,60 -75,112 -72,120 3,8 38,58 77,111 40,53 69,99 66,102 -3,3 -54,0 -113,-6 -173,-18 -151,-29 -213,114 -29,69 -55,125 -57,125 -1,0 -9,-15 -17,-32 z m 111,-288 c 10,1 49,5 88,10 38,5 72,7 74,5 2,-3 -19,-36 -48,-75 -28,-39 -51,-72 -51,-75 0,-3 23,-35 50,-73 54,-75 59,-86 33,-78 -10,2 -50,8 -90,11 l -72,7 -40,-84 -39,-83 -38,83 -38,83 -75,-6 c -42,-4 -85,-9 -96,-12 -22,-6 -26,-15 52,95 l 42,59 -54,73 c -30,41 -55,75 -55,78 0,2 12,1 28,-2 15,-2 56,-8 93,-11 l 65,-6 38,83 38,83 39,-82 c 27,-59 44,-83 56,-83 z"
       id="path632" />
    <path
       d="m 9558,1528 c -14,-31 -29,-66 -33,-78 -7,-21 -10,-21 -93,-14 l -86,7 18,-29 c 11,-16 32,-45 48,-65 15,-20 28,-40 28,-44 0,-3 -20,-33 -45,-65 -25,-32 -45,-61 -45,-65 0,-4 37,-4 83,0 l 82,7 29,-69 c 16,-37 32,-71 35,-75 4,-4 21,25 38,65 l 32,72 86,-3 87,-3 -46,64 c -25,36 -46,68 -46,72 0,4 21,37 46,73 l 47,65 -86,-8 -86,-7 -16,39 c -9,21 -24,56 -34,78 l -17,40 z m 55,-110 c 14,-27 22,-48 18,-48 -4,0 -16,19 -28,42 l -20,43 -16,-30 c -9,-17 -16,-26 -17,-22 0,10 31,70 34,65 1,-1 14,-24 29,-50 z m -130,-35 c -7,-2 -21,-2 -30,0 -10,3 -4,5 12,5 17,0 24,-2 18,-5 z m 225,-25 c -13,-18 -27,-38 -31,-44 -3,-6 7,-30 24,-52 l 31,-42 -29,1 c -21,0 -24,2 -10,7 16,7 15,10 -8,42 -14,18 -25,34 -25,35 0,1 11,17 25,36 l 26,34 -23,7 c -19,5 -17,6 11,7 l 33,1 z m -208,-52 c 0,-5 -11,-24 -25,-42 l -25,-33 23,-4 c 19,-4 18,-4 -5,-6 -34,-1 -34,2 -3,43 30,40 30,40 4,79 l -21,32 26,-30 c 14,-16 26,-34 26,-39 z m 119,16 c 21,-39 -46,-73 -68,-35 -13,25 5,53 34,53 13,0 29,-8 34,-18 z m -74,-92 c 3,-6 -1,-7 -9,-4 -18,7 -21,14 -7,14 6,0 13,-4 16,-10 z m 102,4 c -3,-3 -12,-4 -19,-1 -8,3 -5,6 6,6 11,1 17,-2 13,-5 z m -45,-60 -19,-38 -17,32 c -21,40 -20,56 1,17 l 16,-30 15,33 c 9,17 17,30 19,28 3,-2 -4,-21 -15,-42 z"
       id="path633" />
    <path
       d="m 8857,1701 c -30,-50 -38,-81 -23,-81 15,0 56,62 56,85 0,26 -16,24 -33,-4 z"
       id="path634" />
    <path
       d="m 9830,1626 v -86 l 38,1 c 20,0 57,4 80,7 l 44,7 -35,45 c -31,40 -75,80 -114,104 -10,5 -13,-13 -13,-78 z"
       id="path635" />
    <path
       d="m 10292,1703 c 25,-53 43,-83 50,-83 4,0 -2,20 -14,45 -12,25 -26,45 -31,45 -5,0 -7,-3 -5,-7 z"
       id="path636" />
    <path
       d="m 8886,1653 -24,-38 22,-40 c 21,-39 23,-40 74,-40 51,0 54,2 75,38 l 22,38 -22,37 c -19,34 -25,37 -71,40 -49,3 -52,2 -76,-35 z"
       id="path637" />
    <path
       d="m 9202,1650 c -29,-50 -17,-50 27,1 28,33 30,39 15,39 -12,0 -28,-16 -42,-40 z"
       id="path638" />
    <path
       d="m 9947,1640 c 52,-55 71,-48 36,13 -14,24 -27,33 -52,35 l -33,3 z"
       id="path639" />
    <path
       d="m 10153,1650 -21,-40 21,-40 c 22,-40 22,-41 75,-38 50,3 55,5 75,41 l 21,37 -21,38 c -20,35 -25,37 -75,40 -53,3 -53,2 -75,-38 z"
       id="path640" />
    <path
       d="m 8791,1535 c -29,-94 -29,-97 20,-93 36,3 44,8 63,41 l 21,37 -21,38 c -12,20 -31,38 -42,40 -18,3 -24,-7 -41,-63 z"
       id="path641" />
    <path
       d="m 9043,1560 -21,-40 21,-40 c 16,-28 29,-40 45,-40 12,0 22,6 22,14 0,7 13,40 30,72 16,32 30,62 30,67 0,4 -24,7 -52,7 -51,0 -54,-1 -75,-40 z"
       id="path642" />
    <path
       d="m 10014,1590 c -9,-9 -4,-30 20,-81 29,-65 33,-69 60,-67 21,2 34,13 49,40 l 22,37 -22,38 c -20,35 -26,38 -70,41 -26,2 -53,-2 -59,-8 z"
       id="path643" />
    <path
       d="m 10312,1560 -23,-40 23,-40 c 20,-34 28,-40 56,-40 27,0 32,3 28,18 -2,9 -12,45 -22,80 -9,34 -22,62 -28,62 -6,0 -21,-18 -34,-40 z"
       id="path644" />
    <path
       d="m 9151,1513 c -17,-33 -41,-126 -41,-161 v -33 l 55,31 c 30,17 55,29 55,26 0,-2 -26,-19 -57,-37 -49,-28 -54,-34 -39,-43 38,-23 50,-36 19,-21 l -33,16 v -36 c 0,-35 34,-153 49,-168 7,-7 111,121 111,136 0,3 14,21 30,39 17,18 30,36 30,40 0,9 -159,228 -165,228 -3,0 -8,-8 -14,-17 z m 109,-117 c 0,-2 -7,-7 -16,-10 -8,-3 -12,-2 -9,4 6,10 25,14 25,6 z m 17,-103 c -2,-16 -4,-5 -4,22 0,28 2,40 4,28 2,-13 2,-35 0,-50 z m -37,-69 c 0,-2 -13,2 -30,11 -16,9 -30,18 -30,21 0,2 14,-2 30,-11 17,-9 30,-18 30,-21 z"
       id="path645" />
    <path
       d="m 9948,1463 -48,-66 v -92 -91 l 46,-64 c 57,-79 53,-74 59,-68 11,11 46,121 52,165 6,43 5,46 -13,40 -17,-6 -18,-6 -2,6 13,10 16,26 13,68 -3,53 -40,169 -53,169 -4,0 -28,-30 -54,-67 z m 22,-99 c 0,-2 -13,2 -30,11 -16,9 -30,18 -30,21 0,2 14,-2 30,-11 17,-9 30,-18 30,-21 z m 70,-40 c 0,-2 -13,2 -30,11 -16,9 -30,18 -30,21 0,2 14,-2 30,-11 17,-9 30,-18 30,-21 z m -25,-53 c -16,-14 -105,-63 -105,-58 0,5 101,66 110,67 2,0 0,-4 -5,-9 z"
       id="path646" />
    <path
       d="m 8887,1470 -25,-42 25,-44 c 24,-42 27,-44 72,-44 45,0 47,2 71,45 l 24,44 -21,38 c -20,35 -26,38 -72,41 -48,3 -50,2 -74,-38 z"
       id="path647" />
    <path
       d="m 10172,1498 c -5,-7 -16,-27 -25,-43 -14,-28 -14,-33 10,-73 23,-39 28,-42 69,-42 40,0 46,3 70,42 l 26,41 -21,44 c -20,42 -22,43 -70,43 -27,0 -53,-6 -59,-12 z"
       id="path648" />
    <path
       d="m 8606,1368 c -4,-51 -3,-122 2,-158 8,-60 10,-63 20,-39 6,15 18,29 27,33 25,9 63,7 70,-4 16,-25 20,-2 20,105 0,107 -4,130 -20,105 -15,-24 -95,-3 -95,25 0,7 -4,16 -9,19 -5,4 -12,-35 -15,-86 z"
       id="path649" />
    <path
       d="m 8760,1336 v -86 h 44 c 41,0 44,2 67,45 l 23,44 -21,38 c -20,34 -26,38 -67,41 l -46,3 z"
       id="path650" />
    <path
       d="m 9046,1378 -25,-42 24,-40 c 37,-61 45,-57 45,22 0,39 3,77 6,86 13,35 -26,14 -50,-26 z"
       id="path651" />
    <path
       d="m 10074,1383 c 3,-21 6,-59 6,-85 0,-40 3,-48 19,-48 11,0 27,16 41,43 l 23,43 -22,42 c -17,33 -27,42 -48,42 -24,0 -25,-2 -19,-37 z"
       id="path652" />
    <path
       d="m 10312,1378 -22,-41 25,-44 c 23,-38 30,-43 60,-43 h 35 v 63 c 0,92 -6,107 -44,107 -26,0 -35,-7 -54,-42 z"
       id="path653" />
    <path
       d="m 9858,1341 -27,-38 29,-34 29,-34 1,73 c 0,39 -1,72 -2,72 -2,0 -15,-18 -30,-39 z"
       id="path654" />
    <path
       d="m 8887,1288 -25,-43 24,-40 c 22,-37 27,-40 72,-43 47,-3 48,-2 71,39 l 24,42 -23,44 c -22,41 -24,43 -70,43 -46,0 -49,-2 -73,-42 z"
       id="path655" />
    <path
       d="m 10156,1288 -25,-43 23,-40 c 22,-37 28,-40 73,-43 47,-2 48,-2 72,40 l 24,42 -24,43 c -23,41 -25,43 -71,43 -45,0 -48,-2 -72,-42 z"
       id="path656" />
    <path
       d="m 8765,1193 c 3,-27 11,-65 16,-86 9,-35 13,-38 40,-35 23,2 35,12 52,41 l 21,38 -23,44 c -23,43 -26,45 -69,45 h -44 z"
       id="path657" />
    <path
       d="m 9047,1198 -25,-43 21,-40 c 19,-35 27,-40 61,-43 34,-3 38,-1 31,15 -12,30 -33,97 -39,126 -9,37 -20,34 -49,-15 z"
       id="path658" />
    <path
       d="m 10075,1228 c -2,-7 -9,-33 -16,-58 -6,-25 -18,-58 -26,-73 l -14,-28 51,3 c 48,3 53,6 73,41 l 21,38 -23,44 c -23,44 -56,60 -66,33 z"
       id="path659" />
    <path
       d="m 10316,1197 -26,-44 22,-41 c 16,-29 30,-42 44,-42 18,0 23,9 33,58 20,105 20,107 -16,110 -28,3 -34,-2 -57,-41 z"
       id="path660" />
    <path
       d="m 8886,1103 -24,-38 22,-40 c 21,-39 23,-40 74,-40 51,0 54,2 75,38 l 22,38 -22,37 c -19,34 -25,37 -71,40 -49,3 -52,2 -76,-35 z"
       id="path661" />
    <path
       d="m 10153,1100 -21,-40 21,-40 c 21,-39 24,-40 75,-40 52,0 52,0 73,43 l 21,43 -22,37 c -21,35 -25,37 -73,37 -50,0 -53,-2 -74,-40 z"
       id="path662" />
    <path
       d="m 8620,1122 c 0,-25 46,-167 75,-228 47,-102 98,-177 183,-266 97,-101 248,-204 342,-233 24,-7 24,-7 8,12 -29,32 -17,103 17,103 27,0 16,16 -24,33 -21,10 -66,35 -100,57 l -61,40 v -28 c 0,-42 -22,-65 -60,-65 -36,0 -70,31 -70,63 0,29 34,63 63,63 27,0 27,0 -21,51 -27,28 -62,71 -78,95 -23,36 -30,41 -33,25 -6,-32 -32,-54 -67,-54 -36,0 -64,29 -64,66 0,31 47,67 78,59 21,-5 23,-3 17,12 -4,10 -22,59 -39,108 l -31,90 -22,-22 c -29,-30 -58,-29 -88,2 -14,13 -25,21 -25,17 z"
       id="path663" />
    <path
       d="m 9397,1083 c -27,-4 -28,-5 -10,-19 16,-13 15,-13 -12,-1 -16,8 -41,13 -55,11 -14,-1 -51,-5 -82,-9 -32,-4 -58,-9 -58,-12 0,-14 69,-89 113,-124 42,-34 51,-37 70,-27 19,10 20,9 9,-4 -11,-14 -6,-19 45,-38 56,-21 153,-38 153,-27 0,12 -60,137 -65,137 -4,0 -16,-5 -28,-11 -20,-9 -20,-8 2,9 l 24,19 -46,28 c -26,15 -47,29 -47,32 0,3 16,-5 36,-16 20,-12 38,-20 41,-18 9,10 -32,77 -46,76 -9,-1 -29,-4 -44,-6 z m 53,-138 c 0,-2 -13,-11 -30,-20 -38,-19 -40,-11 -2,9 31,17 32,18 32,11 z"
       id="path664" />
    <path
       d="m 9691,1051 c -24,-46 -23,-47 19,-26 17,9 30,13 30,10 0,-2 -18,-14 -41,-25 -38,-20 -40,-22 -22,-35 17,-13 17,-14 -2,-9 -17,4 -25,-6 -49,-61 -16,-36 -26,-69 -22,-72 10,-10 119,13 170,36 l 46,20 v 95 95 l -35,-20 c -19,-12 -35,-18 -35,-15 0,3 12,12 28,20 17,10 21,15 11,16 -9,0 -30,3 -47,6 -28,6 -32,3 -51,-35 z m 114,-154 c 6,-6 -12,2 -40,18 -27,15 -54,32 -60,38 -5,6 13,-2 40,-18 28,-15 55,-32 60,-38 z"
       id="path665" />
    <path
       d="m 9830,984 c 0,-65 3,-83 13,-78 39,24 83,64 114,104 l 35,45 -29,6 c -15,4 -52,7 -80,8 l -53,1 z"
       id="path666" />
    <path
       d="m 8805,1030 c 13,-40 45,-109 54,-114 5,-3 15,8 22,26 11,28 10,35 -8,67 -14,25 -29,37 -48,39 -23,3 -26,1 -20,-18 z"
       id="path667" />
    <path
       d="m 9043,1009 -22,-41 22,-39 c 22,-39 23,-39 75,-37 50,3 55,5 74,40 l 21,37 -28,41 c -26,37 -31,40 -74,40 -44,0 -47,-2 -68,-41 z"
       id="path668" />
    <path
       d="m 10013,1038 c -6,-7 -17,-26 -26,-43 -14,-28 -13,-32 10,-68 23,-37 26,-38 75,-35 46,3 52,6 71,40 l 22,37 -22,38 c -20,35 -26,38 -71,41 -31,2 -53,-2 -59,-10 z"
       id="path669" />
    <path
       d="m 10312,1010 c -18,-33 -21,-44 -11,-61 14,-26 22,-18 48,49 19,48 19,52 3,52 -9,0 -27,-18 -40,-40 z"
       id="path670" />
    <path
       d="m 8890,925 c -21,-34 -21,-37 -5,-63 34,-53 58,-72 89,-72 27,0 35,7 56,45 l 24,44 -21,38 c -20,35 -26,38 -71,41 -48,3 -51,1 -72,-33 z"
       id="path671" />
    <path
       d="m 9201,918 -22,-39 26,-45 c 24,-42 28,-44 71,-44 39,0 47,4 64,33 l 20,32 -20,15 c -12,8 -42,31 -69,51 l -47,36 z"
       id="path672" />
    <path
       d="m 9910,935 c -14,-15 -39,-35 -57,-47 l -33,-20 22,-39 c 20,-37 24,-39 68,-39 46,0 48,1 71,45 l 24,46 -21,37 c -27,46 -43,50 -74,17 z"
       id="path673" />
    <path
       d="m 10155,920 -26,-40 27,-45 c 37,-64 62,-62 113,13 38,57 39,59 23,85 -14,23 -23,27 -64,27 -45,0 -49,-2 -73,-40 z"
       id="path674" />
    <path
       d="m 9062,858 c -5,-7 -16,-27 -25,-43 -14,-28 -14,-33 10,-73 24,-40 27,-42 72,-42 45,0 47,2 70,44 l 24,43 -23,42 c -23,39 -26,41 -71,41 -25,0 -51,-6 -57,-12 z"
       id="path675" />
    <path
       d="m 9997,829 -25,-41 25,-44 c 24,-42 26,-44 72,-44 46,0 49,2 71,43 l 23,43 -22,42 c -21,41 -23,42 -71,42 -47,0 -50,-2 -73,-41 z"
       id="path676" />
    <path
       d="m 9733,836 c -37,-12 -65,-28 -68,-38 -4,-9 4,-35 17,-58 22,-38 26,-40 69,-40 45,0 48,2 72,43 l 25,42 -21,38 c -11,20 -23,36 -26,36 -3,-1 -34,-11 -68,-23 z"
       id="path677" />
    <path
       d="m 9356,817 c -18,-33 -18,-34 8,-75 24,-39 29,-42 71,-42 42,0 46,2 71,46 31,53 27,62 -44,81 -26,7 -56,15 -68,18 -16,5 -24,-1 -38,-28 z"
       id="path678" />
    <path
       d="m 9545,800 c 3,-5 26,-10 50,-10 24,0 47,5 50,10 4,6 -15,10 -50,10 -35,0 -54,-4 -50,-10 z"
       id="path679" />
    <path
       d="m 8995,730 c 55,-56 69,-52 34,10 -19,33 -28,40 -53,40 h -30 z"
       id="path680" />
    <path
       d="m 9222,768 c -5,-7 -16,-27 -25,-44 -15,-28 -14,-33 6,-70 21,-36 26,-39 72,-42 50,-3 50,-2 73,41 l 23,43 -23,42 c -22,40 -25,42 -69,42 -26,0 -51,-6 -57,-12 z"
       id="path681" />
    <path
       d="m 9521,737 -24,-43 24,-42 c 23,-40 26,-42 71,-42 44,0 48,2 72,42 l 25,42 -22,41 c -21,38 -25,40 -72,43 -50,3 -50,3 -74,-41 z"
       id="path682" />
    <path
       d="m 9839,739 -21,-43 21,-43 c 20,-42 22,-43 71,-43 50,0 51,1 72,45 l 22,45 -21,37 c -20,35 -26,38 -72,41 -50,3 -50,3 -72,-39 z"
       id="path683" />
    <path
       d="m 10168,758 c -41,-63 -41,-73 1,-33 22,21 41,43 41,47 0,17 -28,7 -42,-14 z"
       id="path684" />
    <path
       d="m 9067,683 c -14,-13 -6,-21 58,-63 50,-33 69,-40 78,-31 9,9 6,22 -13,56 -24,43 -26,45 -71,45 -25,0 -49,-3 -52,-7 z"
       id="path685" />
    <path
       d="m 9364,649 -27,-43 24,-43 c 23,-42 25,-43 74,-43 48,0 51,2 72,42 l 23,41 -23,41 c -21,38 -26,41 -69,44 -46,3 -48,2 -74,-39 z"
       id="path686" />
    <path
       d="m 9680,648 -23,-44 22,-42 c 21,-41 23,-42 71,-42 47,0 50,2 74,42 l 25,42 -24,40 c -23,38 -28,41 -73,44 -48,3 -49,3 -72,-40 z"
       id="path687" />
    <path
       d="m 9997,648 c -14,-24 -22,-47 -17,-52 12,-12 140,68 140,88 0,3 -22,6 -49,6 -47,0 -50,-2 -74,-42 z"
       id="path688" />
    <path
       d="m 9227,594 c -18,-18 -2,-34 58,-58 36,-14 70,-26 76,-26 6,0 0,19 -13,43 -21,39 -27,42 -69,45 -24,2 -48,0 -52,-4 z"
       id="path689" />
    <path
       d="m 9525,559 c -42,-65 -30,-79 64,-79 102,0 113,11 76,74 -25,44 -29,46 -71,46 -40,0 -46,-3 -69,-41 z"
       id="path690" />
    <path
       d="m 9858,583 c -9,-10 -21,-29 -28,-42 -12,-23 -11,-23 16,-17 62,16 123,48 117,62 -8,21 -86,18 -105,-3 z"
       id="path691" />
    <path
       d="m 9415,501 c 3,-6 22,-11 42,-11 44,0 41,5 -10,14 -27,5 -37,4 -32,-3 z"
       id="path692" />
    <path
       d="m 9715,500 c -18,-8 -17,-9 8,-9 15,-1 27,4 27,9 0,12 -8,12 -35,0 z"
       id="path693" />
    <path
       d="m 9332,472 c 16,-41 -9,-79 -54,-84 -31,-3 -30,-4 22,-20 84,-25 156,-38 210,-38 h 50 l -20,20 c -24,24 -26,67 -5,90 14,15 7,18 -82,33 -54,8 -106,19 -115,22 -15,6 -16,3 -6,-23 z"
       id="path694" />
    <path
       d="m 9775,485 c -27,-7 -76,-16 -107,-20 -56,-6 -57,-6 -37,-26 27,-27 24,-64 -8,-90 l -28,-21 80,4 c 93,6 269,51 220,56 -47,6 -68,30 -62,74 3,21 2,38 -1,37 -4,0 -29,-7 -57,-14 z"
       id="path695" />
    <path
       d="m 9065,2259 c -4,-6 -5,-12 -2,-15 2,-3 7,2 10,11 7,17 1,20 -8,4 z"
       id="path696" />
    <path
       d="m 8665,731 c -7,-12 12,-24 25,-16 11,7 4,25 -10,25 -5,0 -11,-4 -15,-9 z"
       id="path697" />
  </g>
</svg>
