<?xml version="1.0" encoding="UTF-8" standalone="no"?>
<svg
   version="1.0"
   width="62.553959pt"
   height="71.688835pt"
   viewBox="0 0 62.553959 71.688835"
   preserveAspectRatio="xMidYMid"
   id="svg192"
   xmlns="http://www.w3.org/2000/svg"
   xmlns:svg="http://www.w3.org/2000/svg">
  <defs
     id="defs192" />
  <g
     transform="matrix(0.1,0,0,-0.1,-23.346042,203.88788)"
     fill="#000000"
     stroke="none"
     id="g192">
    <path
       d="m 368,2029 c -11,-6 -17,-21 -17,-37 1,-22 2,-23 6,-5 5,27 28,36 54,22 47,-25 40,-76 -21,-160 -29,-40 -31,-49 -28,-109 3,-56 1,-65 -15,-68 -24,-5 -65,23 -79,53 -8,19 -6,35 13,80 21,52 22,59 8,83 -8,15 -21,27 -29,27 -18,0 -26,-33 -12,-47 6,-6 8,0 4,18 -4,20 -1,25 9,22 24,-8 22,-49 -6,-104 -31,-60 -29,-87 9,-131 24,-28 49,-32 135,-21 13,2 26,-3 28,-9 3,-7 0,-13 -7,-13 -6,0 -8,5 -5,10 13,21 -10,8 -54,-31 -110,-97 -111,-99 -111,-129 0,-31 30,-70 53,-70 6,0 4,5 -5,11 -10,5 -22,18 -28,29 -19,35 7,66 94,110 75,38 81,40 93,24 21,-29 15,-59 -27,-140 -22,-43 -40,-85 -40,-93 0,-12 4,-10 13,5 6,12 24,37 39,55 44,56 75,197 47,214 -17,11 -30,55 -20,73 7,13 12,12 35,-13 14,-15 30,-42 34,-59 l 8,-31 12,35 c 7,19 21,44 32,55 18,19 19,28 12,84 -5,37 -5,58 0,53 9,-9 13,-40 22,-152 2,-25 5,-49 6,-55 2,-5 -2,-21 -9,-35 -11,-23 -11,-22 -7,13 5,39 -8,51 -19,16 -13,-39 24,-156 66,-206 21,-26 40,-56 42,-67 4,-19 4,-19 6,2 0,13 -17,56 -39,96 -40,72 -50,125 -31,155 8,12 22,8 83,-23 108,-56 131,-93 87,-137 -12,-12 -16,-20 -8,-17 7,2 22,16 32,30 18,24 18,30 7,58 -7,16 -31,45 -54,62 -22,17 -56,45 -74,62 -19,17 -32,27 -30,21 2,-5 -1,-10 -7,-10 -5,0 -9,6 -9,12 1,7 -3,10 -8,7 -5,-3 -7,-12 -4,-20 3,-7 0,-16 -6,-20 -6,-4 -8,-3 -4,4 3,5 1,12 -6,14 -7,3 -2,13 12,26 13,12 21,25 17,28 -11,12 13,33 31,27 14,-4 15,-3 2,6 -8,5 -11,13 -7,17 4,4 13,2 19,-4 9,-9 8,-18 -1,-39 -12,-26 -14,-26 -21,-9 -6,20 -7,19 -12,0 -4,-17 2,-23 37,-33 53,-16 89,-7 120,31 32,38 32,81 0,133 -26,42 -32,79 -14,91 19,12 34,-13 19,-33 -13,-17 -13,-17 5,0 18,16 18,18 3,34 -14,13 -20,14 -32,3 -20,-16 -20,-60 -1,-107 21,-50 19,-80 -10,-108 -24,-25 -50,-31 -72,-17 -10,6 -10,16 -1,45 14,46 3,83 -48,158 -39,59 -43,90 -13,120 26,26 51,21 60,-11 l 7,-25 1,27 c 2,54 -60,61 -99,11 -27,-35 -25,-80 6,-157 24,-57 26,-68 14,-95 -17,-42 -30,-39 -30,8 0,73 -61,117 -120,86 -17,-9 -30,-18 -30,-21 0,-3 4,-3 9,0 5,3 6,-16 4,-42 -7,-68 -11,-74 -14,-17 l -2,50 -6,-45 c -7,-51 -21,-58 -35,-17 -8,22 -6,40 8,75 33,88 37,119 22,157 -9,21 -26,39 -41,45 -32,12 -35,12 -57,-1 z m 28,-304 c -4,-10 1,-15 14,-15 13,0 20,-7 20,-19 0,-10 7,-24 16,-32 19,-16 44,-63 44,-84 0,-12 -7,-8 -25,13 -14,17 -25,37 -25,45 0,8 -7,20 -15,27 -9,7 -14,19 -11,27 3,7 1,13 -4,13 -6,0 -10,-8 -10,-17 0,-13 -4,-12 -13,7 -14,26 -12,50 5,50 6,0 8,-7 4,-15 z"
       id="path67" />
  </g>
</svg>
