<?xml version="1.0" encoding="UTF-8" standalone="no"?>
<svg
   version="1.0"
   width="55.599998pt"
   height="72.899986pt"
   viewBox="0 0 55.599998 72.899986"
   preserveAspectRatio="xMidYMid"
   id="svg192"
   xmlns="http://www.w3.org/2000/svg"
   xmlns:svg="http://www.w3.org/2000/svg">
  <defs
     id="defs192" />
  <g
     transform="matrix(0.1,0,0,-0.1,-107.7,203.99997)"
     fill="#000000"
     stroke="none"
     id="g192">
    <path
       d="m 1150,1998 c -22,-38 -25,-56 -25,-150 -1,-98 -3,-109 -24,-132 l -24,-25 34,9 c 19,6 35,10 35,10 1,0 -13,-15 -32,-34 -21,-21 -34,-44 -34,-60 0,-28 9,-33 28,-14 9,9 12,3 12,-28 0,-29 9,-52 36,-89 20,-28 40,-59 44,-70 7,-17 9,-17 9,-2 1,25 14,21 33,-11 9,-15 36,-42 61,-59 l 44,-32 22,25 c 12,14 26,22 31,19 6,-4 17,8 24,26 11,27 15,29 18,13 4,-17 6,-16 18,8 7,14 18,24 24,22 13,-5 46,46 46,71 0,14 3,15 14,6 11,-9 15,-6 21,16 6,26 7,27 20,9 13,-17 14,-17 21,8 3,15 4,40 0,56 -4,20 -1,30 7,30 6,0 1,10 -13,21 l -25,21 29,-7 29,-6 -27,35 c -15,20 -25,40 -21,45 3,6 -1,14 -10,18 -12,7 -13,16 -5,43 15,53 12,155 -6,200 -9,22 -19,40 -23,40 -5,0 -29,-27 -55,-60 -48,-63 -106,-107 -116,-90 -4,6 -17,9 -31,8 -35,-3 -71,25 -118,92 -23,33 -43,60 -45,60 -1,0 -13,-19 -26,-42 z m 102,-112 c 31,-16 34,-34 5,-29 -22,4 -24,2 -20,-21 4,-20 1,-26 -12,-26 -12,0 -16,7 -14,28 1,15 -3,40 -10,55 -15,39 -14,43 9,22 11,-10 30,-23 42,-29 z m 264,5 c -17,-32 -41,-45 -62,-33 -11,6 -6,14 23,34 50,34 57,34 39,-1 z m -20,-66 c -1,-25 -19,-34 -31,-15 -7,11 12,40 25,40 4,0 7,-11 6,-25 z m -276,-32 c 0,-5 -19,-19 -41,-31 -47,-27 -43,-10 5,19 35,21 36,22 36,12 z m 65,-79 c 0,-5 8,-20 17,-34 18,-28 36,-136 19,-110 -6,8 -11,30 -11,48 0,32 -2,33 -29,27 -20,-4 -34,-1 -45,10 -19,20 -22,42 -3,28 6,-6 25,-13 42,-17 29,-7 29,-7 11,13 -19,21 -42,29 -31,11 3,-5 1,-10 -4,-10 -6,0 -11,5 -11,10 0,6 -7,10 -15,10 -26,0 -16,19 13,23 34,5 47,3 47,-9 z m 201,6 c 13,0 24,-4 24,-10 0,-5 -9,-10 -20,-10 -11,0 -20,-4 -20,-10 0,-5 -7,-10 -16,-10 -8,0 -12,5 -9,10 3,6 2,10 -4,10 -19,0 -50,-57 -54,-101 l -4,-44 -1,49 c -2,40 4,58 25,88 16,24 32,37 40,33 8,-3 26,-5 39,-5 z m -11,-60 c -22,-25 -85,-29 -65,-5 7,8 23,15 36,15 12,0 26,5 29,11 4,6 10,8 13,5 3,-3 -3,-15 -13,-26 z m -266,-52 c 11,-11 15,-10 19,1 3,10 11,3 23,-20 l 17,-34 10,25 c 9,24 10,23 16,-15 13,-74 17,-86 25,-80 5,2 11,-2 15,-10 8,-22 -37,-20 -56,3 -9,9 -19,32 -23,49 -4,20 -21,45 -43,63 -20,16 -32,30 -26,30 5,0 16,-6 23,-12 z m 272,-39 c -23,-29 -41,-56 -41,-62 0,-20 -33,-47 -57,-47 h -24 l 20,26 c 12,15 21,41 21,58 0,18 7,41 15,52 14,18 14,17 15,-14 v -34 l 42,36 c 23,20 43,36 46,36 2,0 -15,-23 -37,-51 z m -277,-41 c 17,-18 27,-48 16,-48 -14,0 -40,30 -40,46 0,17 8,18 24,2 z m 276,-48 c -16,-31 -23,-19 -9,16 6,16 13,24 16,17 2,-7 -1,-22 -7,-33 z m -96,-42 c -3,-4 -20,-8 -39,-8 -19,0 -36,4 -39,8 -3,5 15,9 39,9 24,0 42,-4 39,-9 z"
       id="path68" />
  </g>
</svg>
