<?xml version="1.0" encoding="UTF-8" standalone="no"?>
<svg
   version="1.0"
   width="61.062172pt"
   height="73.000214pt"
   viewBox="0 0 61.062172 73.000214"
   preserveAspectRatio="xMidYMid"
   id="svg192"
   xmlns="http://www.w3.org/2000/svg"
   xmlns:svg="http://www.w3.org/2000/svg">
  <defs
     id="defs192" />
  <g
     transform="matrix(0.1,0,0,-0.1,-265.93784,203)"
     fill="#000000"
     stroke="none"
     id="g192">
    <path
       d="m 2931,1994 c -12,-19 -21,-37 -21,-39 0,-2 20,-2 45,0 24,2 47,1 49,-4 3,-4 2,-25 -1,-46 -5,-29 -8,-34 -15,-21 -11,19 -48,22 -48,4 -1,-7 -9,2 -19,21 l -18,34 -7,-28 c -6,-23 -2,-34 24,-59 l 31,-31 37,21 c 51,30 54,71 13,137 -17,26 -35,47 -40,47 -5,0 -18,-16 -30,-36 z"
       id="path73" />
    <path
       d="m 2863,1943 c -8,-2 -13,-22 -13,-44 0,-30 4,-39 18,-39 14,0 17,9 17,45 0,25 -2,45 -5,44 -3,0 -11,-3 -17,-6 z"
       id="path93" />
    <path
       d="m 3042,1905 c 4,-58 24,-66 32,-13 5,29 3,44 -6,50 -24,15 -28,8 -26,-37 z"
       id="path94" />
    <path
       d="m 2779,1903 c -28,-11 -37,-22 -46,-54 -5,-21 -9,-39 -8,-39 2,0 29,10 60,22 52,20 56,23 53,51 -4,37 -12,39 -59,20 z"
       id="path99" />
    <path
       d="m 3090,1901 c 0,-11 -3,-26 -6,-34 -4,-10 7,-19 38,-30 24,-8 51,-18 61,-22 12,-5 16,-3 13,6 -2,8 -7,27 -11,42 -4,20 -16,33 -40,43 -45,19 -55,18 -55,-5 z"
       id="path100" />
    <path
       d="m 2837,1834 c -17,-17 -4,-24 44,-24 36,0 49,4 47,13 -5,13 -79,22 -91,11 z"
       id="path116" />
    <path
       d="m 2991,1827 c -10,-12 -5,-16 26,-19 21,-3 46,-8 56,-13 16,-6 18,-4 15,16 -2,20 -9,24 -44,27 -26,2 -45,-2 -53,-11 z"
       id="path117" />
    <path
       d="m 2778,1813 c -10,-2 -18,-9 -18,-14 0,-15 43,-7 48,9 4,12 0,13 -30,5 z"
       id="path123" />
    <path
       d="m 3110,1810 c 0,-14 26,-23 41,-15 8,6 7,10 -2,16 -19,12 -39,11 -39,-1 z"
       id="path124" />
    <path
       d="m 2735,1777 c -4,-15 -4,-43 -1,-63 6,-29 11,-35 28,-32 12,2 23,9 26,17 3,9 -1,11 -16,7 -15,-5 -21,-1 -25,16 -4,12 -1,28 4,34 7,9 7,19 1,31 -9,16 -11,15 -17,-10 z"
       id="path126" />
    <path
       d="m 2842,1768 c 10,-29 19,-32 53,-19 17,7 88,-5 152,-24 17,-6 25,-1 37,24 9,16 16,31 16,33 0,5 -53,9 -161,12 l -107,2 z"
       id="path127" />
    <path
       d="m 3153,1786 -22,-12 30,-30 c 24,-25 29,-36 24,-57 -4,-15 -12,-24 -18,-20 -6,3 -7,1 -3,-5 11,-18 26,-14 26,7 0,11 7,26 15,34 12,13 12,20 -2,56 -17,45 -18,45 -50,27 z"
       id="path128" />
    <path
       d="m 2780,1771 c 0,-6 5,-13 11,-16 6,-4 8,-14 5,-24 -4,-9 2,-5 13,9 11,13 17,28 15,32 -7,11 -44,10 -44,-1 z"
       id="path133" />
    <path
       d="m 3107,1758 c -2,-7 4,-30 15,-51 16,-32 22,-36 34,-27 17,15 18,36 2,46 -8,5 -9,0 -5,-15 4,-18 3,-20 -9,-10 -8,6 -12,20 -9,29 7,21 -20,48 -28,28 z"
       id="path134" />
    <path
       d="m 2760,1740 c 0,-5 5,-10 10,-10 6,0 10,5 10,10 0,6 -4,10 -10,10 -5,0 -10,-4 -10,-10 z"
       id="path137" />
    <path
       d="m 2878,1727 c -25,-11 -26,-14 -12,-31 14,-20 15,-20 61,3 36,17 43,25 32,32 -19,12 -48,11 -81,-4 z"
       id="path138" />
    <path
       d="m 2986,1722 c -11,-10 -6,-18 24,-35 31,-19 50,-16 50,7 0,13 -65,38 -74,28 z"
       id="path140" />
    <path
       d="m 2686,1711 c -8,-13 -20,-131 -13,-131 3,0 17,20 31,45 19,31 25,52 20,70 -6,25 -27,34 -38,16 z"
       id="path142" />
    <path
       d="m 3210,1653 c 0,-69 9,-93 33,-93 18,0 19,4 13,46 -3,26 -6,53 -6,60 0,7 -9,18 -20,24 -19,10 -20,8 -20,-37 z"
       id="path144" />
    <path
       d="m 2915,1678 c -11,-6 -22,-12 -23,-14 -2,-1 13,-32 33,-69 21,-36 38,-65 40,-63 1,2 21,29 44,60 l 41,57 -29,16 c -44,22 -50,19 -54,-32 l -3,-48 -2,53 c -2,55 -10,61 -47,40 z"
       id="path145" />
    <path
       d="m 2762,1661 c -8,-5 -12,-22 -10,-46 l 3,-38 22,47 c 22,45 17,58 -15,37 z"
       id="path146" />
    <path
       d="m 3140,1639 c 0,-23 39,-79 55,-79 13,0 13,4 2,31 -14,36 -57,71 -57,48 z"
       id="path150" />
    <path
       d="m 2833,1616 c -26,-32 -26,-35 -14,-55 12,-19 44,30 39,61 -3,22 -3,22 -25,-6 z"
       id="path152" />
    <path
       d="m 2712,1610 c -10,-17 -10,-20 3,-20 8,0 15,9 15,20 0,11 -1,20 -3,20 -1,0 -8,-9 -15,-20 z"
       id="path153" />
    <path
       d="m 3032,1600 c -12,-16 -22,-35 -22,-43 0,-20 21,-37 47,-37 18,0 23,6 23,24 0,14 -4,28 -10,31 -5,3 -10,11 -10,18 0,6 14,-4 30,-23 28,-32 30,-33 24,-10 -6,25 -41,70 -54,70 -3,0 -16,-13 -28,-30 z"
       id="path154" />
    <path
       d="m 2876,1604 c -14,-37 0,-84 25,-84 17,0 19,41 4,70 -18,34 -21,36 -29,14 z"
       id="path156" />
    <path
       d="m 2683,1570 c -25,-10 -33,-60 -10,-60 19,0 60,47 52,59 -7,13 -12,13 -42,1 z"
       id="path159" />
    <path
       d="m 2840,1545 c -8,-9 -8,-15 -2,-15 12,0 26,19 19,26 -2,2 -10,-2 -17,-11 z"
       id="path161" />
    <path
       d="m 3166,1519 c -20,-33 -14,-53 7,-24 13,16 14,16 20,1 8,-19 -1,-46 -15,-46 -6,0 -5,-6 2,-15 11,-13 15,-13 41,1 37,19 36,27 -5,60 -31,25 -33,29 -18,41 15,10 15,12 2,13 -9,0 -24,-14 -34,-31 z"
       id="path163" />
    <path
       d="m 3220,1536 c -7,-9 -3,-19 13,-34 26,-24 37,-20 37,14 0,25 -34,39 -50,20 z"
       id="path164" />
    <path
       d="m 2740,1532 c 0,-10 22,-32 32,-32 4,0 8,9 8,20 0,13 -7,20 -20,20 -11,0 -20,-4 -20,-8 z"
       id="path165" />
    <path
       d="m 2697,1506 -27,-22 25,-23 c 18,-15 33,-20 47,-15 14,4 17,8 8,14 -6,4 -15,21 -18,38 l -7,30 z"
       id="path168" />
    <path
       d="m 2834,1509 c -3,-6 0,-17 8,-25 12,-12 17,-12 32,-1 11,8 16,19 12,25 -9,15 -43,15 -52,1 z"
       id="path169" />
    <path
       d="m 3050,1501 c 0,-5 6,-14 13,-20 10,-8 19,-7 33,5 16,14 17,15 2,10 -10,-3 -18,-1 -18,4 0,6 -7,10 -15,10 -8,0 -15,-4 -15,-9 z"
       id="path170" />
    <path
       d="m 2882,1472 c -39,-37 -40,-54 -4,-82 19,-16 21,-20 7,-15 -36,13 -80,15 -94,6 -12,-8 -12,-11 1,-24 11,-11 18,-13 26,-5 13,13 38,-4 47,-33 5,-13 16,-19 37,-19 26,0 29,2 18,15 -9,11 -10,25 -2,57 7,26 7,47 2,53 -6,7 -6,15 1,22 6,6 6,19 1,32 l -8,23 z"
       id="path172" />
    <path
       d="m 3030,1467 c 0,-13 7,-30 15,-37 13,-11 15,-9 15,13 0,13 -7,30 -15,37 -13,11 -15,9 -15,-13 z"
       id="path173" />
    <path
       d="m 2802,1443 c -13,-43 -11,-47 18,-38 17,5 20,13 18,38 -4,44 -23,44 -36,0 z"
       id="path174" />
    <path
       d="m 3082,1458 c -17,-17 -15,-33 3,-18 27,22 26,4 -1,-21 l -26,-24 -19,24 c -24,30 -31,24 -20,-15 6,-21 4,-41 -5,-63 -18,-42 -18,-41 9,-41 14,0 28,11 39,30 11,19 13,30 6,30 -6,0 -9,3 -6,6 4,3 17,-2 31,-11 20,-13 27,-14 33,-3 10,16 7,53 -8,91 -12,30 -18,33 -36,15 z"
       id="path176" />
    <path
       d="m 2767,1339 c -24,-14 -21,-26 8,-31 25,-5 32,6 17,29 -5,8 -13,8 -25,2 z"
       id="path178" />
    <path
       d="m 3136,1343 c -14,-14 -4,-30 18,-30 16,0 23,4 19,12 -5,16 -28,26 -37,18 z"
       id="path179" />
    <path
       d="m 2818,1334 c -11,-10 3,-34 19,-34 8,0 13,7 11,17 -3,18 -20,27 -30,17 z"
       id="path180" />
    <path
       d="m 3077,1334 c -14,-14 -7,-35 11,-32 9,2 17,10 17,17 0,16 -18,25 -28,15 z"
       id="path181" />
  </g>
</svg>
