<?xml version="1.0" encoding="UTF-8" standalone="no"?>
<svg
   version="1.0"
   width="66.865746pt"
   height="72.213982pt"
   viewBox="0 0 66.865746 72.213982"
   preserveAspectRatio="xMidYMid"
   id="svg192"
   xmlns="http://www.w3.org/2000/svg"
   xmlns:svg="http://www.w3.org/2000/svg">
  <defs
     id="defs192" />
  <g
     transform="matrix(0.1,0,0,-0.1,-344.10318,202.91397)"
     fill="#000000"
     stroke="none"
     id="g192">
    <path
       d="m 3641,2020 c 25,-4 60,-15 77,-24 37,-19 172,-134 172,-147 0,-4 -21,11 -47,36 -27,24 -66,54 -88,66 -36,19 -32,15 28,-41 37,-34 67,-65 67,-70 0,-4 -15,6 -33,24 -101,94 -137,127 -137,121 0,-18 28,-56 83,-112 34,-35 56,-63 50,-63 -6,0 -23,15 -37,33 -33,41 -33,30 -1,-33 14,-27 25,-52 25,-54 0,-3 -19,-5 -42,-4 -25,1 -62,-7 -90,-19 -39,-18 -49,-28 -59,-61 -15,-51 -1,-95 51,-160 36,-47 146,-129 157,-119 2,3 -29,42 -71,87 -67,72 -75,84 -72,113 3,18 5,35 5,40 1,4 7,7 15,7 20,0 30,38 16,55 -10,12 -10,15 0,15 7,0 10,7 6,15 -3,8 -1,15 4,15 16,0 22,-20 10,-35 -9,-11 -5,-18 19,-36 16,-12 27,-28 24,-35 -4,-11 6,-14 43,-14 31,0 60,-7 77,-19 30,-19 60,-67 54,-85 -2,-6 4,-19 14,-28 15,-14 18,-14 23,-2 3,8 12,14 20,14 18,0 30,31 15,41 -7,4 -19,5 -27,1 -10,-3 -13,-1 -8,6 5,8 1,10 -10,5 -14,-5 -16,-3 -11,11 4,10 3,15 -3,11 -13,-8 -92,55 -87,69 2,6 -6,19 -17,29 -25,22 -5,13 49,-24 22,-15 51,-39 65,-54 26,-28 87,-58 100,-50 18,11 49,75 37,76 -7,0 -20,2 -29,4 -23,4 -35,-15 -17,-26 9,-6 10,-9 2,-9 -18,0 -26,19 -14,34 8,9 4,19 -14,36 -22,21 -25,30 -20,67 3,28 1,42 -5,38 -6,-3 -10,-2 -10,4 0,19 -172,240 -199,255 -13,8 -13,6 2,-11 10,-11 34,-47 53,-79 l 35,-59 -68,67 c -72,70 -112,89 -188,87 l -40,-1 z m 293,-236 c 3,-8 9,-13 14,-10 4,2 6,-14 4,-35 -5,-45 -20,-47 -40,-6 -7,15 -18,27 -24,27 -6,0 -9,2 -6,5 3,3 18,1 33,-5 l 28,-11 -17,26 c -9,14 -12,25 -7,25 5,0 12,-7 15,-16 z m 33,-46 c -3,-8 -6,-5 -6,6 -1,11 2,17 5,13 3,-3 4,-12 1,-19 z m -97,-18 c 8,-5 11,-10 5,-10 -5,0 -17,5 -25,10 -8,5 -10,10 -5,10 6,0 17,-5 25,-10 z m 50,-46 c 0,-2 -7,-4 -15,-4 -8,0 -15,4 -15,10 0,5 7,7 15,4 8,-4 15,-8 15,-10 z m 100,-19 c 7,-9 8,-15 2,-15 -5,0 -12,7 -16,15 -3,8 -4,15 -2,15 2,0 9,-7 16,-15 z"
       id="path74" />
    <path
       d="m 3595,1961 c -11,-5 -29,-19 -40,-32 l -20,-23 29,22 c 19,15 43,22 72,22 24,0 44,5 44,10 0,12 -56,12 -85,1 z"
       id="path87" />
    <path
       d="m 3663,1904 c 15,-8 27,-19 27,-24 0,-12 49,-64 55,-58 14,14 -19,66 -51,81 -43,21 -69,22 -31,1 z"
       id="path101" />
    <path
       d="m 3563,1857 c -51,-15 -65,-27 -30,-27 50,0 32,-32 -36,-65 -60,-29 -61,-30 -29,-33 40,-4 41,-15 2,-44 -33,-24 -38,-38 -14,-38 14,0 15,-8 9,-47 -6,-41 -5,-45 8,-34 13,11 17,6 22,-33 4,-25 13,-46 19,-46 7,0 20,-16 29,-36 10,-19 21,-33 26,-30 4,3 23,-10 41,-29 44,-46 117,-75 203,-82 l 72,-6 -20,23 c -11,12 -56,46 -100,75 -159,103 -219,213 -165,303 22,35 72,62 116,62 20,0 25,4 20,16 -3,9 -6,18 -6,20 0,11 -70,1 -106,-15 -49,-22 -80,-60 -95,-113 -6,-22 -13,-38 -15,-35 -3,3 0,24 6,48 16,60 70,109 152,138 19,7 26,15 22,26 -7,18 -68,19 -131,2 z"
       id="path112" />
    <path
       d="m 3750,1790 c 6,-11 15,-20 20,-20 14,0 1,28 -16,34 -12,4 -12,2 -4,-14 z"
       id="path125" />
  </g>
</svg>
