<?xml version="1.0" encoding="UTF-8" standalone="no"?>
<svg
   version="1.0"
   width="69.981995pt"
   height="68.671371pt"
   viewBox="0 0 69.981995 68.671371"
   preserveAspectRatio="xMidYMid"
   id="svg192"
   xmlns="http://www.w3.org/2000/svg"
   xmlns:svg="http://www.w3.org/2000/svg">
  <defs
     id="defs192" />
  <g
     transform="matrix(0.1,0,0,-0.1,-422.35001,199.6698)"
     fill="#000000"
     stroke="none"
     id="g192">
    <path
       d="m 4818,1970 c -3,-20 -24,-65 -46,-100 -22,-36 -52,-89 -68,-119 -33,-63 -43,-69 -72,-44 -25,21 -44,100 -21,89 8,-4 4,1 -8,12 l -22,19 22,11 c 12,6 16,11 9,11 -7,1 -10,6 -6,12 5,8 1,8 -14,0 -35,-19 -37,-12 -6,20 l 29,31 -35,-21 c -45,-27 -70,-29 -47,-3 10,10 17,27 17,38 -1,18 -1,18 -12,-1 -6,-11 -21,-32 -34,-46 -25,-26 -45,-124 -21,-100 15,15 47,14 47,-1 0,-7 -9,-24 -20,-38 -38,-49 -19,-120 49,-188 37,-36 42,-47 39,-79 -2,-30 -10,-42 -38,-61 -30,-20 -44,-23 -97,-20 -35,2 -63,2 -63,0 0,-7 71,-32 97,-34 16,-1 31,-6 34,-11 4,-6 20,-3 38,6 31,16 32,16 25,-6 -6,-20 -5,-20 10,-8 10,8 24,28 32,45 l 14,31 -6,-40 c -3,-22 -11,-47 -17,-55 -10,-13 -10,-13 4,-2 33,26 43,69 29,126 -7,28 -16,56 -20,61 -5,6 -6,23 -3,39 l 6,29 24,-39 c 23,-36 26,-27 8,21 -7,16 -6,18 6,8 7,-7 29,-12 49,-12 20,1 26,3 14,6 -23,4 -85,63 -67,63 6,0 16,-7 23,-15 13,-16 68,-29 97,-23 10,3 -12,14 -55,28 -53,18 -71,28 -67,38 5,13 3,13 -12,1 -10,-7 5,12 33,42 50,53 66,77 99,149 l 16,35 -20,-25 c -25,-30 -27,-20 -5,22 12,23 18,27 24,18 10,-17 23,44 18,86 -3,29 -3,28 -10,-6 z"
       id="path80" />
    <path
       d="m 4281,1943 c -2,-77 79,-207 177,-285 21,-17 22,-17 22,0 0,9 -21,36 -45,60 -25,24 -45,48 -45,53 0,5 -16,33 -36,62 -31,46 -34,48 -29,22 l 6,-30 -14,25 c -8,14 -15,39 -15,55 0,17 -5,41 -11,55 -9,23 -10,21 -10,-17 z"
       id="path84" />
    <path
       d="m 4891,1949 c -1,-9 -18,-42 -39,-75 -58,-90 -58,-92 -9,-44 45,43 66,91 54,122 -4,9 -6,8 -6,-3 z"
       id="path88" />
    <path
       d="m 4240,1906 c 9,-39 42,-97 67,-117 9,-8 -3,23 -27,69 -24,45 -44,82 -45,82 -2,0 1,-15 5,-34 z"
       id="path98" />
    <path
       d="m 4226,1860 c 8,-34 51,-100 69,-107 8,-3 15,-10 15,-15 0,-13 -48,18 -73,46 -18,20 -18,19 0,-14 11,-19 37,-45 59,-58 l 39,-24 -44,5 c -36,5 -41,3 -30,-8 14,-12 123,-28 132,-19 3,3 -26,37 -64,75 -38,39 -78,87 -89,107 -15,26 -19,30 -14,12 z"
       id="path109" />
    <path
       d="m 4840,1800 c -36,-36 -56,-58 -46,-50 18,14 19,14 8,-7 -7,-12 -20,-27 -30,-32 -26,-15 57,-1 89,15 31,15 45,31 58,66 9,25 6,23 -29,-12 -22,-22 -47,-40 -57,-40 -11,0 -3,12 24,38 34,31 63,79 51,85 -1,1 -32,-27 -68,-63 z"
       id="path113" />
    <path
       d="m 4893,1709 c -5,-5 -38,-14 -73,-19 -81,-11 -96,-26 -22,-22 61,3 98,16 106,38 6,17 4,18 -11,3 z"
       id="path143" />
    <path
       d="m 4803,1653 c -87,-4 -108,-16 -45,-27 62,-10 89,-7 113,14 13,10 22,19 19,18 -3,-1 -42,-4 -87,-5 z"
       id="path147" />
    <path
       d="m 4264,1641 c 9,-14 82,-24 118,-15 29,6 30,8 13,15 -28,11 -137,11 -131,0 z"
       id="path151" />
    <path
       d="m 4420,1620 c -8,-6 -35,-10 -60,-10 -33,0 -41,-3 -30,-10 22,-14 73,-12 96,4 22,16 16,30 -6,16 z"
       id="path155" />
    <path
       d="m 4428,1591 c -32,-19 -37,-31 -8,-24 19,5 46,31 39,37 -2,1 -16,-4 -31,-13 z"
       id="path157" />
    <path
       d="m 4458,1572 c -31,-34 -31,-35 -5,-19 17,11 27,13 27,6 0,-9 3,-9 14,0 11,9 19,5 40,-19 28,-34 34,-60 14,-60 -9,0 -8,-3 2,-9 43,-28 29,41 -21,95 l -37,42 z"
       id="path158" />
  </g>
</svg>
