<?xml version="1.0" encoding="UTF-8" standalone="no"?>
<svg
   version="1.0"
   width="64.139374pt"
   height="73.388878pt"
   viewBox="0 0 64.139374 73.388878"
   preserveAspectRatio="xMidYMid"
   id="svg192"
   xmlns="http://www.w3.org/2000/svg"
   xmlns:svg="http://www.w3.org/2000/svg">
  <defs
     id="defs192" />
  <g
     transform="matrix(0.1,0,0,-0.1,-505.70001,203.56686)"
     fill="#000000"
     stroke="none"
     id="g192">
    <path
       d="m 5157,2034 c -18,-18 84,-134 132,-149 11,-3 21,-10 21,-15 0,-5 -31,6 -70,23 -38,17 -73,27 -77,23 -4,-4 13,-27 38,-51 52,-49 132,-79 196,-73 l 38,3 -35,17 c -33,16 -33,17 -6,11 l 30,-6 -22,31 c -52,72 -226,204 -245,186 z m 198,-155 c 11,-12 -8,-1 -42,25 -35,26 -63,49 -63,52 0,9 84,-53 105,-77 z m 2,-45 c -3,-3 -12,-4 -19,-1 -8,3 -5,6 6,6 11,1 17,-2 13,-5 z"
       id="path69" />
    <path
       d="m 5430,1965 c -8,-9 -21,-13 -36,-9 -20,5 -24,2 -24,-15 0,-14 6,-21 20,-21 11,0 20,-6 20,-14 0,-8 9,-21 20,-29 15,-10 19,-21 15,-38 -3,-13 -2,-45 3,-70 5,-26 5,-54 1,-62 -16,-28 -137,-77 -193,-78 -28,-1 -42,-3 -31,-6 30,-7 43,-23 20,-23 -20,-1 -20,-1 -1,-15 19,-15 19,-15 -5,-16 -22,0 -22,-1 -4,-9 18,-7 18,-8 -7,-15 -15,-4 -47,-5 -70,-3 -29,3 -52,-1 -72,-13 l -29,-17 40,5 c 41,5 153,-13 153,-26 0,-4 -5,-12 -12,-19 -9,-9 -8,-12 6,-12 16,0 16,-3 -5,-37 -12,-21 -29,-43 -37,-50 -14,-11 -42,-59 -42,-71 0,-3 31,25 70,62 38,37 74,65 79,62 5,-4 12,-2 16,4 3,5 11,10 17,10 7,0 6,-6 -2,-15 -11,-13 -9,-14 17,-3 90,39 128,87 139,175 9,75 34,147 47,134 6,-6 21,-11 32,-11 34,0 116,31 109,41 -4,6 -10,6 -18,0 -25,-21 -92,-24 -120,-6 -14,10 -26,22 -26,27 0,5 12,0 26,-11 35,-28 45,-27 79,9 23,24 36,30 55,26 24,-5 24,-5 3,6 -19,9 -29,7 -63,-16 -22,-14 -42,-26 -45,-26 -3,0 -24,12 -48,27 -32,20 -39,22 -27,7 14,-17 13,-18 -1,-6 -20,15 -14,66 7,58 15,-6 27,9 30,38 1,12 5,30 9,42 5,16 0,23 -20,32 -36,16 -80,15 -95,-3 z"
       id="path85" />
  </g>
</svg>
