<?xml version="1.0" encoding="UTF-8" standalone="no"?>
<svg
   version="1.0"
   width="45.556pt"
   height="73.125618pt"
   viewBox="0 0 45.556 73.125618"
   preserveAspectRatio="xMidYMid"
   id="svg192"
   xmlns="http://www.w3.org/2000/svg"
   xmlns:svg="http://www.w3.org/2000/svg">
  <defs
     id="defs192" />
  <g
     transform="matrix(0.1,0,0,-0.1,-677.23438,203.5256)"
     fill="#000000"
     stroke="none"
     id="g192">
    <path
       d="m 7003,2025 c 0,-8 7,-15 16,-15 34,-1 99,-39 107,-62 7,-22 7,-22 15,-3 7,17 8,16 8,-7 1,-31 -10,-36 -29,-13 -7,8 -16,13 -20,10 -5,-3 -21,5 -37,18 -51,41 -82,57 -112,57 -22,0 -29,-4 -25,-14 3,-8 -7,-18 -25,-26 -17,-7 -28,-16 -26,-21 3,-4 -4,-13 -16,-19 -11,-7 -18,-14 -15,-17 3,-3 -1,-11 -10,-17 -8,-6 -15,-23 -16,-36 -1,-14 -5,-29 -9,-35 -3,-5 -3,-19 2,-30 6,-17 8,-17 8,-2 1,21 10,22 39,1 14,-9 22,-25 21,-42 0,-15 -3,-21 -6,-14 -2,6 -9,12 -14,12 -12,0 -12,-37 1,-45 12,-8 13,-25 2,-25 -5,0 -17,17 -28,38 -10,20 -20,39 -21,41 -1,1 -11,-4 -23,-12 -15,-10 -18,-16 -8,-19 11,-4 10,-8 -1,-22 -12,-14 -12,-16 3,-10 12,5 15,2 10,-9 -4,-12 0,-14 18,-10 19,5 21,3 11,-8 -17,-17 -16,-38 2,-73 8,-15 15,-35 15,-43 0,-23 33,-80 38,-65 3,10 11,7 28,-9 13,-12 24,-27 24,-33 1,-21 110,-122 110,-102 0,3 19,-5 43,-18 l 43,-22 43,37 c 52,47 63,84 49,177 -5,37 -11,101 -14,142 -4,63 -2,77 13,87 13,10 14,16 5,25 -10,10 -18,7 -38,-15 -27,-30 -40,-34 -47,-14 -4,10 -6,10 -6,0 -2,-24 -27,-13 -71,32 -24,25 -47,45 -52,45 -4,0 -19,-10 -34,-23 l -27,-24 33,-23 c 18,-13 35,-19 39,-13 3,6 16,4 31,-4 l 25,-13 h -24 c -18,0 -22,-3 -14,-11 7,-7 23,-7 54,1 35,10 45,9 53,-2 6,-8 19,-12 29,-10 11,2 17,-3 17,-13 0,-12 -5,-15 -16,-11 -13,5 -14,4 -6,-7 7,-8 9,-17 5,-20 -10,-11 -51,-8 -58,3 -3,6 -15,10 -25,10 -10,0 -20,5 -22,12 -2,6 -17,-6 -33,-28 -46,-62 -47,-62 -40,-13 7,44 5,49 -28,80 -48,46 -55,72 -22,87 28,13 30,20 13,57 -10,22 -9,28 3,36 19,12 117,5 131,-9 7,-7 29,-12 50,-12 45,0 49,-14 17,-69 l -21,-36 22,28 c 12,15 27,24 32,21 7,-5 8,2 3,22 -4,16 -8,44 -8,63 0,34 -45,95 -70,97 -7,0 -25,7 -42,16 -50,26 -72,30 -72,13 z m 56,-81 c 17,-14 35,-23 41,-19 5,3 7,0 4,-9 -4,-11 -14,-9 -48,14 -26,18 -59,30 -86,33 l -45,4 52,1 c 42,2 57,-3 82,-24 z m -56,-181 c -7,-2 -19,-2 -25,0 -7,3 -2,5 12,5 14,0 19,-2 13,-5 z m -73,-140 c 0,-21 -3,-24 -9,-14 -5,8 -7,20 -4,28 8,21 13,15 13,-14 z m 216,3 c 22,6 44,-29 44,-69 0,-19 -2,-18 -19,9 -25,40 -37,48 -58,35 -16,-9 -14,-10 10,-11 41,0 32,-20 -10,-21 -50,-2 -53,-2 -85,-18 -43,-22 -80,5 -63,47 6,15 8,14 16,-6 6,-15 13,-21 21,-16 7,5 33,20 57,36 29,18 48,24 56,18 6,-5 20,-7 31,-4 z m 24,-106 c 15,-16 30,-40 33,-52 6,-22 6,-22 -13,2 l -20,25 v -26 c 0,-35 -27,-59 -37,-33 -4,11 -15,31 -26,46 -15,20 -22,24 -32,15 -7,-7 -10,-19 -8,-27 3,-10 -1,-8 -11,4 -11,13 -16,15 -16,6 0,-7 -2,-11 -5,-8 -3,3 -1,17 4,32 8,20 17,26 41,26 18,0 29,4 25,10 -15,24 40,7 65,-20 z"
       id="path70" />
  </g>
</svg>
