<?xml version="1.0" encoding="UTF-8" standalone="no"?>
<svg
   version="1.0"
   width="56.400055pt"
   height="73.386475pt"
   viewBox="0 0 56.400055 73.386475"
   preserveAspectRatio="xMidYMid"
   id="svg192"
   xmlns="http://www.w3.org/2000/svg"
   xmlns:svg="http://www.w3.org/2000/svg">
  <defs
     id="defs192" />
  <g
     transform="matrix(0.1,0,0,-0.1,-752.69995,203.38647)"
     fill="#000000"
     stroke="none"
     id="g192">
    <path
       d="m 7759,2021 c -57,-22 -86,-42 -106,-73 -12,-16 -6,-14 18,9 19,18 57,39 84,48 44,13 56,13 102,0 28,-8 67,-27 85,-42 l 33,-27 -24,26 c -22,25 -81,58 -126,71 -11,3 -41,-2 -66,-12 z"
       id="path71" />
    <path
       d="m 7671,1934 c -12,-15 -21,-34 -21,-42 0,-18 0,-18 28,31 25,43 22,48 -7,11 z"
       id="path89" />
    <path
       d="m 7941,1915 c 12,-19 23,-35 26,-35 2,0 3,3 1,8 -22,45 -33,62 -39,62 -5,0 1,-16 12,-35 z"
       id="path95" />
    <path
       d="m 7682,1888 c -16,-21 -54,-100 -49,-104 2,-2 12,5 22,16 10,11 15,20 11,20 -3,0 3,18 14,40 20,40 21,51 2,28 z"
       id="path103" />
    <path
       d="m 7928,1867 c 28,-49 28,-51 -5,-30 -36,21 -19,5 31,-32 l 39,-28 -28,51 c -16,29 -35,58 -44,65 -10,8 -7,-1 7,-26 z"
       id="path104" />
    <path
       d="m 7981,1893 c -1,-11 29,-110 45,-148 6,-15 -5,-11 -47,19 -45,32 -48,33 -14,5 22,-18 59,-53 83,-77 l 43,-43 -32,63 c -18,35 -43,92 -55,128 -13,36 -23,60 -23,53 z"
       id="path105" />
    <path
       d="m 7611,1840 c -7,-25 -29,-76 -48,-115 l -36,-70 59,54 c 33,30 64,59 69,64 6,5 1,5 -11,-1 -11,-6 -26,-18 -34,-26 -26,-32 -28,-14 -4,45 14,34 24,69 22,78 -2,9 -9,-4 -17,-29 z"
       id="path111" />
    <path
       d="m 7689,1833 c -13,-17 -13,-17 6,-3 11,8 22,16 24,17 2,2 0,3 -6,3 -6,0 -17,-8 -24,-17 z"
       id="path115" />
    <path
       d="m 7760,1817 c -66,-39 -217,-165 -223,-185 -4,-17 41,-92 79,-131 2,-2 1,14 -2,35 l -4,39 14,-36 c 33,-83 58,-119 116,-164 35,-27 67,-44 75,-41 8,3 40,24 70,47 54,41 62,53 113,169 14,33 16,1 1,-37 -12,-33 -6,-26 45,44 21,29 36,60 34,69 -2,9 -33,43 -69,76 l -66,58 -58,-35 c -33,-19 -66,-35 -74,-35 -9,1 -41,14 -71,31 -30,16 -46,29 -35,28 35,-2 46,1 40,10 -5,10 40,51 56,51 5,0 9,-22 9,-50 0,-27 2,-50 4,-50 18,0 115,54 110,61 -7,13 -106,69 -119,68 -5,0 -26,-10 -45,-22 z m -16,-123 c 53,-9 54,-24 2,-24 -36,0 -48,4 -57,22 -9,18 -9,20 4,15 9,-3 32,-9 51,-13 z m 183,-9 c -5,-10 -20,-15 -52,-15 -59,0 -58,14 3,26 54,11 57,10 49,-11 z m -117,-35 c 48,0 95,6 115,14 34,14 35,14 35,-7 0,-12 -7,-44 -15,-72 l -15,-50 20,24 c 11,13 20,19 20,13 0,-21 -41,-141 -50,-147 -13,-8 -13,-5 5,45 8,23 15,45 15,47 0,3 -18,-11 -39,-30 -80,-72 -105,-72 -183,1 -54,50 -56,47 -21,-38 12,-30 12,-33 0,-20 -14,15 -57,133 -57,154 1,6 8,-1 16,-16 22,-41 34,-34 18,10 -7,20 -13,51 -14,69 v 32 l 35,-15 c 20,-8 67,-14 115,-14 z"
       id="path118" />
    <path
       d="m 7858,1643 -48,-4 v -101 -100 l 28,17 c 53,34 69,56 82,113 7,31 15,63 17,70 3,7 -2,11 -13,10 -11,-1 -40,-3 -66,-5 z"
       id="path120" />
    <path
       d="m 7574,1507 c 16,-20 30,-37 33,-37 7,0 -36,58 -49,66 -7,4 1,-9 16,-29 z"
       id="path166" />
    <path
       d="m 7594,1434 c 15,-9 49,-31 74,-51 25,-19 67,-45 94,-59 l 48,-24 57,32 c 32,17 73,45 92,61 19,16 48,36 65,44 l 31,14 -34,-7 c -19,-3 -62,-28 -95,-54 -34,-26 -75,-54 -92,-63 -30,-16 -32,-15 -85,19 -30,20 -65,46 -79,59 -25,24 -71,45 -93,45 -7,-1 1,-8 17,-16 z"
       id="path177" />
  </g>
</svg>
