<?xml version="1.0" encoding="UTF-8" standalone="no"?>
<svg
   version="1.0"
   width="70.431244pt"
   height="72.06221pt"
   viewBox="0 0 70.431244 72.06221"
   preserveAspectRatio="xMidYMid"
   id="svg192"
   xmlns="http://www.w3.org/2000/svg"
   xmlns:svg="http://www.w3.org/2000/svg">
  <defs
     id="defs192" />
  <g
     transform="matrix(0.1,0,0,-0.1,-825.81921,203.79361)"
     fill="#000000"
     stroke="none"
     id="g192">
    <path
       d="m 8305,2029 c 78,-30 118,-87 96,-136 -6,-14 -10,-26 -9,-27 27,-11 43,-28 42,-45 0,-17 5,-21 29,-21 26,0 29,-3 25,-28 -3,-24 -1,-27 21,-27 39,0 41,-34 2,-41 -17,-4 -28,-10 -26,-14 3,-5 -4,-11 -15,-15 -11,-3 -20,-13 -20,-21 0,-8 -11,-20 -25,-26 -21,-9 -28,-8 -46,8 -19,17 -20,25 -14,69 17,106 4,155 -45,168 -37,10 -82,-48 -52,-67 5,-3 8,5 8,17 -1,17 6,23 26,25 39,5 52,-27 43,-97 -13,-95 -9,-124 20,-148 26,-23 75,-31 75,-13 0,6 4,10 9,10 6,0 9,-8 9,-17 -1,-10 2,-37 6,-60 7,-38 5,-45 -19,-67 l -27,-25 27,-44 c 14,-25 24,-51 23,-58 -2,-11 9,-13 47,-11 59,4 80,18 39,27 -44,9 -57,19 -67,49 -8,25 -5,33 33,71 24,25 45,57 49,76 6,30 11,34 39,34 22,0 32,4 32,15 0,9 6,25 14,35 13,18 13,14 9,-30 -3,-28 -10,-58 -15,-69 -8,-15 -2,-26 31,-60 28,-29 41,-50 41,-69 0,-19 4,-26 12,-21 8,5 9,1 5,-12 -7,-18 -7,-18 8,0 11,15 15,16 16,5 0,-8 4,-6 11,7 8,17 3,34 -25,87 l -35,65 29,44 c 41,61 38,88 -16,148 -48,54 -55,82 -29,119 22,31 9,43 -87,82 -41,16 -60,27 -44,23 17,-4 44,-8 61,-9 30,-1 78,-29 102,-58 9,-11 8,-18 -8,-32 -34,-31 -26,-72 25,-126 55,-59 58,-90 15,-144 -38,-47 -38,-59 0,-75 40,-17 57,-38 37,-46 -9,-3 -13,-12 -11,-19 3,-8 13,-11 21,-8 12,5 14,3 8,-8 -8,-12 -6,-12 8,0 30,24 22,72 -18,104 -32,25 -47,57 -27,57 20,0 52,43 52,69 0,15 8,35 18,44 17,15 20,15 44,-8 14,-13 29,-21 32,-17 4,3 -3,14 -16,24 -25,19 -9,24 24,7 40,-22 41,34 1,82 -10,12 -10,18 0,29 9,10 9,11 0,6 -7,-4 -22,3 -33,14 -11,11 -25,18 -30,15 -4,-3 -20,-1 -34,5 -34,13 -33,5 2,-15 l 27,-15 -37,6 c -43,7 -73,-5 -42,-17 17,-7 17,-8 -3,-8 -13,-1 -32,-10 -42,-20 -11,-11 -22,-17 -25,-14 -14,15 -4,56 19,77 14,13 25,28 25,33 0,15 -53,80 -85,104 -26,20 -28,20 -12,3 15,-19 23,-44 13,-44 -2,0 -36,14 -74,30 -39,17 -77,30 -84,30 -7,0 13,-11 45,-24 57,-24 78,-36 62,-36 -21,0 -144,55 -135,60 14,8 -79,30 -155,35 -53,5 -57,4 -30,-6 z m 278,-146 c -7,-2 -19,-2 -25,0 -7,3 -2,5 12,5 14,0 19,-2 13,-5 z m 50,-60 c -13,-2 -33,-2 -45,0 -13,2 -3,4 22,4 25,0 35,-2 23,-4 z m 213,-24 c 3,-6 1,-16 -5,-22 -9,-9 -14,-8 -21,3 -9,15 -4,30 10,30 5,0 12,-5 16,-11 z m -199,-25 c -3,-3 -12,-4 -19,-1 -8,3 -5,6 6,6 11,1 17,-2 13,-5 z m 113,-9 c -7,-9 -15,-13 -17,-11 -7,7 7,26 19,26 6,0 6,-6 -2,-15 z m 165,-5 c 3,-5 2,-10 -4,-10 -5,0 -13,5 -16,10 -3,6 -2,10 4,10 5,0 13,-4 16,-10 z m -151,-24 c -3,-9 -10,-13 -16,-10 -5,3 -4,12 3,20 15,18 22,13 13,-10 z m 56,20 c 0,-2 -7,-7 -16,-10 -8,-3 -12,-2 -9,4 6,10 25,14 25,6 z m -86,-71 c 26,-39 19,-38 -24,5 -22,22 -40,42 -40,45 0,11 49,-28 64,-50 z m 80,19 c -3,-48 -14,-57 -14,-12 0,29 6,48 15,48 1,0 1,-16 -1,-36 z m -184,-19 c 17,-9 30,-20 30,-26 0,-6 -15,-2 -32,9 -18,11 -40,22 -48,25 -12,4 -11,6 3,6 10,1 31,-6 47,-14 z"
       id="path72" />
    <path
       d="m 8427,1562 c -5,-6 -6,-12 -2,-12 3,0 1,-9 -5,-20 -6,-10 -30,-28 -54,-39 -72,-31 -94,-102 -46,-146 37,-34 138,1 103,36 -8,8 -11,6 -10,-7 2,-23 -46,-32 -69,-13 -34,28 -2,89 47,89 31,0 45,10 52,35 8,27 -6,94 -16,77 z"
       id="path160" />
  </g>
</svg>
