<?xml version="1.0" encoding="UTF-8" standalone="no"?>
<svg
   version="1.0"
   width="73.723114pt"
   height="70.919769pt"
   viewBox="0 0 73.723114 70.919769"
   preserveAspectRatio="xMidYMid"
   id="svg192"
   xmlns="http://www.w3.org/2000/svg"
   xmlns:svg="http://www.w3.org/2000/svg">
  <defs
     id="defs192" />
  <g
     transform="matrix(0.1,0,0,-0.1,-905.09583,201.61792)"
     fill="#000000"
     stroke="none"
     id="g192">
    <path
       d="m 9306,1984 c -36,-33 -38,-38 -34,-79 5,-38 2,-47 -19,-67 -14,-13 -36,-40 -50,-61 -26,-41 -47,-43 -85,-9 -21,18 -24,82 -6,100 7,7 9,12 5,12 -3,0 -15,-10 -27,-22 -39,-42 -22,-117 39,-171 45,-40 40,-65 -20,-95 -42,-21 -59,-54 -58,-112 l 2,-45 6,48 c 4,26 15,55 24,64 16,16 17,16 17,-10 0,-15 5,-27 10,-27 6,0 10,11 10,25 0,26 22,33 48,16 12,-7 11,-14 -2,-39 -11,-22 -14,-44 -10,-76 8,-59 24,-49 24,15 0,27 5,49 10,49 6,0 10,-9 10,-20 0,-11 5,-20 10,-20 6,0 10,14 10,30 0,17 4,30 10,30 17,0 30,-38 30,-89 0,-67 18,-66 22,0 2,37 8,55 21,63 31,19 47,-17 47,-100 0,-65 11,-97 27,-81 3,3 7,37 10,74 6,79 24,116 56,111 19,-3 22,-10 25,-55 4,-69 22,-68 22,1 0,60 19,88 45,66 10,-8 15,-38 17,-106 2,-52 7,-95 13,-97 6,-1 12,39 16,98 6,100 13,135 30,135 5,0 9,-10 10,-22 1,-21 2,-20 11,5 5,15 13,27 18,27 18,0 40,-33 40,-61 0,-16 5,-29 10,-29 18,0 11,64 -11,99 -21,35 -18,44 19,56 19,6 22,3 22,-24 0,-17 5,-31 10,-31 6,0 10,12 10,26 0,41 28,11 33,-34 l 4,-37 1,35 c 3,48 -30,99 -68,107 -17,3 -35,14 -41,25 -8,16 -4,26 25,59 43,47 50,87 22,117 -10,10 -12,7 -8,-18 10,-68 -54,-82 -107,-24 -25,27 -31,41 -27,60 9,34 -9,63 -50,80 -19,8 -39,25 -44,37 -8,21 -9,20 -9,-6 -1,-18 8,-36 26,-51 16,-14 24,-29 20,-39 -5,-13 -13,-14 -49,-5 -24,5 -66,7 -94,4 -48,-5 -52,-4 -63,20 -10,22 -8,32 9,61 11,20 19,37 18,39 -2,2 -21,-13 -42,-32 z m 14,-249 c 37,-37 43,-49 34,-63 -15,-24 -62,-27 -85,-6 -20,18 -26,59 -9,69 6,4 8,15 5,26 -10,31 8,22 55,-26 z m 257,18 c 6,-60 5,-74 -7,-88 -17,-20 -59,-19 -82,2 -18,16 -17,18 29,65 26,26 50,48 53,48 3,0 6,-12 7,-27 z m 2,-169 c -13,-14 -29,-22 -36,-20 -7,3 -17,-3 -22,-12 -8,-13 -12,-14 -22,-5 -10,10 -15,9 -25,-4 -10,-15 -14,-15 -28,-4 -13,11 -19,11 -32,0 -14,-11 -18,-11 -28,4 -10,13 -15,14 -25,4 -10,-9 -15,-8 -25,6 -8,10 -20,15 -29,11 -16,-6 -67,38 -67,57 0,17 29,9 50,-13 11,-12 20,-16 20,-10 0,18 21,15 36,-5 8,-11 13,-13 14,-5 0,6 10,12 23,12 13,0 29,-6 36,-12 11,-10 14,-10 18,0 6,15 39,16 48,1 5,-6 12,-4 20,8 10,13 17,15 25,7 9,-9 18,-5 38,15 24,23 27,24 30,8 2,-11 -7,-30 -19,-43 z"
       id="path77" />
  </g>
</svg>
