<?xml version="1.0" encoding="UTF-8" standalone="no"?>
<svg
   version="1.0"
   width="72.32486pt"
   height="63.765133pt"
   viewBox="0 0 72.32486 63.765133"
   preserveAspectRatio="xMidYMid"
   id="svg192"
   xmlns="http://www.w3.org/2000/svg"
   xmlns:svg="http://www.w3.org/2000/svg">
  <defs
     id="defs192" />
  <g
     transform="matrix(0.1,0,0,-0.1,-179.21265,198.91962)"
     fill="#000000"
     stroke="none"
     id="g192">
    <path
       d="m 2158,1983 c 7,-3 16,-2 19,1 4,3 -2,6 -13,5 -11,0 -14,-3 -6,-6 z"
       id="path81" />
    <path
       d="m 2100,1970 c 0,-5 5,-10 11,-10 5,0 7,5 4,10 -3,6 -8,10 -11,10 -2,0 -4,-4 -4,-10 z"
       id="path83" />
    <path
       d="m 2210,1960 c -8,-5 -10,-10 -5,-10 6,0 17,5 25,10 8,5 11,10 5,10 -5,0 -17,-5 -25,-10 z"
       id="path86" />
    <path
       d="m 1820,1919 c 37,-32 130,-79 152,-78 7,0 -7,9 -31,20 -25,11 -66,35 -93,54 -59,43 -76,45 -28,4 z"
       id="path91" />
    <path
       d="m 2490,1935 c -7,-8 -44,-31 -82,-50 -39,-19 -64,-35 -56,-35 23,0 133,58 153,80 10,11 13,20 8,20 -6,0 -16,-7 -23,-15 z"
       id="path92" />
    <path
       d="m 2137,1922 c -10,-10 -18,-30 -19,-45 -1,-14 -6,-23 -10,-21 -4,3 -8,-3 -8,-13 -1,-14 -5,-12 -24,11 -23,28 -74,45 -140,46 -43,0 -25,-10 24,-15 82,-8 90,-17 90,-101 0,-23 6,-47 14,-53 11,-9 15,-4 21,26 7,40 21,63 37,63 5,0 2,-7 -6,-16 -9,-8 -16,-26 -16,-38 0,-13 -11,-44 -24,-69 -21,-38 -22,-46 -10,-51 11,-4 12,-10 4,-25 -13,-25 -13,-31 0,-31 6,0 10,9 10,19 0,10 6,21 14,24 10,4 17,28 22,66 4,35 11,58 16,55 13,-8 7,-52 -33,-227 -36,-163 -37,-160 29,-173 34,-7 109,2 129,14 9,6 6,38 -12,132 -13,69 -29,143 -35,165 -6,24 -7,52 -2,70 8,27 10,22 16,-37 4,-38 12,-68 17,-68 5,0 9,-6 9,-14 0,-7 7,-19 15,-26 18,-15 21,1 5,31 -8,15 -7,21 4,25 12,5 11,13 -10,51 -13,25 -24,55 -24,65 0,11 -5,29 -12,41 -10,20 -9,21 5,9 8,-7 18,-31 22,-53 9,-55 19,-40 25,38 5,70 7,73 70,92 33,10 33,10 -15,6 -37,-4 -56,-11 -72,-30 -27,-30 -33,-31 -33,-4 0,11 -8,34 -17,50 -20,33 -52,38 -76,11 z m 42,-71 c -6,-2 -18,4 -27,13 -15,15 -15,15 10,4 15,-7 23,-15 17,-17 z m -16,-30 c 3,-14 1,-18 -9,-14 -15,6 -18,16 -7,26 9,10 10,9 16,-12 z m 41,-2 c -8,-14 -21,-11 -21,5 0,8 6,12 14,9 7,-3 10,-9 7,-14 z"
       id="path96" />
    <path
       d="m 1810,1865 c 15,-18 113,-55 143,-54 12,0 1,6 -24,13 -25,7 -62,22 -83,34 -43,26 -53,28 -36,7 z"
       id="path107" />
    <path
       d="m 2465,1859 c -16,-11 -49,-24 -73,-31 -23,-6 -41,-13 -38,-15 8,-9 111,27 136,47 32,25 14,25 -25,-1 z"
       id="path108" />
    <path
       d="m 1810,1814 c 0,-11 71,-34 102,-33 31,1 31,2 -9,9 -23,5 -51,14 -62,19 -22,12 -31,14 -31,5 z"
       id="path121" />
    <path
       d="m 2435,1799 c -35,-13 -43,-18 -25,-18 14,0 41,8 60,19 43,23 31,23 -35,-1 z"
       id="path122" />
    <path
       d="m 1960,1763 c -18,-8 -53,-13 -76,-11 -23,1 -40,0 -37,-4 9,-15 98,-7 133,12 41,23 30,25 -20,3 z"
       id="path131" />
    <path
       d="m 2345,1759 c 42,-19 110,-25 119,-10 4,5 -10,7 -32,4 -23,-3 -53,1 -76,11 -53,22 -60,19 -11,-5 z"
       id="path132" />
    <path
       d="m 1960,1718 c -38,-21 -46,-28 -26,-24 28,7 86,42 86,52 0,5 3,7 -60,-28 z"
       id="path135" />
    <path
       d="m 2300,1746 c 0,-6 66,-46 76,-46 5,0 -8,11 -28,25 -36,24 -48,30 -48,21 z"
       id="path136" />
    <path
       d="m 2305,1710 c 10,-11 20,-20 23,-20 3,0 -3,9 -13,20 -10,11 -20,20 -23,20 -3,0 3,-9 13,-20 z"
       id="path139" />
    <path
       d="m 1989,1693 -24,-28 28,24 c 25,23 32,31 24,31 -2,0 -14,-12 -28,-27 z"
       id="path141" />
  </g>
</svg>
