<?xml version="1.0" encoding="UTF-8" standalone="no"?>
<svg
   version="1.0"
   width="59.785309pt"
   height="68.822456pt"
   viewBox="0 0 59.785309 68.822456"
   preserveAspectRatio="xMidYMid"
   id="svg192"
   xmlns="http://www.w3.org/2000/svg"
   xmlns:svg="http://www.w3.org/2000/svg">
  <defs
     id="defs192" />
  <g
     transform="matrix(0.1,0,0,-0.1,-991.70001,199)"
     fill="#000000"
     stroke="none"
     id="g192">
    <path
       d="m 10219,1963 c -5,-14 -21,-37 -35,-49 l -24,-23 -35,19 c -19,11 -35,15 -35,10 0,-5 12,-15 27,-22 18,-9 31,-26 38,-49 5,-21 19,-46 29,-58 16,-18 17,-25 8,-46 -6,-14 -16,-25 -22,-25 -15,0 -63,32 -78,52 -7,9 -19,24 -27,32 -8,8 -15,19 -15,25 0,18 -19,12 -31,-10 -9,-18 -8,-20 9,-15 13,4 22,1 26,-9 4,-11 -1,-15 -19,-15 -14,0 -25,-5 -25,-11 0,-6 8,-8 18,-5 10,4 27,-1 38,-9 18,-14 18,-15 -11,-39 l -30,-25 27,12 c 16,6 28,15 28,20 0,4 7,7 15,7 9,0 12,-6 9,-15 -4,-10 -2,-13 8,-10 10,4 19,-7 30,-33 l 15,-39 -43,5 c -41,4 -43,3 -58,-31 l -15,-36 -40,20 c -50,24 -53,24 -70,-3 l -14,-23 22,20 c 20,17 24,18 34,5 7,-8 19,-15 27,-15 8,0 14,-7 12,-17 -4,-28 35,-9 57,28 19,31 22,33 49,23 48,-16 67,-44 54,-74 -10,-22 -9,-26 18,-40 40,-21 39,-53 -2,-92 -53,-49 -69,-54 -89,-29 l -17,21 -12,-26 c -12,-26 -33,-36 -125,-58 -28,-6 58,-9 280,-9 286,-1 315,1 276,13 -24,8 -47,13 -50,12 -3,0 -24,5 -46,12 -58,19 -95,57 -95,97 0,18 -5,36 -11,40 -6,3 -9,15 -6,25 3,10 -1,23 -9,30 -34,28 1,108 41,93 10,-4 21,-1 26,7 8,12 11,12 19,-1 5,-8 10,-25 10,-37 0,-12 9,-27 21,-33 12,-7 18,-18 15,-26 -3,-9 -1,-12 4,-9 15,10 12,32 -6,39 -14,5 -14,9 -3,22 12,15 19,15 64,-1 14,-4 12,-1 -5,9 -16,10 -36,13 -54,10 -27,-6 -28,-4 -24,20 4,19 0,30 -13,37 -22,12 -23,19 -6,43 12,16 14,16 36,-3 26,-23 41,-27 41,-11 0,6 -6,10 -14,10 -11,0 -26,20 -26,35 0,3 28,13 70,25 l 25,8 -25,1 c -23,2 -24,3 -7,15 16,13 16,15 -3,37 -19,21 -20,21 -9,2 17,-29 1,-47 -55,-64 -29,-8 -49,-22 -61,-41 -9,-15 -20,-28 -26,-28 -15,0 -22,-4 -46,-28 -29,-29 -67,-26 -71,4 -2,15 9,31 40,54 62,48 69,59 56,84 -6,11 -16,24 -22,28 -17,11 6,28 41,31 17,1 29,5 27,9 -6,10 25,38 42,38 8,0 12,5 9,11 -8,11 -54,-14 -68,-38 -4,-7 -17,-13 -27,-13 -25,0 -35,-17 -35,-60 0,-44 -31,-56 -41,-15 -3,14 -15,30 -25,36 -25,13 -24,40 2,73 19,24 43,86 33,86 -2,0 -9,-12 -15,-27 z"
       id="path82" />
  </g>
</svg>
