<?xml version="1.0" encoding="UTF-8" standalone="no"?>
<svg
   version="1.0"
   width="46.49435pt"
   height="73.425339pt"
   viewBox="0 0 46.49435 73.425339"
   preserveAspectRatio="xMidYMid"
   id="svg192"
   xmlns="http://www.w3.org/2000/svg"
   xmlns:svg="http://www.w3.org/2000/svg">
  <defs
     id="defs192" />
  <g
     transform="matrix(0.1,0,0,-0.1,-31.371819,106.06101)"
     fill="#000000"
     stroke="none"
     id="g192">
    <path
       d="m 460,1047 c -19,-6 -56,-32 -81,-57 -62,-62 -81,-144 -52,-230 3,-11 8,-8 19,12 13,25 13,31 -3,55 -17,27 -17,28 1,13 18,-14 18,-13 12,10 -6,19 -5,21 3,10 15,-22 13,-66 -4,-100 -9,-18 -13,-40 -9,-55 3,-14 1,-38 -6,-54 -18,-44 0,-71 48,-71 42,0 62,-14 62,-42 0,-28 24,-32 143,-29 42,1 47,3 47,24 0,34 19,47 65,47 34,0 44,4 52,23 7,15 8,29 2,38 -5,8 -9,35 -9,60 0,25 -7,54 -15,65 -16,21 -18,69 -4,99 7,16 8,14 4,-9 -6,-26 -4,-28 9,-17 20,17 20,2 1,-23 -12,-16 -12,-22 2,-43 16,-24 17,-24 24,-7 11,29 10,94 -2,139 -7,25 -29,58 -58,86 -65,66 -157,86 -251,56 z m 40,-297 c 24,-24 25,-38 4,-69 -15,-21 -69,-51 -93,-51 -31,0 -55,74 -33,106 24,36 92,44 122,14 z m 204,-1 c 31,-24 35,-72 9,-101 -21,-23 -35,-23 -82,2 -56,28 -69,76 -29,104 31,22 70,20 102,-5 z M 574,640 c 21,-52 12,-72 -28,-68 -29,3 -31,6 -30,40 1,36 17,68 34,68 4,0 15,-18 24,-40 z"
       id="path182" />
    <path
       d="m 394,539 c 3,-17 6,-51 6,-74 0,-38 6,-49 45,-88 36,-36 53,-46 87,-49 51,-6 71,3 120,51 29,28 38,44 38,71 0,19 4,52 9,73 5,20 5,39 1,42 -4,3 -11,-15 -15,-40 -11,-79 -71,-114 -172,-102 -61,7 -93,39 -100,101 -3,25 -10,46 -16,46 -5,0 -7,-13 -3,-31 z"
       id="path183" />
    <path
       d="m 662,538 c -1,-14 -5,-35 -8,-45 -5,-14 -4,-15 5,-7 7,7 11,26 8,45 -3,28 -4,29 -5,7 z"
       id="path184" />
    <path
       d="m 427,518 c 8,-46 13,-48 13,-5 0,21 -4,37 -10,37 -5,0 -7,-14 -3,-32 z"
       id="path185" />
    <path
       d="m 526,491 c -4,-7 -5,-15 -2,-18 9,-9 19,4 14,18 -4,11 -6,11 -12,0 z"
       id="path186" />
    <path
       d="m 556,485 c -3,-9 0,-15 9,-15 9,0 12,6 9,15 -4,8 -7,15 -9,15 -2,0 -5,-7 -9,-15 z"
       id="path187" />
    <path
       d="m 620,490 c -9,-6 -10,-10 -3,-10 6,0 15,5 18,10 8,12 4,12 -15,0 z"
       id="path189" />
    <path
       d="m 490,480 c 0,-5 5,-10 10,-10 6,0 10,5 10,10 0,6 -4,10 -10,10 -5,0 -10,-4 -10,-10 z"
       id="path190" />
    <path
       d="m 531,444 c 0,-11 3,-14 6,-6 3,7 2,16 -1,19 -3,4 -6,-2 -5,-13 z"
       id="path191" />
    <path
       d="m 555,451 c -3,-5 -1,-12 5,-16 5,-3 10,1 10,9 0,18 -6,21 -15,7 z"
       id="path192" />
  </g>
</svg>
