<?xml version="1.0" encoding="UTF-8" standalone="no"?>
<!-- Created with Inkscape (http://www.inkscape.org/) -->

<svg
   width="43.497501mm"
   height="43.81501mm"
   viewBox="0 0 43.497501 43.81501"
   version="1.1"
   id="svg1"
   xml:space="preserve"
   xmlns:inkscape="http://www.inkscape.org/namespaces/inkscape"
   xmlns:sodipodi="http://sodipodi.sourceforge.net/DTD/sodipodi-0.dtd"
   xmlns="http://www.w3.org/2000/svg"
   xmlns:svg="http://www.w3.org/2000/svg"><sodipodi:namedview
     id="namedview1"
     pagecolor="#ffffff"
     bordercolor="#000000"
     borderopacity="0.25"
     inkscape:showpageshadow="2"
     inkscape:pageopacity="0.0"
     inkscape:pagecheckerboard="0"
     inkscape:deskcolor="#d1d1d1"
     inkscape:document-units="mm"><inkscape:page
       x="0"
       y="-4.4822163e-22"
       width="43.497501"
       height="43.81501"
       id="page2"
       margin="0"
       bleed="0" /></sodipodi:namedview><defs
     id="defs1" /><g
     inkscape:label="Layer 1"
     inkscape:groupmode="layer"
     id="layer1"
     transform="translate(-12.695936,-97.172607)"><g
       transform="matrix(0.03527778,0,0,-0.03527778,-17.642954,235.81428)"
       fill="#000000"
       stroke="none"
       id="g73"
       style="fill:#000000;fill-opacity:1"><path
         d="m 1447,3898 c -62,-84 -63,-86 -33,-116 29,-31 32,-42 14,-60 -9,-9 -15,-8 -28,3 -14,13 -21,11 -60,-15 -31,-21 -45,-37 -45,-52 0,-17 -10,-26 -45,-38 -47,-16 -80,-60 -80,-107 0,-30 63,-103 81,-93 48,26 57,23 69,-27 10,-39 22,-55 62,-87 52,-41 60,-69 20,-74 -38,-6 -37,-28 6,-116 53,-110 57,-133 33,-176 -19,-35 -19,-35 2,-57 18,-21 19,-26 7,-62 -11,-34 -10,-45 5,-86 l 18,-47 20,52 c 15,42 17,57 8,77 -16,34 -14,51 9,70 20,17 20,17 -2,40 -27,29 -22,64 27,174 40,91 41,119 8,134 -33,14 -29,27 27,74 38,32 50,49 50,70 0,15 7,36 15,47 13,18 16,18 44,2 28,-15 30,-15 49,5 41,45 54,75 47,106 -7,34 -57,81 -85,81 -23,0 -42,23 -35,42 4,10 -11,25 -44,46 -46,28 -52,29 -60,14 -9,-15 -12,-15 -33,6 l -23,23 28,23 c 15,12 27,29 27,39 0,15 -66,117 -75,117 -2,0 -15,-15 -28,-32 z m 13,-73 c 0,-38 -2,-40 -31,-25 -18,10 -18,12 -3,35 23,35 34,31 34,-10 z m 58,14 c 10,-16 10,-24 1,-35 -19,-23 -29,-16 -29,21 0,40 9,44 28,14 z m -141,-170 c -28,-61 -26,-85 13,-134 17,-21 30,-42 30,-46 0,-20 -19,-6 -50,37 -28,40 -32,51 -27,92 6,64 25,108 38,95 8,-8 6,-21 -4,-44 z m 219,0 c 19,-53 16,-81 -14,-130 -15,-24 -32,-50 -36,-58 -7,-10 -2,-12 24,-6 32,7 33,7 26,-21 -11,-41 -13,-41 -47,-7 -34,34 -32,47 17,106 24,29 32,84 15,103 -5,5 -12,20 -16,33 -12,38 17,20 31,-20 z m -157,-38 c 20,-27 20,-29 2,-45 -16,-15 -19,-15 -34,2 -24,27 -21,72 4,72 4,0 17,-13 28,-29 z m 118,13 c 8,-21 -16,-64 -36,-64 -9,0 -23,5 -31,10 -12,8 -10,14 15,40 32,34 43,37 52,14 z m -247,-94 c 0,-27 1,-53 3,-57 5,-17 -65,-14 -84,3 -35,31 -21,63 40,91 40,18 41,16 41,-37 z m 379,30 c 46,-23 57,-45 36,-76 -11,-18 -25,-24 -50,-24 h -35 v 60 c 0,33 2,60 5,60 3,0 23,-9 44,-20 z m -195,-47 c -6,-9 -15,-18 -21,-20 -17,-6 -26,36 -12,53 11,13 14,13 28,-1 12,-11 13,-20 5,-32 z m -92,-69 c 9,-6 -19,-44 -32,-44 -7,0 -30,45 -30,60 0,9 38,-1 62,-16 z m 120,-41 c 26,-26 48,-51 48,-55 0,-14 -82,-98 -94,-98 -7,0 -26,15 -42,33 -61,65 -60,61 -13,117 23,27 45,50 48,50 3,0 27,-21 53,-47 z"
         id="path41"
         style="fill:#000000;fill-opacity:1" /><path
         d="m 1138,3611 c -25,-16 -58,-48 -74,-72 -45,-67 -72,-65 -145,10 -33,33 -59,56 -59,50 0,-21 32,-144 44,-169 11,-23 103,-78 134,-79 14,-1 99,74 112,100 6,10 5,27 -1,45 -9,24 -7,38 14,87 14,31 25,57 23,57 -1,0 -23,-13 -48,-29 z"
         id="path47"
         style="fill:#000000;fill-opacity:1" /><path
         d="m 1780,3599 c 14,-27 20,-56 19,-84 -4,-59 25,-120 66,-139 48,-23 84,-19 137,14 40,25 48,37 62,82 8,29 18,73 22,98 l 7,45 -59,-62 c -76,-80 -100,-83 -147,-17 -17,25 -53,58 -80,75 l -47,29 z"
         id="path48"
         style="fill:#000000;fill-opacity:1" /><path
         d="m 1189,3369 c 20,-17 24,-28 22,-63 -2,-38 2,-46 34,-74 19,-18 41,-32 48,-32 7,0 23,-3 37,-7 22,-6 24,-5 11,10 -7,9 -19,17 -26,17 -20,0 -65,40 -65,58 0,13 5,11 20,-8 l 20,-25 v 33 c 0,55 -54,113 -107,112 -15,-1 -14,-4 6,-21 z"
         id="path51"
         style="fill:#000000;fill-opacity:1" /><path
         d="m 1750,3383 c -60,-19 -90,-57 -90,-110 l 1,-28 17,28 c 18,29 38,37 28,11 -3,-9 -6,-17 -6,-19 0,-2 -26,-18 -57,-37 -46,-26 -54,-34 -36,-36 26,-4 91,28 117,57 14,16 17,30 13,61 -4,35 -2,42 21,60 26,19 23,24 -8,13 z"
         id="path52"
         style="fill:#000000;fill-opacity:1" /><path
         d="m 1127,3155 c -9,-19 -13,-35 -8,-35 5,0 39,11 76,25 l 66,25 19,-22 c 22,-27 17,-37 -7,-16 -15,13 -24,14 -58,3 l -40,-11 31,-8 c 39,-9 114,-5 114,6 0,5 -7,23 -16,40 -15,29 -18,30 -57,23 -56,-9 -69,-9 -88,-1 -11,5 -20,-3 -32,-29 z"
         id="path53"
         style="fill:#000000;fill-opacity:1" /><path
         d="m 1653,3178 c -16,-22 -33,-68 -25,-68 4,0 18,14 33,31 l 25,31 77,-30 c 42,-16 77,-27 77,-23 0,3 -9,21 -20,39 -18,28 -23,31 -41,22 -15,-8 -29,-8 -51,-1 -41,14 -63,14 -75,-1 z"
         id="path54"
         style="fill:#000000;fill-opacity:1" /><path
         d="m 1330,3148 c 0,-9 16,-28 35,-42 54,-41 43,-8 -12,38 -19,16 -23,17 -23,4 z"
         id="path55"
         style="fill:#000000;fill-opacity:1" /><path
         d="m 1579,3131 c -19,-16 -30,-33 -26,-37 4,-4 22,6 39,24 41,41 32,50 -13,13 z"
         id="path56"
         style="fill:#000000;fill-opacity:1" /><path
         d="m 1674,3129 c -17,-18 -16,-19 34,-19 29,0 52,5 52,10 0,6 -1,10 -3,10 -1,0 -16,4 -34,9 -26,8 -35,6 -49,-10 z"
         id="path57"
         style="fill:#000000;fill-opacity:1" /><path
         d="m 1134,3105 c -50,-34 -29,-84 21,-51 28,19 30,25 12,49 -11,16 -14,16 -33,2 z m 16,-30 c -7,-8 -17,-15 -23,-15 -5,0 -2,9 8,20 21,23 35,19 15,-5 z"
         id="path58"
         style="fill:#000000;fill-opacity:1" /><path
         d="m 1772,3083 c 2,-20 11,-30 31,-37 36,-13 50,1 34,34 -8,16 -23,26 -40,28 -26,3 -28,1 -25,-25 z"
         id="path59"
         style="fill:#000000;fill-opacity:1" /></g></g></svg>
