<?xml version="1.0" encoding="UTF-8" standalone="no"?>
<!-- Created with Inkscape (http://www.inkscape.org/) -->

<svg
   width="41.929371mm"
   height="34.723167mm"
   viewBox="0 0 41.929371 34.723167"
   version="1.1"
   id="svg1"
   xml:space="preserve"
   xmlns:inkscape="http://www.inkscape.org/namespaces/inkscape"
   xmlns:sodipodi="http://sodipodi.sourceforge.net/DTD/sodipodi-0.dtd"
   xmlns="http://www.w3.org/2000/svg"
   xmlns:svg="http://www.w3.org/2000/svg"><sodipodi:namedview
     id="namedview1"
     pagecolor="#ffffff"
     bordercolor="#000000"
     borderopacity="0.25"
     inkscape:showpageshadow="2"
     inkscape:pageopacity="0.0"
     inkscape:pagecheckerboard="0"
     inkscape:deskcolor="#d1d1d1"
     inkscape:document-units="mm"><inkscape:page
       x="-3.4665183e-13"
       y="0"
       width="41.929367"
       height="34.723167"
       id="page2"
       margin="0"
       bleed="0" /></sodipodi:namedview><defs
     id="defs1" /><g
     inkscape:label="Layer 1"
     inkscape:groupmode="layer"
     id="layer1"
     transform="translate(-151.14847,-34.756531)"><g
       transform="matrix(0.03527778,0,0,-0.03527778,-17.642954,235.81428)"
       fill="#000000"
       stroke="none"
       id="g73"
       style="fill:#000000;fill-opacity:1"><path
         d="m 5042,5688 c -17,-17 -15,-33 3,-18 8,6 19,9 25,5 17,-11 11,-43 -11,-58 -20,-14 -20,-16 -4,-41 17,-25 17,-26 -5,-26 -30,0 -60,18 -60,36 0,23 -24,11 -28,-13 -2,-15 -13,-22 -42,-27 -43,-7 -90,-53 -90,-89 0,-11 -8,-30 -19,-41 -11,-13 -21,-43 -24,-78 -6,-58 -1,-68 20,-47 8,8 18,-1 36,-32 l 25,-42 4,33 3,34 38,-33 c 27,-24 37,-41 37,-63 0,-25 3,-29 20,-25 24,6 50,-26 50,-63 0,-33 -10,-47 -43,-59 -33,-13 -45,5 -28,38 14,26 14,31 -4,31 -33,0 -48,-75 -16,-85 13,-4 21,-19 25,-48 6,-34 9,-39 17,-24 13,23 26,22 66,-9 37,-28 41,-25 16,12 -12,19 -17,49 -17,103 -1,73 -3,79 -50,154 -27,43 -46,80 -43,83 3,3 22,-6 41,-21 50,-38 49,-9 -1,47 l -38,41 38,-7 c 35,-7 38,-6 28,12 -5,10 -17,24 -25,31 -11,10 -13,18 -6,31 14,26 14,26 -24,22 -49,-6 -54,15 -6,29 31,9 49,10 80,0 45,-13 48,-20 20,-46 -11,-10 -20,-26 -20,-37 0,-25 42,-44 66,-29 18,10 18,10 -3,11 -31,0 -37,16 -13,40 22,22 60,27 60,9 0,-8 12,-10 36,-6 47,8 48,10 30,46 -10,18 -14,41 -10,55 5,23 4,24 -40,19 -35,-4 -46,-2 -46,8 0,23 15,39 43,47 26,7 27,8 12,30 -9,12 -23,22 -32,22 -8,0 -24,11 -35,25 -21,28 -38,31 -56,13 z"
         id="path1"
         style="fill:#000000;fill-opacity:1" /><path
         d="m 5662,5675 c -11,-14 -27,-25 -35,-25 -9,0 -23,-10 -31,-22 -14,-20 -13,-22 12,-35 36,-19 37,-20 22,-38 -7,-8 -25,-15 -41,-15 -26,0 -28,-2 -22,-30 4,-24 0,-36 -16,-54 l -23,-24 42,-7 c 30,-5 45,-3 50,5 11,18 57,4 70,-20 8,-15 8,-21 -2,-24 -7,-3 -20,-6 -28,-9 -10,-3 -5,-7 13,-12 30,-8 57,7 57,32 0,8 -9,28 -20,43 l -21,29 40,11 c 44,12 84,6 102,-16 9,-12 5,-14 -25,-14 -32,0 -36,-2 -27,-17 7,-13 2,-26 -17,-51 l -26,-34 44,6 45,7 -28,-22 c -25,-19 -57,-67 -57,-85 0,-3 16,6 36,21 19,15 38,25 40,22 3,-3 -16,-42 -43,-88 -44,-77 -48,-88 -46,-143 2,-41 -3,-72 -17,-103 l -19,-44 39,31 c 39,31 39,31 52,11 19,-30 28,-26 28,14 0,24 6,39 20,47 31,20 19,88 -15,88 -11,0 -12,-5 -5,-26 15,-39 13,-44 -20,-44 -19,0 -33,7 -40,19 -25,48 1,112 43,104 21,-4 23,-2 20,24 -4,24 2,35 34,63 l 38,34 5,-35 6,-34 22,43 c 18,35 26,41 40,33 15,-8 17,-3 14,47 -2,32 -10,64 -18,73 -8,9 -20,33 -25,53 -14,50 -40,74 -89,82 -34,6 -40,10 -40,30 0,30 -22,31 -35,2 -9,-19 -62,-44 -73,-33 -2,2 3,14 12,27 21,29 20,35 -4,43 -21,7 -26,30 -11,54 7,10 13,11 32,1 l 24,-11 -24,20 c -30,27 -35,26 -59,-4 z"
         id="path2"
         style="fill:#000000;fill-opacity:1" /><path
         d="m 5346,5563 c -28,-15 -29,-16 -11,-29 24,-18 15,-25 -40,-31 -30,-4 -45,-2 -45,6 0,6 7,14 16,18 13,5 13,7 2,14 -7,5 -23,9 -35,9 h -21 l 21,-55 22,-55 h 125 125 l 18,49 c 21,61 22,59 -8,53 -20,-3 -24,-9 -19,-25 6,-18 3,-19 -31,-14 -45,7 -53,13 -37,29 9,9 4,16 -18,30 -17,10 -31,18 -33,18 -1,-1 -15,-8 -31,-17 z"
         id="path8"
         style="fill:#000000;fill-opacity:1" /><path
         d="m 5124,5336 c -5,-14 19,-204 35,-278 27,-116 72,-193 143,-240 51,-35 87,-35 136,-3 98,65 168,242 174,440 l 3,90 -243,3 c -199,2 -243,0 -248,-12 z m 280,-79 c 24,-32 24,-85 2,-139 -20,-47 -20,-62 0,-26 18,34 69,62 99,54 31,-8 52,-59 37,-91 -15,-33 -33,-31 -54,5 -14,25 -21,28 -40,21 -19,-7 -23,-16 -23,-52 0,-41 2,-44 29,-49 46,-8 31,-25 -19,-23 -42,3 -45,1 -45,-21 0,-30 -9,-56 -20,-56 -5,0 -11,22 -15,49 l -7,49 -32,-19 c -33,-19 -33,-19 -52,2 -18,20 -18,20 9,14 34,-9 57,9 57,44 0,68 -66,95 -85,34 -9,-28 -12,-30 -29,-17 -25,18 -25,67 0,95 26,28 71,19 107,-23 l 28,-33 -16,44 c -21,61 -19,113 6,145 25,31 35,30 63,-7 z"
         id="path24"
         style="fill:#000000;fill-opacity:1" /><path
         d="m 5625,4970 c 22,-100 7,-133 -80,-175 -137,-64 -303,-49 -402,38 -33,29 -34,34 -31,84 4,66 -8,70 -18,6 -9,-65 -18,-79 -56,-88 -28,-7 -30,-9 -10,-12 29,-6 28,-17 -5,-41 -33,-24 -27,-37 11,-22 47,17 64,13 68,-17 2,-19 8,-27 18,-24 8,3 25,5 38,5 12,1 22,4 22,7 0,6 35,8 110,6 54,-1 96,-1 170,1 84,2 100,1 100,-8 0,-5 9,-6 19,-3 10,3 28,0 40,-6 19,-11 21,-9 21,24 0,39 6,41 57,20 53,-22 62,-18 26,15 -33,29 -33,40 0,35 28,-5 19,14 -10,21 -40,10 -50,20 -57,62 -4,20 -13,51 -21,67 -13,26 -14,27 -10,5 z"
         id="path34"
         style="fill:#000000;fill-opacity:1" /></g></g></svg>
