<?xml version="1.0" encoding="UTF-8" standalone="no"?>
<!-- Created with Inkscape (http://www.inkscape.org/) -->

<svg
   width="33.472237mm"
   height="43.978809mm"
   viewBox="0 0 33.472237 43.978809"
   version="1.1"
   id="svg1"
   xml:space="preserve"
   xmlns:inkscape="http://www.inkscape.org/namespaces/inkscape"
   xmlns:sodipodi="http://sodipodi.sourceforge.net/DTD/sodipodi-0.dtd"
   xmlns="http://www.w3.org/2000/svg"
   xmlns:svg="http://www.w3.org/2000/svg"><sodipodi:namedview
     id="namedview1"
     pagecolor="#ffffff"
     bordercolor="#000000"
     borderopacity="0.25"
     inkscape:showpageshadow="2"
     inkscape:pageopacity="0.0"
     inkscape:pagecheckerboard="0"
     inkscape:deskcolor="#d1d1d1"
     inkscape:document-units="mm"><inkscape:page
       x="0"
       y="0"
       width="33.472237"
       height="43.978809"
       id="page2"
       margin="0"
       bleed="0" /></sodipodi:namedview><defs
     id="defs1" /><g
     inkscape:label="Layer 1"
     inkscape:groupmode="layer"
     id="layer1"
     transform="translate(-86.997312,-158.23843)"><g
       transform="matrix(0.03527778,0,0,-0.03527778,-17.642954,235.81428)"
       fill="#000000"
       stroke="none"
       id="g73"
       style="fill:#000000;fill-opacity:1"><path
         d="m 3472,2186 c -40,-7 -77,-17 -83,-23 -6,-6 -29,-9 -52,-6 -32,3 -38,2 -27,-6 13,-10 12,-14 -9,-31 -13,-11 -31,-20 -41,-20 -10,0 -23,-7 -30,-15 -14,-17 -9,-51 7,-48 72,15 95,15 91,2 -3,-8 -23,-21 -46,-29 -33,-12 -39,-19 -30,-28 17,-17 19,-16 84,23 68,41 77,42 114,12 l 27,-23 -89,-102 c -49,-56 -94,-102 -99,-102 -26,0 -90,44 -104,70 -16,32 -51,40 -73,18 -18,-18 -14,-27 9,-21 20,6 21,3 14,-36 -7,-45 10,-59 21,-16 3,14 9,25 13,25 12,-1 93,-133 84,-139 -5,-3 -25,-16 -44,-28 -44,-28 -62,-64 -49,-98 13,-33 42,-32 82,4 27,24 30,31 20,44 -13,15 -7,47 9,47 5,0 20,-21 33,-47 28,-56 86,-118 130,-140 44,-22 76,-54 76,-75 0,-19 -85,-118 -101,-118 -5,0 -9,7 -9,15 0,72 -97,128 -163,94 -82,-42 -71,-143 23,-207 32,-22 43,-24 113,-19 99,7 169,39 231,108 51,56 71,113 61,168 -11,56 -31,88 -106,160 -54,54 -69,74 -69,98 0,39 16,53 64,53 34,0 46,-6 83,-45 41,-44 54,-77 33,-90 -5,-3 -19,-1 -30,5 -25,13 -27,-2 -3,-25 12,-12 27,-16 54,-12 48,6 62,-9 83,-89 25,-98 18,-136 -32,-167 -26,-16 -26,-16 -5,-17 47,0 105,110 123,235 15,104 19,116 31,90 6,-14 8,1 5,45 -4,58 -14,89 -64,193 -2,4 16,7 40,7 h 43 l -43,25 c -23,13 -85,59 -136,102 -52,43 -108,86 -126,97 l -32,18 25,-38 c 14,-22 30,-56 37,-77 14,-44 7,-75 -13,-59 -10,9 -17,0 -32,-38 -11,-28 -23,-50 -27,-50 -4,0 -4,22 -1,49 9,76 -3,114 -52,169 -25,28 -45,53 -45,56 0,3 10,6 23,7 12,0 16,3 10,6 -17,6 -17,23 0,23 7,0 22,7 33,15 10,8 17,14 14,14 -3,-1 -38,-7 -78,-13 z m -232,-594 c 0,-14 -23,-32 -41,-32 -28,0 -33,19 -7,29 29,12 48,13 48,3 z m 92,-298 c 11,-19 24,-34 29,-34 5,0 9,-7 9,-16 0,-12 -5,-14 -17,-8 -10,4 -35,9 -56,12 -49,5 -70,41 -43,71 23,26 54,16 78,-25 z"
         id="path62"
         style="fill:#000000;fill-opacity:1" /><path
         d="m 2974,2005 c -17,-13 -11,-14 66,-15 79,-1 83,-2 60,-15 l -25,-14 31,-1 c 18,0 42,9 55,21 l 24,21 -24,-6 c -13,-3 -37,2 -52,10 -36,18 -110,18 -135,-1 z"
         id="path66"
         style="fill:#000000;fill-opacity:1" /><path
         d="m 3387,1143 c -4,-3 -7,-24 -7,-45 0,-50 -43,-98 -87,-98 -46,0 -118,41 -116,66 2,17 -8,24 -49,37 -29,9 -53,15 -54,14 -2,-1 12,-26 30,-56 26,-42 34,-49 40,-36 6,17 8,16 29,-3 40,-38 135,-75 175,-69 43,7 91,55 93,92 5,89 1,105 -24,105 -13,0 -27,-3 -30,-7 z"
         id="path73"
         style="fill:#000000;fill-opacity:1" /></g></g></svg>
