<?xml version="1.0" encoding="UTF-8" standalone="no"?>
<!-- Created with Inkscape (http://www.inkscape.org/) -->

<svg
   width="44.351894mm"
   height="36.577267mm"
   viewBox="0 0 44.351894 36.577267"
   version="1.1"
   id="svg1"
   xml:space="preserve"
   xmlns:inkscape="http://www.inkscape.org/namespaces/inkscape"
   xmlns:sodipodi="http://sodipodi.sourceforge.net/DTD/sodipodi-0.dtd"
   xmlns="http://www.w3.org/2000/svg"
   xmlns:svg="http://www.w3.org/2000/svg"><sodipodi:namedview
     id="namedview1"
     pagecolor="#ffffff"
     bordercolor="#000000"
     borderopacity="0.25"
     inkscape:showpageshadow="2"
     inkscape:pageopacity="0.0"
     inkscape:pagecheckerboard="0"
     inkscape:deskcolor="#d1d1d1"
     inkscape:document-units="mm"><inkscape:page
       x="0"
       y="0"
       width="44.351894"
       height="36.577267"
       id="page2"
       margin="0"
       bleed="0" /></sodipodi:namedview><defs
     id="defs1" /><g
     inkscape:label="Layer 1"
     inkscape:groupmode="layer"
     id="layer1"
     transform="translate(-79.414821,-102.429)"><g
       transform="matrix(0.03527778,0,0,-0.03527778,-17.642954,235.81428)"
       fill="#000000"
       stroke="none"
       id="g73"
       style="fill:#000000;fill-opacity:1"><path
         d="m 3277,3732 c -47,-47 -48,-47 -112,-45 l -64,1 31,-39 c 17,-21 29,-41 26,-44 -3,-4 -36,1 -74,10 -50,12 -70,13 -73,4 -2,-6 -14,1 -26,17 l -23,29 -44,-22 c -39,-20 -41,-22 -16,-22 15,-1 29,-5 33,-10 9,-16 -62,-33 -123,-29 -53,3 -57,1 -60,-19 -3,-22 0,-23 65,-22 37,1 82,-5 98,-12 l 30,-12 -35,-6 -34,-6 26,-17 c 38,-25 63,-22 87,10 15,19 20,22 21,11 0,-15 5,-16 60,-2 34,9 63,13 66,10 3,-3 -7,-28 -22,-55 l -28,-49 40,-49 c 24,-29 32,-45 22,-41 -12,4 -18,2 -18,-8 0,-8 -9,-15 -20,-15 -18,0 -19,-2 -8,-20 10,-15 10,-24 1,-38 -10,-17 -8,-18 13,-14 30,5 30,1 -1,-48 -27,-42 -26,-46 6,-30 17,9 21,7 32,-19 10,-24 16,-28 25,-19 9,9 12,6 12,-13 0,-51 72,-131 86,-94 10,25 24,17 24,-14 0,-16 7,-34 16,-42 13,-11 19,-8 38,16 l 23,29 26,-29 c 21,-25 27,-28 41,-16 9,7 16,26 16,42 0,16 5,29 10,29 6,0 10,-7 10,-15 0,-8 4,-15 8,-15 17,0 63,59 73,93 6,24 14,34 23,31 8,-3 16,4 19,17 5,17 11,21 31,17 l 26,-5 -24,43 -25,44 h 25 c 21,0 23,3 14,19 -14,26 -13,28 13,36 21,7 20,8 -7,12 -16,3 -35,11 -43,19 -13,12 -10,20 21,55 l 35,41 -31,54 c -27,50 -28,54 -11,54 11,0 41,-6 66,-14 40,-12 47,-12 47,0 0,22 16,16 28,-11 13,-27 37,-32 77,-13 32,14 32,28 0,28 -41,0 -28,18 20,28 27,6 61,6 83,1 42,-9 69,8 58,36 -5,14 -15,15 -60,10 -54,-7 -126,7 -126,25 0,5 12,10 28,12 27,4 27,4 -12,23 l -38,20 -25,-29 c -15,-18 -27,-25 -32,-18 -4,7 -25,7 -71,-3 -35,-7 -68,-11 -73,-8 -5,3 8,23 30,45 l 38,40 -56,-7 c -66,-8 -100,5 -148,60 l -32,36 -18,-23 c -19,-22 -19,-23 11,-61 29,-36 29,-38 14,-62 -12,-19 -25,-25 -52,-25 -19,0 -33,4 -30,9 3,5 -8,14 -24,21 -17,7 -30,15 -30,17 0,3 14,21 30,40 24,27 28,38 20,53 -17,32 -25,30 -73,-18 z m -2,-98 c 8,-44 5,-48 -28,-33 -26,12 -26,12 -10,40 23,38 29,36 38,-7 z m 242,10 c 16,-25 16,-27 -2,-40 -31,-23 -46,-18 -39,14 13,62 16,64 41,26 z m -213,-171 c -18,-59 -18,-56 12,-92 44,-52 116,-38 144,28 11,27 10,36 -8,71 -11,22 -18,40 -16,40 2,0 18,-9 36,-20 23,-14 35,-16 45,-8 13,10 25,5 78,-37 19,-15 18,-16 -15,-45 -38,-32 -50,-36 -66,-20 -7,7 -23,-1 -48,-24 -31,-29 -37,-41 -34,-68 2,-27 -1,-34 -18,-36 -11,-2 -28,-15 -37,-30 -9,-15 -33,-47 -54,-70 l -38,-44 -29,23 c -31,25 -65,91 -66,127 0,20 4,23 27,20 23,-2 31,-12 48,-55 11,-29 24,-53 30,-53 11,1 75,56 75,65 0,3 -13,11 -29,16 -26,9 -29,14 -21,34 8,21 3,30 -29,64 -33,35 -41,38 -51,26 -11,-13 -18,-11 -51,16 -22,17 -39,34 -39,39 0,4 16,20 35,35 29,21 39,24 50,15 11,-9 20,-8 41,9 39,31 44,26 28,-26 z m 119,-1 c 37,-32 6,-94 -48,-94 -39,0 -56,20 -53,61 5,56 54,73 101,33 z m 137,-212 c 0,-38 -34,-106 -59,-120 -34,-18 -50,-11 -81,32 -39,54 -38,65 3,34 19,-15 36,-26 39,-26 4,0 16,25 29,55 18,44 27,55 46,55 19,0 23,-5 23,-30 z m -163,-92 c 7,-13 5,-56 -4,-71 -7,-12 -43,12 -43,29 0,20 18,54 30,54 5,0 12,-6 17,-12 z"
         id="path45"
         style="fill:#000000;fill-opacity:1" /><path
         d="m 2924,3425 c -3,-8 -4,-63 -2,-122 3,-106 4,-109 39,-158 43,-58 69,-128 70,-188 0,-23 4,-51 9,-62 5,-12 9,87 9,243 1,164 -3,271 -9,283 -8,15 -22,19 -61,19 -34,0 -51,-5 -55,-15 z"
         id="path49"
         style="fill:#000000;fill-opacity:1" /><path
         d="m 3711,3158 c 1,-194 4,-262 9,-216 13,105 18,121 66,193 l 44,68 v 118 119 h -60 -60 z"
         id="path50"
         style="fill:#000000;fill-opacity:1" /><path
         d="m 3352,2929 c -11,-16 -10,-36 4,-111 19,-101 25,-100 44,13 9,58 10,81 1,97 -15,28 -32,28 -49,1 z"
         id="path60"
         style="fill:#000000;fill-opacity:1" /></g></g></svg>
