<?xml version="1.0" encoding="UTF-8" standalone="no"?>
<!-- Created with Inkscape (http://www.inkscape.org/) -->

<svg
   width="34.008179mm"
   height="41.223274mm"
   viewBox="0 0 34.008179 41.223274"
   version="1.1"
   id="svg1"
   xml:space="preserve"
   xmlns:inkscape="http://www.inkscape.org/namespaces/inkscape"
   xmlns:sodipodi="http://sodipodi.sourceforge.net/DTD/sodipodi-0.dtd"
   xmlns="http://www.w3.org/2000/svg"
   xmlns:svg="http://www.w3.org/2000/svg"><sodipodi:namedview
     id="namedview1"
     pagecolor="#ffffff"
     bordercolor="#000000"
     borderopacity="0.25"
     inkscape:showpageshadow="2"
     inkscape:pageopacity="0.0"
     inkscape:pagecheckerboard="0"
     inkscape:deskcolor="#d1d1d1"
     inkscape:document-units="mm"><inkscape:page
       x="0"
       y="0"
       width="34.008179"
       height="41.223274"
       id="page2"
       margin="0"
       bleed="0" /></sodipodi:namedview><defs
     id="defs1" /><g
     inkscape:label="Layer 1"
     inkscape:groupmode="layer"
     id="layer1"
     transform="translate(-154.72388,-98.98823)"><g
       transform="matrix(0.03527778,0,0,-0.03527778,-17.642954,235.81428)"
       fill="#000000"
       stroke="none"
       id="g73"
       style="fill:#000000;fill-opacity:1"><path
         d="m 5350,3811 v -71 h -35 c -24,0 -37,-6 -45,-19 -15,-28 -12,-35 6,-20 14,11 18,10 30,-6 13,-18 12,-21 -9,-28 l -24,-8 26,-52 c 23,-45 26,-67 29,-170 l 4,-117 -69,25 c -77,29 -113,50 -113,67 0,12 40,7 113,-16 l 47,-15 v 24 c 0,15 -7,26 -20,30 -10,3 -50,43 -87,87 l -68,82 -6,-35 c -3,-19 -13,-48 -22,-66 -24,-46 -22,-114 5,-148 12,-15 54,-43 92,-61 l 71,-32 v -45 c 0,-30 7,-53 19,-66 18,-19 17,-21 -18,-56 -29,-29 -36,-43 -36,-75 0,-33 6,-44 41,-73 35,-30 39,-38 30,-55 -6,-12 -11,-40 -11,-64 0,-24 -5,-49 -10,-54 -14,-14 50,-64 82,-64 13,0 39,13 58,29 29,24 32,30 19,36 -13,5 -16,15 -12,44 3,24 -1,49 -11,69 -16,31 -16,32 13,47 70,36 80,99 25,156 -35,36 -36,37 -19,62 11,17 16,41 14,68 -3,40 -2,43 31,54 21,8 42,9 52,4 11,-6 31,-2 60,11 99,45 103,13 12,-90 -101,-115 -118,-163 -88,-256 19,-61 36,-73 23,-16 -17,78 9,116 122,172 131,66 178,133 179,251 0,85 -22,147 -72,204 -43,49 -91,78 -148,90 l -35,7 32,-33 c 91,-98 106,-164 53,-237 -29,-40 -104,-92 -131,-92 -8,1 2,9 21,19 77,41 98,103 61,186 -11,26 -21,64 -21,84 l -1,36 -41,-50 c -23,-27 -64,-71 -90,-98 -26,-26 -48,-56 -48,-66 0,-18 3,-18 76,5 l 75,23 -3,-22 c -2,-16 -22,-28 -83,-53 l -80,-32 -3,111 c -3,105 -1,115 26,169 l 29,58 -23,6 c -20,5 -22,9 -13,25 8,15 14,17 29,9 11,-6 20,-7 20,-2 0,19 -27,41 -55,44 -29,3 -30,4 -35,68 -4,51 -9,66 -22,68 -16,3 -18,-5 -18,-67 z m 41,-157 c 17,-15 17,-18 2,-50 -9,-19 -19,-34 -22,-34 -3,0 -14,14 -24,31 -17,30 -17,33 -1,50 21,23 23,23 45,3 z m -61,-641 c 0,-45 0,-46 -20,-28 -11,10 -20,23 -20,28 0,10 29,47 37,47 1,0 3,-21 3,-47 z m 110,18 c 7,-15 5,-25 -10,-43 l -19,-23 -1,43 c 0,45 13,55 30,23 z m -27,-198 c 7,-34 -1,-41 -21,-21 -9,9 -12,5 -12,-20 0,-41 -16,-41 -25,-1 -5,23 -10,28 -16,18 -13,-22 -19,-6 -12,34 5,36 26,50 37,25 3,-9 8,-7 17,6 14,22 22,11 32,-41 z"
         id="path44"
         style="fill:#000000;fill-opacity:1" /><path
         d="m 5061,3628 c -113,-43 -176,-145 -175,-283 1,-118 65,-202 186,-247 37,-13 70,-34 89,-56 29,-32 31,-40 27,-94 -2,-32 -3,-58 -1,-58 11,0 33,76 33,115 0,65 -20,104 -100,197 -38,44 -70,87 -70,94 0,21 33,17 95,-10 67,-30 73,-19 8,17 -93,50 -138,122 -122,194 7,35 14,47 67,112 38,47 37,48 -37,19 z"
         id="path46"
         style="fill:#000000;fill-opacity:1" /></g></g></svg>
