<?xml version="1.0" encoding="UTF-8" standalone="no"?>
<!-- Created with Inkscape (http://www.inkscape.org/) -->

<svg
   width="42.621193mm"
   height="39.056343mm"
   viewBox="0 0 42.621193 39.056343"
   version="1.1"
   id="svg1"
   xml:space="preserve"
   xmlns:inkscape="http://www.inkscape.org/namespaces/inkscape"
   xmlns:sodipodi="http://sodipodi.sourceforge.net/DTD/sodipodi-0.dtd"
   xmlns="http://www.w3.org/2000/svg"
   xmlns:svg="http://www.w3.org/2000/svg"><sodipodi:namedview
     id="namedview1"
     pagecolor="#ffffff"
     bordercolor="#000000"
     borderopacity="0.25"
     inkscape:showpageshadow="2"
     inkscape:pageopacity="0.0"
     inkscape:pagecheckerboard="0"
     inkscape:deskcolor="#d1d1d1"
     inkscape:document-units="mm"><inkscape:page
       x="0"
       y="1.2277593e-14"
       width="42.621193"
       height="39.056339"
       id="page2"
       margin="0"
       bleed="0" /></sodipodi:namedview><defs
     id="defs1" /><g
     inkscape:label="Layer 1"
     inkscape:groupmode="layer"
     id="layer1"
     transform="translate(-13.048714,-161.48017)"><g
       transform="matrix(0.03527778,0,0,-0.03527778,-17.642954,235.81428)"
       fill="#000000"
       stroke="none"
       id="g73"
       style="fill:#000000;fill-opacity:1"><path
         d="m 1145,2093 c -52,-27 -115,-84 -115,-102 0,-10 -31,-90 -70,-177 -38,-87 -70,-163 -70,-169 1,-5 13,5 29,23 15,17 30,32 33,32 3,0 -14,-48 -38,-106 -24,-58 -44,-111 -44,-116 0,-5 12,0 26,11 15,12 33,21 42,21 8,0 26,11 41,25 44,43 124,110 160,135 27,18 35,20 41,9 5,-7 11,-11 13,-9 18,21 87,152 87,166 0,9 -22,41 -50,70 -53,56 -59,77 -34,125 18,36 15,73 -6,76 -8,1 -28,-5 -45,-14 z"
         id="path63"
         style="fill:#000000;fill-opacity:1" /><path
         d="m 1736,2074 c 4,-16 11,-39 15,-52 17,-46 10,-69 -36,-113 -70,-66 -70,-75 3,-189 27,-43 36,-51 41,-38 5,14 34,-4 161,-101 85,-66 156,-118 158,-116 2,1 -15,48 -38,104 -22,56 -40,104 -40,107 0,3 14,-5 31,-17 28,-20 30,-20 21,-3 -37,71 -127,277 -137,314 -16,59 -85,119 -145,127 l -41,6 z"
         id="path64"
         style="fill:#000000;fill-opacity:1" /><path
         d="m 1440,1952 -23,-19 23,-31 c 13,-18 27,-32 31,-32 4,0 18,14 30,31 l 22,32 -22,18 c -29,23 -33,23 -61,1 z"
         id="path67"
         style="fill:#000000;fill-opacity:1" /><path
         d="m 1345,1868 c -52,-59 -87,-122 -105,-186 -11,-42 -10,-44 21,-73 20,-18 29,-35 25,-45 -3,-9 -6,-25 -6,-36 0,-17 -4,-19 -31,-13 -29,7 -30,6 -19,-15 23,-42 91,-109 161,-156 l 69,-48 -20,-21 c -25,-27 -25,-33 3,-63 l 22,-24 -24,4 c -13,1 -26,-3 -28,-10 -3,-7 1,-10 10,-6 8,3 18,0 22,-6 11,-17 -4,-60 -20,-60 -9,0 -12,6 -9,15 4,10 0,15 -15,15 -36,0 -27,-38 12,-48 27,-7 33,-14 41,-50 5,-23 12,-42 16,-42 4,0 11,19 16,42 8,37 13,44 39,48 21,4 31,12 33,28 4,29 -24,30 -34,0 -6,-21 -7,-21 -20,-3 -21,28 -17,56 7,62 l 22,6 -23,17 -23,18 22,12 23,12 -24,25 -23,25 22,16 c 12,10 50,39 85,66 53,41 128,121 128,137 0,3 -12,5 -27,4 -19,0 -28,7 -35,26 -13,39 5,79 37,79 30,0 30,2 5,75 -25,71 -66,137 -118,188 -58,57 -62,28 -6,-40 50,-61 94,-145 94,-178 0,-11 -9,-33 -20,-50 -24,-36 -25,-75 -5,-114 14,-28 14,-29 -38,-78 -29,-27 -69,-59 -90,-72 -38,-23 -39,-23 -78,-6 -21,10 -65,41 -96,70 -56,50 -56,51 -45,84 18,51 14,95 -9,125 -20,25 -21,31 -9,69 14,49 66,132 104,166 25,24 36,61 17,61 -5,0 -30,-24 -56,-52 z"
         id="path68"
         style="fill:#000000;fill-opacity:1" /><path
         d="m 1380,1824 c -23,-25 -53,-70 -67,-100 l -25,-54 21,-34 c 23,-37 28,-101 9,-141 -10,-23 -8,-28 28,-60 42,-37 74,-44 94,-20 17,21 44,19 65,-5 10,-11 22,-20 28,-20 5,0 31,18 58,41 48,40 49,41 34,69 -21,40 -19,82 6,133 l 22,44 -26,52 c -30,59 -82,127 -105,136 -8,3 -24,-2 -34,-12 -19,-17 -20,-17 -29,0 -16,27 -33,20 -79,-29 z m 120,-49 c 9,-11 9,-26 1,-66 -6,-29 -10,-54 -8,-56 2,-2 23,3 46,12 41,14 42,14 53,-10 8,-19 8,-31 0,-50 -11,-24 -12,-24 -53,-10 -23,9 -44,13 -46,11 -3,-2 1,-30 8,-61 11,-48 10,-58 -2,-66 -19,-12 -32,-11 -52,4 -16,11 -16,18 -6,65 7,28 10,54 7,58 -3,3 -23,-2 -43,-10 -47,-20 -44,-21 -55,9 -6,17 -6,33 1,49 11,24 13,24 52,10 22,-8 42,-12 45,-9 3,2 0,28 -6,57 -9,45 -8,55 6,66 21,16 37,15 52,-3 z"
         id="path69"
         style="fill:#000000;fill-opacity:1" /><path
         d="m 1657,1373 c -27,-25 -47,-47 -45,-48 2,-2 32,-5 68,-7 54,-2 65,0 68,14 2,9 -5,19 -17,23 -13,4 -21,16 -23,35 l -3,29 z"
         id="path70"
         style="fill:#000000;fill-opacity:1" /><path
         d="m 1240,1386 c 0,-19 -7,-27 -25,-32 -29,-7 -31,-16 -10,-34 15,-13 109,-10 122,4 7,7 -42,63 -69,77 -15,8 -18,5 -18,-15 z"
         id="path71"
         style="fill:#000000;fill-opacity:1" /><path
         d="m 1447,1392 c -13,-14 -14,-21 -5,-30 29,-29 83,3 58,33 -17,20 -33,19 -53,-3 z"
         id="path72"
         style="fill:#000000;fill-opacity:1" /></g></g></svg>
