<?xml version="1.0" encoding="UTF-8" standalone="no"?>
<!-- Created with Inkscape (http://www.inkscape.org/) -->

<svg
   width="28.228153mm"
   height="42.61932mm"
   viewBox="0 0 28.228153 42.61932"
   version="1.1"
   id="svg1"
   xml:space="preserve"
   xmlns:inkscape="http://www.inkscape.org/namespaces/inkscape"
   xmlns:sodipodi="http://sodipodi.sourceforge.net/DTD/sodipodi-0.dtd"
   xmlns="http://www.w3.org/2000/svg"
   xmlns:svg="http://www.w3.org/2000/svg"><sodipodi:namedview
     id="namedview1"
     pagecolor="#ffffff"
     bordercolor="#000000"
     borderopacity="0.25"
     inkscape:showpageshadow="2"
     inkscape:pageopacity="0.0"
     inkscape:pagecheckerboard="0"
     inkscape:deskcolor="#d1d1d1"
     inkscape:document-units="mm"><inkscape:page
       x="0"
       y="-1.0995457e-12"
       width="28.228153"
       height="42.619316"
       id="page2"
       margin="0"
       bleed="0" /></sodipodi:namedview><defs
     id="defs1" /><g
     inkscape:label="Layer 1"
     inkscape:groupmode="layer"
     id="layer1"
     transform="translate(-157.15844,-156.96845)"><g
       transform="matrix(0.03527778,0,0,-0.03527778,-17.642954,235.81428)"
       fill="#000000"
       stroke="none"
       id="g73"
       style="fill:#000000;fill-opacity:1"><path
         d="m 5372,2207 c -7,-16 -12,-34 -12,-42 0,-9 -14,-15 -37,-17 -36,-3 -38,-4 -36,-38 1,-19 5,-49 8,-67 7,-30 5,-32 -34,-44 -35,-10 -40,-16 -35,-33 3,-12 8,-29 10,-38 7,-23 17,-23 39,2 26,29 37,25 33,-12 -2,-25 -8,-34 -25,-36 -13,-2 -23,-7 -23,-12 0,-5 -3,-16 -7,-25 -5,-15 -3,-16 15,-6 28,15 42,14 42,-4 0,-37 -93,-46 -170,-17 -36,14 -50,27 -72,67 -16,29 -28,42 -28,31 0,-15 -3,-16 -15,-6 -21,18 -53,-12 -51,-47 1,-20 20,-38 86,-86 47,-33 87,-62 89,-64 2,-1 -4,-12 -14,-23 -10,-11 -14,-20 -9,-20 5,-1 -2,-10 -15,-20 -26,-22 -82,-26 -128,-10 l -28,10 25,-20 25,-20 h -22 c -14,0 -23,-6 -23,-16 0,-11 5,-14 16,-10 13,5 15,1 10,-19 -6,-23 -5,-25 13,-16 26,15 31,14 31,-4 0,-13 9,-11 44,10 24,14 66,28 93,32 l 50,5 11,-43 c 16,-60 20,-65 77,-89 28,-12 58,-29 68,-38 18,-16 18,-17 0,-23 -10,-4 -50,-8 -89,-8 -57,-1 -74,-5 -89,-21 -17,-19 -17,-30 1,-117 9,-45 -22,-73 -79,-73 -68,0 -86,-35 -47,-90 l 21,-29 43,19 c 126,54 200,120 183,164 -5,11 11,19 65,31 l 71,16 37,-36 c 19,-19 44,-35 53,-35 34,0 21,-56 -24,-105 -28,-30 -40,-51 -37,-67 3,-21 7,-23 53,-20 69,3 85,22 107,129 23,113 23,108 -12,140 -25,22 -30,34 -30,74 0,45 2,50 43,78 142,97 149,185 22,275 -62,45 -95,83 -95,110 0,10 29,24 90,42 50,15 90,30 90,34 0,11 -77,40 -106,40 -16,0 -39,-13 -60,-34 -27,-27 -34,-42 -34,-73 0,-49 16,-71 90,-128 87,-67 107,-114 75,-175 -16,-31 -89,-80 -119,-80 -26,0 -102,48 -131,82 -38,45 -35,104 10,176 32,52 34,62 31,123 -1,36 -6,71 -10,78 -4,6 -2,18 4,26 10,12 9,15 -5,15 -17,0 -17,1 -2,18 18,20 22,33 10,31 -32,-5 -50,39 -31,74 5,11 7,29 4,42 -5,19 -14,24 -44,27 -35,3 -37,5 -43,43 l -5,40 z"
         id="path61"
         style="fill:#000000;fill-opacity:1" /></g></g></svg>
