<?xml version="1.0" encoding="UTF-8" standalone="no"?>
<!-- Created with Inkscape (http://www.inkscape.org/) -->

<svg
   width="43.867142mm"
   height="38.738445mm"
   viewBox="0 0 43.867142 38.738445"
   version="1.1"
   id="svg1"
   xml:space="preserve"
   xmlns:inkscape="http://www.inkscape.org/namespaces/inkscape"
   xmlns:sodipodi="http://sodipodi.sourceforge.net/DTD/sodipodi-0.dtd"
   xmlns="http://www.w3.org/2000/svg"
   xmlns:svg="http://www.w3.org/2000/svg"><sodipodi:namedview
     id="namedview1"
     pagecolor="#ffffff"
     bordercolor="#000000"
     borderopacity="0.25"
     inkscape:showpageshadow="2"
     inkscape:pageopacity="0.0"
     inkscape:pagecheckerboard="0"
     inkscape:deskcolor="#d1d1d1"
     inkscape:document-units="mm"><inkscape:page
       x="0"
       y="0"
       width="43.867142"
       height="38.738445"
       id="page2"
       margin="0"
       bleed="0" /></sodipodi:namedview><defs
     id="defs1" /><g
     inkscape:label="Layer 1"
     inkscape:groupmode="layer"
     id="layer1"
     transform="translate(-12.761609,-36.142049)"><g
       transform="matrix(0.03527778,0,0,-0.03527778,-17.642954,235.81428)"
       fill="#000000"
       stroke="none"
       id="g73"
       style="fill:#000000;fill-opacity:1"><path
         d="m 1448,5649 c -20,-11 -25,-69 -7,-69 6,0 8,-8 5,-18 -4,-12 1,-26 14,-37 20,-18 21,-18 42,3 22,21 22,21 2,43 -19,22 -19,22 4,15 17,-6 22,-3 22,11 0,26 -28,63 -48,63 -9,0 -25,-5 -34,-11 z"
         id="path5"
         style="fill:#000000;fill-opacity:1" /><path
         d="m 864,5535 c -3,-20 -3,-55 1,-78 4,-23 7,-68 6,-100 -2,-55 0,-59 45,-107 26,-28 42,-50 37,-50 -6,0 -16,7 -23,16 -8,8 -21,19 -31,24 -16,9 -16,7 -7,-26 29,-107 69,-158 134,-170 48,-9 42,-23 -7,-17 -40,6 -41,5 -29,-16 32,-61 135,-78 185,-31 30,28 24,40 -18,41 -33,1 -30,3 16,13 30,7 37,25 10,27 -12,1 -9,4 7,8 22,7 18,9 -29,19 -53,12 -125,41 -118,48 2,2 35,-5 73,-16 83,-24 107,-26 81,-5 -18,13 -18,14 4,17 24,3 39,28 17,28 -34,0 -137,61 -179,106 -56,61 -88,115 -130,219 -17,44 -33,82 -35,84 -1,1 -6,-13 -10,-34 z"
         id="path9"
         style="fill:#000000;fill-opacity:1"
         inkscape:export-filename="undead.svg"
         inkscape:export-xdpi="96"
         inkscape:export-ydpi="96" /><path
         d="m 2031,5434 c -35,-68 -81,-143 -101,-167 -40,-45 -114,-90 -167,-102 -39,-8 -35,-35 6,-35 l 26,-1 -25,-14 -25,-14 h 35 c 19,0 60,8 90,19 30,10 56,17 58,15 8,-8 -58,-35 -99,-41 -62,-9 -83,-23 -39,-25 l 35,-1 -30,-8 c -27,-6 -28,-8 -10,-16 37,-17 147,-9 190,13 42,22 72,63 61,81 -4,6 7,32 24,58 16,26 28,50 25,52 -2,2 -23,-10 -47,-29 l -43,-33 42,45 c 49,52 65,88 56,129 -3,17 0,56 6,88 7,32 8,69 4,84 -7,25 -13,16 -72,-98 z"
         id="path10"
         style="fill:#000000;fill-opacity:1" /><path
         d="m 1442,5473 c -5,-10 -12,-30 -16,-45 -6,-26 -14,-32 -33,-25 -5,1 -8,15 -8,31 0,42 -16,40 -52,-6 -39,-48 -41,-77 -9,-107 20,-19 28,-21 46,-11 11,6 26,10 32,8 17,-6 -20,-38 -43,-38 -16,0 -19,-5 -14,-20 4,-13 -3,-36 -19,-64 -23,-39 -24,-45 -10,-57 10,-8 13,-21 9,-41 -4,-18 -2,-35 6,-44 11,-13 10,-17 -1,-24 -53,-30 -53,-32 -18,-85 30,-45 33,-57 34,-127 0,-72 2,-78 28,-99 15,-12 42,-51 59,-87 18,-36 37,-68 44,-70 7,-2 28,27 47,66 19,38 49,81 66,96 27,22 30,29 20,41 -22,26 -7,111 29,161 38,54 39,67 4,94 -23,18 -25,24 -15,41 9,14 10,25 2,39 -8,16 -7,22 9,32 19,12 19,13 -6,61 -13,27 -22,58 -20,68 4,15 0,19 -18,19 -26,0 -52,25 -36,35 6,3 20,1 32,-5 17,-10 25,-8 45,11 33,31 30,54 -13,111 l -38,50 -9,-46 c -5,-26 -14,-45 -20,-43 -6,2 -18,24 -27,48 -14,37 -21,44 -47,47 -22,2 -33,-2 -40,-15 z m -61,-93 c 10,0 39,-29 39,-40 0,-12 -76,-17 -87,-5 -24,26 -24,37 -2,61 23,25 24,25 33,5 5,-12 13,-21 17,-21 z m 124,9 c 18,-19 18,-22 3,-47 -9,-15 -22,-27 -28,-27 -6,0 -19,12 -28,27 -15,25 -15,28 3,47 10,12 21,21 25,21 4,0 15,-9 25,-21 z m 115,15 c 0,-3 -12,-15 -26,-27 -23,-18 -24,-21 -9,-29 9,-5 23,-7 31,-4 10,4 14,1 12,-6 -4,-12 -76,-13 -87,-2 -6,5 60,74 71,74 4,0 8,-3 8,-6 z m -220,-188 c -46,-60 -61,-66 -40,-16 12,30 68,85 77,76 3,-2 -14,-30 -37,-60 z m 171,27 c 23,-26 52,-84 45,-91 -3,-3 -8,-3 -9,-1 -28,33 -87,118 -87,123 0,10 33,-9 51,-31 z m -42,-66 c 22,-35 41,-74 41,-88 0,-13 7,-37 15,-53 23,-43 18,-78 -16,-124 -25,-34 -33,-57 -40,-118 -8,-69 -32,-134 -52,-134 -16,0 -47,86 -47,135 0,35 -8,62 -25,90 -60,98 -60,99 -36,138 11,19 21,50 21,69 0,26 11,51 42,92 23,31 45,56 49,56 3,0 25,-28 48,-63 z"
         id="path15"
         style="fill:#000000;fill-opacity:1" /><path
         d="m 1446,5168 c -13,-24 -27,-59 -31,-78 -4,-19 -17,-52 -28,-73 l -20,-38 22,-27 c 34,-42 61,-104 61,-142 0,-44 18,-110 30,-110 9,0 30,86 30,125 0,34 17,73 45,107 30,36 31,63 5,103 -11,17 -20,44 -20,61 0,26 -50,114 -65,114 -2,0 -15,-19 -29,-42 z"
         id="path17"
         style="fill:#000000;fill-opacity:1" /><path
         d="m 1865,5023 c -101,-5 -107,-9 -65,-44 52,-44 99,-40 153,11 l 42,39 -30,-1 c -16,-1 -61,-3 -100,-5 z"
         id="path33"
         style="fill:#000000;fill-opacity:1" /><path
         d="m 1155,4953 c -64,-33 -63,-32 -41,-49 30,-22 63,-17 98,15 28,25 30,31 19,45 -17,20 -16,20 -76,-11 z"
         id="path35"
         style="fill:#000000;fill-opacity:1" /><path
         d="m 1733,4963 c -8,-21 49,-73 80,-73 24,0 66,25 57,33 -11,10 -110,57 -120,57 -6,0 -13,-7 -17,-17 z"
         id="path36"
         style="fill:#000000;fill-opacity:1" /><path
         d="m 1217,4905 c -16,-14 -25,-30 -22,-35 10,-17 51,-11 70,10 15,16 15,22 5,35 -16,20 -20,19 -53,-10 z"
         id="path37"
         style="fill:#000000;fill-opacity:1" /><path
         d="m 1700,4920 c 0,-6 -13,-18 -30,-29 -31,-18 -30,-31 1,-31 13,0 16,5 12,16 -5,15 -3,15 20,-1 18,-12 36,-15 54,-10 l 28,7 -33,29 c -33,30 -52,37 -52,19 z"
         id="path38"
         style="fill:#000000;fill-opacity:1" /></g></g></svg>
