<?xml version="1.0" encoding="UTF-8" standalone="no"?>
<!-- Created with Inkscape (http://www.inkscape.org/) -->

<svg
   width="46.993755mm"
   height="36.674622mm"
   viewBox="0 0 46.993755 36.674622"
   version="1.1"
   id="svg1"
   xml:space="preserve"
   xmlns:inkscape="http://www.inkscape.org/namespaces/inkscape"
   xmlns:sodipodi="http://sodipodi.sourceforge.net/DTD/sodipodi-0.dtd"
   xmlns="http://www.w3.org/2000/svg"
   xmlns:svg="http://www.w3.org/2000/svg"><sodipodi:namedview
     id="namedview1"
     pagecolor="#ffffff"
     bordercolor="#000000"
     borderopacity="0.25"
     inkscape:showpageshadow="2"
     inkscape:pageopacity="0.0"
     inkscape:pagecheckerboard="0"
     inkscape:deskcolor="#d1d1d1"
     inkscape:document-units="mm"><inkscape:page
       x="0"
       y="2.2411079e-22"
       width="46.993755"
       height="36.674622"
       id="page2"
       margin="0"
       bleed="0" /></sodipodi:namedview><defs
     id="defs1" /><g
     inkscape:label="Layer 1"
     inkscape:groupmode="layer"
     id="layer1"
     transform="translate(-78.203211,-35.797566)"><g
       transform="matrix(0.03527778,0,0,-0.03527778,-17.642954,235.81428)"
       fill="#000000"
       stroke="none"
       id="g73"
       style="fill:#000000;fill-opacity:1"><path
         d="m 2860,5652 c 0,-31 42,-84 91,-114 40,-25 163,-58 173,-47 2,2 1,24 -3,49 l -6,45 -65,6 c -76,7 -90,12 -147,51 -39,26 -43,27 -43,10 z"
         id="path3"
         style="fill:#000000;fill-opacity:1" /><path
         d="m 3886,5662 c -5,-8 -36,-27 -70,-43 -45,-22 -76,-29 -118,-29 -57,0 -58,-1 -58,-27 0,-16 -3,-39 -7,-52 -6,-24 -5,-24 47,-17 94,13 175,59 206,117 16,32 16,77 0,51 z"
         id="path4"
         style="fill:#000000;fill-opacity:1" /><path
         d="m 3362,5635 c -2,-5 -7,-43 -11,-83 -10,-83 -36,-126 -104,-169 -23,-15 -44,-28 -46,-29 -2,-2 10,-22 27,-46 16,-24 33,-56 36,-73 6,-28 1,-25 -53,33 l -59,63 -21,-27 c -27,-34 -35,-66 -26,-101 7,-27 7,-27 16,-6 4,12 17,27 29,33 24,13 50,0 104,-49 l 28,-26 -7,25 c -7,22 -6,23 8,11 26,-21 37,-77 37,-186 0,-151 17,-150 25,1 8,127 4,157 -26,231 -11,27 -11,36 1,58 12,23 12,29 -4,56 l -18,30 37,32 36,32 -3,100 c -2,55 -5,96 -6,90 z m -61,-419 c 5,-6 9,-15 9,-20 -1,-6 -10,0 -20,13 -11,13 -20,37 -19,55 l 1,31 10,-35 c 5,-19 14,-39 19,-44 z"
         id="path6"
         style="fill:#000000;fill-opacity:1" /><path
         d="m 3390,5535 c 0,-86 0,-87 35,-122 30,-30 33,-38 24,-55 -6,-12 -8,-38 -5,-59 5,-29 1,-50 -14,-79 -21,-42 -25,-129 -11,-275 9,-94 19,-54 23,91 3,86 7,116 21,138 23,34 31,29 17,-10 -10,-26 -7,-24 26,14 20,24 47,47 58,52 23,8 54,-4 72,-28 16,-22 27,2 20,43 -10,51 -66,113 -66,72 0,-7 -21,-33 -46,-57 l -47,-45 7,30 c 4,17 20,49 36,72 28,41 28,41 7,47 -37,9 -98,67 -118,110 -10,23 -19,62 -19,88 0,26 -4,50 -10,53 -6,4 -10,-25 -10,-80 z m 110,-268 c 0,-16 -40,-81 -46,-75 -8,8 28,98 37,92 5,-3 9,-11 9,-17 z"
         id="path7"
         style="fill:#000000;fill-opacity:1" /><path
         d="m 3452,5502 c -10,-28 -8,-35 13,-60 l 24,-27 -6,40 c -3,22 -9,49 -13,59 -6,17 -8,15 -18,-12 z"
         id="path11"
         style="fill:#000000;fill-opacity:1" /><path
         d="m 3975,5512 c -22,-12 -55,-16 -120,-17 h -89 l -27,-40 c -32,-47 -26,-55 47,-55 100,0 212,54 227,110 6,24 1,24 -38,2 z"
         id="path12"
         style="fill:#000000;fill-opacity:1" /><path
         d="m 2756,5491 c 10,-17 40,-42 68,-58 43,-24 63,-28 128,-28 42,0 79,3 83,7 3,3 -5,25 -20,48 -25,40 -27,41 -68,35 -24,-4 -73,0 -115,9 -96,21 -96,21 -76,-13 z"
         id="path13"
         style="fill:#000000;fill-opacity:1" /><path
         d="m 3285,5489 c -3,-19 -9,-43 -11,-54 -4,-16 -1,-15 20,8 30,32 31,37 12,62 -13,18 -14,17 -21,-16 z"
         id="path14"
         style="fill:#000000;fill-opacity:1" /><path
         d="m 3621,5463 -103,-25 28,-19 c 56,-36 150,-15 179,40 8,17 12,31 8,30 -5,-1 -55,-12 -112,-26 z"
         id="path18"
         style="fill:#000000;fill-opacity:1" /><path
         d="m 3028,5464 c 20,-37 52,-57 99,-61 48,-5 103,9 103,25 0,13 -93,43 -155,49 -54,6 -57,5 -47,-13 z"
         id="path19"
         style="fill:#000000;fill-opacity:1" /><path
         d="m 2851,5372 c -35,-12 -56,-13 -92,-5 -44,8 -47,8 -38,-8 5,-10 21,-27 36,-39 24,-19 38,-21 105,-18 49,2 74,0 68,-6 -19,-19 -9,-26 34,-26 34,0 52,6 73,25 l 28,25 -55,-5 c -30,-3 -49,-2 -43,1 9,4 -1,18 -28,40 -22,19 -42,33 -42,33 -1,-1 -22,-8 -46,-17 z"
         id="path21"
         style="fill:#000000;fill-opacity:1" /><path
         d="m 2948,5370 c 13,-11 42,-25 63,-31 45,-14 102,-1 141,31 l 23,19 h -125 -125 z"
         id="path22"
         style="fill:#000000;fill-opacity:1" /><path
         d="m 3590,5381 c 0,-12 94,-51 125,-51 14,0 42,7 62,15 46,20 50,19 28,-5 -21,-23 -17,-25 58,-39 62,-11 124,3 160,36 34,33 35,45 1,33 -35,-14 -82,-12 -129,5 -28,10 -43,11 -52,3 -9,-7 -13,-7 -13,1 0,7 -38,11 -120,11 -66,0 -120,-4 -120,-9 z"
         id="path23"
         style="fill:#000000;fill-opacity:1" /><path
         d="m 3068,5303 c -20,-23 -50,-113 -37,-113 20,0 46,39 53,80 8,50 5,56 -16,33 z"
         id="path25"
         style="fill:#000000;fill-opacity:1" /><path
         d="m 3733,5295 c 29,-25 79,-33 105,-16 9,5 -8,14 -52,25 -84,21 -86,20 -53,-9 z"
         id="path26"
         style="fill:#000000;fill-opacity:1" /><path
         d="m 3675,5293 c 3,-10 9,-31 12,-48 7,-36 21,-55 40,-55 10,0 12,6 8,23 -6,19 -3,18 27,-10 40,-38 83,-43 119,-14 13,11 22,21 19,23 -13,11 -162,48 -170,43 -5,-3 -16,8 -25,25 -16,32 -42,43 -30,13 z"
         id="path27"
         style="fill:#000000;fill-opacity:1" /><path
         d="m 2935,5237 c -38,-11 -72,-22 -75,-25 -13,-11 46,-42 80,-42 40,0 62,17 79,63 13,33 12,33 -84,4 z"
         id="path29"
         style="fill:#000000;fill-opacity:1" /><path
         d="m 3190,5018 c 0,-142 -2,-167 -16,-172 -25,-10 -43,-7 -80,10 -43,21 -74,71 -74,121 0,45 8,57 26,42 9,-7 14,-4 20,13 8,28 22,38 41,31 11,-5 11,-9 -3,-24 -33,-37 8,-73 51,-45 32,21 32,59 0,91 -35,35 -85,34 -127,-4 -29,-26 -33,-36 -33,-78 0,-73 30,-123 92,-153 42,-21 52,-31 57,-57 4,-19 13,-33 21,-33 20,0 19,19 0,27 -14,5 -14,8 1,24 9,10 20,17 24,14 4,-2 6,-45 5,-96 -2,-53 1,-85 6,-77 5,7 9,20 9,29 0,16 57,48 88,50 10,0 4,6 -15,14 l -31,14 19,38 c 16,32 19,55 16,159 -3,129 -9,145 -71,203 l -26,24 z"
         id="path31"
         style="fill:#000000;fill-opacity:1" /><path
         d="m 3522,5135 -39,-44 -7,-113 c -6,-109 -1,-151 23,-196 10,-19 8,-23 -21,-36 -26,-12 -29,-15 -12,-15 38,-2 78,-30 91,-63 10,-30 12,-23 12,65 1,94 7,111 29,84 9,-10 7,-19 -4,-35 -14,-20 -14,-22 0,-22 16,0 32,42 23,57 -3,5 17,17 44,26 103,37 145,176 72,243 -56,52 -153,16 -153,-56 0,-38 35,-59 69,-41 25,14 28,46 4,56 -17,6 -17,7 1,17 15,9 22,7 33,-8 7,-10 13,-23 13,-30 0,-7 8,-10 20,-7 18,5 20,0 20,-42 0,-81 -70,-145 -141,-130 -29,7 -29,7 -31,88 0,45 0,119 2,165 1,45 0,82 -3,82 -3,0 -23,-20 -45,-45 z"
         id="path32"
         style="fill:#000000;fill-opacity:1" /><path
         d="m 3341,4706 c -1,-37 -2,-38 -19,-23 -25,23 -39,21 -53,-4 -17,-33 7,-53 49,-38 36,12 51,47 34,82 -9,20 -11,18 -11,-17 z"
         id="path39"
         style="fill:#000000;fill-opacity:1" /><path
         d="m 3407,4713 c -8,-23 6,-61 27,-75 19,-13 56,-9 62,6 3,8 1,24 -5,35 -10,17 -16,19 -37,11 -34,-13 -32,-14 -36,18 -3,26 -4,26 -11,5 z"
         id="path40"
         style="fill:#000000;fill-opacity:1" /></g></g></svg>
